<svg width="32" height="32" viewBox="0 0 32 32" fill="none" xmlns="http://www.w3.org/2000/svg">
  <path d="M16.0004 4C15.2644 4 14.667 4.59733 14.667 5.33333V22.7604L9.516 17.6094C8.99467 17.088 8.15058 17.088 7.63058 17.6094L7.516 17.724C6.99467 18.2453 6.99467 19.0894 7.516 19.6094L15.0577 27.151C15.579 27.6724 16.4231 27.6724 16.9431 27.151L24.4847 19.6094C25.0061 19.088 25.0061 18.244 24.4847 17.724L24.3702 17.6094C23.8488 17.088 23.0047 17.088 22.4847 17.6094L17.3337 22.7604V5.33333C17.3337 4.59733 16.7364 4 16.0004 4Z" fill="white"/>
</svg>
