<svg width="33" height="32" viewBox="0 0 33 32" fill="none" xmlns="http://www.w3.org/2000/svg">
  <path d="M12.4996 9.33342C11.6449 9.33342 6.68493 9.33342 5.83293 9.33342C4.3596 9.33342 3.16627 10.5268 3.16627 12.0001C3.16627 13.4734 4.3596 14.6668 5.83293 14.6668C6.68493 14.6668 11.6449 14.6668 12.4996 14.6668C13.9729 14.6668 15.1663 13.4734 15.1663 12.0001C15.1663 10.5268 13.9729 9.33342 12.4996 9.33342ZM15.1663 5.47609V7.33342C15.1663 7.70142 14.8716 8.00009 14.5036 8.00009C13.8609 8.00009 12.9223 8.00009 12.4996 8.00009C11.0263 8.00009 9.83293 6.80676 9.83293 5.33342C9.83293 3.71342 11.2769 2.43209 12.9476 2.70276C14.2583 2.91609 15.1663 4.14809 15.1663 5.47609ZM9.83293 18.6668C9.83293 19.5214 9.83293 24.4814 9.83293 25.3334C9.83293 26.8068 11.0263 28.0001 12.4996 28.0001C13.9729 28.0001 15.1663 26.8068 15.1663 25.3334C15.1663 24.4814 15.1663 19.5214 15.1663 18.6668C15.1663 17.1934 13.9729 16.0001 12.4996 16.0001C11.0263 16.0001 9.83293 17.1934 9.83293 18.6668ZM5.9756 16.0001H7.83293C8.20093 16.0001 8.4996 16.2948 8.4996 16.6628C8.4996 17.3054 8.4996 18.2428 8.4996 18.6668C8.4996 20.1401 7.30627 21.3334 5.83293 21.3334C4.21293 21.3334 2.9316 19.8894 3.20227 18.2188C3.4156 16.9068 4.64627 16.0001 5.9756 16.0001ZM19.1663 21.3334C20.0209 21.3334 24.9809 21.3334 25.8329 21.3334C27.3063 21.3334 28.4996 20.1401 28.4996 18.6668C28.4996 17.1934 27.3063 16.0001 25.8329 16.0001C24.9809 16.0001 20.0209 16.0001 19.1663 16.0001C17.6929 16.0001 16.4996 17.1934 16.4996 18.6668C16.4996 20.1388 17.6929 21.3334 19.1663 21.3334ZM16.4996 25.1908V23.3334C16.4996 22.9654 16.7943 22.6668 17.1623 22.6668C17.8049 22.6668 18.7436 22.6668 19.1663 22.6668C20.6396 22.6668 21.8329 23.8601 21.8329 25.3334C21.8329 26.9534 20.3889 28.2348 18.7183 27.9641C17.4063 27.7494 16.4996 26.5188 16.4996 25.1908ZM21.8329 12.0001C21.8329 11.1454 21.8329 6.18542 21.8329 5.33342C21.8329 3.86009 20.6396 2.66676 19.1663 2.66676C17.6929 2.66676 16.4996 3.86009 16.4996 5.33342C16.4996 6.18542 16.4996 11.1454 16.4996 12.0001C16.4996 13.4734 17.6929 14.6668 19.1663 14.6668C20.6383 14.6668 21.8329 13.4721 21.8329 12.0001ZM25.6903 14.6668H23.8329C23.4649 14.6668 23.1663 14.3721 23.1663 14.0041C23.1663 13.3614 23.1663 12.4228 23.1663 12.0001C23.1663 10.5268 24.3596 9.33342 25.8329 9.33342C27.4529 9.33342 28.7343 10.7774 28.4636 12.4481C28.2489 13.7588 27.0183 14.6668 25.6903 14.6668Z" fill="white"/>
</svg>
