<svg width="180" height="180" viewBox="0 0 180 180" fill="none" xmlns="http://www.w3.org/2000/svg">
  <g clip-path="url(#condition)">
    <path d="M89.9941 59.2866C73.102 59.2866 59.2812 73.1074 59.2812 89.9994C59.2812 106.891 73.102 120.712 89.9941 120.712C106.886 120.712 120.707 106.891 120.707 89.9994C120.707 73.1074 106.886 59.2866 89.9941 59.2866ZM89.9941 109.544C79.2446 109.544 70.4495 100.749 70.4495 89.9994C70.4495 79.25 79.2446 70.4549 89.9941 70.4549C100.744 70.4549 109.539 79.25 109.539 89.9994C109.539 100.749 100.744 109.544 89.9941 109.544Z" fill="white"/>
    <path d="M89.9943 49.0963C93.0656 49.0963 95.5785 46.5835 95.5785 43.5122V32.2043C95.5785 29.133 93.0656 26.6201 89.9943 26.6201C86.923 26.6201 84.4102 29.133 84.4102 32.2043V43.5122C84.4102 46.7231 86.923 49.0963 89.9943 49.0963Z" fill="white"/>
    <path d="M147.79 84.4155H136.483C133.411 84.4155 130.898 86.9284 130.898 89.9997C130.898 93.071 133.411 95.5838 136.483 95.5838H147.79C150.862 95.5838 153.375 93.071 153.375 89.9997C153.375 86.9284 150.862 84.4155 147.79 84.4155Z" fill="white"/>
    <path d="M89.9943 130.904C86.923 130.904 84.4102 133.417 84.4102 136.488V147.796C84.4102 150.867 86.923 153.38 89.9943 153.38C93.0656 153.38 95.5785 150.867 95.5785 147.796V136.488C95.5785 133.277 93.0656 130.904 89.9943 130.904Z" fill="white"/>
    <path d="M49.0953 89.9997C49.0953 86.9284 46.5825 84.4155 43.5112 84.4155H32.2033C29.132 84.4155 26.6191 86.9284 26.6191 89.9997C26.6191 93.071 29.132 95.5838 32.2033 95.5838H43.5112C46.7221 95.5838 49.0953 93.071 49.0953 89.9997Z" fill="white"/>
    <path d="M122.81 62.777C124.206 62.777 125.602 62.2186 126.719 61.1017L134.816 53.0047C137.049 50.7711 137.049 47.281 134.816 45.0473C132.582 42.8137 129.092 42.8137 126.858 45.0473L118.761 53.1443C116.528 55.378 116.528 58.8681 118.761 61.1017C120.018 62.2186 121.414 62.777 122.81 62.777Z" fill="white"/>
    <path d="M126.719 118.897C124.485 116.664 120.995 116.664 118.761 118.897C116.528 121.131 116.528 124.621 118.761 126.855L126.858 134.952C127.975 136.069 129.371 136.627 130.767 136.627C132.163 136.627 133.559 136.069 134.676 134.952C136.91 132.718 136.91 129.228 134.676 126.994L126.719 118.897Z" fill="white"/>
    <path d="M53.284 118.897L45.187 126.994C42.9533 129.228 42.9533 132.718 45.187 134.952C46.3038 136.069 47.6998 136.627 49.0959 136.627C50.4919 136.627 51.8879 136.069 53.0048 134.952L61.1018 126.855C63.3354 124.621 63.3354 121.131 61.1018 118.897C59.0077 116.664 55.378 116.664 53.284 118.897Z" fill="white"/>
    <path d="M53.2849 61.1017C54.2621 62.2186 55.7978 62.777 57.1938 62.777C58.5899 62.777 59.9859 62.2186 61.1027 61.1017C63.3364 58.8681 63.3364 55.378 61.1027 53.1443L53.0057 45.0473C50.772 42.8137 47.282 42.8137 45.0483 45.0473C42.8146 47.281 42.8146 50.7711 45.0483 53.0047L53.2849 61.1017Z" fill="white"/>
  </g>
  <defs>
    <clipPath id="condition">
      <rect width="126.756" height="126.76" fill="white" transform="translate(26.6191 26.6201)"/>
    </clipPath>
  </defs>
</svg>
