<svg width="404" height="88" viewBox="0 0 404 88" fill="none" xmlns="http://www.w3.org/2000/svg">
  <path d="M39.479 25.0273C29.0438 25.0273 20.5059 33.5653 20.5059 44.0005C20.5059 54.4357 29.0438 62.9737 39.479 62.9737C49.9142 62.9737 58.4522 54.4357 58.4522 44.0005C58.4522 33.5653 49.9142 25.0273 39.479 25.0273ZM39.479 56.0743C32.8384 56.0743 27.4052 50.6411 27.4052 44.0005C27.4052 37.3599 32.8384 31.9267 39.479 31.9267C46.1196 31.9267 51.5528 37.3599 51.5528 44.0005C51.5528 50.6411 46.1196 56.0743 39.479 56.0743Z" fill="white"/>
  <path d="M39.479 18.7321C41.3763 18.7321 42.9286 17.1797 42.9286 15.2824V8.29683C42.9286 6.39952 41.3763 4.84717 39.479 4.84717C37.5816 4.84717 36.0293 6.39952 36.0293 8.29683V15.2824C36.0293 17.266 37.5816 18.7321 39.479 18.7321Z" fill="white"/>
  <path d="M75.1833 40.5508H68.1977C66.3004 40.5508 64.748 42.1031 64.748 44.0004C64.748 45.8978 66.3004 47.4501 68.1977 47.4501H75.1833C77.0806 47.4501 78.6329 45.8978 78.6329 44.0004C78.6329 42.1031 77.0806 40.5508 75.1833 40.5508Z" fill="white"/>
  <path d="M39.479 69.2695C37.5816 69.2695 36.0293 70.8219 36.0293 72.7192V79.7048C36.0293 81.6021 37.5816 83.1544 39.479 83.1544C41.3763 83.1544 42.9286 81.6021 42.9286 79.7048V72.7192C42.9286 70.7356 41.3763 69.2695 39.479 69.2695Z" fill="white"/>
  <path d="M14.213 44.0004C14.213 42.1031 12.6607 40.5508 10.7634 40.5508H3.77779C1.88047 40.5508 0.328125 42.1031 0.328125 44.0004C0.328125 45.8978 1.88047 47.4501 3.77779 47.4501H10.7634C12.7469 47.4501 14.213 45.8978 14.213 44.0004Z" fill="white"/>
  <path d="M59.7508 27.1834C60.6132 27.1834 61.4756 26.8384 62.1655 26.1485L67.1675 21.1465C68.5474 19.7666 68.5474 17.6106 67.1675 16.2307C65.7877 14.8508 63.6316 14.8508 62.2518 16.2307L57.2497 21.2327C55.8699 22.6126 55.8699 24.7686 57.2497 26.1485C58.0259 26.8384 58.8883 27.1834 59.7508 27.1834Z" fill="white"/>
  <path d="M62.1655 61.8523C60.7857 60.4724 58.6296 60.4724 57.2497 61.8523C55.8699 63.2321 55.8699 65.3882 57.2497 66.7681L62.2518 71.7701C62.9417 72.46 63.8041 72.805 64.6665 72.805C65.5289 72.805 66.3914 72.46 67.0813 71.7701C68.4612 70.3902 68.4612 68.2342 67.0813 66.8543L62.1655 61.8523Z" fill="white"/>
  <path d="M16.8006 61.8523L11.7986 66.8543C10.4187 68.2342 10.4187 70.3902 11.7986 71.7701C12.4885 72.46 13.3509 72.805 14.2133 72.805C15.0758 72.805 15.9382 72.46 16.6281 71.7701L21.6301 66.7681C23.01 65.3882 23.01 63.2321 21.6301 61.8523C20.3365 60.4724 18.0942 60.4724 16.8006 61.8523Z" fill="white"/>
  <path d="M16.8009 26.1485C17.4046 26.8384 18.3532 27.1834 19.2157 27.1834C20.0781 27.1834 20.9405 26.8384 21.6304 26.1485C23.0103 24.7686 23.0103 22.6126 21.6304 21.2327L16.6284 16.2307C15.2485 14.8508 13.0925 14.8508 11.7126 16.2307C10.3328 17.6106 10.3328 19.7666 11.7126 21.1465L16.8009 26.1485Z" fill="white"/>
  <path opacity="0.3" d="M392.861 67.5728C394.305 67.5728 395.61 67.8051 396.778 68.2697C397.959 68.7343 398.963 69.3935 399.792 70.2473C400.621 71.1012 401.261 72.1434 401.713 73.374C402.165 74.6045 402.391 75.9795 402.391 77.4989C402.391 79.0308 402.165 80.4121 401.713 81.6426C401.261 82.8732 400.621 83.9217 399.792 84.7881C398.963 85.6545 397.959 86.32 396.778 86.7846C395.61 87.2492 394.305 87.4815 392.861 87.4815C391.417 87.4815 390.104 87.2492 388.924 86.7846C387.744 86.32 386.733 85.6545 385.892 84.7881C385.063 83.9217 384.416 82.8732 383.952 81.6426C383.499 80.4121 383.273 79.0308 383.273 77.4989C383.273 75.9795 383.499 74.6045 383.952 73.374C384.416 72.1434 385.063 71.1012 385.892 70.2473C386.733 69.3935 387.744 68.7343 388.924 68.2697C390.104 67.8051 391.417 67.5728 392.861 67.5728ZM392.861 83.9028C394.468 83.9028 395.654 83.3629 396.42 82.283C397.199 81.2031 397.588 79.621 397.588 77.5366C397.588 75.4521 397.199 73.8637 396.42 72.7713C395.654 71.6788 394.468 71.1326 392.861 71.1326C391.228 71.1326 390.023 71.6851 389.244 72.7901C388.466 73.8825 388.076 75.4647 388.076 77.5366C388.076 79.6084 388.466 81.1906 389.244 82.283C390.023 83.3629 391.228 83.9028 392.861 83.9028Z" fill="#FF4E50"/>
  <path opacity="0.3" d="M337.523 67.874V87.1989H332.871V67.874H337.523Z" fill="#FF4E50"/>
  <path opacity="0.3" d="M282.868 87.1985C282.265 87.1985 281.87 86.916 281.681 86.3509L281.305 84.4863C280.903 84.9383 280.482 85.3464 280.043 85.7106C279.603 86.0747 279.126 86.3886 278.611 86.6523C278.109 86.916 277.563 87.1169 276.973 87.255C276.395 87.4057 275.767 87.4811 275.089 87.4811C274.034 87.4811 273.067 87.2613 272.188 86.8218C271.309 86.3823 270.55 85.7482 269.909 84.9195C269.281 84.0782 268.792 83.0422 268.44 81.8117C268.101 80.5811 267.932 79.1747 267.932 77.5926C267.932 76.1611 268.126 74.8301 268.516 73.5995C268.905 72.369 269.464 71.3016 270.192 70.3976C270.92 69.4935 271.793 68.7903 272.81 68.288C273.827 67.7732 274.97 67.5158 276.238 67.5158C277.318 67.5158 278.241 67.6916 279.007 68.0432C279.773 68.3822 280.457 68.8405 281.06 69.4181V59.2095H285.712V87.1985H282.868ZM276.671 83.7894C277.638 83.7894 278.46 83.5885 279.139 83.1866C279.817 82.7848 280.457 82.2135 281.06 81.4726V72.8085C280.532 72.1681 279.955 71.716 279.327 71.4523C278.712 71.1886 278.046 71.0568 277.33 71.0568C276.627 71.0568 275.987 71.1886 275.409 71.4523C274.844 71.716 274.361 72.1178 273.959 72.6578C273.57 73.1852 273.268 73.8632 273.055 74.692C272.841 75.5082 272.735 76.475 272.735 77.5926C272.735 78.7227 272.823 79.6833 272.998 80.4744C273.187 81.2529 273.45 81.8933 273.789 82.3956C274.128 82.8853 274.543 83.2431 275.032 83.4692C275.522 83.6826 276.068 83.7894 276.671 83.7894Z" fill="#FF4E50"/>
  <path opacity="0.3" d="M210.303 67.874V80.1546C210.303 81.3349 210.573 82.2515 211.113 82.9045C211.665 83.5449 212.488 83.8651 213.58 83.8651C214.384 83.8651 215.137 83.6893 215.84 83.3377C216.543 82.9735 217.209 82.4776 217.837 81.8497V67.874H222.489V87.1989H219.645C219.042 87.1989 218.647 86.9164 218.458 86.3513L218.138 84.8068C217.736 85.2087 217.322 85.5791 216.895 85.9181C216.468 86.2446 216.01 86.5271 215.52 86.7657C215.043 86.9917 214.522 87.1675 213.957 87.2931C213.404 87.4312 212.808 87.5003 212.167 87.5003C211.113 87.5003 210.177 87.3245 209.361 86.9729C208.557 86.6087 207.879 86.1002 207.327 85.4472C206.774 84.7943 206.354 84.022 206.065 83.1305C205.789 82.2264 205.65 81.2344 205.65 80.1546V67.874H210.303Z" fill="#FF4E50"/>
  <path opacity="0.3" d="M156.013 87.5C154.343 87.5 153.056 87.0291 152.152 86.0873C151.248 85.133 150.796 83.8208 150.796 82.1508V71.3582H148.837C148.586 71.3582 148.366 71.2766 148.178 71.1134C148.002 70.9501 147.914 70.7053 147.914 70.3788V68.5329L151.022 68.0244L152.001 62.7505C152.052 62.4994 152.165 62.3048 152.34 62.1667C152.529 62.0285 152.761 61.9595 153.037 61.9595H155.448V68.0432H160.534V71.3582H155.448V81.8306C155.448 82.4333 155.599 82.9042 155.9 83.2432C156.202 83.5822 156.603 83.7518 157.106 83.7518C157.394 83.7518 157.633 83.7204 157.821 83.6576C158.022 83.5822 158.192 83.5069 158.33 83.4316C158.481 83.3562 158.612 83.2872 158.725 83.2244C158.838 83.149 158.951 83.1114 159.064 83.1114C159.203 83.1114 159.316 83.149 159.404 83.2244C159.491 83.2872 159.586 83.3876 159.686 83.5257L161.08 85.786C160.402 86.351 159.623 86.7779 158.744 87.0667C157.865 87.3556 156.955 87.5 156.013 87.5Z" fill="#FF4E50"/>
  <path opacity="0.3" d="M102.875 71.6411C102.749 71.8421 102.617 71.9865 102.479 72.0744C102.341 72.1497 102.165 72.1874 101.952 72.1874C101.726 72.1874 101.481 72.1246 101.217 71.999C100.966 71.8735 100.671 71.7353 100.332 71.5846C99.993 71.4214 99.6037 71.277 99.1642 71.1514C98.7373 71.0259 98.2288 70.9631 97.6386 70.9631C96.7219 70.9631 95.9999 71.1577 95.4725 71.547C94.9452 71.9362 94.6815 72.4448 94.6815 73.0726C94.6815 73.487 94.8133 73.8386 95.077 74.1274C95.3533 74.4036 95.7111 74.6485 96.1506 74.862C96.6027 75.0754 97.1112 75.2701 97.6763 75.4459C98.2413 75.6091 98.8189 75.7912 99.4091 75.9921C99.9993 76.193 100.577 76.4253 101.142 76.689C101.707 76.9401 102.209 77.2666 102.649 77.6684C103.101 78.0577 103.459 78.5285 103.722 79.081C103.999 79.6335 104.137 80.299 104.137 81.0776C104.137 82.0068 103.967 82.8669 103.628 83.658C103.289 84.4365 102.793 85.1146 102.14 85.6922C101.487 86.2572 100.677 86.703 99.7105 87.0295C98.7561 87.3434 97.6574 87.5004 96.4143 87.5004C95.7488 87.5004 95.0958 87.4376 94.4554 87.312C93.8276 87.199 93.2186 87.0358 92.6284 86.8223C92.0508 86.6088 91.5109 86.3577 91.0086 86.0689C90.5189 85.7801 90.0857 85.4662 89.709 85.1271L90.7826 83.3566C90.9207 83.1432 91.084 82.9799 91.2723 82.8669C91.4607 82.7539 91.6992 82.6974 91.988 82.6974C92.2768 82.6974 92.5468 82.779 92.798 82.9423C93.0616 83.1055 93.363 83.2813 93.702 83.4696C94.0411 83.658 94.4366 83.8338 94.8887 83.997C95.3533 84.1603 95.9371 84.2419 96.6403 84.2419C97.1928 84.2419 97.6637 84.1791 98.053 84.0535C98.4548 83.9154 98.7813 83.7396 99.0324 83.5261C99.2961 83.3127 99.4844 83.0678 99.5974 82.7916C99.723 82.5028 99.7858 82.2077 99.7858 81.9063C99.7858 81.4543 99.6477 81.0838 99.3714 80.795C99.1077 80.5062 98.7499 80.2551 98.2978 80.0416C97.8583 79.8282 97.3498 79.6398 96.7722 79.4766C96.2071 79.3008 95.6232 79.1124 95.0205 78.9115C94.4303 78.7106 93.8464 78.4783 93.2688 78.2146C92.7038 77.9384 92.1952 77.5931 91.7432 77.1787C91.3037 76.7643 90.9458 76.2558 90.6696 75.653C90.4059 75.0503 90.274 74.322 90.274 73.4682C90.274 72.6771 90.431 71.9237 90.7449 71.2079C91.0588 70.4922 91.5172 69.8706 92.1199 69.3433C92.7352 68.8033 93.4949 68.3764 94.3989 68.0625C95.3156 67.736 96.3704 67.5728 97.5632 67.5728C98.8943 67.5728 100.106 67.7925 101.198 68.232C102.291 68.6715 103.201 69.2491 103.93 69.9648L102.875 71.6411Z" fill="#FF4E50"/>
  <path d="M366.258 50.0049V10.6017H376.203V15.9509C378.915 11.7318 383.209 9.24561 389.689 9.24561C397.826 9.24561 403.024 12.5606 403.024 24.3891V50.0049H392.853V26.7246C392.853 20.2453 390.442 17.6838 385.47 17.6838C379.518 17.6838 376.429 21.9782 376.429 28.6835V50.0049H366.258Z" fill="#F9D423"/>
  <path d="M342.029 51.361C329.447 51.361 321.611 43.2242 321.611 29.8889C321.611 17.2317 329.597 9.24561 342.029 9.24561C354.46 9.24561 362.521 17.3071 362.521 29.8889C362.521 43.1489 354.611 51.361 342.029 51.361ZM332.159 29.8889C332.159 38.1011 336.001 43.4503 342.029 43.4503C348.056 43.4503 351.974 38.0257 351.974 29.8889C351.974 22.1289 348.207 17.1564 342.029 17.1564C335.775 17.1564 332.159 22.0535 332.159 29.8889Z" fill="#F9D423"/>
  <path d="M307.543 50.0052V10.6021H317.714V50.0052H307.543Z" fill="#F9D423"/>
  <path d="M292.255 51.3613C282.234 51.3613 278.317 47.2176 278.317 37.2726V18.1361H270.029V10.602H275.529C278.241 10.602 279.221 9.62257 279.221 6.75962V0.506348H288.488V10.602H302.124V18.1361H288.488V35.9918C288.488 41.341 289.844 43.6012 292.782 43.6012C295.494 43.6012 296.926 41.6424 297.077 38.1013L305.816 38.8547C305.515 49.6285 298.809 51.3613 292.255 51.3613Z" fill="#F9D423"/>
  <path d="M259.119 50.0052V10.6021H269.29V50.0052H259.119Z" fill="#F9D423"/>
  <path d="M234.015 51.3613C223.769 51.3613 216.461 43.3752 216.461 30.4919C216.461 16.7799 224.748 9.24583 235.221 9.24583C239.138 9.24583 242.152 10.3006 244.262 12.0334V0.5H254.433V50.0051H244.864L244.638 46.3888C242.303 49.4024 238.912 51.3613 234.015 51.3613ZM227.009 30.2659C227.009 38.9301 230.399 43.6012 235.974 43.6012C239.364 43.6012 242.303 41.9437 244.262 39.0054V22.2044C243.433 18.9648 240.871 17.0059 236.728 17.0059C230.399 17.0059 227.009 21.677 227.009 30.2659Z" fill="#F9D423"/>
  <path d="M175.896 50.0049V10.6017H185.841V15.9509C188.554 11.7318 192.848 9.24561 199.327 9.24561C207.464 9.24561 212.663 12.5606 212.663 24.3891V50.0049H202.492V26.7246C202.492 20.2453 200.081 17.6838 195.108 17.6838C189.156 17.6838 186.067 21.9782 186.067 28.6835V50.0049H175.896Z" fill="#F9D423"/>
  <path d="M151.665 51.361C139.083 51.361 131.248 43.2242 131.248 29.8889C131.248 17.2317 139.234 9.24561 151.665 9.24561C164.097 9.24561 172.158 17.3071 172.158 29.8889C172.158 43.1489 164.247 51.361 151.665 51.361ZM141.796 29.8889C141.796 38.1011 145.638 43.4503 151.665 43.4503C157.693 43.4503 161.61 38.0257 161.61 29.8889C161.61 22.1289 157.843 17.1564 151.665 17.1564C145.412 17.1564 141.796 22.0535 141.796 29.8889Z" fill="#F9D423"/>
  <path d="M118.338 26.0466C117.736 20.5467 115.852 17.0057 109.599 17.0057C102.743 17.0057 99.88 20.8481 99.88 29.9643C99.88 39.3065 103.722 43.827 109.599 43.827C114.421 43.827 117.886 42.0188 118.489 36.971L128.585 38.1011C126.852 47.2926 119.996 51.361 109.599 51.361C97.5444 51.361 89.709 43.3749 89.709 29.9643C89.709 17.2317 97.6951 9.24561 109.599 9.24561C121.578 9.24561 127.907 16.4783 128.585 24.7658L118.338 26.0466Z" fill="#F9D423"/>
</svg>
