<svg width="315" height="88" viewBox="0 0 315 88" fill="none" xmlns="http://www.w3.org/2000/svg">
  <path opacity="0.3" d="M303.861 67.5728C305.305 67.5728 306.61 67.8051 307.778 68.2697C308.959 68.7343 309.963 69.3935 310.792 70.2473C311.621 71.1012 312.261 72.1434 312.713 73.374C313.165 74.6045 313.391 75.9795 313.391 77.4989C313.391 79.0308 313.165 80.4121 312.713 81.6426C312.261 82.8732 311.621 83.9217 310.792 84.7881C309.963 85.6545 308.959 86.32 307.778 86.7846C306.61 87.2492 305.305 87.4815 303.861 87.4815C302.417 87.4815 301.104 87.2492 299.924 86.7846C298.744 86.32 297.733 85.6545 296.892 84.7881C296.063 83.9217 295.416 82.8732 294.952 81.6426C294.499 80.4121 294.273 79.0308 294.273 77.4989C294.273 75.9795 294.499 74.6045 294.952 73.374C295.416 72.1434 296.063 71.1012 296.892 70.2473C297.733 69.3935 298.744 68.7343 299.924 68.2697C301.104 67.8051 302.417 67.5728 303.861 67.5728ZM303.861 83.9028C305.468 83.9028 306.654 83.3629 307.42 82.283C308.199 81.2031 308.588 79.621 308.588 77.5366C308.588 75.4521 308.199 73.8637 307.42 72.7713C306.654 71.6788 305.468 71.1326 303.861 71.1326C302.228 71.1326 301.023 71.6851 300.244 72.7901C299.466 73.8825 299.076 75.4647 299.076 77.5366C299.076 79.6084 299.466 81.1906 300.244 82.283C301.023 83.3629 302.228 83.9028 303.861 83.9028Z" fill="#FF4E50"/>
  <path opacity="0.3" d="M248.523 67.874V87.1989H243.871V67.874H248.523Z" fill="#FF4E50"/>
  <path opacity="0.3" d="M193.868 87.1985C193.265 87.1985 192.87 86.916 192.681 86.3509L192.305 84.4863C191.903 84.9383 191.482 85.3464 191.043 85.7106C190.603 86.0747 190.126 86.3886 189.611 86.6523C189.109 86.916 188.563 87.1169 187.973 87.255C187.395 87.4057 186.767 87.4811 186.089 87.4811C185.034 87.4811 184.067 87.2613 183.188 86.8218C182.309 86.3823 181.55 85.7482 180.909 84.9195C180.281 84.0782 179.792 83.0422 179.44 81.8117C179.101 80.5811 178.932 79.1747 178.932 77.5926C178.932 76.1611 179.126 74.8301 179.516 73.5995C179.905 72.369 180.464 71.3016 181.192 70.3976C181.92 69.4935 182.793 68.7903 183.81 68.288C184.827 67.7732 185.97 67.5158 187.238 67.5158C188.318 67.5158 189.241 67.6916 190.007 68.0432C190.773 68.3822 191.457 68.8405 192.06 69.4181V59.2095H196.712V87.1985H193.868ZM187.671 83.7894C188.638 83.7894 189.46 83.5885 190.139 83.1866C190.817 82.7848 191.457 82.2135 192.06 81.4726V72.8085C191.532 72.1681 190.955 71.716 190.327 71.4523C189.712 71.1886 189.046 71.0568 188.33 71.0568C187.627 71.0568 186.987 71.1886 186.409 71.4523C185.844 71.716 185.361 72.1178 184.959 72.6578C184.57 73.1852 184.268 73.8632 184.055 74.692C183.841 75.5082 183.735 76.475 183.735 77.5926C183.735 78.7227 183.823 79.6833 183.998 80.4744C184.187 81.2529 184.45 81.8933 184.789 82.3956C185.128 82.8853 185.543 83.2431 186.032 83.4692C186.522 83.6826 187.068 83.7894 187.671 83.7894Z" fill="#FF4E50"/>
  <path opacity="0.3" d="M121.303 67.874V80.1546C121.303 81.3349 121.573 82.2515 122.113 82.9045C122.665 83.5449 123.488 83.8651 124.58 83.8651C125.384 83.8651 126.137 83.6893 126.84 83.3377C127.543 82.9735 128.209 82.4776 128.837 81.8497V67.874H133.489V87.1989H130.645C130.042 87.1989 129.647 86.9164 129.458 86.3513L129.138 84.8068C128.736 85.2087 128.322 85.5791 127.895 85.9181C127.468 86.2446 127.01 86.5271 126.52 86.7657C126.043 86.9917 125.522 87.1675 124.957 87.2931C124.404 87.4312 123.808 87.5003 123.167 87.5003C122.113 87.5003 121.177 87.3245 120.361 86.9729C119.557 86.6087 118.879 86.1002 118.327 85.4472C117.774 84.7943 117.354 84.022 117.065 83.1305C116.789 82.2264 116.65 81.2344 116.65 80.1546V67.874H121.303Z" fill="#FF4E50"/>
  <path opacity="0.3" d="M67.0132 87.5C65.3431 87.5 64.0561 87.0291 63.152 86.0873C62.2479 85.133 61.7958 83.8208 61.7958 82.1508V71.3582H59.837C59.5859 71.3582 59.3661 71.2766 59.1778 71.1134C59.002 70.9501 58.9141 70.7053 58.9141 70.3788V68.5329L62.0219 68.0244L63.0013 62.7505C63.0515 62.4994 63.1645 62.3048 63.3403 62.1667C63.5287 62.0285 63.761 61.9595 64.0372 61.9595H66.4481V68.0432H71.5336V71.3582H66.4481V81.8306C66.4481 82.4333 66.5988 82.9042 66.9002 83.2432C67.2015 83.5822 67.6034 83.7518 68.1056 83.7518C68.3944 83.7518 68.633 83.7204 68.8214 83.6576C69.0223 83.5822 69.1918 83.5069 69.3299 83.4316C69.4806 83.3562 69.6124 83.2872 69.7254 83.2244C69.8385 83.149 69.9515 83.1114 70.0645 83.1114C70.2026 83.1114 70.3156 83.149 70.4035 83.2244C70.4914 83.2872 70.5856 83.3876 70.686 83.5257L72.0798 85.786C71.4018 86.351 70.6233 86.7779 69.7443 87.0667C68.8653 87.3556 67.9549 87.5 67.0132 87.5Z" fill="#FF4E50"/>
  <path opacity="0.3" d="M13.8748 71.6411C13.7492 71.8421 13.6174 71.9865 13.4792 72.0744C13.3411 72.1497 13.1653 72.1874 12.9518 72.1874C12.7258 72.1874 12.481 72.1246 12.2173 71.999C11.9661 71.8735 11.6711 71.7353 11.332 71.5846C10.993 71.4214 10.6037 71.277 10.1642 71.1514C9.73731 71.0259 9.22876 70.9631 8.63859 70.9631C7.72194 70.9631 6.99993 71.1577 6.47255 71.547C5.94516 71.9362 5.68147 72.4448 5.68147 73.0726C5.68147 73.487 5.81331 73.8386 6.07701 74.1274C6.35326 74.4036 6.71112 74.6485 7.15061 74.862C7.60266 75.0754 8.11121 75.2701 8.67626 75.4459C9.24132 75.6091 9.81893 75.7912 10.4091 75.9921C10.9993 76.193 11.5769 76.4253 12.1419 76.689C12.707 76.9401 13.2093 77.2666 13.6487 77.6684C14.1008 78.0577 14.4587 78.5285 14.7223 79.081C14.9986 79.6335 15.1367 80.299 15.1367 81.0776C15.1367 82.0068 14.9672 82.8669 14.6282 83.658C14.2891 84.4365 13.7931 85.1146 13.1402 85.6922C12.4872 86.2572 11.6773 86.703 10.7105 87.0295C9.75614 87.3434 8.65743 87.5004 7.4143 87.5004C6.7488 87.5004 6.09584 87.4376 5.45545 87.312C4.82761 87.199 4.2186 87.0358 3.62844 86.8223C3.05082 86.6088 2.51088 86.3577 2.00861 86.0689C1.5189 85.7801 1.08569 85.4662 0.708984 85.1271L1.78259 83.3566C1.92071 83.1432 2.08395 82.9799 2.2723 82.8669C2.46065 82.7539 2.69923 82.6974 2.98804 82.6974C3.27685 82.6974 3.54682 82.779 3.79795 82.9423C4.06164 83.1055 4.36301 83.2813 4.70204 83.4696C5.04107 83.658 5.43661 83.8338 5.88865 83.997C6.35326 84.1603 6.93715 84.2419 7.64033 84.2419C8.19282 84.2419 8.6637 84.1791 9.05296 84.0535C9.45478 83.9154 9.78126 83.7396 10.0324 83.5261C10.2961 83.3127 10.4844 83.0678 10.5974 82.7916C10.723 82.5028 10.7858 82.2077 10.7858 81.9063C10.7858 81.4543 10.6477 81.0838 10.3714 80.795C10.1077 80.5062 9.74986 80.2551 9.29782 80.0416C8.85833 79.8282 8.34978 79.6398 7.77217 79.4766C7.20712 79.3008 6.62323 79.1124 6.0205 78.9115C5.43033 78.7106 4.84644 78.4783 4.26883 78.2146C3.70378 77.9384 3.19523 77.5931 2.74318 77.1787C2.3037 76.7643 1.94583 76.2558 1.66958 75.653C1.40589 75.0503 1.27404 74.322 1.27404 73.4682C1.27404 72.6771 1.431 71.9237 1.74492 71.2079C2.05884 70.4922 2.51716 69.8706 3.11989 69.3433C3.73517 68.8033 4.49485 68.3764 5.39894 68.0625C6.31559 67.736 7.37036 67.5728 8.56325 67.5728C9.89427 67.5728 11.106 67.7925 12.1984 68.232C13.2909 68.6715 14.2012 69.2491 14.9295 69.9648L13.8748 71.6411Z" fill="#FF4E50"/>
  <path d="M277.258 50.0049V10.6017H287.203V15.9509C289.915 11.7318 294.209 9.24561 300.689 9.24561C308.826 9.24561 314.024 12.5606 314.024 24.3891V50.0049H303.853V26.7246C303.853 20.2453 301.442 17.6838 296.47 17.6838C290.518 17.6838 287.429 21.9782 287.429 28.6835V50.0049H277.258Z" fill="#F9D423"/>
  <path d="M253.029 51.361C240.447 51.361 232.611 43.2242 232.611 29.8889C232.611 17.2317 240.597 9.24561 253.029 9.24561C265.46 9.24561 273.521 17.3071 273.521 29.8889C273.521 43.1489 265.611 51.361 253.029 51.361ZM243.159 29.8889C243.159 38.1011 247.001 43.4503 253.029 43.4503C259.056 43.4503 262.974 38.0257 262.974 29.8889C262.974 22.1289 259.207 17.1564 253.029 17.1564C246.775 17.1564 243.159 22.0535 243.159 29.8889Z" fill="#F9D423"/>
  <path d="M218.543 50.0052V10.6021H228.714V50.0052H218.543Z" fill="#F9D423"/>
  <path d="M203.255 51.3613C193.234 51.3613 189.317 47.2176 189.317 37.2726V18.1361H181.029V10.602H186.529C189.241 10.602 190.221 9.62257 190.221 6.75962V0.506348H199.488V10.602H213.124V18.1361H199.488V35.9918C199.488 41.341 200.844 43.6012 203.782 43.6012C206.494 43.6012 207.926 41.6424 208.077 38.1013L216.816 38.8547C216.515 49.6285 209.809 51.3613 203.255 51.3613Z" fill="#F9D423"/>
  <path d="M170.119 50.0052V10.6021H180.29V50.0052H170.119Z" fill="#F9D423"/>
  <path d="M145.015 51.3613C134.769 51.3613 127.461 43.3752 127.461 30.4919C127.461 16.7799 135.748 9.24583 146.221 9.24583C150.138 9.24583 153.152 10.3006 155.262 12.0334V0.5H165.433V50.0051H155.864L155.638 46.3888C153.303 49.4024 149.912 51.3613 145.015 51.3613ZM138.009 30.2659C138.009 38.9301 141.399 43.6012 146.974 43.6012C150.364 43.6012 153.303 41.9437 155.262 39.0054V22.2044C154.433 18.9648 151.871 17.0059 147.728 17.0059C141.399 17.0059 138.009 21.677 138.009 30.2659Z" fill="#F9D423"/>
  <path d="M86.8965 50.0049V10.6017H96.8414V15.9509C99.5537 11.7318 103.848 9.24561 110.327 9.24561C118.464 9.24561 123.663 12.5606 123.663 24.3891V50.0049H113.492V26.7246C113.492 20.2453 111.081 17.6838 106.108 17.6838C100.156 17.6838 97.0675 21.9782 97.0675 28.6835V50.0049H86.8965Z" fill="#F9D423"/>
  <path d="M62.6654 51.361C50.0835 51.361 42.248 43.2242 42.248 29.8889C42.248 17.2317 50.2342 9.24561 62.6654 9.24561C75.0966 9.24561 83.158 17.3071 83.158 29.8889C83.158 43.1489 75.2473 51.361 62.6654 51.361ZM52.7957 29.8889C52.7957 38.1011 56.6381 43.4503 62.6654 43.4503C68.6926 43.4503 72.6103 38.0257 72.6103 29.8889C72.6103 22.1289 68.8433 17.1564 62.6654 17.1564C56.4121 17.1564 52.7957 22.0535 52.7957 29.8889Z" fill="#F9D423"/>
  <path d="M29.3384 26.0466C28.7357 20.5467 26.8522 17.0057 20.5989 17.0057C13.7429 17.0057 10.88 20.8481 10.88 29.9643C10.88 39.3065 14.7224 43.827 20.5989 43.827C25.4207 43.827 28.8864 42.0188 29.4891 36.971L39.5848 38.1011C37.8519 47.2926 30.9959 51.361 20.5989 51.361C8.54442 51.361 0.708984 43.3749 0.708984 29.9643C0.708984 17.2317 8.6951 9.24561 20.5989 9.24561C32.5781 9.24561 38.9067 16.4783 39.5848 24.7658L29.3384 26.0466Z" fill="#F9D423"/>
</svg>
