<svg width="76" height="71" viewBox="0 0 76 71" fill="none" xmlns="http://www.w3.org/2000/svg">
  <path d="M53.4778 39.2236V44.3778C53.4778 47.8861 54.2141 49.6186 57.6791 52.2606C60.2345 54.2097 62.8766 55.9855 65.8218 57.8479L62.9632 61.9192C59.9746 60.0135 56.9861 57.9778 54.6472 56.202C52.7415 54.7727 51.0956 53.3434 50.8358 52.737H50.7924C50.5759 53.3867 48.7568 54.9027 46.851 56.332C44.5122 58.1078 41.5236 60.1434 38.5351 62.0492L35.5898 57.8479C38.5351 55.9855 41.1771 54.2097 43.7325 52.2606C47.1975 49.6186 47.9338 47.8861 47.9338 44.3778V39.2236H53.4778Z" fill="#EF233C"/>
  <path d="M31.0919 56.8957V51.3084H15.846V56.8957H31.0919ZM36.5493 61.5301H10.3887V39.5708H15.846V46.674H31.0919V39.5708H36.5493V61.5301Z" fill="#EF233C"/>
  <path d="M37.279 13.2041V8.39648H64.1326V13.2041H53.4778V13.8105C53.4778 17.2322 54.0842 18.878 57.5925 21.3902C60.2778 23.2959 62.7899 24.9418 65.8218 26.7609L63.0931 30.9188C60.0613 29.0564 57.0727 27.1074 54.6472 25.3749C52.6982 24.0322 51.0523 22.5163 50.8358 22.0398H50.7924C50.6192 22.5163 49.2332 23.8156 46.851 25.5048C44.4255 27.2373 41.437 29.1864 38.4051 31.0488L35.5898 26.7609C38.6217 24.9418 41.1338 23.2959 43.8192 21.3902C47.3275 18.878 47.9338 17.2322 47.9338 13.8105V13.2041H37.279Z" fill="white"/>
  <path d="M10.0407 13.2041V8.39648H36.8943V13.2041H26.2395V13.8105C26.2395 17.2322 26.8459 18.878 30.3542 21.3902C33.0395 23.2959 35.5516 24.9418 38.5835 26.7609L35.8548 30.9188C32.823 29.0564 29.8344 27.1074 27.4089 25.3749C25.4599 24.0322 23.814 22.5163 23.5975 22.0398H23.5542C23.3809 22.5163 21.9949 23.8156 19.6127 25.5048C17.1873 27.2373 14.1987 29.1864 11.1669 31.0488L8.35156 26.7609C11.3834 24.9418 13.8955 23.2959 16.5809 21.3902C20.0892 18.878 20.6955 17.2322 20.6955 13.8105V13.2041H10.0407Z" fill="white"/>
</svg>
