<svg width="270" height="73" viewBox="0 0 270 73" fill="none" xmlns="http://www.w3.org/2000/svg">
  <path d="M60.3178 41.5034V48.3926C60.3178 53.0819 61.302 55.3976 65.9334 58.9291C69.3491 61.5343 72.8805 63.9078 76.8172 66.3972L72.9963 71.8391C69.0017 69.2919 65.0071 66.5709 61.8809 64.1973C59.3337 62.2869 57.1337 60.3764 56.7864 59.5659H56.7285C56.439 60.4343 54.0076 62.4605 51.4603 64.371C48.3341 66.7446 44.3395 69.4655 40.3449 72.0128L36.4082 66.3972C40.3449 63.9078 43.8763 61.5343 47.292 58.9291C51.9234 55.3976 52.9076 53.0819 52.9076 48.3926V41.5034H60.3178Z" fill="#EF233C"/>
  <path d="M30.3953 65.1243V57.6562H10.0171V65.1243H30.3953ZM37.6898 71.3188H2.72266V41.9673H10.0171V51.4617H30.3953V41.9673H37.6898V71.3188Z" fill="#EF233C"/>
  <path d="M38.666 6.72491V0.298828H74.5594V6.72491H60.3178V7.5354C60.3178 12.1089 61.1283 14.3088 65.8176 17.6666C69.407 20.2139 72.7647 22.4138 76.8172 24.8453L73.17 30.403C69.1175 27.9136 65.1229 25.3084 61.8809 22.9927C59.2758 21.1981 57.0759 19.1718 56.7864 18.535H56.7285C56.4969 19.1718 54.6444 20.9086 51.4603 23.1664C48.2183 25.4821 44.2237 28.0873 40.1712 30.5767L36.4082 24.8453C40.4607 22.4138 43.8185 20.2139 47.4078 17.6666C52.0971 14.3088 52.9076 12.1089 52.9076 7.5354V6.72491H38.666Z" fill="white"/>
  <path d="M2.25781 6.72491V0.298828H38.1512V6.72491H23.9096V7.5354C23.9096 12.1089 24.7201 14.3088 29.4094 17.6666C32.9988 20.2139 36.3565 22.4138 40.409 24.8453L36.7618 30.403C32.7093 27.9136 28.7147 25.3084 25.4727 22.9927C22.8676 21.1981 20.6677 19.1718 20.3782 18.535H20.3203C20.0887 19.1718 18.2362 20.9086 15.0521 23.1664C11.8101 25.4821 7.8155 28.0873 3.76302 30.5767L0 24.8453C4.05248 22.4138 7.41025 20.2139 10.9996 17.6666C15.6889 14.3088 16.4994 12.1089 16.4994 7.5354V6.72491H2.25781Z" fill="white"/>
  <path d="M246.955 66.6074H240.502V47.4336H240.505C240.505 47.4336 244.436 47.4336 246.955 47.4336C246.955 54.9214 246.955 66.6074 246.955 66.6074Z" fill="#EF233C"/>
  <path d="M240.498 53.8824L240.498 47.4297L259.672 47.4297L259.672 47.4323C259.672 47.4323 259.672 51.3635 259.672 53.8824C252.184 53.8824 240.498 53.8824 240.498 53.8824Z" fill="#EF233C"/>
  <path d="M231.696 20.5174V50.5379C231.696 53.3238 231.277 55.7615 230.437 57.8509C229.597 59.9199 228.439 61.6406 226.964 63.0131C225.51 64.3856 223.779 65.4201 221.772 66.1166C219.764 66.7926 217.593 67.1306 215.257 67.1306C212.758 67.1306 210.546 66.7004 208.62 65.84C206.695 64.9592 205.076 63.7301 203.765 62.1527C202.454 60.5549 201.451 58.6396 200.754 56.4068C200.078 54.1739 199.74 51.7055 199.74 49.0015V26.9701L198.818 20.5174L206.039 19.9028V49.5853C206.039 51.5314 206.295 53.2726 206.807 54.8089C207.32 56.3248 208.006 57.6154 208.866 58.6806C209.747 59.7253 210.761 60.5242 211.908 61.0773C213.055 61.6304 214.274 61.9069 215.565 61.9069C217.06 61.9069 218.412 61.6816 219.621 61.2309C220.85 60.7803 221.884 60.1043 222.724 59.2029C223.584 58.3016 224.24 57.1852 224.691 55.8537C225.162 54.5017 225.397 52.9243 225.397 51.1217V20.5174H231.696Z" fill="#EF233C"/>
  <path d="M196.145 61.6916L195.53 66.6079H169.412L169.873 60.4625V26.9698L168.951 20.5171H195.069V25.4334H175.711L176.326 31.2716V39.4143H192.918V43.8698H176.326V56.1607L176.018 61.6916H196.145Z" fill="white"/>
  <path d="M151.806 20.6096L165.019 19.9028V53.3955C165.019 57.3286 163.954 60.5754 161.823 63.136C159.713 65.6966 156.651 67.0281 152.636 67.1306C149.194 67.1306 146.152 65.7786 143.51 63.0746L146.337 59.4488C146.542 59.6536 146.839 59.8994 147.228 60.1862C147.637 60.4525 148.109 60.7086 148.641 60.9544C149.174 61.2002 149.747 61.4051 150.362 61.5689C150.997 61.7328 151.652 61.8148 152.328 61.8148C154.459 61.8148 156.026 61.0158 157.03 59.418C158.054 57.8202 158.566 55.403 158.566 52.1664V31.3334L159.181 25.4952L152.421 25.8946L151.806 20.6096Z" fill="white"/>
  <path d="M140.836 61.6916L140.222 66.6079H114.103L114.564 60.4625V26.9698L113.643 20.5171H139.761V25.4334H120.403L121.017 31.2716V39.4143H137.61V43.8698H121.017V56.1607L120.71 61.6916H140.836Z" fill="white"/>
  <path d="M97.7573 20.6096L110.97 19.9028V53.3955C110.97 57.3286 109.905 60.5754 107.774 63.136C105.664 65.6966 102.602 67.0281 98.5869 67.1306C95.1455 67.1306 92.1035 65.7786 89.4609 63.0746L92.2878 59.4488C92.4927 59.6536 92.7897 59.8994 93.1789 60.1862C93.5886 60.4525 94.0598 60.7086 94.5924 60.9544C95.125 61.2002 95.6986 61.4051 96.3131 61.5689C96.9481 61.7328 97.6036 61.8148 98.2796 61.8148C100.41 61.8148 101.977 61.0158 102.981 59.418C104.005 57.8202 104.517 55.403 104.517 52.1664V31.3334L105.132 25.4952L98.3718 25.8946L97.7573 20.6096Z" fill="white"/>
  <path d="M272.811 38.7491H266.635L255.02 28.7013L253.637 25.2906L252.285 28.6399L241.008 38.6877H234.371L251.425 20.6815L255.389 20.1592L272.811 38.7491Z" fill="#EF233C"/>
</svg>
