<svg width="181" height="49" viewBox="0 0 181 49" fill="none" xmlns="http://www.w3.org/2000/svg">
  <path d="M157.955 47.6074H151.502V28.4336H151.505C151.505 28.4336 155.436 28.4336 157.955 28.4336C157.955 35.9214 157.955 47.6074 157.955 47.6074Z" fill="#EF233C"/>
  <path d="M151.498 34.8824L151.498 28.4297L170.672 28.4297L170.672 28.4323C170.672 28.4323 170.672 32.3635 170.672 34.8824C163.184 34.8824 151.498 34.8824 151.498 34.8824Z" fill="#EF233C"/>
  <path d="M142.696 1.51738V31.5379C142.696 34.3238 142.277 36.7615 141.437 38.8509C140.597 40.9199 139.439 42.6406 137.964 44.0131C136.51 45.3856 134.779 46.4201 132.772 47.1166C130.764 47.7926 128.593 48.1306 126.257 48.1306C123.758 48.1306 121.546 47.7004 119.62 46.84C117.695 45.9592 116.076 44.7301 114.765 43.1527C113.454 41.5549 112.451 39.6396 111.754 37.4068C111.078 35.1739 110.74 32.7055 110.74 30.0015V7.97009L109.818 1.51738L117.039 0.902832V30.5853C117.039 32.5314 117.295 34.2726 117.807 35.8089C118.32 37.3248 119.006 38.6154 119.866 39.6806C120.747 40.7253 121.761 41.5242 122.908 42.0773C124.055 42.6304 125.274 42.9069 126.565 42.9069C128.06 42.9069 129.412 42.6816 130.621 42.2309C131.85 41.7803 132.884 41.1043 133.724 40.2029C134.584 39.3016 135.24 38.1852 135.691 36.8537C136.162 35.5017 136.397 33.9243 136.397 32.1217V1.51738H142.696Z" fill="#EF233C"/>
  <path d="M107.145 42.6916L106.53 47.6079H80.4121L80.873 41.4625V7.96981L79.9512 1.51709H106.069V6.43344H86.7112L87.3257 12.2716V20.4143H103.918V24.8698H87.3257V37.1607L87.0184 42.6916H107.145Z" fill="white"/>
  <path d="M62.8061 1.60956L76.0188 0.902832V34.3955C76.0188 38.3286 74.9536 41.5754 72.8232 44.136C70.7132 46.6966 67.6508 48.0281 63.6358 48.1306C60.1943 48.1306 57.1523 46.7786 54.5098 44.0746L57.3367 40.4488C57.5415 40.6536 57.8385 40.8994 58.2278 41.1862C58.6375 41.4525 59.1086 41.7086 59.6412 41.9544C60.1738 42.2002 60.7474 42.4051 61.3619 42.5689C61.997 42.7328 62.6525 42.8148 63.3285 42.8148C65.4589 42.8148 67.026 42.0158 68.0297 40.418C69.054 38.8202 69.5661 36.403 69.5661 33.1664V12.3334L70.1806 6.49518L63.4207 6.89464L62.8061 1.60956Z" fill="white"/>
  <path d="M51.8362 42.6916L51.2216 47.6079H25.1035L25.5644 41.4625V7.96981L24.6426 1.51709H50.7607V6.43344H31.4026L32.0171 12.2716V20.4143H48.6098V24.8698H32.0171V37.1607L31.7098 42.6916H51.8362Z" fill="white"/>
  <path d="M8.75728 1.60956L21.97 0.902832V34.3955C21.97 38.3286 20.9048 41.5754 18.7744 44.136C16.6644 46.6966 13.6019 48.0281 9.58692 48.1306C6.14547 48.1306 3.10348 46.7786 0.460938 44.0746L3.28784 40.4488C3.49269 40.6536 3.78972 40.8994 4.17893 41.1862C4.58863 41.4525 5.05978 41.7086 5.59238 41.9544C6.12499 42.2002 6.69856 42.4051 7.31311 42.5689C7.94813 42.7328 8.60365 42.8148 9.27965 42.8148C11.4101 42.8148 12.9772 42.0158 13.9809 40.418C15.0052 38.8202 15.5173 36.403 15.5173 33.1664V12.3334L16.1318 6.49518L9.37183 6.89464L8.75728 1.60956Z" fill="white"/>
  <path d="M183.811 19.7491H177.635L166.02 9.70134L164.637 6.29063L163.285 9.63989L152.008 19.6877H145.371L162.425 1.68154L166.389 1.15918L183.811 19.7491Z" fill="#EF233C"/>
</svg>
