<svg width="180" height="19" viewBox="0 0 180 19" fill="none" xmlns="http://www.w3.org/2000/svg">
  <path d="M166.57 15.4784V2.64917H169.218V7.96513H174.759V2.64917H177.424V15.4784H174.759V10.1624H169.218V15.4784H166.57Z" fill="white"/>
  <path d="M155.875 15.4784V2.64917H160.887C163.79 2.64917 165.458 4.44774 165.458 6.97282C165.458 9.53334 163.764 11.2965 160.817 11.2965H158.522V15.4784H155.875ZM158.522 9.15237H160.393C161.964 9.15237 162.731 8.26637 162.723 6.97282C162.731 5.69699 161.964 4.83758 160.393 4.82872H158.522V9.15237Z" fill="white"/>
  <path d="M145.603 15.4784H142.744L147.174 2.64917H150.58L154.992 15.4784H152.151L151.189 12.5191H146.565L145.603 15.4784ZM147.236 10.4459H150.518L148.921 5.53751H148.833L147.236 10.4459Z" fill="white"/>
  <path d="M132.613 15.4784V2.64917H137.625C140.529 2.64917 142.196 4.28826 142.196 6.83106C142.196 8.58533 141.393 9.86116 139.937 10.4902L142.655 15.4784H139.726L137.281 10.9244H135.261V15.4784H132.613ZM135.261 8.76253H137.131C138.702 8.76253 139.47 8.11575 139.461 6.83106C139.47 5.53751 138.702 4.83758 137.131 4.82872H135.261V8.76253Z" fill="white"/>
  <path d="M128.431 6.77786C128.069 5.5729 127.108 4.83753 125.713 4.82867C123.737 4.83753 122.396 6.35258 122.396 9.046C122.396 11.7571 123.693 13.2899 125.731 13.2988C127.558 13.2899 128.643 12.2533 128.678 10.6408H125.908V8.63844H131.237V10.2332C131.237 13.6 128.934 15.6555 125.713 15.6555C122.131 15.6555 119.695 13.1393 119.695 9.08144C119.695 4.91727 122.29 2.47192 125.66 2.47192C128.546 2.47192 130.761 4.25277 131.114 6.77786H128.431Z" fill="white"/>
  <path d="M118.355 2.64917V15.4784H116.061L110.448 7.32722H110.343V15.4784H107.695V2.64917H110.025L115.602 10.8003H115.725V2.64917H118.355Z" fill="white"/>
  <path d="M97.6172 15.4784V2.64917H106.194V4.84644H100.264V7.96513H105.753V10.1624H100.264V13.2811H106.212V15.4784H97.6172Z" fill="white"/>
  <path d="M86.9219 15.4784V2.64917H91.934C94.8372 2.64917 96.505 4.44774 96.505 6.97282C96.505 9.53334 94.8107 11.2965 91.8634 11.2965H89.5691V15.4784H86.9219ZM89.5691 9.15237H91.4399C93.0106 9.15237 93.7783 8.26637 93.7695 6.97282C93.7783 5.69699 93.0106 4.83758 91.4399 4.82872H89.5691V9.15237Z" fill="white"/>
  <path d="M85.5808 9.06372C85.5808 13.2545 82.9953 15.6555 79.6156 15.6555C76.2095 15.6555 73.6328 13.2368 73.6328 9.06372C73.6328 4.87297 76.2095 2.47192 79.6156 2.47192C82.9953 2.47192 85.5808 4.87297 85.5808 9.06372ZM76.333 9.06372C76.333 11.8014 77.6302 13.2899 79.6156 13.2988C81.5834 13.2899 82.8894 11.8014 82.8806 9.06372C82.8894 6.31714 81.5834 4.83753 79.6156 4.82867C77.6302 4.83753 76.333 6.31714 76.333 9.06372Z" fill="white"/>
  <path d="M65.7963 15.6732C63.149 15.6644 61.5254 14.0962 61.5254 12.0761C61.5254 10.5788 62.4696 9.67506 63.8638 8.70932C63.1932 7.84991 62.6372 6.90189 62.6372 5.76782C62.6372 3.90723 64.0226 2.48078 66.114 2.47192C68.1612 2.48078 69.423 3.86293 69.4142 5.4843C69.423 6.69812 68.7965 7.67271 67.72 8.44352L66.9699 8.99284L69.1054 11.4559C69.4407 10.8268 69.6437 10.0738 69.6437 9.24092H71.8144C71.8232 10.9775 71.3732 12.3242 70.6673 13.2633L72.5909 15.4783H69.8554L69.0701 14.5923C68.1347 15.3454 66.917 15.6644 65.7963 15.6732ZM64.0668 11.9343C64.0668 12.8558 64.7903 13.5557 65.9198 13.5469C66.5111 13.5469 67.1111 13.3608 67.6582 13.0153L65.2139 10.2775L65.1257 10.3396C64.4021 10.8623 64.0668 11.4382 64.0668 11.9343ZM64.8786 5.80326C64.8874 6.33486 65.2227 6.87531 65.7081 7.49551L66.3787 7.04365C67.0229 6.6361 67.3229 6.18424 67.3141 5.62606C67.3229 5.12991 66.8817 4.58945 66.1316 4.59831C65.3816 4.59831 64.8874 5.14763 64.8786 5.80326Z" fill="white"/>
  <path d="M54.644 15.6732C51.9967 15.6644 50.373 14.0962 50.373 12.0761C50.373 10.5788 51.3172 9.67506 52.7115 8.70932C52.0408 7.84991 51.4849 6.90189 51.4849 5.76782C51.4849 3.90723 52.8703 2.48078 54.9616 2.47192C57.0088 2.48078 58.2707 3.86293 58.2619 5.4843C58.2707 6.69812 57.6442 7.67271 56.5676 8.44352L55.8176 8.99284L57.953 11.4559C58.2884 10.8268 58.4913 10.0738 58.4913 9.24092H60.6621C60.6709 10.9775 60.2208 12.3242 59.5149 13.2633L61.4386 15.4783H58.7031L57.9177 14.5923C56.9824 15.3454 55.7646 15.6644 54.644 15.6732ZM52.9144 11.9343C52.9144 12.8558 53.638 13.5557 54.7675 13.5469C55.3587 13.5469 55.9588 13.3608 56.5059 13.0153L54.0616 10.2775L53.9733 10.3396C53.2497 10.8623 52.9144 11.4382 52.9144 11.9343ZM53.7262 5.80326C53.7351 6.33486 54.0704 6.87531 54.5557 7.49551L55.2264 7.04365C55.8705 6.6361 56.1705 6.18424 56.1617 5.62606C56.1705 5.12991 55.7293 4.58945 54.9793 4.59831C54.2292 4.59831 53.7351 5.14763 53.7262 5.80326Z" fill="white"/>
  <path d="M39.7477 15.4784H36.8887L41.3184 2.64917H44.7246L49.1367 15.4784H46.2953L45.3334 12.5191H40.7095L39.7477 15.4784ZM41.3802 10.4459H44.6628L43.0656 5.53751H42.9774L41.3802 10.4459Z" fill="white"/>
  <path d="M27.6406 4.84644V2.64917H38.1061V4.84644H34.1882V15.4784H31.5586V4.84644H27.6406Z" fill="white"/>
  <path d="M18.0586 15.4784V2.64917H26.6357V4.84644H20.7059V7.96513H26.1945V10.1624H20.7059V13.2811H26.6534V15.4784H18.0586Z" fill="white"/>
  <path d="M2.66992 2.64917H5.95252L9.49985 11.3496H9.64104L13.1884 2.64917H16.471V15.4784H13.8943V7.07914H13.7884L10.4529 15.4252H8.68802L5.35248 7.0437H5.24659V15.4784H2.66992V2.64917Z" fill="white"/>
</svg>
