<svg width="63" height="58" viewBox="0 0 63 58" fill="none" xmlns="http://www.w3.org/2000/svg">
  <path d="M30.5167 5.39327C30.0658 5.55465 24.8156 8.58866 18.8568 12.2036C10.0314 17.497 7.87333 18.9494 7.29356 19.9177C6.55273 21.0797 6.55273 21.112 6.55273 34.6359C6.55273 46.8364 6.61715 48.2889 7.1003 49.1926C8.32427 51.4197 10.5789 52.5494 12.9625 52.0975C13.5744 51.9684 18.4703 49.0958 23.9782 45.6099L33.931 39.316L34.092 43.7379C34.2853 48.7085 34.6396 49.8381 36.6688 51.1615C37.6995 51.8716 37.9572 51.9039 45.6875 51.9039C53.4178 51.9039 53.6755 51.8716 54.7384 51.1615C55.3182 50.7742 56.1557 49.935 56.5422 49.354L57.283 48.2566V34.7327C57.283 20.2405 57.283 20.2728 55.6081 18.7881C54.3197 17.5938 34.4463 5.78059 33.1901 5.42555C31.8373 5.0705 31.6763 5.07051 30.5167 5.39327ZM42.3055 15.625C47.8133 18.9172 52.4838 21.7898 52.7092 21.9512C52.9991 22.2094 53.0957 25.1143 53.0957 34.4745C53.0957 41.188 52.9991 46.901 52.9025 47.1915C52.7414 47.6433 51.8073 47.7079 45.8163 47.7079C39.3422 47.7079 38.9235 47.6756 38.6014 47.0946C38.4081 46.7396 38.2793 44.1897 38.2793 41.0912C38.2793 35.4105 38.1182 34.6681 36.6044 33.3125C36.2179 32.9252 32.6104 30.9563 28.6164 28.8906C16.8598 22.8549 13.5744 21.0797 13.4456 20.8538C13.2846 20.5633 31.1609 9.65378 31.8373 9.65378C32.1272 9.6215 36.8298 12.3327 42.3055 15.625ZM17.3108 27.8901C20.5962 29.633 25.1377 31.9892 27.3924 33.1511C29.6471 34.3131 31.5152 35.3782 31.5152 35.5073C31.5152 35.6042 30.0336 36.637 28.2299 37.799C26.3939 38.9609 22.0134 41.7044 18.5025 43.9315C13.2524 47.256 11.9962 47.9338 11.513 47.6756C10.9333 47.3851 10.901 46.7396 10.901 36.0883C10.901 29.8589 10.9977 24.7915 11.0943 24.7915C11.2231 24.7915 14.0254 26.1794 17.3108 27.8901Z" fill="#EEF5FF"/>
</svg>
