<svg width="676" height="120" viewBox="0 0 676 120" fill="none" xmlns="http://www.w3.org/2000/svg">
  <path d="M674.926 54.627L656.178 118.001H648.158L631.917 63.1504L615.676 118.001H607.756L588.908 54.627H594.923L611.866 112.787L629.411 54.627H634.423L651.968 112.787L668.91 54.627H674.926Z" fill="#0A9396"/>
  <path d="M555.265 114.09C568.699 114.09 576.619 106.87 576.619 98.9482V97.8451H582.434V99.9509C582.434 109.577 572.208 119.304 555.265 119.304C537.32 119.304 527.094 107.572 527.094 92.9316V79.6952C527.094 65.055 537.32 53.3228 555.265 53.3228C573.21 53.3228 583.436 65.055 583.436 79.6952V88.3189H532.908V91.9289C532.908 104.864 540.828 114.09 555.265 114.09ZM577.621 83.4054V80.698C577.621 67.7624 569.701 58.5371 555.265 58.5371C540.828 58.5371 532.908 67.7624 532.908 80.698V83.4054H577.621Z" fill="#0A9396"/>
  <path d="M516.715 117.998H510.9V54.624H516.715V117.998Z" fill="#0A9396"/>
  <path d="M503.437 54.627L477.671 118.001H470.052L444.287 54.627H450.403L473.862 112.787L497.321 54.627H503.437Z" fill="#0A9396"/>
  <path d="M389.582 54.6256V69.6669C393.893 60.7424 404.519 53.6228 416.851 54.425V60.0405C403.717 59.2383 393.792 67.5611 389.582 77.689V118H383.566V54.6256H389.582Z" fill="#F48C06"/>
  <path d="M376.594 118.004H370.078C360.554 118.004 356.343 111.286 356.343 101.358V59.8442H347.02V54.6299H356.544V33.1709H362.559V54.6299H375.592V59.8442H362.559V101.759C362.559 108.478 364.363 112.79 371.481 112.79H376.594V118.004Z" fill="#F48C06"/>
  <path d="M283.906 118.005V113.793L318.994 80.1006C327.315 72.0785 331.426 65.0592 331.426 56.8366C331.426 44.4024 325.21 37.1826 311.074 37.1826C296.638 37.1826 290.021 46.0069 289.62 59.5441H283.404C283.404 44.603 293.329 31.9683 311.275 31.9683C328.017 31.9683 337.24 41.0933 337.24 57.338C337.24 66.1623 332.729 74.2846 322.403 84.0113L291.725 112.79H311.976C322.002 112.79 331.927 112.49 340.448 111.487V116.701C331.927 117.704 321.501 118.005 311.475 118.005H283.906Z" fill="#F48C06"/>
  <path d="M266.807 110.082C266.807 103.865 266.807 33.1709 266.807 33.1709H272.621L272.621 119.308H266.807V110.082Z" fill="#F48C06"/>
  <path d="M228.085 53.3228C246.431 53.3228 256.757 65.055 256.757 79.6952V92.9316C256.757 107.572 246.431 119.304 228.085 119.304C209.738 119.304 199.412 107.572 199.412 92.9316V79.6952C199.412 65.055 209.738 53.3228 228.085 53.3228ZM205.227 91.9289C205.227 104.864 213.247 114.09 228.085 114.09C242.922 114.09 250.942 104.864 250.942 91.9289V80.698C250.942 67.7624 242.922 58.5371 228.085 58.5371C213.247 58.5371 205.227 67.7624 205.227 80.698V91.9289Z" fill="#F48C06"/>
  <path d="M172.194 54.5293C182.821 54.5293 190.841 60.245 190.841 74.083V118.004H185.027V73.0803C185.027 64.1558 179.613 59.5431 172.194 59.5431C162.47 59.5431 153.547 63.153 145.928 67.2643V118.004H140.113V54.7299H145.928V61.6489C153.547 58.2395 162.871 54.5293 172.194 54.5293Z" fill="#F48C06"/>
  <path d="M444.287 88.112C444.287 85.2985 442.004 83.0151 439.191 83.0151L434.096 83.0151C431.283 83.0151 429 85.2985 429 88.112C429 90.9255 431.283 93.2089 434.096 93.2089L439.191 93.2089C442.004 93.2089 444.287 90.9255 444.287 88.112Z" fill="white"/>
  <path d="M52.4992 23.7762C51.5771 24.1056 40.8407 30.2984 28.6553 37.6772C10.6078 48.4818 6.19469 51.4465 5.00908 53.4229C3.49414 55.7947 3.49414 55.8606 3.49414 83.465C3.49414 108.368 3.62587 111.333 4.61388 113.178C7.11683 117.723 11.7275 120.029 16.6017 119.107C17.8531 118.843 27.8649 112.98 39.1282 105.865L59.4811 93.0178L59.8104 102.044C60.2056 112.189 60.9302 114.495 65.0798 117.196C67.1875 118.646 67.7145 118.712 83.5225 118.712C99.3306 118.712 99.8576 118.646 102.031 117.196C103.217 116.406 104.929 114.693 105.72 113.507L107.235 111.267V83.6626C107.235 54.0817 107.235 54.1476 103.81 51.1171C101.175 48.6794 60.535 24.5667 57.9661 23.842C55.1997 23.1173 54.8704 23.1173 52.4992 23.7762ZM76.6065 44.6607C87.8698 51.3806 97.4205 57.2441 97.8816 57.5735C98.4744 58.1005 98.672 64.0299 98.672 83.1356C98.672 96.839 98.4744 108.5 98.2768 109.093C97.9474 110.015 96.0373 110.147 83.786 110.147C70.5467 110.147 69.6905 110.081 69.0318 108.895C68.6366 108.171 68.3731 102.966 68.3731 96.6413C68.3731 85.0462 68.0438 83.5309 64.9481 80.7638C64.1576 79.9733 56.7805 75.9545 48.613 71.738C24.5716 59.4182 17.8531 55.7947 17.5897 55.3335C17.2603 54.7406 53.8165 32.4725 55.1997 32.4725C55.7925 32.4067 65.4091 37.9407 76.6065 44.6607ZM25.4937 69.6957C32.2122 73.2533 41.4994 78.0627 46.1101 80.4344C50.7208 82.8062 54.5411 84.9803 54.5411 85.2438C54.5411 85.4414 51.5112 87.5497 47.8226 89.9214C44.0682 92.2931 35.1103 97.8931 27.9308 102.439C17.1945 109.225 14.6257 110.608 13.6377 110.081C12.4521 109.488 12.3862 108.171 12.3862 86.4297C12.3862 73.7145 12.5838 63.3711 12.7814 63.3711C13.0449 63.3711 18.7753 66.204 25.4937 69.6957Z" fill="white"/>
</svg>
