<svg width="61" height="70" viewBox="0 0 61 70" fill="none" xmlns="http://www.w3.org/2000/svg">
  <path fill-rule="evenodd" clip-rule="evenodd" d="M58.3182 31.8759C59.8232 33.3809 59.8232 35.8298 58.3182 37.3348C57.5657 38.0873 56.5761 38.4643 55.588 38.4628C54.8988 38.4628 54.2141 38.2684 53.6044 37.9018L24.3159 8.61323C23.4191 7.1318 23.6002 5.17619 24.8799 3.8965C26.3834 2.39297 28.8353 2.39297 30.3388 3.8965L58.3182 31.8759ZM13.0063 34.9139L13.0726 34.7695L26.2317 47.1541L14.1785 59.2073C13.3656 60.0202 12.2818 60.5621 11.1317 60.5665H11.1111C9.19229 60.5665 7.26907 59.8891 5.73315 58.524L3.50364 56.5434C1.65258 54.8956 0.668883 52.5585 0.798472 50.0433C0.904499 47.964 1.89409 46.0261 3.36521 44.555L13.0063 34.9139ZM37.1805 57.8614L39.1744 59.8553C41.4908 62.1731 41.4908 65.943 39.1759 68.2594C38.0523 69.383 36.562 70 34.9731 70C33.3841 70 31.8939 69.383 30.7703 68.2594L20.0306 57.5197L28.3449 48.5943H35.7079C36.5223 48.5943 37.1805 49.2526 37.1805 50.0669V57.8614ZM30.8586 51.541L34.2353 54.9176V51.541H30.8586ZM49.1233 37.5851L29.4376 46.166C29.4228 46.1499 29.4117 46.1313 29.4006 46.1127C29.3874 46.0907 29.3743 46.0687 29.3551 46.0511L14.3699 31.9466L23.5354 11.9973L49.1233 37.5851Z" fill="#CBCBCB"/>
  <path d="M43.0709 10.3082C42.2566 10.3082 41.5983 9.64994 41.5983 8.83559V1.4726C41.5983 0.658252 42.2566 0 43.0709 0C43.8852 0 44.5435 0.658252 44.5435 1.4726V8.83559C44.5435 9.64994 43.8852 10.3082 43.0709 10.3082Z" fill="#DA3555"/>
  <path d="M48.8921 13.1842C48.5151 13.1842 48.1381 13.0399 47.851 12.7527C47.2752 12.1769 47.2752 11.2462 47.851 10.6705L55.214 3.30746C55.7897 2.73167 56.7204 2.73167 57.2962 3.30746C57.872 3.88324 57.872 4.81393 57.2962 5.38971L49.9332 12.7527C49.6461 13.0399 49.2691 13.1842 48.8921 13.1842Z" fill="#DA3555"/>
  <path d="M59.2695 19.1438H51.9065C51.0921 19.1438 50.4339 18.4855 50.4339 17.6712C50.4339 16.8568 51.0921 16.1986 51.9065 16.1986H59.2695C60.0838 16.1986 60.7421 16.8568 60.7421 17.6712C60.7421 18.4855 60.0838 19.1438 59.2695 19.1438Z" fill="#DA3555"/>
</svg>
