<svg width="562" height="71" viewBox="0 0 562 71" fill="none" xmlns="http://www.w3.org/2000/svg">
  <g clip-path="url(#clip0_3380_201)">
    <path d="M100.845 32.023C100.639 32.3827 100.343 32.5626 99.958 32.5626C99.6754 32.5626 99.3157 32.4084 98.8789 32.1001C98.442 31.7661 97.8511 31.4063 97.1059 31.0209C96.3864 30.6098 95.4871 30.25 94.4079 29.9417C93.3287 29.6077 92.0183 29.4407 90.4766 29.4407C89.0891 29.4407 87.8172 29.6462 86.6609 30.0573C85.5303 30.4428 84.5539 30.9695 83.7317 31.6376C82.9351 32.3056 82.3184 33.0893 81.8816 33.9887C81.4448 34.8623 81.2264 35.7873 81.2264 36.7637C81.2264 37.9714 81.5347 38.9735 82.1514 39.77C82.7681 40.5666 83.5646 41.2475 84.5411 41.8128C85.5432 42.3781 86.6866 42.8663 87.9713 43.2774C89.2561 43.6885 90.5537 44.0996 91.8641 44.5108C93.2003 44.9219 94.5107 45.3844 95.7955 45.8983C97.0802 46.3865 98.2108 47.0032 99.1872 47.7483C100.189 48.4935 100.999 49.4057 101.615 50.4849C102.232 51.564 102.54 52.8745 102.54 54.4162C102.54 56.0864 102.245 57.6409 101.654 59.0798C101.063 60.5187 100.189 61.765 99.033 62.8185C97.9024 63.8719 96.5021 64.707 94.8319 65.3237C93.1617 65.9404 91.2474 66.2487 89.0891 66.2487C86.3911 66.2487 84.0657 65.8248 82.1129 64.9768C80.1601 64.1032 78.4128 62.9726 76.8711 61.5851L77.719 60.2746C77.8475 60.0691 77.9888 59.9149 78.143 59.8121C78.3229 59.7094 78.5541 59.658 78.8368 59.658C79.1708 59.658 79.5691 59.8635 80.0316 60.2746C80.5198 60.6858 81.1622 61.1354 81.9587 61.6236C82.7552 62.0861 83.7317 62.523 84.8879 62.9341C86.0699 63.3452 87.5217 63.5508 89.2432 63.5508C90.862 63.5508 92.2881 63.3324 93.5214 62.8955C94.7548 62.433 95.7826 61.8163 96.6048 61.0455C97.4271 60.2746 98.0438 59.3753 98.4549 58.3475C98.8917 57.294 99.1101 56.1891 99.1101 55.0329C99.1101 53.7481 98.8018 52.6818 98.1851 51.8338C97.5684 50.9859 96.759 50.2664 95.7569 49.6755C94.7548 49.0845 93.6114 48.5834 92.3266 48.1723C91.0676 47.7612 89.77 47.3501 88.4338 46.9389C87.0977 46.5278 85.7873 46.0782 84.5025 45.59C83.2435 45.1018 82.1129 44.4851 81.1108 43.7399C80.1087 42.9948 79.2993 42.0954 78.6826 41.0419C78.0659 39.9628 77.7576 38.6266 77.7576 37.0335C77.7576 35.6717 78.0531 34.3612 78.644 33.1022C79.235 31.8431 80.0701 30.7383 81.1493 29.7875C82.2542 28.8368 83.5903 28.0788 85.1577 27.5135C86.7251 26.9482 88.4852 26.6656 90.4381 26.6656C92.7763 26.6656 94.8447 26.9996 96.6434 27.6677C98.4677 28.3358 100.125 29.3636 101.615 30.7511L100.845 32.023Z" fill="#CBCBCB"/>
    <path d="M112.354 33.7574C114.127 31.599 116.144 29.8775 118.405 28.5927C120.692 27.308 123.248 26.6656 126.075 26.6656C128.182 26.6656 130.032 26.9996 131.625 27.6677C133.244 28.3358 134.58 29.2993 135.633 30.5584C136.687 31.8174 137.483 33.3334 138.023 35.1064C138.563 36.8794 138.832 38.8836 138.832 41.119V65.6321H135.132V41.119C135.132 37.5217 134.31 34.7081 132.666 32.6782C131.021 30.6226 128.516 29.5948 125.15 29.5948C122.657 29.5948 120.319 30.2372 118.135 31.522C115.977 32.781 114.05 34.5411 112.354 36.8023V65.6321H108.654V9.55273H112.354V33.7574Z" fill="#CBCBCB"/>
    <path d="M162.367 26.6656C165.116 26.6656 167.57 27.141 169.728 28.0917C171.912 29.0167 173.75 30.34 175.24 32.0615C176.73 33.7831 177.861 35.8644 178.632 38.3054C179.428 40.7208 179.827 43.4316 179.827 46.4379C179.827 49.4442 179.428 52.155 178.632 54.5704C177.861 56.9857 176.73 59.0541 175.24 60.7757C173.75 62.4973 171.912 63.8206 169.728 64.7456C167.57 65.6706 165.116 66.1331 162.367 66.1331C159.617 66.1331 157.151 65.6706 154.967 64.7456C152.808 63.8206 150.971 62.4973 149.455 60.7757C147.965 59.0541 146.821 56.9857 146.025 54.5704C145.254 52.155 144.868 49.4442 144.868 46.4379C144.868 43.4316 145.254 40.7208 146.025 38.3054C146.821 35.8644 147.965 33.7831 149.455 32.0615C150.971 30.34 152.808 29.0167 154.967 28.0917C157.151 27.141 159.617 26.6656 162.367 26.6656ZM162.367 63.2424C164.654 63.2424 166.645 62.857 168.341 62.0861C170.062 61.2896 171.488 60.159 172.619 58.6944C173.775 57.2298 174.636 55.4697 175.201 53.4141C175.767 51.3328 176.049 49.0074 176.049 46.4379C176.049 43.8941 175.767 41.5815 175.201 39.5002C174.636 37.419 173.775 35.646 172.619 34.1814C171.488 32.6911 170.062 31.5476 168.341 30.7511C166.645 29.9546 164.654 29.5563 162.367 29.5563C160.08 29.5563 158.076 29.9546 156.354 30.7511C154.658 31.5476 153.232 32.6911 152.076 34.1814C150.945 35.646 150.085 37.419 149.494 39.5002C148.928 41.5815 148.646 43.8941 148.646 46.4379C148.646 49.0074 148.928 51.3328 149.494 53.4141C150.085 55.4697 150.945 57.2298 152.076 58.6944C153.232 60.159 154.658 61.2896 156.354 62.0861C158.076 62.857 160.08 63.2424 162.367 63.2424Z" fill="#CBCBCB"/>
    <path d="M189.818 36.5325C190.409 34.9651 191.077 33.5776 191.822 32.3699C192.593 31.1365 193.467 30.0959 194.443 29.2479C195.445 28.4 196.55 27.7576 197.758 27.3208C198.991 26.8583 200.353 26.6271 201.843 26.6271C202.64 26.6271 203.424 26.7041 204.194 26.8583C204.965 26.9868 205.646 27.2309 206.237 27.5906L205.929 30.1344C205.8 30.5455 205.556 30.7511 205.196 30.7511C204.888 30.7511 204.413 30.6612 203.77 30.4813C203.154 30.3014 202.332 30.2115 201.304 30.2115C199.813 30.2115 198.49 30.4428 197.334 30.9053C196.203 31.3421 195.175 32.0102 194.25 32.9095C193.351 33.8088 192.555 34.9265 191.861 36.2627C191.193 37.5731 190.576 39.0891 190.011 40.8107V65.6321H186.311V27.2823H188.276C188.713 27.2823 189.022 27.3722 189.201 27.5521C189.381 27.7319 189.497 28.0403 189.548 28.4771L189.818 36.5325Z" fill="#CBCBCB"/>
    <path d="M220.191 66.2487C217.596 66.2487 215.566 65.5293 214.101 64.0903C212.662 62.6514 211.943 60.4288 211.943 57.4225V31.2136H206.431C206.148 31.2136 205.917 31.1365 205.737 30.9824C205.557 30.8282 205.468 30.6098 205.468 30.3271V28.9011L212.02 28.4386L212.945 14.7174C212.996 14.4862 213.099 14.2806 213.253 14.1007C213.407 13.9209 213.626 13.8309 213.908 13.8309H215.643V28.4771H227.745V31.2136H215.643V57.2298C215.643 58.2833 215.771 59.1955 216.028 59.9663C216.311 60.7115 216.683 61.3281 217.146 61.8163C217.634 62.3045 218.199 62.6643 218.842 62.8955C219.484 63.1268 220.178 63.2424 220.923 63.2424C221.848 63.2424 222.645 63.1139 223.313 62.857C223.981 62.5743 224.559 62.2789 225.047 61.9705C225.535 61.6365 225.934 61.341 226.242 61.084C226.55 60.8014 226.794 60.6601 226.974 60.6601C227.18 60.6601 227.385 60.7885 227.591 61.0455L228.593 62.6643C227.617 63.7435 226.37 64.6171 224.854 65.2852C223.364 65.9275 221.81 66.2487 220.191 66.2487Z" fill="#CBCBCB"/>
    <path d="M278.262 27.2823L262.074 65.6321H258.837L242.649 27.2823H245.54C245.899 27.2823 246.195 27.3851 246.426 27.5906C246.657 27.7705 246.812 27.976 246.889 28.2073L259.569 58.4632C259.955 59.5937 260.263 60.7115 260.494 61.8163C260.725 60.7115 261.047 59.5937 261.458 58.4632L274.177 28.2073C274.305 27.9247 274.472 27.7062 274.678 27.5521C274.909 27.3722 275.179 27.2823 275.487 27.2823H278.262Z" fill="#CBCBCB"/>
    <path d="M286.391 27.2823V65.6321H282.73V27.2823H286.391ZM287.971 14.0622C287.971 14.5247 287.869 14.9615 287.663 15.3727C287.483 15.7581 287.239 16.105 286.931 16.4133C286.622 16.7216 286.263 16.9657 285.851 17.1456C285.44 17.3255 285.004 17.4154 284.541 17.4154C284.079 17.4154 283.642 17.3255 283.231 17.1456C282.819 16.9657 282.46 16.7216 282.151 16.4133C281.843 16.105 281.599 15.7581 281.419 15.3727C281.239 14.9615 281.149 14.5247 281.149 14.0622C281.149 13.5997 281.239 13.1629 281.419 12.7518C281.599 12.3149 281.843 11.9424 282.151 11.634C282.46 11.3257 282.819 11.0816 283.231 10.9017C283.642 10.7219 284.079 10.6319 284.541 10.6319C285.004 10.6319 285.44 10.7219 285.851 10.9017C286.263 11.0816 286.622 11.3257 286.931 11.634C287.239 11.9424 287.483 12.3149 287.663 12.7518C287.869 13.1629 287.971 13.5997 287.971 14.0622Z" fill="#CBCBCB"/>
    <path d="M322.517 42.5836C322.517 40.528 322.222 38.6909 321.631 37.0721C321.066 35.4276 320.256 34.0401 319.203 32.9095C318.149 31.7789 316.89 30.9181 315.426 30.3271C313.987 29.7105 312.394 29.4021 310.646 29.4021C308.668 29.4021 306.895 29.7105 305.327 30.3271C303.76 30.9438 302.398 31.8303 301.242 32.9866C300.111 34.1428 299.199 35.5304 298.505 37.1492C297.812 38.7679 297.349 40.5794 297.118 42.5836H322.517ZM296.925 44.9347V45.667C296.925 48.5449 297.259 51.0758 297.927 53.2599C298.595 55.444 299.546 57.2812 300.779 58.7715C302.013 60.2361 303.503 61.341 305.25 62.0861C306.998 62.8313 308.95 63.2039 311.109 63.2039C313.036 63.2039 314.706 62.9983 316.119 62.5872C317.533 62.1504 318.715 61.675 319.665 61.1611C320.642 60.6215 321.413 60.1462 321.978 59.735C322.543 59.2982 322.954 59.0798 323.211 59.0798C323.545 59.0798 323.802 59.2083 323.982 59.4653L324.984 60.6986C324.367 61.4695 323.545 62.1889 322.517 62.857C321.515 63.5251 320.385 64.1032 319.126 64.5914C317.892 65.0539 316.556 65.4265 315.117 65.7091C313.704 65.9918 312.278 66.1331 310.839 66.1331C308.218 66.1331 305.829 65.6834 303.67 64.7841C301.512 63.8591 299.662 62.523 298.12 60.7757C296.578 59.0284 295.384 56.8958 294.536 54.3776C293.713 51.8338 293.302 48.9303 293.302 45.667C293.302 42.9177 293.688 40.3867 294.459 38.0742C295.255 35.7359 296.386 33.7317 297.85 32.0615C299.341 30.3657 301.152 29.0424 303.285 28.0917C305.443 27.141 307.884 26.6656 310.608 26.6656C312.766 26.6656 314.77 27.0382 316.62 27.7833C318.47 28.5285 320.076 29.6205 321.438 31.0594C322.8 32.4727 323.866 34.2199 324.637 36.3012C325.434 38.3825 325.832 40.7721 325.832 43.4701C325.832 44.0354 325.755 44.4208 325.601 44.6264C325.447 44.832 325.19 44.9347 324.83 44.9347H296.925Z" fill="#CBCBCB"/>
    <path d="M382.417 27.2823L369.621 65.6321H366.884C366.447 65.6321 366.152 65.3623 365.998 64.8227L355.514 33.6803C355.386 33.2949 355.27 32.9095 355.167 32.5241C355.064 32.1386 354.974 31.7532 354.897 31.3678C354.769 32.1386 354.576 32.9095 354.319 33.6803L343.681 64.8227C343.527 65.3623 343.219 65.6321 342.756 65.6321H340.136L327.339 27.2823H330.115C330.474 27.2823 330.77 27.3851 331.001 27.5906C331.232 27.7705 331.386 27.976 331.464 28.2073L341.138 58.4632C341.292 59.0541 341.433 59.6323 341.562 60.1976C341.69 60.7372 341.793 61.2767 341.87 61.8163C342.024 61.2767 342.178 60.7372 342.333 60.1976C342.487 59.6323 342.667 59.0541 342.872 58.4632L353.124 27.9375C353.304 27.3722 353.664 27.0896 354.204 27.0896H355.707C356.272 27.0896 356.645 27.3722 356.824 27.9375L367 58.4632C367.18 59.0541 367.347 59.6194 367.501 60.159C367.655 60.6986 367.796 61.2382 367.925 61.7778C368.027 61.2382 368.13 60.6986 368.233 60.159C368.362 59.6194 368.516 59.0541 368.696 58.4632L378.447 28.2073C378.55 27.9247 378.717 27.7062 378.948 27.5521C379.179 27.3722 379.449 27.2823 379.757 27.2823H382.417Z" fill="#CBCBCB"/>
    <path d="M396.177 65.6321V25.6635H403.577C404.322 25.6635 404.939 25.8305 405.427 26.1645C405.941 26.4986 406.301 26.9996 406.506 27.6677L407.2 29.9802C407.971 29.2608 408.767 28.5927 409.59 27.976C410.412 27.3594 411.286 26.8455 412.211 26.4343C413.161 25.9975 414.176 25.6635 415.255 25.4322C416.36 25.1753 417.555 25.0468 418.84 25.0468C421.024 25.0468 422.951 25.4322 424.621 26.2031C426.317 26.9482 427.743 28.0017 428.9 29.3636C430.056 30.6997 430.929 32.3056 431.52 34.1814C432.111 36.0314 432.407 38.0485 432.407 40.2326V65.6321H420.459V40.2326C420.459 38.2797 420.009 36.7637 419.11 35.6845C418.21 34.5797 416.887 34.0272 415.14 34.0272C413.829 34.0272 412.596 34.3099 411.44 34.8751C410.283 35.4404 409.179 36.1984 408.125 37.1492V65.6321H396.177Z" fill="#DA3555"/>
    <path d="M454.151 25.0468C456.797 25.0468 459.213 25.4579 461.397 26.2802C463.607 27.1024 465.495 28.2972 467.063 29.8646C468.656 31.432 469.889 33.3591 470.763 35.646C471.662 37.9072 472.112 40.4767 472.112 43.3545C472.112 44.2538 472.073 44.9861 471.996 45.5514C471.919 46.1167 471.778 46.5664 471.572 46.9004C471.366 47.2344 471.084 47.4657 470.724 47.5942C470.39 47.7226 469.953 47.7869 469.414 47.7869H446.365C446.751 51.1272 447.766 53.5554 449.41 55.0714C451.055 56.5617 453.174 57.3069 455.77 57.3069C457.157 57.3069 458.352 57.1399 459.354 56.8058C460.356 56.4718 461.243 56.0992 462.014 55.6881C462.81 55.277 463.53 54.9044 464.172 54.5704C464.84 54.2363 465.534 54.0693 466.253 54.0693C467.204 54.0693 467.923 54.4162 468.412 55.1099L471.88 59.3882C470.647 60.8014 469.311 61.9577 467.872 62.857C466.459 63.7306 464.994 64.4244 463.478 64.9383C461.988 65.4265 460.485 65.7605 458.969 65.9404C457.478 66.146 456.052 66.2487 454.69 66.2487C451.89 66.2487 449.256 65.7991 446.789 64.8997C444.348 63.9747 442.203 62.6129 440.353 60.8142C438.528 59.0156 437.077 56.7801 435.997 54.1078C434.944 51.4356 434.417 48.3265 434.417 44.7806C434.417 42.1083 434.867 39.5773 435.766 37.1877C436.691 34.7981 438.002 32.7039 439.697 30.9053C441.419 29.1066 443.487 27.6805 445.903 26.6271C448.344 25.5736 451.093 25.0468 454.151 25.0468ZM454.382 33.2949C452.095 33.2949 450.309 33.9501 449.025 35.2606C447.74 36.5453 446.892 38.4082 446.481 40.8492H461.397C461.397 39.8985 461.268 38.9735 461.011 38.0742C460.78 37.1748 460.382 36.3783 459.817 35.6845C459.277 34.9651 458.558 34.3869 457.658 33.9501C456.759 33.5133 455.667 33.2949 454.382 33.2949Z" fill="#DA3555"/>
    <path d="M470.489 25.6635H480.047C480.895 25.6635 481.627 25.8562 482.244 26.2416C482.861 26.6271 483.233 27.1281 483.362 27.7448L487.37 45.667C487.679 47.0289 487.961 48.3522 488.218 49.6369C488.475 50.9217 488.706 52.1936 488.912 53.4526C489.272 52.1936 489.644 50.9345 490.03 49.6755C490.441 48.3907 490.839 47.0546 491.225 45.667L496.235 27.7062C496.389 27.1153 496.762 26.6271 497.353 26.2416C497.944 25.8305 498.625 25.6249 499.396 25.6249H504.714C505.562 25.6249 506.282 25.8305 506.873 26.2416C507.489 26.6271 507.875 27.1153 508.029 27.7062L512.808 45.667C513.168 47.0289 513.528 48.3522 513.888 49.6369C514.273 50.9217 514.633 52.2193 514.967 53.5297C515.172 52.245 515.416 50.9731 515.699 49.714C516.007 48.4293 516.329 47.0803 516.663 45.667L520.902 27.7448C521.031 27.1281 521.39 26.6271 521.981 26.2416C522.598 25.8562 523.292 25.6635 524.063 25.6635H533.159L520.748 65.6321H511.035C510.521 65.6321 510.085 65.4779 509.725 65.1695C509.365 64.8612 509.083 64.3473 508.877 63.6278L503.173 43.7014C502.916 42.8021 502.672 41.9156 502.44 41.0419C502.209 40.1683 502.004 39.2947 501.824 38.4211C501.644 39.3204 501.438 40.2197 501.207 41.119C501.002 41.9927 500.757 42.8791 500.475 43.7785L494.693 63.6278C494.308 64.964 493.46 65.6321 492.15 65.6321H482.899L470.489 25.6635Z" fill="#DA3555"/>
    <path d="M558.402 34.4126C558.094 34.9008 557.76 35.2477 557.4 35.4533C557.066 35.6588 556.629 35.7616 556.09 35.7616C555.524 35.7616 554.959 35.646 554.394 35.4147C553.829 35.1578 553.212 34.888 552.544 34.6053C551.901 34.3227 551.169 34.0658 550.347 33.8345C549.525 33.5776 548.587 33.4491 547.533 33.4491C546.017 33.4491 544.848 33.7446 544.026 34.3356C543.229 34.9008 542.831 35.6974 542.831 36.7252C542.831 37.4703 543.088 38.087 543.602 38.5752C544.142 39.0634 544.848 39.5002 545.722 39.8857C546.595 40.2454 547.585 40.5923 548.69 40.9263C549.794 41.2604 550.925 41.6329 552.081 42.044C553.238 42.4552 554.368 42.9434 555.473 43.5087C556.578 44.0483 557.567 44.7292 558.441 45.5514C559.314 46.348 560.008 47.3244 560.522 48.4806C561.062 49.6369 561.332 51.0244 561.332 52.6432C561.332 54.6217 560.972 56.4461 560.252 58.1163C559.533 59.7864 558.454 61.2254 557.015 62.433C555.602 63.6407 553.841 64.5786 551.734 65.2466C549.653 65.9147 547.251 66.2487 544.527 66.2487C543.165 66.2487 541.803 66.1203 540.441 65.8633C539.08 65.6064 537.756 65.2595 536.472 64.8227C535.213 64.3858 534.043 63.8719 532.964 63.281C531.885 62.6643 530.96 62.0091 530.189 61.3153L532.964 56.9214C533.298 56.4075 533.697 56.0093 534.159 55.7266C534.622 55.4183 535.225 55.2641 535.971 55.2641C536.664 55.2641 537.281 55.4183 537.821 55.7266C538.386 56.035 538.99 56.369 539.632 56.7287C540.274 57.0885 541.02 57.4225 541.868 57.7308C542.741 58.0392 543.833 58.1934 545.144 58.1934C546.069 58.1934 546.852 58.1034 547.495 57.9236C548.137 57.718 548.651 57.4482 549.036 57.1142C549.422 56.7801 549.705 56.4075 549.884 55.9964C550.064 55.5853 550.154 55.1613 550.154 54.7245C550.154 53.928 549.884 53.2728 549.345 52.7589C548.805 52.245 548.099 51.8081 547.225 51.4484C546.351 51.063 545.349 50.7161 544.219 50.4078C543.114 50.0737 541.983 49.7012 540.827 49.29C539.671 48.8789 538.527 48.3907 537.397 47.8254C536.292 47.2344 535.303 46.5021 534.429 45.6285C533.555 44.7292 532.849 43.6371 532.309 42.3524C531.769 41.0676 531.5 39.5131 531.5 37.6887C531.5 35.9929 531.821 34.3869 532.463 32.8709C533.131 31.3292 534.121 29.9803 535.431 28.824C536.741 27.6677 538.386 26.7555 540.364 26.0875C542.343 25.3937 544.655 25.0468 547.302 25.0468C548.741 25.0468 550.128 25.1753 551.465 25.4322C552.826 25.6892 554.098 26.0489 555.28 26.5114C556.462 26.9739 557.542 27.5264 558.518 28.1688C559.494 28.7854 560.355 29.4664 561.1 30.2115L558.402 34.4126Z" fill="#DA3555"/>
    <path fill-rule="evenodd" clip-rule="evenodd" d="M57.5311 32.5302C59.0361 34.0352 59.0361 36.4841 57.5311 37.9891C56.7786 38.7416 55.789 39.1186 54.8009 39.1171C54.1117 39.1171 53.4269 38.9227 52.8173 38.5561L23.5288 9.26753C22.632 7.78609 22.8131 5.83048 24.0928 4.55079C25.5963 3.04727 28.0482 3.04727 29.5517 4.55079L57.5311 32.5302ZM12.2192 35.5681L12.2855 35.4238L25.4446 47.8084L13.3914 59.8616C12.5785 60.6745 11.4947 61.2164 10.3446 61.2208H10.324C8.40518 61.2208 6.48196 60.5434 4.94604 59.1783L2.71653 57.1977C0.86547 55.5498 -0.118226 53.2128 0.0113623 50.6976C0.117389 48.6183 1.10698 46.6804 2.5781 45.2093L12.2192 35.5681ZM36.3934 58.5157L38.3873 60.5096C40.7037 62.8274 40.7037 66.5973 38.3888 68.9137C37.2652 70.0373 35.7749 70.6543 34.186 70.6543C32.597 70.6543 31.1068 70.0373 29.9832 68.9137L19.2435 58.174L27.5578 49.2486H34.9208C35.7351 49.2486 36.3934 49.9068 36.3934 50.7212V58.5157ZM30.0715 52.1953L33.4482 55.5719V52.1953H30.0715ZM48.3362 38.2394L28.6505 46.8203C28.6357 46.8041 28.6246 46.7856 28.6135 46.767C28.6003 46.745 28.5872 46.723 28.568 46.7054L13.5828 32.6009L22.7483 12.6516L48.3362 38.2394Z" fill="#CBCBCB"/>
    <path d="M42.2838 10.9625C41.4694 10.9625 40.8112 10.3042 40.8112 9.48989V2.1269C40.8112 1.31255 41.4694 0.654297 42.2838 0.654297C43.0981 0.654297 43.7564 1.31255 43.7564 2.1269V9.48989C43.7564 10.3042 43.0981 10.9625 42.2838 10.9625Z" fill="#DA3555"/>
    <path d="M48.105 13.8385C47.728 13.8385 47.351 13.6942 47.0639 13.407C46.4881 12.8312 46.4881 11.9005 47.0639 11.3248L54.4268 3.96175C55.0026 3.38597 55.9333 3.38597 56.5091 3.96175C57.0849 4.53754 57.0849 5.46822 56.5091 6.04401L49.1461 13.407C48.8589 13.6942 48.482 13.8385 48.105 13.8385Z" fill="#DA3555"/>
    <path d="M58.4824 19.7981H51.1194C50.305 19.7981 49.6468 19.1398 49.6468 18.3255C49.6468 17.5111 50.305 16.8529 51.1194 16.8529H58.4824C59.2967 16.8529 59.955 17.5111 59.955 18.3255C59.955 19.1398 59.2967 19.7981 58.4824 19.7981Z" fill="#DA3555"/>
  </g>
  <defs>
    <clipPath id="clip0_3380_201">
      <rect width="561.332" height="70" fill="white" transform="translate(0 0.654297)"/>
    </clipPath>
  </defs>
</svg>
