<svg width="599" height="71" viewBox="0 0 599 71" fill="none" xmlns="http://www.w3.org/2000/svg">
  <g clip-path="url(#clip0_3380_205)">
    <path d="M29.5989 28.3973C29.3451 28.8415 28.9803 29.0635 28.5044 29.0635C28.1555 29.0635 27.7113 28.8732 27.172 28.4925C26.6327 28.0801 25.903 27.6359 24.983 27.1601C24.0947 26.6525 22.9844 26.2083 21.6519 25.8276C20.3195 25.4152 18.7016 25.209 16.7981 25.209C15.085 25.209 13.5146 25.4628 12.087 25.9704C10.6911 26.4463 9.48561 27.0966 8.47043 27.9215C7.48697 28.7463 6.72559 29.7139 6.18627 30.8243C5.64695 31.9029 5.3773 33.045 5.3773 34.2505C5.3773 35.7415 5.75799 36.9788 6.51938 37.9623C7.28076 38.9457 8.26422 39.7864 9.46975 40.4843C10.707 41.1823 12.1187 41.7851 13.705 42.2926C15.2912 42.8002 16.8933 43.3078 18.5112 43.8154C20.1609 44.323 21.7788 44.894 23.3651 45.5285C24.9513 46.1313 26.3472 46.8927 27.5527 47.8127C28.7899 48.7327 29.7893 49.8589 30.5507 51.1913C31.312 52.5238 31.6927 54.1417 31.6927 56.0452C31.6927 58.1073 31.3279 60.0266 30.5982 61.8032C29.8686 63.5797 28.7899 65.1184 27.3623 66.4191C25.9665 67.7198 24.2375 68.7508 22.1754 69.5122C20.1133 70.2736 17.7498 70.6543 15.085 70.6543C11.7539 70.6543 8.88285 70.1309 6.47179 69.0839C4.06073 68.0053 1.90347 66.6094 0 64.8963L1.04691 63.2784C1.20553 63.0246 1.38001 62.8342 1.57036 62.7073C1.79243 62.5804 2.07795 62.517 2.42692 62.517C2.83934 62.517 3.33107 62.7708 3.90211 63.2784C4.50487 63.786 5.29798 64.3411 6.28144 64.9439C7.2649 65.5149 8.47043 66.0543 9.89803 66.5619C11.3574 67.0694 13.1498 67.3232 15.2753 67.3232C17.274 67.3232 19.0347 67.0536 20.5574 66.5143C22.0802 65.9432 23.3492 65.1818 24.3644 64.2301C25.3796 63.2784 26.141 62.168 26.6485 60.899C27.1879 59.5983 27.4575 58.2342 27.4575 56.8066C27.4575 55.2204 27.0768 53.9038 26.3154 52.8569C25.5541 51.81 24.5547 50.9217 23.3175 50.192C22.0802 49.4624 20.6685 48.8437 19.0823 48.3362C17.5278 47.8286 15.9257 47.321 14.276 46.8134C12.6263 46.3058 11.0084 45.7506 9.42216 45.1478C7.86766 44.5451 6.47179 43.7837 5.23454 42.8637C3.99728 41.9437 2.99796 40.8333 2.23657 39.5326C1.47519 38.2002 1.09449 36.5505 1.09449 34.5836C1.09449 32.9022 1.45933 31.2843 2.18899 29.7298C2.91865 28.1753 3.9497 26.8111 5.28212 25.6373C6.64627 24.4635 8.29595 23.5276 10.2311 22.8297C12.1663 22.1318 14.3395 21.7828 16.7505 21.7828C19.6374 21.7828 22.1913 22.1952 24.412 23.02C26.6644 23.8449 28.7106 25.1138 30.5507 26.827L29.5989 28.3973Z" fill="#CBCBCB"/>
    <path d="M43.8088 30.5387C45.9977 27.8739 48.4881 25.7483 51.2799 24.1621C54.1033 22.5759 57.2599 21.7828 60.7496 21.7828C63.351 21.7828 65.6352 22.1952 67.6021 23.02C69.6007 23.8449 71.2504 25.0345 72.5511 26.589C73.8518 28.1435 74.8353 30.0153 75.5015 32.2043C76.1677 34.3933 76.5008 36.8678 76.5008 39.6278V69.8929H71.9325V39.6278C71.9325 35.1864 70.9173 31.7125 68.8869 29.2063C66.8566 26.6683 63.7634 25.3994 59.6075 25.3994C56.5303 25.3994 53.6433 26.1925 50.9468 27.7787C48.2819 29.3332 45.9026 31.5063 43.8088 34.2981V69.8929H39.2404V0.654297H43.8088V30.5387Z" fill="#CBCBCB"/>
    <path d="M105.558 21.7828C108.952 21.7828 111.982 22.3697 114.647 23.5435C117.343 24.6856 119.612 26.3194 121.452 28.4449C123.292 30.5705 124.688 33.1401 125.639 36.154C126.623 39.1361 127.114 42.483 127.114 46.1947C127.114 49.9065 126.623 53.2534 125.639 56.2355C124.688 59.2176 123.292 61.7715 121.452 63.897C119.612 66.0225 117.343 67.6563 114.647 68.7984C111.982 69.9405 108.952 70.5115 105.558 70.5115C102.163 70.5115 99.1176 69.9405 96.421 68.7984C93.7562 67.6563 91.4879 66.0225 89.6161 63.897C87.7761 61.7715 86.3644 59.2176 85.3809 56.2355C84.4292 53.2534 83.9533 49.9065 83.9533 46.1947C83.9533 42.483 84.4292 39.1361 85.3809 36.154C86.3644 33.1401 87.7761 30.5705 89.6161 28.4449C91.4879 26.3194 93.7562 24.6856 96.421 23.5435C99.1176 22.3697 102.163 21.7828 105.558 21.7828ZM105.558 66.9425C108.381 66.9425 110.84 66.4667 112.934 65.5149C115.059 64.5315 116.82 63.1356 118.216 61.3273C119.643 59.519 120.706 57.3459 121.404 54.8079C122.102 52.2383 122.451 49.3672 122.451 46.1947C122.451 43.054 122.102 40.1988 121.404 37.6291C120.706 35.0595 119.643 32.8705 118.216 31.0622C116.82 29.2222 115.059 27.8104 112.934 26.827C110.84 25.8435 108.381 25.3518 105.558 25.3518C102.734 25.3518 100.26 25.8435 98.1342 26.827C96.0403 27.8104 94.2796 29.2222 92.852 31.0622C91.4562 32.8705 90.3934 35.0595 89.6637 37.6291C88.9658 40.1988 88.6168 43.054 88.6168 46.1947C88.6168 49.3672 88.9658 52.2383 89.6637 54.8079C90.3934 57.3459 91.4562 59.519 92.852 61.3273C94.2796 63.1356 96.0403 64.5315 98.1342 65.5149C100.26 66.4667 102.734 66.9425 105.558 66.9425Z" fill="#CBCBCB"/>
    <path d="M139.451 33.965C140.18 32.0298 141.005 30.3167 141.925 28.8256C142.877 27.3028 143.955 26.018 145.161 24.9711C146.398 23.9242 147.762 23.1311 149.253 22.5918C150.776 22.0207 152.458 21.7352 154.298 21.7352C155.281 21.7352 156.249 21.8304 157.2 22.0207C158.152 22.1793 158.993 22.4807 159.722 22.9249L159.342 26.0656C159.183 26.5732 158.882 26.827 158.438 26.827C158.057 26.827 157.47 26.7159 156.677 26.4939C155.916 26.2718 154.9 26.1608 153.631 26.1608C151.791 26.1608 150.158 26.4463 148.73 27.0173C147.334 27.5566 146.065 28.3815 144.923 29.4918C143.813 30.6022 142.829 31.9822 141.973 33.6319C141.148 35.2498 140.386 37.1216 139.688 39.2471V69.8929H135.12V22.5442H137.547C138.086 22.5442 138.467 22.6552 138.689 22.8773C138.911 23.0993 139.054 23.48 139.117 24.0194L139.451 33.965Z" fill="#CBCBCB"/>
    <path d="M176.95 70.6543C173.746 70.6543 171.24 69.766 169.432 67.9894C167.655 66.2129 166.767 63.4687 166.767 59.757V27.398H159.962C159.613 27.398 159.327 27.3028 159.105 27.1125C158.883 26.9221 158.772 26.6525 158.772 26.3035V24.5428L166.862 23.9718L168.004 7.03091C168.067 6.74539 168.194 6.4916 168.385 6.26953C168.575 6.04745 168.845 5.93642 169.194 5.93642H171.335V24.0194H186.277V27.398H171.335V59.519C171.335 60.8197 171.494 61.9459 171.811 62.8977C172.16 63.8177 172.62 64.5791 173.191 65.1818C173.794 65.7846 174.492 66.2287 175.285 66.5143C176.078 66.7998 176.934 66.9425 177.854 66.9425C178.997 66.9425 179.98 66.7839 180.805 66.4667C181.63 66.1177 182.344 65.7529 182.946 65.3722C183.549 64.9598 184.041 64.5949 184.421 64.2777C184.802 63.9287 185.104 63.7542 185.326 63.7542C185.579 63.7542 185.833 63.9129 186.087 64.2301L187.324 66.2287C186.119 67.5612 184.58 68.6398 182.708 69.4646C180.868 70.2578 178.949 70.6543 176.95 70.6543Z" fill="#CBCBCB"/>
    <path d="M248.649 22.5442L228.662 69.8929H224.665L204.679 22.5442H208.248C208.692 22.5442 209.056 22.6711 209.342 22.9249C209.628 23.1469 209.818 23.4007 209.913 23.6862L225.569 61.0418C226.045 62.4377 226.426 63.8177 226.711 65.1818C226.997 63.8177 227.393 62.4377 227.901 61.0418L243.604 23.6862C243.763 23.3373 243.969 23.0676 244.223 22.8773C244.509 22.6552 244.842 22.5442 245.222 22.5442H248.649Z" fill="#CBCBCB"/>
    <path d="M258.685 22.5442V69.8929H254.164V22.5442H258.685ZM260.636 6.22194C260.636 6.79298 260.509 7.33229 260.255 7.83989C260.033 8.31575 259.732 8.74403 259.351 9.12472C258.97 9.50541 258.526 9.8068 258.019 10.0289C257.511 10.2509 256.972 10.362 256.401 10.362C255.83 10.362 255.29 10.2509 254.783 10.0289C254.275 9.8068 253.831 9.50541 253.45 9.12472C253.07 8.74403 252.768 8.31575 252.546 7.83989C252.324 7.33229 252.213 6.79298 252.213 6.22194C252.213 5.6509 252.324 5.11158 252.546 4.60399C252.768 4.06467 253.07 3.60467 253.45 3.22398C253.831 2.84328 254.275 2.5419 254.783 2.31983C255.29 2.09776 255.83 1.98672 256.401 1.98672C256.972 1.98672 257.511 2.09776 258.019 2.31983C258.526 2.5419 258.97 2.84328 259.351 3.22398C259.732 3.60467 260.033 4.06467 260.255 4.60399C260.509 5.11158 260.636 5.6509 260.636 6.22194Z" fill="#CBCBCB"/>
    <path d="M303.289 41.4361C303.289 38.8981 302.924 36.6298 302.194 34.6312C301.496 32.6008 300.497 30.8877 299.196 29.4918C297.895 28.0959 296.341 27.0332 294.533 26.3035C292.756 25.5421 290.789 25.1614 288.632 25.1614C286.189 25.1614 284 25.5421 282.065 26.3035C280.13 27.0649 278.448 28.1594 277.021 29.587C275.625 31.0146 274.499 32.7277 273.642 34.7264C272.785 36.725 272.214 38.9616 271.929 41.4361H303.289ZM271.691 44.3389V45.243C271.691 48.7962 272.103 51.921 272.928 54.6176C273.753 57.3142 274.927 59.5825 276.45 61.4225C277.972 63.2308 279.812 64.5949 281.97 65.5149C284.127 66.435 286.538 66.895 289.203 66.895C291.582 66.895 293.644 66.6412 295.389 66.1336C297.134 65.5943 298.593 65.0073 299.767 64.3729C300.973 63.7066 301.924 63.1197 302.622 62.6122C303.32 62.0728 303.828 61.8032 304.145 61.8032C304.558 61.8032 304.875 61.9618 305.097 62.279L306.334 63.8018C305.573 64.7536 304.558 65.6418 303.289 66.4667C302.051 67.2915 300.655 68.0053 299.101 68.6081C297.578 69.1791 295.928 69.6391 294.152 69.9881C292.407 70.3371 290.646 70.5115 288.87 70.5115C285.634 70.5115 282.683 69.9564 280.019 68.846C277.354 67.7039 275.07 66.0543 273.166 63.897C271.263 61.7397 269.787 59.1066 268.741 55.9976C267.725 52.8569 267.218 49.272 267.218 45.243C267.218 41.8485 267.694 38.7236 268.645 35.8684C269.629 32.9815 271.025 30.507 272.833 28.4449C274.673 26.3511 276.91 24.7173 279.543 23.5435C282.208 22.3697 285.221 21.7828 288.584 21.7828C291.249 21.7828 293.724 22.2428 296.008 23.1628C298.292 24.0828 300.275 25.4311 301.956 27.2077C303.637 28.9525 304.954 31.1098 305.906 33.6795C306.889 36.2491 307.381 39.1995 307.381 42.5306C307.381 43.2285 307.286 43.7044 307.095 43.9582C306.905 44.212 306.588 44.3389 306.144 44.3389H271.691Z" fill="#CBCBCB"/>
    <path d="M377.243 22.5442L361.445 69.8929H358.066C357.527 69.8929 357.162 69.5598 356.971 68.8936L344.028 30.4436C343.869 29.9677 343.727 29.4918 343.6 29.016C343.473 28.5401 343.362 28.0642 343.267 27.5884C343.108 28.5401 342.87 29.4918 342.553 30.4436L329.419 68.8936C329.228 69.5598 328.848 69.8929 328.277 69.8929H325.041L309.242 22.5442H312.668C313.112 22.5442 313.477 22.6711 313.763 22.9249C314.048 23.1469 314.239 23.4007 314.334 23.6862L326.278 61.0418C326.468 61.7715 326.643 62.4853 326.802 63.1832C326.96 63.8494 327.087 64.5156 327.182 65.1818C327.373 64.5156 327.563 63.8494 327.753 63.1832C327.944 62.4853 328.166 61.7715 328.42 61.0418L341.078 23.3531C341.3 22.6552 341.744 22.3062 342.41 22.3062H344.266C344.964 22.3062 345.424 22.6552 345.646 23.3531L358.209 61.0418C358.431 61.7715 358.637 62.4694 358.827 63.1356C359.018 63.8018 359.192 64.468 359.351 65.1343C359.478 64.468 359.605 63.8018 359.732 63.1356C359.89 62.4694 360.081 61.7715 360.303 61.0418L372.342 23.6862C372.469 23.3373 372.675 23.0676 372.961 22.8773C373.246 22.6552 373.579 22.5442 373.96 22.5442H377.243Z" fill="#CBCBCB"/>
    <path d="M394.233 69.8929V20.5455H403.369C404.289 20.5455 405.051 20.7517 405.653 21.1642C406.288 21.5766 406.732 22.1952 406.986 23.02L407.842 25.8752C408.794 24.9869 409.778 24.1621 410.793 23.4007C411.808 22.6393 412.887 22.0049 414.029 21.4973C415.202 20.9579 416.456 20.5455 417.788 20.26C419.152 19.9428 420.627 19.7841 422.214 19.7841C424.91 19.7841 427.289 20.26 429.352 21.2117C431.445 22.1318 433.206 23.4325 434.634 25.1138C436.061 26.7635 437.14 28.7463 437.87 31.0622C438.599 33.3463 438.964 35.8367 438.964 38.5333V69.8929H424.212V38.5333C424.212 36.1222 423.657 34.2505 422.547 32.9181C421.436 31.5539 419.803 30.8718 417.645 30.8718C416.027 30.8718 414.505 31.2208 413.077 31.9187C411.649 32.6167 410.285 33.5526 408.984 34.7264V69.8929H394.233Z" fill="#DA3555"/>
    <path d="M465.81 19.7841C469.078 19.7841 472.06 20.2917 474.757 21.3069C477.485 22.3221 479.817 23.7973 481.752 25.7325C483.719 27.6677 485.242 30.047 486.32 32.8705C487.431 35.6622 487.986 38.8347 487.986 42.3878C487.986 43.4982 487.938 44.4023 487.843 45.1003C487.748 45.7982 487.573 46.3534 487.32 46.7658C487.066 47.1782 486.717 47.4637 486.273 47.6224C485.86 47.781 485.321 47.8603 484.655 47.8603H456.198C456.674 51.9845 457.927 54.9824 459.957 56.8542C461.988 58.6942 464.605 59.6142 467.809 59.6142C469.522 59.6142 470.997 59.408 472.235 58.9956C473.472 58.5831 474.566 58.1231 475.518 57.6156C476.502 57.108 477.39 56.648 478.183 56.2355C479.008 55.8231 479.864 55.6169 480.753 55.6169C481.926 55.6169 482.815 56.0452 483.417 56.9017L487.7 62.1839C486.178 63.9287 484.528 65.3563 482.751 66.4667C481.006 67.5453 479.198 68.4019 477.326 69.0364C475.486 69.6391 473.63 70.0515 471.759 70.2736C469.919 70.5274 468.158 70.6543 466.477 70.6543C463.019 70.6543 459.767 70.0991 456.721 68.9888C453.708 67.8467 451.059 66.1653 448.774 63.9446C446.522 61.7239 444.729 58.9638 443.397 55.6645C442.096 52.3652 441.446 48.5265 441.446 44.1485C441.446 40.8492 442.001 37.7243 443.112 34.7739C444.254 31.8236 445.872 29.238 447.965 27.0173C450.091 24.7966 452.645 23.0359 455.627 21.7352C458.641 20.4345 462.035 19.7841 465.81 19.7841ZM466.096 29.9677C463.272 29.9677 461.068 30.7767 459.481 32.3946C457.895 33.9808 456.848 36.2809 456.341 39.2947H474.757C474.757 38.1209 474.598 36.9788 474.281 35.8684C473.995 34.7581 473.504 33.7746 472.806 32.9181C472.139 32.0298 471.251 31.316 470.141 30.7767C469.03 30.2373 467.682 29.9677 466.096 29.9677Z" fill="#DA3555"/>
    <path d="M485.982 20.5455H497.783C498.83 20.5455 499.735 20.7835 500.496 21.2593C501.257 21.7352 501.717 22.3538 501.876 23.1152L506.825 45.243C507.206 46.9244 507.555 48.5582 507.872 50.1444C508.189 51.7307 508.475 53.301 508.728 54.8555C509.173 53.301 509.633 51.7465 510.108 50.192C510.616 48.6058 511.108 46.9561 511.584 45.243L517.77 23.0676C517.96 22.338 518.42 21.7352 519.15 21.2593C519.88 20.7517 520.72 20.4979 521.672 20.4979H528.239C529.286 20.4979 530.174 20.7517 530.904 21.2593C531.665 21.7352 532.141 22.338 532.331 23.0676L538.232 45.243C538.676 46.9244 539.12 48.5582 539.565 50.1444C540.04 51.7307 540.485 53.3328 540.897 54.9507C541.151 53.3645 541.452 51.7941 541.801 50.2396C542.182 48.6534 542.578 46.9879 542.991 45.243L548.225 23.1152C548.384 22.3538 548.828 21.7352 549.558 21.2593C550.319 20.7835 551.176 20.5455 552.127 20.5455H563.358L548.035 69.8929H536.043C535.409 69.8929 534.869 69.7026 534.425 69.3219C533.981 68.9412 533.632 68.3067 533.378 67.4184L526.336 42.8161C526.018 41.7057 525.717 40.6112 525.431 39.5326C525.146 38.454 524.892 37.3754 524.67 36.2967C524.448 37.4071 524.194 38.5174 523.909 39.6278C523.655 40.7064 523.353 41.8009 523.004 42.9113L515.866 67.4184C515.391 69.0681 514.344 69.8929 512.726 69.8929H501.305L485.982 20.5455Z" fill="#DA3555"/>
    <path d="M594.525 31.3477C594.144 31.9505 593.732 32.3787 593.288 32.6325C592.875 32.8863 592.336 33.0132 591.67 33.0132C590.972 33.0132 590.274 32.8705 589.576 32.585C588.878 32.2677 588.117 31.9346 587.292 31.5856C586.499 31.2367 585.595 30.9194 584.579 30.6339C583.564 30.3167 582.406 30.158 581.106 30.158C579.234 30.158 577.79 30.5229 576.775 31.2525C575.792 31.9505 575.3 32.9339 575.3 34.2029C575.3 35.1229 575.617 35.8843 576.252 36.4871C576.918 37.0898 577.79 37.6291 578.869 38.105C579.948 38.5492 581.169 38.9774 582.533 39.3899C583.897 39.8023 585.293 40.2623 586.721 40.7699C588.148 41.2775 589.544 41.8802 590.908 42.5782C592.273 43.2444 593.494 44.0851 594.573 45.1003C595.651 46.0837 596.508 47.2892 597.142 48.7168C597.808 50.1444 598.142 51.8576 598.142 53.8562C598.142 56.299 597.697 58.5514 596.809 60.6135C595.921 62.6756 594.588 64.4522 592.812 65.9432C591.067 67.4343 588.894 68.5922 586.292 69.417C583.723 70.2419 580.757 70.6543 577.394 70.6543C575.712 70.6543 574.031 70.4957 572.35 70.1784C570.668 69.8612 569.034 69.4329 567.448 68.8936C565.894 68.3543 564.45 67.7198 563.118 66.9901C561.785 66.2287 560.643 65.4198 559.692 64.5632L563.118 59.1383C563.53 58.5038 564.022 58.0121 564.593 57.6631C565.164 57.2824 565.909 57.0921 566.83 57.0921C567.686 57.0921 568.447 57.2824 569.114 57.6631C569.812 58.0438 570.557 58.4562 571.35 58.9004C572.143 59.3445 573.063 59.757 574.11 60.1377C575.189 60.5183 576.537 60.7087 578.155 60.7087C579.297 60.7087 580.265 60.5977 581.058 60.3756C581.851 60.1218 582.486 59.7887 582.961 59.3763C583.437 58.9638 583.786 58.5038 584.008 57.9962C584.23 57.4887 584.341 56.9652 584.341 56.4259C584.341 55.4424 584.008 54.6335 583.342 53.999C582.676 53.3645 581.803 52.8252 580.725 52.381C579.646 51.9052 578.409 51.4769 577.013 51.0962C575.649 50.6838 574.253 50.2238 572.825 49.7162C571.398 49.2086 569.986 48.6058 568.59 47.9079C567.226 47.1782 566.005 46.2741 564.926 45.1954C563.847 44.0851 562.975 42.7368 562.309 41.1506C561.643 39.5643 561.309 37.645 561.309 35.3926C561.309 33.2988 561.706 31.316 562.499 29.4442C563.324 27.5408 564.545 25.8752 566.163 24.4476C567.781 23.02 569.812 21.8938 572.254 21.069C574.697 20.2124 577.552 19.7841 580.82 19.7841C582.597 19.7841 584.31 19.9428 585.959 20.26C587.641 20.5773 589.211 21.0214 590.67 21.5924C592.13 22.1635 593.462 22.8456 594.668 23.6387C595.873 24.4001 596.936 25.2407 597.856 26.1608L594.525 31.3477Z" fill="#DA3555"/>
  </g>
  <defs>
    <clipPath id="clip0_3380_205">
      <rect width="598.142" height="70" fill="white" transform="translate(0 0.654297)"/>
    </clipPath>
  </defs>
</svg>
