<svg width="454" height="185" viewBox="0 0 454 185" fill="none" xmlns="http://www.w3.org/2000/svg">
  <path d="M413.286 145.815C412.04 145.815 410.963 145.475 410.056 144.795C409.263 144.228 408.47 143.492 407.676 142.585C406.203 140.658 404.956 139.015 403.936 137.655C402.916 136.295 402.406 134.255 402.406 131.535V126.265C402.406 125.245 402.69 123.715 403.256 121.675C403.823 119.522 404.503 117.425 405.296 115.385C406.203 113.345 406.996 111.985 407.676 111.305C408.696 108.018 409.886 104.788 411.246 101.615C412.606 98.4417 414.363 95.5517 416.516 92.945C415.383 90.225 414.646 87.4484 414.306 84.615C413.966 81.6684 413.796 78.7217 413.796 75.775C413.796 74.8684 413.796 74.075 413.796 73.395C413.91 72.6017 414.023 71.7517 414.136 70.845L414.646 70.165L414.816 69.995V69.315C414.703 69.2017 414.646 69.0317 414.646 68.805C414.646 68.3517 414.816 67.615 415.156 66.595C415.496 65.575 415.78 64.555 416.006 63.535C416.346 62.515 416.516 61.9484 416.516 61.835C416.516 61.6084 416.743 61.4384 417.196 61.325L418.046 60.985C418.16 60.8717 418.443 60.7017 418.896 60.475L419.406 60.135C420.426 58.775 421.9 57.8117 423.826 57.245C425.866 56.6784 427.68 56.395 429.266 56.395C432.666 56.395 435.16 57.585 436.746 59.965C438.446 62.2317 439.75 64.8384 440.656 67.785C441.45 67.2184 442.243 66.935 443.036 66.935C443.376 66.935 443.66 67.0484 443.886 67.275C445.7 67.7284 447.74 68.6917 450.006 70.165C452.386 71.6384 453.576 73.225 453.576 74.925V75.265C453.576 75.8317 453.01 76.625 451.876 77.645C450.743 78.665 449.383 79.7417 447.796 80.875C446.323 81.895 444.85 82.8584 443.376 83.765C442.016 84.6717 441.053 85.295 440.486 85.635C439.693 86.0884 438.9 86.485 438.106 86.825C437.653 86.9384 437.256 87.165 436.916 87.505C436.576 87.7317 436.18 87.9584 435.726 88.185C435.16 88.6384 434.593 89.0917 434.026 89.545C433.573 89.9984 433.063 90.5084 432.496 91.075L430.966 92.605C430.626 92.945 430.343 93.285 430.116 93.625C429.89 93.8517 429.606 94.0784 429.266 94.305C429.04 94.5317 428.643 94.815 428.076 95.155C427.623 95.495 427.113 95.8917 426.546 96.345C425.186 97.2517 424.45 98.1017 424.336 98.895C424.223 99.0084 423.996 99.5184 423.656 100.425C423.43 101.218 423.316 101.785 423.316 102.125C423.316 103.372 423.486 104.902 423.826 106.715C424.166 108.415 424.676 110.058 425.356 111.645C425.696 112.552 425.696 113.572 425.356 114.705C425.016 115.725 424.393 115.895 423.486 115.215C422.58 114.308 421.786 113.118 421.106 111.645C420.426 110.172 420.03 109.095 419.916 108.415C419.803 108.188 419.86 108.018 420.086 107.905C420.313 107.792 420.313 107.622 420.086 107.395L419.746 107.055C419.633 106.942 419.576 106.772 419.576 106.545C419.576 106.545 419.463 106.432 419.236 106.205C418.33 107.112 417.366 108.642 416.346 110.795C415.326 112.835 414.59 114.422 414.136 115.555L413.116 117.935C412.55 119.182 412.153 119.805 411.926 119.805C411.473 119.805 411.246 119.522 411.246 118.955V118.785C411.246 118.105 411.416 117.368 411.756 116.575L412.776 113.855C412.21 114.762 411.7 115.782 411.246 116.915C410.906 117.935 410.736 118.615 410.736 118.955V119.125L410.906 119.465C410.906 119.578 410.963 119.692 411.076 119.805V120.485C410.963 120.485 410.906 120.598 410.906 120.825C410.68 121.958 410.396 123.092 410.056 124.225C409.716 125.358 409.376 126.492 409.036 127.625C408.243 129.665 407.846 132.045 407.846 134.765C407.846 136.578 408.186 138.165 408.866 139.525C409.546 140.885 410.85 141.565 412.776 141.565C413.796 141.565 414.703 141.395 415.496 141.055C416.403 140.715 417.706 139.865 419.406 138.505C421.22 137.258 423.033 135.785 424.846 134.085C426.66 132.272 428.19 130.572 429.436 128.985C430.796 127.398 431.476 126.208 431.476 125.415C431.816 124.848 432.27 124.282 432.836 123.715C433.403 123.035 433.573 122.412 433.346 121.845C434.82 119.578 436.066 116.858 437.086 113.685C438.22 110.398 439.126 107.055 439.806 103.655C440.6 100.255 441.11 97.2517 441.336 94.645C441.563 93.7384 441.733 93.115 441.846 92.775C442.073 92.3217 442.243 92.0384 442.356 91.925L442.526 91.755C442.753 91.5284 442.866 91.1884 442.866 90.735C442.866 90.5084 442.866 90.225 442.866 89.885C442.866 89.545 442.81 89.205 442.696 88.865C442.47 88.185 442.356 87.5617 442.356 86.995C442.356 86.5417 442.526 85.9184 442.866 85.125C443.206 84.3317 443.716 83.935 444.396 83.935C445.19 83.935 445.813 84.5584 446.266 85.805C446.72 87.0517 447.06 88.4117 447.286 89.885C447.626 91.245 447.796 92.3217 447.796 93.115C447.796 95.7217 447.513 98.6684 446.946 101.955C446.38 105.128 445.643 108.018 444.736 110.625C443.943 112.778 443.036 114.648 442.016 116.235C441.11 117.822 440.033 119.578 438.786 121.505L437.086 124.225L436.406 125.415C436.293 125.302 436.18 125.528 436.066 126.095C436.066 126.548 435.953 126.775 435.726 126.775C435.613 126.775 435.5 126.888 435.386 127.115C435.386 127.228 435.33 127.342 435.216 127.455C434.65 128.362 433.97 129.155 433.176 129.835C432.723 130.288 432.27 130.742 431.816 131.195C431.476 131.535 431.193 131.932 430.966 132.385C429.72 134.198 428.133 136.125 426.206 138.165C424.393 140.318 422.353 142.132 420.086 143.605C417.933 145.078 415.666 145.815 413.286 145.815ZM420.766 88.525L420.936 88.185L421.276 86.825C421.616 85.3517 422.863 83.595 425.016 81.555C427.17 79.515 428.926 77.815 430.286 76.455C431.306 75.5484 432.326 74.5284 433.346 73.395C434.366 72.2617 435.386 71.2984 436.406 70.505C436.18 69.5984 435.67 68.4084 434.876 66.935C434.196 65.4617 433.403 64.1584 432.496 63.025C431.703 61.7784 430.91 61.155 430.116 61.155C428.87 61.155 427.736 61.665 426.716 62.685L426.376 63.025C426.263 63.365 426.036 63.535 425.696 63.535L424.846 64.045C424.846 64.1584 424.79 64.215 424.676 64.215V64.555C424.223 65.575 423.713 66.6517 423.146 67.785C422.806 68.2384 422.523 68.6917 422.296 69.145C422.183 69.485 422.07 69.7684 421.956 69.995C421.39 71.9217 420.88 73.905 420.426 75.945C420.086 77.985 419.916 80.025 419.916 82.065C419.916 83.1984 419.973 84.3317 420.086 85.465C420.2 86.485 420.426 87.505 420.766 88.525Z" fill="white"/>
  <path d="M405.198 58.9449C403.498 58.9449 402.138 58.2082 401.118 56.7349C400.211 55.1482 399.758 53.6182 399.758 52.1449C403.158 49.6516 406.558 47.2149 409.958 44.8349C413.471 42.3416 417.041 40.4149 420.668 39.0549L422.708 37.5249L422.878 38.2049C422.878 38.8849 422.141 39.8482 420.668 41.0949C419.194 42.2282 418.118 42.9082 417.438 43.1349C417.324 43.3616 416.758 44.3249 415.738 46.0249C414.718 47.6116 413.471 49.4249 411.998 51.4649C410.638 53.3916 409.278 55.1482 407.918 56.7349C406.671 58.2082 405.764 58.9449 405.198 58.9449ZM371.878 137.145C370.291 137.145 369.044 136.578 368.138 135.445C367.231 134.198 366.608 132.725 366.268 131.025C365.928 129.325 365.758 127.852 365.758 126.605C365.758 122.185 366.494 117.765 367.968 113.345C369.554 108.812 371.424 104.675 373.578 100.935C374.144 99.9149 374.768 99.0082 375.448 98.2149L377.148 95.6649C377.488 95.0982 377.828 94.4182 378.168 93.6249C378.394 92.8316 378.734 92.2082 379.188 91.7549C379.754 90.6216 380.378 89.4316 381.058 88.1849C381.851 86.9382 382.644 85.6916 383.438 84.4449C385.024 81.8382 385.818 79.1749 385.818 76.4549C385.931 76.5682 386.101 76.6249 386.328 76.6249H386.498C386.951 76.6249 387.291 76.5682 387.518 76.4549H388.198C389.331 76.4549 390.634 76.9649 392.108 77.9849C393.694 79.0049 395.111 80.2516 396.358 81.7249C397.604 83.0849 398.228 84.3316 398.228 85.4649C398.228 86.2582 397.774 87.1649 396.868 88.1849C396.074 89.2049 395.168 90.2249 394.148 91.2449L392.618 92.7749L391.088 94.4749C390.294 95.3816 389.501 96.4016 388.708 97.5349C387.914 98.5549 387.178 99.6882 386.498 100.935C386.271 101.162 386.158 101.445 386.158 101.785C386.158 102.238 386.101 102.522 385.988 102.635C385.988 103.315 385.421 103.882 384.288 104.335V103.485C381.454 106.318 379.074 109.888 377.148 114.195C375.334 118.502 374.428 122.582 374.428 126.435V127.965C374.428 128.758 374.541 129.268 374.768 129.495C374.881 129.948 375.108 130.175 375.448 130.175H375.788C375.788 130.288 375.844 130.345 375.958 130.345C375.958 130.458 376.014 130.515 376.128 130.515V130.685C376.128 130.912 375.958 131.195 375.618 131.535L375.448 131.705C375.221 131.932 375.108 132.045 375.108 132.045C375.108 132.158 375.504 132.328 376.298 132.555C377.091 132.668 377.544 132.725 377.658 132.725C378.111 132.725 378.848 132.328 379.868 131.535C380.888 130.628 381.964 129.665 383.098 128.645C384.231 127.625 385.138 126.888 385.818 126.435C386.611 125.755 387.348 125.302 388.028 125.075C388.934 123.942 389.841 122.808 390.748 121.675C391.654 120.542 392.504 119.408 393.298 118.275C394.204 117.142 395.054 116.065 395.848 115.045C396.754 114.025 397.661 112.948 398.568 111.815V111.475C398.568 111.248 398.851 110.682 399.418 109.775C400.098 108.755 400.778 107.792 401.458 106.885C402.251 105.978 402.761 105.525 402.988 105.525C403.101 105.638 403.158 105.922 403.158 106.375C403.158 106.828 403.101 107.112 402.988 107.225C402.308 108.698 401.288 110.795 399.928 113.515C398.568 116.122 397.151 118.558 395.678 120.825C394.318 123.092 393.014 124.395 391.768 124.735C391.541 125.302 391.201 125.982 390.748 126.775C390.294 127.568 389.728 128.078 389.048 128.305C388.708 128.872 388.254 129.155 387.688 129.155C387.348 130.062 386.951 130.572 386.498 130.685C386.271 130.912 386.044 131.138 385.818 131.365C385.591 131.478 385.421 131.592 385.308 131.705C385.194 132.158 384.798 132.612 384.118 133.065C383.438 133.405 382.871 133.688 382.418 133.915C381.851 134.482 381.114 135.105 380.208 135.785C379.301 136.465 378.394 136.805 377.488 136.805H376.978L376.468 136.635H376.128C376.014 136.522 375.844 136.465 375.618 136.465C375.278 136.465 374.654 136.578 373.748 136.805C372.841 137.032 372.218 137.145 371.878 137.145Z" fill="white"/>
  <path d="M342.136 143.435C341.569 143.435 341.002 143.265 340.436 142.925C339.869 142.585 339.302 142.302 338.736 142.075C335.789 140.375 333.806 138.108 332.786 135.275C331.879 132.328 331.426 129.325 331.426 126.265C331.426 121.958 331.936 117.652 332.956 113.345C333.976 109.038 335.109 104.788 336.356 100.595C338.849 91.9816 342.022 83.7083 345.876 75.7749C349.729 67.7283 354.149 59.9649 359.136 52.4849C359.929 51.2383 360.722 50.0483 361.516 48.9149C362.422 47.7816 363.329 46.6483 364.236 45.5149C365.142 44.3816 365.992 43.2483 366.786 42.1149C367.579 40.8683 368.372 39.7349 369.166 38.7149L371.546 35.6549C371.999 35.2016 372.396 34.7483 372.736 34.2949C373.076 33.7283 373.416 33.2183 373.756 32.7649C373.982 32.0849 374.096 31.5749 374.096 31.2349C373.982 30.8949 373.926 30.3849 373.926 29.7049C373.926 28.5716 374.662 27.2683 376.136 25.7949C376.816 25.1149 377.382 24.5483 377.836 24.0949C378.402 23.5283 378.856 23.0183 379.196 22.5649C379.876 21.7716 380.499 20.9216 381.066 20.0149C381.746 19.1083 382.369 18.2016 382.936 17.2949C383.502 16.3883 384.069 15.4816 384.636 14.5749C385.316 13.6683 385.939 12.8183 386.506 12.0249C387.299 11.1183 388.092 10.2116 388.886 9.30493C389.679 8.28493 390.472 7.37827 391.266 6.58493C392.059 5.67826 392.796 4.77159 393.476 3.86493C394.269 2.95826 394.949 1.93826 395.516 0.804932C397.442 1.25827 399.426 1.8816 401.466 2.67493C403.506 3.46826 405.206 4.48826 406.566 5.73493C408.039 6.9816 408.776 8.6816 408.776 10.8349C408.776 11.6283 408.436 12.4783 407.756 13.3849C405.376 15.8783 402.826 18.2583 400.106 20.5249C398.632 21.6583 397.272 22.8483 396.026 24.0949C394.779 25.3416 393.589 26.5883 392.456 27.8349C388.942 31.6883 385.316 36.3349 381.576 41.7749C377.836 47.1016 374.322 52.5983 371.036 58.2649C367.749 63.9316 365.029 69.1449 362.876 73.9049L362.026 75.2649L360.666 76.1149V75.0949L361.006 73.9049C360.326 75.0383 359.702 76.1716 359.136 77.3049C358.569 78.4383 358.002 79.6283 357.436 80.8749L353.866 88.1849C352.846 90.2249 351.826 92.3216 350.806 94.4749C349.899 96.6283 349.162 98.8383 348.596 101.105C348.482 101.445 348.426 101.842 348.426 102.295C348.426 102.862 348.369 103.315 348.256 103.655C348.256 104.335 347.859 104.675 347.066 104.675C346.612 104.675 346.386 104.448 346.386 103.995C346.386 102.295 346.839 100.538 347.746 98.7249C347.632 98.8383 347.519 99.0083 347.406 99.2349C347.292 99.3483 347.122 99.4616 346.896 99.5749C346.669 99.1216 346.556 98.8383 346.556 98.7249V98.5549C346.556 97.0816 346.782 95.5516 347.236 93.9649C346.669 94.5316 346.329 95.0983 346.216 95.6649C345.989 96.4583 345.706 97.3083 345.366 98.2149C345.139 99.0083 344.799 99.8583 344.346 100.765C343.892 101.558 343.552 102.408 343.326 103.315C343.099 104.108 342.872 104.902 342.646 105.695L341.626 111.305C341.512 112.212 341.342 113.175 341.116 114.195C340.889 115.102 340.662 116.008 340.436 116.915C339.869 119.975 339.586 122.865 339.586 125.585C339.586 125.812 339.586 126.095 339.586 126.435C339.586 126.775 339.642 127.115 339.756 127.455C339.869 127.795 339.926 128.135 339.926 128.475C339.926 128.815 339.982 129.212 340.096 129.665L340.606 131.535C340.719 131.762 340.776 132.045 340.776 132.385C340.776 132.725 340.832 133.008 340.946 133.235C341.172 132.668 341.682 132.328 342.476 132.215V133.065C342.929 133.518 343.269 133.915 343.496 134.255C343.836 134.595 344.289 134.765 344.856 134.765C346.442 134.765 348.086 134.028 349.786 132.555C351.486 131.082 353.072 129.382 354.546 127.455C356.019 125.528 357.096 123.942 357.776 122.695C358.229 122.128 358.682 121.562 359.136 120.995C359.589 120.428 360.042 119.918 360.496 119.465C361.062 119.012 361.516 118.502 361.856 117.935C362.309 117.368 362.762 116.802 363.216 116.235C365.596 112.608 367.806 109.038 369.846 105.525C370.072 105.072 370.299 104.675 370.526 104.335C370.752 103.995 370.979 103.712 371.206 103.485L372.566 102.125C373.246 101.445 373.699 101.105 373.926 101.105C374.266 101.105 374.436 101.332 374.436 101.785C374.436 101.898 374.152 102.635 373.586 103.995C373.019 105.355 372.509 106.318 372.056 106.885L372.226 107.055C370.979 108.868 369.789 110.682 368.656 112.495C367.522 114.308 366.502 116.178 365.596 118.105C364.689 120.032 363.669 121.902 362.536 123.715C361.516 125.528 360.382 127.342 359.136 129.155C358.002 130.855 356.869 132.725 355.736 134.765C354.602 136.692 353.356 138.392 351.996 139.865C350.749 141.452 349.106 142.415 347.066 142.755C346.839 142.868 346.556 142.925 346.216 142.925C345.876 142.925 345.592 142.925 345.366 142.925H343.666C343.212 143.265 342.702 143.435 342.136 143.435ZM354.886 76.7949C355.339 76.3416 355.679 75.8883 355.906 75.4349C356.246 74.8683 356.529 74.3016 356.756 73.7349C357.322 72.9416 357.832 72.1483 358.286 71.3549C358.739 70.5616 359.192 69.7683 359.646 68.9749H359.816L359.986 68.2949C359.646 68.2949 359.192 68.8049 358.626 69.8249C358.399 70.3916 358.172 70.9583 357.946 71.5249C357.719 71.9783 357.492 72.4316 357.266 72.8849L355.736 75.4349L354.886 76.7949ZM349.446 86.9949C348.086 88.9216 347.406 91.0183 347.406 93.2849C348.086 91.0183 349.049 88.9783 350.296 87.1649L352.166 84.2749C352.619 83.4816 352.959 82.4049 353.186 81.0449L353.016 80.8749C351.882 83.0283 350.692 85.0683 349.446 86.9949ZM348.596 96.8549C348.822 96.4016 348.936 96.1749 348.936 96.1749C349.502 94.9283 349.956 93.7383 350.296 92.6049C350.749 91.4716 351.032 90.3383 351.146 89.2049C351.032 90.2249 350.579 91.5849 349.786 93.2849C348.992 94.7583 348.596 95.9483 348.596 96.8549Z" fill="white"/>
  <path d="M293.589 145.815C292.342 145.815 291.266 145.475 290.359 144.795C289.566 144.228 288.772 143.492 287.979 142.585C286.506 140.658 285.259 139.015 284.239 137.655C283.219 136.295 282.709 134.255 282.709 131.535V126.265C282.709 125.245 282.992 123.715 283.559 121.675C284.126 119.522 284.806 117.425 285.599 115.385C286.506 113.345 287.299 111.985 287.979 111.305C288.999 108.018 290.189 104.788 291.549 101.615C292.909 98.4417 294.666 95.5517 296.819 92.945C295.686 90.225 294.949 87.4484 294.609 84.615C294.269 81.6684 294.099 78.7217 294.099 75.775C294.099 74.8684 294.099 74.075 294.099 73.395C294.212 72.6017 294.326 71.7517 294.439 70.845L294.949 70.165L295.119 69.995V69.315C295.006 69.2017 294.949 69.0317 294.949 68.805C294.949 68.3517 295.119 67.615 295.459 66.595C295.799 65.575 296.082 64.555 296.309 63.535C296.649 62.515 296.819 61.9484 296.819 61.835C296.819 61.6084 297.046 61.4384 297.499 61.325L298.349 60.985C298.462 60.8717 298.746 60.7017 299.199 60.475L299.709 60.135C300.729 58.775 302.202 57.8117 304.129 57.245C306.169 56.6784 307.982 56.395 309.569 56.395C312.969 56.395 315.462 57.585 317.049 59.965C318.749 62.2317 320.052 64.8384 320.959 67.785C321.752 67.2184 322.546 66.935 323.339 66.935C323.679 66.935 323.962 67.0484 324.189 67.275C326.002 67.7284 328.042 68.6917 330.309 70.165C332.689 71.6384 333.879 73.225 333.879 74.925V75.265C333.879 75.8317 333.312 76.625 332.179 77.645C331.046 78.665 329.686 79.7417 328.099 80.875C326.626 81.895 325.152 82.8584 323.679 83.765C322.319 84.6717 321.356 85.295 320.789 85.635C319.996 86.0884 319.202 86.485 318.409 86.825C317.956 86.9384 317.559 87.165 317.219 87.505C316.879 87.7317 316.482 87.9584 316.029 88.185C315.462 88.6384 314.896 89.0917 314.329 89.545C313.876 89.9984 313.366 90.5084 312.799 91.075L311.269 92.605C310.929 92.945 310.646 93.285 310.419 93.625C310.192 93.8517 309.909 94.0784 309.569 94.305C309.342 94.5317 308.946 94.815 308.379 95.155C307.926 95.495 307.416 95.8917 306.849 96.345C305.489 97.2517 304.752 98.1017 304.639 98.895C304.526 99.0084 304.299 99.5184 303.959 100.425C303.732 101.218 303.619 101.785 303.619 102.125C303.619 103.372 303.789 104.902 304.129 106.715C304.469 108.415 304.979 110.058 305.659 111.645C305.999 112.552 305.999 113.572 305.659 114.705C305.319 115.725 304.696 115.895 303.789 115.215C302.882 114.308 302.089 113.118 301.409 111.645C300.729 110.172 300.332 109.095 300.219 108.415C300.106 108.188 300.162 108.018 300.389 107.905C300.616 107.792 300.616 107.622 300.389 107.395L300.049 107.055C299.936 106.942 299.879 106.772 299.879 106.545C299.879 106.545 299.766 106.432 299.539 106.205C298.632 107.112 297.669 108.642 296.649 110.795C295.629 112.835 294.892 114.422 294.439 115.555L293.419 117.935C292.852 119.182 292.456 119.805 292.229 119.805C291.776 119.805 291.549 119.522 291.549 118.955V118.785C291.549 118.105 291.719 117.368 292.059 116.575L293.079 113.855C292.512 114.762 292.002 115.782 291.549 116.915C291.209 117.935 291.039 118.615 291.039 118.955V119.125L291.209 119.465C291.209 119.578 291.266 119.692 291.379 119.805V120.485C291.266 120.485 291.209 120.598 291.209 120.825C290.982 121.958 290.699 123.092 290.359 124.225C290.019 125.358 289.679 126.492 289.339 127.625C288.546 129.665 288.149 132.045 288.149 134.765C288.149 136.578 288.489 138.165 289.169 139.525C289.849 140.885 291.152 141.565 293.079 141.565C294.099 141.565 295.006 141.395 295.799 141.055C296.706 140.715 298.009 139.865 299.709 138.505C301.522 137.258 303.336 135.785 305.149 134.085C306.962 132.272 308.492 130.572 309.739 128.985C311.099 127.398 311.779 126.208 311.779 125.415C312.119 124.848 312.572 124.282 313.139 123.715C313.706 123.035 313.876 122.412 313.649 121.845C315.122 119.578 316.369 116.858 317.389 113.685C318.522 110.398 319.429 107.055 320.109 103.655C320.902 100.255 321.412 97.2517 321.639 94.645C321.866 93.7384 322.036 93.115 322.149 92.775C322.376 92.3217 322.546 92.0384 322.659 91.925L322.829 91.755C323.056 91.5284 323.169 91.1884 323.169 90.735C323.169 90.5084 323.169 90.225 323.169 89.885C323.169 89.545 323.112 89.205 322.999 88.865C322.772 88.185 322.659 87.5617 322.659 86.995C322.659 86.5417 322.829 85.9184 323.169 85.125C323.509 84.3317 324.019 83.935 324.699 83.935C325.492 83.935 326.116 84.5584 326.569 85.805C327.022 87.0517 327.362 88.4117 327.589 89.885C327.929 91.245 328.099 92.3217 328.099 93.115C328.099 95.7217 327.816 98.6684 327.249 101.955C326.682 105.128 325.946 108.018 325.039 110.625C324.246 112.778 323.339 114.648 322.319 116.235C321.412 117.822 320.336 119.578 319.089 121.505L317.389 124.225L316.709 125.415C316.596 125.302 316.482 125.528 316.369 126.095C316.369 126.548 316.256 126.775 316.029 126.775C315.916 126.775 315.802 126.888 315.689 127.115C315.689 127.228 315.632 127.342 315.519 127.455C314.952 128.362 314.272 129.155 313.479 129.835C313.026 130.288 312.572 130.742 312.119 131.195C311.779 131.535 311.496 131.932 311.269 132.385C310.022 134.198 308.436 136.125 306.509 138.165C304.696 140.318 302.656 142.132 300.389 143.605C298.236 145.078 295.969 145.815 293.589 145.815ZM301.069 88.525L301.239 88.185L301.579 86.825C301.919 85.3517 303.166 83.595 305.319 81.555C307.472 79.515 309.229 77.815 310.589 76.455C311.609 75.5484 312.629 74.5284 313.649 73.395C314.669 72.2617 315.689 71.2984 316.709 70.505C316.482 69.5984 315.972 68.4084 315.179 66.935C314.499 65.4617 313.706 64.1584 312.799 63.025C312.006 61.7784 311.212 61.155 310.419 61.155C309.172 61.155 308.039 61.665 307.019 62.685L306.679 63.025C306.566 63.365 306.339 63.535 305.999 63.535L305.149 64.045C305.149 64.1584 305.092 64.215 304.979 64.215V64.555C304.526 65.575 304.016 66.6517 303.449 67.785C303.109 68.2384 302.826 68.6917 302.599 69.145C302.486 69.485 302.372 69.7684 302.259 69.995C301.692 71.9217 301.182 73.905 300.729 75.945C300.389 77.985 300.219 80.025 300.219 82.065C300.219 83.1984 300.276 84.3317 300.389 85.465C300.502 86.485 300.729 87.505 301.069 88.525Z" fill="white"/>
  <path d="M229.156 118.955C228.703 119.408 228.079 119.238 227.286 118.445C226.606 117.652 226.493 117.255 226.946 117.255C227.173 116.348 227.626 115.158 228.306 113.685C229.099 112.212 229.836 110.908 230.516 109.775C232.556 106.602 234.029 103.655 234.936 100.935C235.163 100.368 235.559 99.6883 236.126 98.8949C236.693 97.9883 237.203 97.4216 237.656 97.1949L239.016 95.4949C238.449 95.0416 238.053 94.8149 237.826 94.8149H237.316C238.223 93.2283 239.016 91.8683 239.696 90.7349C240.489 89.4883 241.509 88.2416 242.756 86.9949C240.149 86.5416 237.656 85.6349 235.276 84.2749C233.009 82.9149 231.876 80.7049 231.876 77.6449C231.876 76.1716 232.216 75.2083 232.896 74.7549C233.576 74.1883 233.916 73.6783 233.916 73.2249C234.029 72.9983 234.256 72.7149 234.596 72.3749C234.936 71.9216 235.219 71.6949 235.446 71.6949C235.673 71.6949 235.786 71.8649 235.786 72.2049C235.786 72.5449 235.899 72.7149 236.126 72.7149C236.013 73.3949 235.616 74.3016 234.936 75.4349C234.369 76.3416 234.086 77.2483 234.086 78.1549C234.086 79.2883 234.709 80.3083 235.956 81.2149C237.203 82.0083 238.619 82.6316 240.206 83.0849C241.906 83.5383 243.209 83.8783 244.116 84.1049C246.609 78.7783 249.386 73.6216 252.446 68.6349C255.619 63.6483 258.793 58.6616 261.966 53.6749C264.233 50.0483 266.556 46.4216 268.936 42.7949C271.316 39.1683 273.809 35.7116 276.416 32.4249C278.683 29.7049 280.949 27.0983 283.216 24.6049C284.349 23.3583 285.426 22.1116 286.446 20.8649C287.579 19.5049 288.713 18.1449 289.846 16.7849C292.793 12.9316 295.966 10.0416 299.366 8.11493C302.879 6.07493 306.733 3.63826 310.926 0.804932C312.399 1.25827 314.156 2.0516 316.196 3.18493C318.236 4.20493 319.256 5.50827 319.256 7.09493C319.256 7.20826 319.199 7.43493 319.086 7.77493C319.086 8.0016 319.029 8.28493 318.916 8.62493C318.123 9.07827 317.329 9.58827 316.536 10.1549C315.743 10.6083 314.893 11.1183 313.986 11.6849C313.193 12.1383 312.399 12.7049 311.606 13.3849C310.813 13.9516 310.076 14.5183 309.396 15.0849C308.716 15.5383 307.809 16.4449 306.676 17.8049C305.543 19.0516 304.409 20.2983 303.276 21.5449C302.256 22.6783 301.406 23.4149 300.726 23.7549L300.386 23.2449C299.819 24.1516 298.969 25.1149 297.836 26.1349C296.703 27.1549 295.626 27.8349 294.606 28.1749L294.946 28.6849L292.056 30.8949V30.5549H292.226L292.906 29.7049V29.3649H292.736V29.5349C292.509 29.7616 292.056 30.1583 291.376 30.7249C290.696 31.1783 290.243 31.4616 290.016 31.5749L288.486 34.8049C290.639 34.6916 291.093 35.4849 289.846 37.1849C289.846 37.6383 289.053 38.7149 287.466 40.4149C285.993 42.1149 284.236 44.0983 282.196 46.3649C280.269 48.5183 278.513 50.5583 276.926 52.4849C275.339 54.4116 274.489 55.8283 274.376 56.7349C272.903 57.8683 271.713 58.8883 270.806 59.7949C270.013 60.5883 269.276 61.5516 268.596 62.6849C267.916 63.7049 266.953 65.1783 265.706 67.1049L266.216 68.6349L259.416 76.4549C259.303 76.9083 259.076 77.4183 258.736 77.9849C258.396 78.5516 257.999 79.1183 257.546 79.6849C256.526 80.8183 256.016 81.9516 256.016 83.0849C256.016 83.7649 256.243 84.1049 256.696 84.1049C257.829 84.1049 259.359 83.3683 261.286 81.8949C263.326 80.3083 265.366 78.6649 267.406 76.9649C269.559 75.2649 271.316 74.3016 272.676 74.0749V73.9049C275.396 71.7516 278.003 69.7116 280.496 67.7849C283.103 65.8583 285.766 63.9316 288.486 62.0049L289.166 62.1749C289.619 61.7216 289.959 61.1549 290.186 60.4749L292.056 60.6449V60.8149H292.226V61.6649C292.226 62.4583 292.056 63.0249 291.716 63.3649C291.036 63.3649 290.696 63.5349 290.696 63.8749C291.036 64.2149 291.206 64.4416 291.206 64.5549C291.206 64.6683 291.036 64.7816 290.696 64.8949C290.356 64.8949 290.129 64.8949 290.016 64.8949V65.0649L287.466 66.7649C287.466 67.1049 287.409 67.3883 287.296 67.6149C287.183 67.9549 287.126 68.2383 287.126 68.4649C286.673 68.3516 286.446 67.9549 286.446 67.2749C286.446 67.0483 286.446 66.7649 286.446 66.4249C286.559 66.0849 286.673 65.6883 286.786 65.2349H286.446C286.333 65.3483 286.163 65.6316 285.936 66.0849C285.709 66.4249 285.596 66.6516 285.596 66.7649L285.766 67.1049V67.4449C285.539 67.6716 285.256 67.8983 284.916 68.1249C284.463 68.4649 284.236 68.7483 284.236 68.9749H284.746C284.859 69.0883 285.029 69.1449 285.256 69.1449L284.746 69.6549L284.236 70.3349H284.066C284.066 70.1083 284.009 69.9949 283.896 69.9949C283.669 69.9949 283.499 69.9383 283.386 69.8249L281.686 72.2049L281.176 71.3549L279.816 73.0549V73.2249C279.476 73.2249 278.796 73.6216 277.776 74.4149C276.756 75.0949 275.793 75.8316 274.886 76.6249C273.979 77.4183 273.526 78.0416 273.526 78.4949H273.356L265.706 82.4049H265.876L262.816 84.9549H262.646V84.6149C262.533 84.5016 262.476 84.3883 262.476 84.2749H262.306V84.4449C262.079 84.5583 261.796 84.7849 261.456 85.1249L260.436 85.8049H261.456C261.569 85.9183 261.853 85.9749 262.306 85.9749C263.666 85.9749 264.743 85.7483 265.536 85.2949H267.916C268.369 85.2949 268.823 85.2949 269.276 85.2949C269.729 85.2949 270.183 85.2383 270.636 85.1249C271.089 85.0116 271.543 84.9549 271.996 84.9549C272.449 84.9549 272.903 84.9549 273.356 84.9549C273.809 84.9549 274.206 84.9549 274.546 84.9549C274.999 84.9549 275.453 85.0116 275.906 85.1249C276.359 85.2383 276.756 85.2949 277.096 85.2949C277.436 85.2949 277.833 85.2949 278.286 85.2949C279.079 85.2949 280.383 85.1816 282.196 84.9549C284.009 84.6149 285.879 84.3316 287.806 84.1049C289.733 83.8783 291.376 83.8783 292.736 84.1049C294.096 84.3316 294.776 84.9549 294.776 85.9749C294.776 86.4283 294.549 86.5983 294.096 86.4849C293.416 86.2583 293.076 86.1449 293.076 86.1449C292.169 86.1449 291.773 85.9749 291.886 85.6349C292.113 85.6349 292.169 85.6349 292.056 85.6349C291.943 85.5216 291.716 85.4083 291.376 85.2949L290.356 84.9549C289.676 86.0883 288.769 86.6549 287.636 86.6549C287.296 86.6549 286.899 86.6549 286.446 86.6549C285.993 86.5416 285.483 86.4283 284.916 86.3149L284.406 87.5049L282.366 86.6549C281.459 87.2216 280.666 87.4483 279.986 87.3349C279.873 87.4483 279.703 87.7883 279.476 88.3549C279.249 88.9216 278.909 89.2049 278.456 89.2049V88.5249C278.343 88.4116 278.286 88.1849 278.286 87.8449L277.946 87.6749C276.359 88.5816 274.829 89.0349 273.356 89.0349C272.336 89.0349 271.599 88.9783 271.146 88.8649H269.106C265.933 88.8649 262.703 89.2049 259.416 89.8849L259.076 89.7149C258.623 89.8283 258.226 89.8849 257.886 89.8849C257.546 89.8849 257.206 89.8849 256.866 89.8849H254.656C253.183 90.6783 251.766 91.0749 250.406 91.0749V91.2449L248.706 93.4549C248.479 93.3416 248.196 93.2849 247.856 93.2849C247.403 93.2849 247.063 93.2283 246.836 93.1149L241.056 99.4049L239.526 101.445C238.846 102.352 238.223 102.805 237.656 102.805V103.485L237.486 103.825C236.353 104.845 235.673 105.638 235.446 106.205L234.256 109.095C233.576 109.888 232.669 111.475 231.536 113.855C230.516 116.122 229.723 117.822 229.156 118.955ZM294.096 60.6449C293.983 60.6449 293.926 60.5316 293.926 60.3049C293.926 60.0783 294.039 59.5116 294.266 58.6049C294.606 57.6983 294.889 57.1316 295.116 56.9049C296.023 55.6583 297.553 53.9583 299.706 51.8049C301.859 49.6516 304.069 47.4983 306.336 45.3449C308.603 43.0783 310.416 41.3783 311.776 40.2449L312.456 40.9249L312.966 40.4149V40.2449C313.193 39.3383 313.476 38.4883 313.816 37.6949C314.269 36.9016 314.779 36.1083 315.346 35.3149H315.516V34.6349C315.516 34.1816 315.629 33.9549 315.856 33.9549C316.083 33.9549 316.309 34.0683 316.536 34.2949L319.766 26.1349H319.936C320.163 26.1349 320.389 26.2483 320.616 26.4749C320.729 26.5883 320.843 26.7016 320.956 26.8149C321.069 26.9283 321.183 27.0416 321.296 27.1549C321.183 26.8149 321.126 26.4749 321.126 26.1349C321.239 25.7949 321.353 25.3983 321.466 24.9449C321.693 24.2649 321.693 23.5849 321.466 22.9049L322.146 22.0549C322.373 20.8083 322.713 19.2783 323.166 17.4649C323.506 15.5383 323.676 14.1216 323.676 13.2149C323.676 12.4216 323.676 11.6849 323.676 11.0049C323.676 10.3249 323.619 9.58827 323.506 8.79493C323.393 8.0016 323.336 7.26493 323.336 6.58493C323.336 5.90493 323.336 5.16826 323.336 4.37493C323.336 3.9216 323.449 3.69494 323.676 3.69494C323.903 3.69494 324.186 3.86493 324.526 4.20493C326.113 5.33826 327.076 6.75493 327.416 8.45493C327.869 10.1549 328.096 11.9116 328.096 13.7249C328.096 14.6316 328.039 15.5383 327.926 16.4449C327.926 17.3516 327.869 18.2583 327.756 19.1649L326.906 19.5049C326.679 20.1849 326.566 20.8083 326.566 21.3749L326.056 23.2449C325.943 23.5849 325.716 24.0949 325.376 24.7749C325.036 25.3416 324.753 25.7949 324.526 26.1349C324.413 26.3616 324.016 27.2116 323.336 28.6849C322.656 30.0449 321.863 31.6316 320.956 33.4449C320.163 35.2583 319.369 36.8449 318.576 38.2049C317.783 39.4516 317.216 40.0749 316.876 40.0749L316.706 40.2449L316.366 39.9049H315.856C314.156 42.8516 312.399 45.0616 310.586 46.5349C308.773 48.0083 306.846 49.3683 304.806 50.6149C302.879 51.8616 300.669 53.7316 298.176 56.2249C297.383 56.9049 296.703 57.5849 296.136 58.2649C295.569 58.9449 295.003 59.6816 294.436 60.4749C294.436 60.4749 294.379 60.4749 294.266 60.4749C294.266 60.4749 294.209 60.5316 294.096 60.6449ZM288.316 85.2949L288.486 84.7849L287.806 84.6149V84.9549L287.466 85.1249L288.316 85.2949ZM224.226 160.945C222.753 160.945 221.393 160.435 220.146 159.415C219.806 158.508 219.126 157.488 218.106 156.355C217.199 155.108 216.746 154.088 216.746 153.295C216.746 152.388 216.803 151.425 216.916 150.405C216.916 149.498 216.973 148.592 217.086 147.685C217.199 146.778 217.313 145.815 217.426 144.795C217.539 143.888 217.653 142.982 217.766 142.075C218.333 141.622 218.729 141.055 218.956 140.375C219.069 139.695 219.126 139.015 219.126 138.335C220.033 137.768 220.486 136.862 220.486 135.615C220.599 134.255 221.166 133.575 222.186 133.575C222.186 133.008 222.243 132.668 222.356 132.555C222.356 132.215 222.413 131.988 222.526 131.875L222.356 131.025L222.526 130.855C222.753 130.062 222.979 128.645 223.206 126.605C223.546 124.565 223.943 123.035 224.396 122.015C224.849 121.448 225.019 121.278 224.906 121.505C224.793 121.732 224.736 122.072 224.736 122.525C224.849 122.978 225.246 123.205 225.926 123.205C226.153 123.205 226.379 122.638 226.606 121.505C226.946 120.372 227.286 119.805 227.626 119.805H228.306C228.533 119.805 228.646 119.918 228.646 120.145C228.646 120.938 228.419 121.788 227.966 122.695C227.399 123.942 227.059 125.075 226.946 126.095C226.719 127.908 226.436 129.722 226.096 131.535C225.756 133.348 225.303 135.105 224.736 136.805C223.603 140.092 223.036 143.662 223.036 147.515C223.036 149.442 223.149 151.198 223.376 152.785C223.716 154.485 224.339 156.128 225.246 157.715C225.473 157.602 225.926 157.318 226.606 156.865C227.399 156.525 227.853 156.298 227.966 156.185V156.355L228.476 157.545H228.816C229.043 157.092 229.269 156.638 229.496 156.185C229.836 155.732 230.289 155.505 230.856 155.505L231.196 156.355L230.856 156.525C230.289 157.772 229.383 158.792 228.136 159.585C227.003 160.492 225.699 160.945 224.226 160.945Z" fill="white"/>
  <path d="M193.2 110.795C192.293 111.248 191.557 111.192 190.99 110.625C190.537 110.058 190.537 109.492 190.99 108.925C191.557 108.358 191.897 107.848 192.01 107.395C192.123 106.942 192.18 106.432 192.18 105.865V104.505C192.18 103.712 192.237 103.258 192.35 103.145L193.37 102.125C193.483 101.898 193.823 101.672 194.39 101.445L195.24 99.0649C194.447 98.1583 194.56 97.1949 195.58 96.1749L195.75 96.0049V95.8349L196.09 95.3249L197.11 93.6249L197.28 93.2849H197.62C197.393 92.7183 197.563 92.0949 198.13 91.4149C198.357 90.8483 198.697 90.2816 199.15 89.7149C199.603 89.1483 200.057 88.5249 200.51 87.8449C201.643 86.5983 202.267 85.4649 202.38 84.4449C202.607 83.5383 203.117 82.7449 203.91 82.0649C203.797 82.0649 203.74 81.9516 203.74 81.7249C203.74 81.6116 203.683 81.5549 203.57 81.5549C203.57 81.4416 203.627 81.3283 203.74 81.2149V81.0449C203.967 80.8183 204.363 80.2516 204.93 79.3449C205.497 78.3249 206.063 77.3049 206.63 76.2849C206.857 75.9449 207.083 75.6049 207.31 75.2649C207.537 74.9249 207.763 74.5283 207.99 74.0749L208.84 72.5449L204.25 71.0149C201.983 70.2216 200 69.1449 198.3 67.7849C196.6 66.3116 195.75 64.2149 195.75 61.4949C195.75 60.2483 196.09 59.1716 196.77 58.2649C197.563 57.3583 198.357 56.5649 199.15 55.8849C199.603 55.4316 199.83 55.1483 199.83 55.0349C200.737 53.9016 201.643 53.6183 202.55 54.1849C203.457 54.6383 203.457 55.3183 202.55 56.2249L201.53 57.5849C201.077 58.2649 200.623 58.9449 200.17 59.6249C199.717 60.1916 199.49 60.9283 199.49 61.8349C199.49 62.9683 200.283 63.9883 201.87 64.8949C203.57 65.6883 205.383 66.3116 207.31 66.7649C209.35 67.2183 210.767 67.4449 211.56 67.4449C216.207 61.3249 220.797 55.2616 225.33 49.2549C229.863 43.2483 234.397 37.1849 238.93 31.0649C239.383 30.6116 239.61 29.8183 239.61 28.6849L245.9 22.0549C246.353 22.2816 246.75 22.4516 247.09 22.5649C247.543 22.6783 247.997 22.7916 248.45 22.9049C248.903 23.0183 249.3 23.1316 249.64 23.2449C250.093 23.3583 250.547 23.4716 251 23.5849C251.907 23.8116 252.757 24.0949 253.55 24.4349C254.343 24.7749 255.08 25.3416 255.76 26.1349C257.007 27.3816 257.63 28.9116 257.63 30.7249C257.63 32.6516 256.837 34.2949 255.25 35.6549C253.55 37.0149 252.077 38.3183 250.83 39.5649C250.377 39.9049 249.923 40.2449 249.47 40.5849C249.13 40.9249 248.733 41.3216 248.28 41.7749C247.373 42.6816 246.353 43.1349 245.22 43.1349V41.9449H245.73C246.183 41.3783 246.637 40.7549 247.09 40.0749C247.657 39.3949 248.167 38.7716 248.62 38.2049C249.753 36.9583 250.603 35.7116 251.17 34.4649C250.717 34.9183 250.263 35.3149 249.81 35.6549C249.47 35.9949 249.073 36.3349 248.62 36.6749C248.167 37.0149 247.713 37.4116 247.26 37.8649C246.92 38.2049 246.523 38.6016 246.07 39.0549C245.503 39.8483 244.597 40.9816 243.35 42.4549C242.103 43.8149 240.743 45.2883 239.27 46.8749C238.023 48.4616 236.72 49.8783 235.36 51.1249C234.113 52.3716 233.207 53.2783 232.64 53.8449L232.47 54.0149L233.15 54.6949L230.94 55.5449L231.11 55.7149C231.11 56.6216 230.827 57.2449 230.26 57.5849C229.693 57.9249 229.127 58.0949 228.56 58.0949C228.333 58.7749 227.993 59.3983 227.54 59.9649C227.2 60.4183 226.577 60.8149 225.67 61.1549C225.783 61.2683 225.84 61.4383 225.84 61.6649C225.84 61.7783 225.897 61.8916 226.01 62.0049C226.01 62.1183 226.067 62.2316 226.18 62.3449H225.84V62.6849H224.99C224.877 62.6849 224.763 62.9116 224.65 63.3649L225.16 64.2149C225.273 64.3283 225.33 64.5549 225.33 64.8949C226.917 63.1949 228.447 61.4949 229.92 59.7949C231.393 58.0949 232.923 56.3383 234.51 54.5249L243.69 44.3249H244.03C244.03 44.4383 244.087 44.4949 244.2 44.4949C244.2 44.6083 244.257 44.6649 244.37 44.6649C244.37 45.4583 243.747 46.7049 242.5 48.4049C241.253 50.1049 239.723 51.9749 237.91 54.0149C236.097 55.9416 234.34 57.8116 232.64 59.6249C231.053 61.4383 229.807 62.8549 228.9 63.8749C228.56 64.2149 228.163 64.7249 227.71 65.4049C227.37 65.7449 226.973 66.2549 226.52 66.9349H228.05C229.523 66.9349 230.827 66.8783 231.96 66.7649C233.207 66.5383 234.453 66.3116 235.7 66.0849C236.267 65.9716 236.833 65.8583 237.4 65.7449C237.967 65.5183 238.533 65.3483 239.1 65.2349C239.667 65.1216 240.233 65.0083 240.8 64.8949C241.367 64.7816 241.933 64.6683 242.5 64.5549C243.86 64.3283 245.673 63.9883 247.94 63.5349C250.207 62.9683 251.85 62.2883 252.87 61.4949C255.817 60.5883 258.707 59.9083 261.54 59.4549C261.54 59.4549 261.597 59.4549 261.71 59.4549C261.823 59.3416 261.993 59.2283 262.22 59.1149C262.447 59.1149 262.617 59.0583 262.73 58.9449C262.957 58.6049 263.24 58.4349 263.58 58.4349L264.94 57.9249L266.3 57.5849V57.4149C267.887 57.0749 269.417 56.6216 270.89 56.0549C272.363 55.3749 273.893 54.6949 275.48 54.0149C276.953 53.4483 278.37 52.9383 279.73 52.4849C281.203 51.9183 282.677 51.6349 284.15 51.6349L284.66 50.6149C286.02 49.2549 287.55 48.5749 289.25 48.5749V49.0849C289.703 49.5383 289.93 50.0483 289.93 50.6149C289.93 50.9549 289.817 51.1249 289.59 51.1249C288.57 52.1449 287.437 52.7116 286.19 52.8249C286.303 53.0516 286.36 53.2216 286.36 53.3349C286.473 53.4483 286.53 53.5616 286.53 53.6749C286.53 54.0149 286.36 54.1849 286.02 54.1849C285.567 54.5249 285 54.6949 284.32 54.6949C283.753 54.6949 283.47 54.3549 283.47 53.6749L283.98 53.3349C283.3 53.3349 282.847 53.2216 282.62 52.9949C281.827 55.0349 280.523 56.0549 278.71 56.0549L278.37 57.4149L276.5 56.9049C275.933 57.4716 275.367 57.7549 274.8 57.7549C274.573 58.3216 274.347 58.8316 274.12 59.2849C274.007 59.6249 273.61 59.7949 272.93 59.7949C273.043 59.6816 273.1 59.5116 273.1 59.2849C272.987 59.1716 272.93 59.0583 272.93 58.9449C272.137 59.8516 271.173 60.6449 270.04 61.3249C269.02 62.0049 267.773 62.3449 266.3 62.3449L266.13 61.1549H265.96C266.073 61.2683 266.13 61.5516 266.13 62.0049C266.13 62.4583 265.903 62.7983 265.45 63.0249C265.11 63.2516 264.827 63.3649 264.6 63.3649C264.487 63.3649 264.43 63.3083 264.43 63.1949H264.09C263.523 63.6483 263.013 63.8749 262.56 63.8749C262.333 63.8749 262.163 63.8183 262.05 63.7049H261.54C260.973 64.1583 260.463 64.4416 260.01 64.5549C259.557 64.5549 258.877 64.6116 257.97 64.7249C256.497 64.9516 254.91 65.3483 253.21 65.9149C251.623 66.4816 250.093 67.0483 248.62 67.6149C248.507 67.7283 248.223 67.7849 247.77 67.7849C247.543 67.7849 247.43 67.8416 247.43 67.9549C243.917 69.7683 240.347 70.7316 236.72 70.8449C232.867 71.1849 229.127 71.6949 225.5 72.3749C225.16 72.4883 224.82 72.6016 224.48 72.7149C224.14 72.7149 223.743 72.7149 223.29 72.7149C222.837 72.7149 222.44 72.7716 222.1 72.8849C221.76 72.8849 221.42 72.9416 221.08 73.0549C220.4 73.1683 219.55 73.7349 218.53 74.7549C217.51 75.6616 216.547 76.6816 215.64 77.8149C214.733 78.9483 214.053 79.8549 213.6 80.5349C213.147 80.9883 212.637 81.4983 212.07 82.0649C211.503 82.5183 210.937 82.9716 210.37 83.4249C209.237 84.2183 208.217 85.2383 207.31 86.4849C207.083 86.7116 206.8 86.9949 206.46 87.3349C206.12 87.6749 205.837 88.0716 205.61 88.5249C205.043 89.5449 204.363 90.1116 203.57 90.2249C203.797 90.7916 203.683 91.1883 203.23 91.4149L202.89 91.7549C201.87 92.7749 201.36 93.9649 201.36 95.3249C201.02 95.6649 200.737 96.1183 200.51 96.6849L200.34 97.3649L199.83 98.0449C199.263 98.8383 198.697 99.8016 198.13 100.935C197.677 101.955 197.167 103.088 196.6 104.335C196.033 105.582 195.467 106.772 194.9 107.905C194.333 108.925 193.767 109.888 193.2 110.795ZM187.93 156.695C187.137 156.695 186.23 156.525 185.21 156.185C184.303 155.845 183.567 155.392 183 154.825C182.433 154.145 181.64 152.898 180.62 151.085C179.487 149.385 178.92 148.082 178.92 147.175C178.92 145.022 179.033 142.925 179.26 140.885C179.487 138.845 179.827 136.748 180.28 134.595C180.96 134.028 181.357 133.348 181.47 132.555C181.583 131.762 181.697 130.968 181.81 130.175C182.717 129.268 183.227 128.135 183.34 126.775C183.453 125.415 184.133 124.735 185.38 124.735L185.72 124.395C185.833 124.282 185.777 123.998 185.55 123.545C185.323 122.978 185.153 122.525 185.04 122.185C184.927 121.732 185.04 121.222 185.38 120.655C185.493 120.428 185.607 120.202 185.72 119.975C185.833 119.635 185.947 119.408 186.06 119.295C186.173 119.182 186.343 118.785 186.57 118.105C186.91 116.858 187.193 115.782 187.42 114.875C187.76 113.855 188.383 112.835 189.29 111.815C189.857 111.362 190.367 111.362 190.82 111.815C191.273 112.155 191.443 112.608 191.33 113.175C191.33 113.855 191.16 114.535 190.82 115.215H192.18C191.727 117.368 191.217 119.522 190.65 121.675C190.083 123.828 189.517 125.982 188.95 128.135C187.59 132.328 186.91 136.635 186.91 141.055C186.91 145.022 187.703 148.705 189.29 152.105L191.67 150.745L192.52 149.215V151.085L192.86 151.935C193.087 151.368 193.427 150.858 193.88 150.405C194.333 149.952 195.013 149.725 195.92 149.725L196.09 150.915C196.09 151.255 196.033 151.482 195.92 151.595C195.24 153.068 194.163 154.258 192.69 155.165C191.217 156.185 189.63 156.695 187.93 156.695Z" fill="white"/>
  <path d="M170.331 125.755C169.991 125.755 169.707 125.642 169.481 125.415C169.367 125.528 169.027 125.585 168.461 125.585C166.987 125.585 165.514 124.565 164.041 122.525C162.567 120.485 161.831 118.728 161.831 117.255C161.831 114.648 162.511 111.928 163.871 109.095L167.611 101.275C168.291 99.915 168.631 99.0083 168.631 98.555C168.631 98.555 168.347 98.1017 167.781 97.195L166.931 96.345C166.704 96.1183 166.477 95.9483 166.251 95.835C166.137 95.6083 165.967 95.3817 165.741 95.155C165.061 94.3617 164.381 93.455 163.701 92.435C163.021 91.415 162.567 90.225 162.341 88.865C162.114 89.0917 161.604 89.9417 160.811 91.415C160.017 92.8883 159.224 94.305 158.431 95.665C157.637 97.025 157.014 97.705 156.561 97.705C156.334 97.705 156.164 97.6483 156.051 97.535C155.937 97.4217 155.767 97.365 155.541 97.365C155.314 97.365 155.031 97.8183 154.691 98.725C154.237 99.405 153.614 100.425 152.821 101.785C152.027 103.032 151.234 104.222 150.441 105.355C149.647 106.488 148.911 107.055 148.231 107.055C147.777 107.055 147.551 106.828 147.551 106.375C147.551 106.035 147.777 105.412 148.231 104.505C148.684 103.485 149.194 102.522 149.761 101.615C150.441 100.595 150.894 99.9717 151.121 99.745C152.481 97.8183 153.614 96.1183 154.521 94.645C155.427 93.1717 156.277 91.6417 157.071 90.055C157.751 88.5817 158.431 87.1083 159.111 85.635C159.904 84.0483 160.811 82.2917 161.831 80.365C162.057 78.7783 162.397 77.135 162.851 75.435C164.551 70.335 166.534 65.915 168.801 62.175C171.181 58.3217 174.127 54.4117 177.641 50.445C178.434 49.6517 179.341 48.6883 180.361 47.555C181.494 46.3083 182.627 45.175 183.761 44.155C184.894 43.135 185.857 42.625 186.651 42.625C187.331 42.625 188.124 42.9083 189.031 43.475C189.484 43.7017 189.881 43.9283 190.221 44.155C190.561 44.3817 190.901 44.6083 191.241 44.835L194.641 46.705C195.887 47.385 196.511 48.4617 196.511 49.935C196.511 50.5017 196.454 50.8417 196.341 50.955C196.001 52.2017 194.867 53.5617 192.941 55.035C191.127 56.395 189.087 57.8117 186.821 59.285C184.667 60.7583 182.911 62.175 181.551 63.535C179.511 65.3483 177.754 67.3883 176.281 69.655C174.807 71.9217 173.447 74.3583 172.201 76.965C172.087 77.4183 171.917 77.815 171.691 78.155C171.577 78.495 171.464 78.8917 171.351 79.345C171.237 80.1383 170.954 81.045 170.501 82.065C170.387 82.2917 170.274 82.575 170.161 82.915C170.047 83.1417 169.991 83.425 169.991 83.765C169.991 84.3317 170.047 84.7283 170.161 84.955C170.274 85.295 170.331 85.7483 170.331 86.315C170.331 86.995 170.274 87.4483 170.161 87.675C170.047 88.015 169.991 88.525 169.991 89.205C169.991 90.4517 170.614 91.6417 171.861 92.775C173.107 93.795 174.297 94.9283 175.431 96.175C176.677 97.4217 177.301 98.8383 177.301 100.425C177.301 101.785 176.847 103.428 175.941 105.355C175.034 107.282 174.014 109.208 172.881 111.135C171.747 113.062 170.841 114.818 170.161 116.405L169.311 118.445L168.971 119.635C168.971 119.862 169.027 119.975 169.141 119.975L169.481 120.485C170.501 120.485 171.917 119.748 173.731 118.275C175.544 116.802 177.357 115.215 179.171 113.515C180.984 111.702 182.231 110.455 182.911 109.775C184.271 108.302 185.517 106.772 186.651 105.185C187.784 103.485 188.861 101.785 189.881 100.085C190.107 99.5183 190.447 98.895 190.901 98.215C191.467 97.4217 192.034 97.025 192.601 97.025C193.281 97.025 193.621 97.4217 193.621 98.215C193.621 98.895 192.997 100.255 191.751 102.295C190.617 104.222 189.371 106.148 188.011 108.075C186.651 110.002 185.687 111.248 185.121 111.815L184.951 112.155V112.325C184.611 113.118 184.101 113.628 183.421 113.855C183.307 113.968 183.137 114.252 182.911 114.705C182.684 115.158 182.514 115.442 182.401 115.555C182.401 115.782 182.231 116.008 181.891 116.235L181.211 116.405C181.097 116.858 180.757 117.255 180.191 117.595L179.171 118.615C179.057 118.615 179.001 118.672 179.001 118.785C179.001 118.898 178.944 118.955 178.831 118.955C178.717 119.635 178.264 119.975 177.471 119.975C177.244 120.428 176.904 120.995 176.451 121.675C176.111 122.355 175.657 122.695 175.091 122.695C174.524 123.488 173.787 123.885 172.881 123.885C172.767 123.998 172.711 124.168 172.711 124.395C172.711 124.508 172.654 124.622 172.541 124.735C172.314 125.302 171.804 125.585 171.011 125.585C170.897 125.698 170.671 125.755 170.331 125.755Z" fill="white"/>
  <path d="M106.655 145.815C105.409 145.815 104.332 145.475 103.425 144.795C102.632 144.228 101.839 143.492 101.045 142.585C99.5721 140.658 98.3254 139.015 97.3054 137.655C96.2854 136.295 95.7754 134.255 95.7754 131.535V126.265C95.7754 125.245 96.0587 123.715 96.6254 121.675C97.1921 119.522 97.8721 117.425 98.6654 115.385C99.5721 113.345 100.365 111.985 101.045 111.305C102.065 108.018 103.255 104.788 104.615 101.615C105.975 98.4417 107.732 95.5517 109.885 92.945C108.752 90.225 108.015 87.4484 107.675 84.615C107.335 81.6684 107.165 78.7217 107.165 75.775C107.165 74.8684 107.165 74.075 107.165 73.395C107.279 72.6017 107.392 71.7517 107.505 70.845L108.015 70.165L108.185 69.995V69.315C108.072 69.2017 108.015 69.0317 108.015 68.805C108.015 68.3517 108.185 67.615 108.525 66.595C108.865 65.575 109.149 64.555 109.375 63.535C109.715 62.515 109.885 61.9484 109.885 61.835C109.885 61.6084 110.112 61.4384 110.565 61.325L111.415 60.985C111.529 60.8717 111.812 60.7017 112.265 60.475L112.775 60.135C113.795 58.775 115.269 57.8117 117.195 57.245C119.235 56.6784 121.049 56.395 122.635 56.395C126.035 56.395 128.529 57.585 130.115 59.965C131.815 62.2317 133.119 64.8384 134.025 67.785C134.819 67.2184 135.612 66.935 136.405 66.935C136.745 66.935 137.029 67.0484 137.255 67.275C139.069 67.7284 141.109 68.6917 143.375 70.165C145.755 71.6384 146.945 73.225 146.945 74.925V75.265C146.945 75.8317 146.379 76.625 145.245 77.645C144.112 78.665 142.752 79.7417 141.165 80.875C139.692 81.895 138.219 82.8584 136.745 83.765C135.385 84.6717 134.422 85.295 133.855 85.635C133.062 86.0884 132.269 86.485 131.475 86.825C131.022 86.9384 130.625 87.165 130.285 87.505C129.945 87.7317 129.549 87.9584 129.095 88.185C128.529 88.6384 127.962 89.0917 127.395 89.545C126.942 89.9984 126.432 90.5084 125.865 91.075L124.335 92.605C123.995 92.945 123.712 93.285 123.485 93.625C123.259 93.8517 122.975 94.0784 122.635 94.305C122.409 94.5317 122.012 94.815 121.445 95.155C120.992 95.495 120.482 95.8917 119.915 96.345C118.555 97.2517 117.819 98.1017 117.705 98.895C117.592 99.0084 117.365 99.5184 117.025 100.425C116.799 101.218 116.685 101.785 116.685 102.125C116.685 103.372 116.855 104.902 117.195 106.715C117.535 108.415 118.045 110.058 118.725 111.645C119.065 112.552 119.065 113.572 118.725 114.705C118.385 115.725 117.762 115.895 116.855 115.215C115.949 114.308 115.155 113.118 114.475 111.645C113.795 110.172 113.399 109.095 113.285 108.415C113.172 108.188 113.229 108.018 113.455 107.905C113.682 107.792 113.682 107.622 113.455 107.395L113.115 107.055C113.002 106.942 112.945 106.772 112.945 106.545C112.945 106.545 112.832 106.432 112.605 106.205C111.699 107.112 110.735 108.642 109.715 110.795C108.695 112.835 107.959 114.422 107.505 115.555L106.485 117.935C105.919 119.182 105.522 119.805 105.295 119.805C104.842 119.805 104.615 119.522 104.615 118.955V118.785C104.615 118.105 104.785 117.368 105.125 116.575L106.145 113.855C105.579 114.762 105.069 115.782 104.615 116.915C104.275 117.935 104.105 118.615 104.105 118.955V119.125L104.275 119.465C104.275 119.578 104.332 119.692 104.445 119.805V120.485C104.332 120.485 104.275 120.598 104.275 120.825C104.049 121.958 103.765 123.092 103.425 124.225C103.085 125.358 102.745 126.492 102.405 127.625C101.612 129.665 101.215 132.045 101.215 134.765C101.215 136.578 101.555 138.165 102.235 139.525C102.915 140.885 104.219 141.565 106.145 141.565C107.165 141.565 108.072 141.395 108.865 141.055C109.772 140.715 111.075 139.865 112.775 138.505C114.589 137.258 116.402 135.785 118.215 134.085C120.029 132.272 121.559 130.572 122.805 128.985C124.165 127.398 124.845 126.208 124.845 125.415C125.185 124.848 125.639 124.282 126.205 123.715C126.772 123.035 126.942 122.412 126.715 121.845C128.189 119.578 129.435 116.858 130.455 113.685C131.589 110.398 132.495 107.055 133.175 103.655C133.969 100.255 134.479 97.2517 134.705 94.645C134.932 93.7384 135.102 93.115 135.215 92.775C135.442 92.3217 135.612 92.0384 135.725 91.925L135.895 91.755C136.122 91.5284 136.235 91.1884 136.235 90.735C136.235 90.5084 136.235 90.225 136.235 89.885C136.235 89.545 136.179 89.205 136.065 88.865C135.839 88.185 135.725 87.5617 135.725 86.995C135.725 86.5417 135.895 85.9184 136.235 85.125C136.575 84.3317 137.085 83.935 137.765 83.935C138.559 83.935 139.182 84.5584 139.635 85.805C140.089 87.0517 140.429 88.4117 140.655 89.885C140.995 91.245 141.165 92.3217 141.165 93.115C141.165 95.7217 140.882 98.6684 140.315 101.955C139.749 105.128 139.012 108.018 138.105 110.625C137.312 112.778 136.405 114.648 135.385 116.235C134.479 117.822 133.402 119.578 132.155 121.505L130.455 124.225L129.775 125.415C129.662 125.302 129.549 125.528 129.435 126.095C129.435 126.548 129.322 126.775 129.095 126.775C128.982 126.775 128.869 126.888 128.755 127.115C128.755 127.228 128.699 127.342 128.585 127.455C128.019 128.362 127.339 129.155 126.545 129.835C126.092 130.288 125.639 130.742 125.185 131.195C124.845 131.535 124.562 131.932 124.335 132.385C123.089 134.198 121.502 136.125 119.575 138.165C117.762 140.318 115.722 142.132 113.455 143.605C111.302 145.078 109.035 145.815 106.655 145.815ZM114.135 88.525L114.305 88.185L114.645 86.825C114.985 85.3517 116.232 83.595 118.385 81.555C120.539 79.515 122.295 77.815 123.655 76.455C124.675 75.5484 125.695 74.5284 126.715 73.395C127.735 72.2617 128.755 71.2984 129.775 70.505C129.549 69.5984 129.039 68.4084 128.245 66.935C127.565 65.4617 126.772 64.1584 125.865 63.025C125.072 61.7784 124.279 61.155 123.485 61.155C122.239 61.155 121.105 61.665 120.085 62.685L119.745 63.025C119.632 63.365 119.405 63.535 119.065 63.535L118.215 64.045C118.215 64.1584 118.159 64.215 118.045 64.215V64.555C117.592 65.575 117.082 66.6517 116.515 67.785C116.175 68.2384 115.892 68.6917 115.665 69.145C115.552 69.485 115.439 69.7684 115.325 69.995C114.759 71.9217 114.249 73.905 113.795 75.945C113.455 77.985 113.285 80.025 113.285 82.065C113.285 83.1984 113.342 84.3317 113.455 85.465C113.569 86.485 113.795 87.505 114.135 88.525Z" fill="white"/>
  <path d="M4.84578 184.745C3.59911 184.745 2.63578 184.348 1.95578 183.555C1.16245 182.762 0.652448 181.798 0.425781 180.665C0.879115 179.758 1.10578 178.398 1.10578 176.585C1.10578 175.678 1.10578 174.828 1.10578 174.035C1.10578 173.355 1.16245 172.732 1.27578 172.165C1.27578 170.578 1.38911 168.992 1.61578 167.405C1.84245 165.818 2.35245 164.572 3.14578 163.665C3.48578 163.325 3.76911 162.645 3.99578 161.625L4.16578 160.265C4.27911 160.152 4.33578 159.982 4.33578 159.755C4.33578 159.755 4.44911 159.415 4.67578 158.735C4.67578 158.168 4.73245 157.602 4.84578 157.035C4.84578 156.468 4.90245 155.958 5.01578 155.505C5.35578 154.598 5.41245 153.522 5.18578 152.275C5.29911 151.935 5.46911 151.312 5.69578 150.405L6.71578 147.515C6.82911 147.062 6.94245 146.608 7.05578 146.155C7.16911 145.815 7.28245 145.418 7.39578 144.965C7.73578 144.172 7.79245 143.662 7.56578 143.435L9.09578 141.905C9.09578 141.792 9.03911 141.735 8.92578 141.735V141.395L8.75578 141.055V140.545C8.86911 140.545 8.98245 140.488 9.09578 140.375C9.20911 140.262 9.43578 140.205 9.77578 140.205H10.2858L10.4558 139.695V139.355C9.77578 139.355 9.43578 138.845 9.43578 137.825L9.60578 137.655C9.83245 137.315 10.0591 137.145 10.2858 137.145C10.5124 136.805 10.7391 136.125 10.9658 135.105C11.1924 134.198 11.7024 133.745 12.4958 133.745V133.405C12.7224 131.138 13.5158 128.872 14.8758 126.605C16.1224 124.338 17.1991 122.298 18.1058 120.485C18.1058 120.372 18.1624 120.315 18.2758 120.315V119.805L19.1258 117.935L20.1458 118.105L20.9958 116.745L20.4858 116.235C21.2791 115.555 21.9024 114.762 22.3558 113.855C22.9224 112.948 23.4891 111.928 24.0558 110.795L25.5858 106.885C25.8124 106.318 26.0391 105.695 26.2658 105.015C26.4924 104.335 26.7191 103.655 26.9458 102.975C27.8524 100.368 28.7591 97.9316 29.6658 95.6649C30.6858 93.2849 31.8758 91.6416 33.2358 90.7349C33.8024 89.9416 34.2558 89.1482 34.5958 88.3549C35.0491 87.4482 35.3891 86.5982 35.6158 85.8049L37.1458 80.7049C37.2591 80.4782 37.3724 80.1949 37.4858 79.8549C37.5991 79.5149 37.7125 79.1749 37.8258 78.8349L38.6758 76.6249L38.8458 76.7949L39.1858 76.1149L39.8658 75.6049C40.0924 74.9249 40.4324 74.3016 40.8858 73.7349C41.3391 73.0549 41.7924 72.4316 42.2458 71.8649L42.0758 71.5249C42.7558 70.8449 43.0958 70.1649 43.0958 69.4849C43.0958 69.3716 43.0391 69.3149 42.9258 69.3149C42.8124 69.4282 42.6991 69.4282 42.5858 69.3149H42.2458C41.5658 69.3149 41.2258 69.0882 41.2258 68.6349C41.2258 68.4082 41.6224 67.7282 42.4158 66.5949C42.7558 66.0282 43.0391 65.5749 43.2658 65.2349C43.4925 64.7816 43.6624 64.4416 43.7758 64.2149C43.7758 63.5349 44.2291 63.0816 45.1358 62.8549C45.7024 61.8349 46.3258 60.8149 47.0058 59.7949C47.7991 58.7749 48.5924 57.8116 49.3858 56.9049C50.1791 55.7716 50.8591 54.7516 51.4258 53.8449C52.1058 52.9382 52.5591 52.1449 52.7858 51.4649H53.4658L53.2958 50.7849C53.2958 50.4449 53.4658 50.1049 53.8058 49.7649C54.3725 49.7649 54.9391 49.7649 55.5058 49.7649C56.1858 49.7649 56.8091 49.8216 57.3758 49.9349C57.9425 50.0482 58.4525 50.1049 58.9058 50.1049C59.4725 50.1049 60.0391 50.1049 60.6058 50.1049C61.9658 50.5582 63.5525 51.4649 65.3658 52.8249C67.2924 54.0716 68.2558 55.4882 68.2558 57.0749C67.6891 57.5282 67.1791 58.0382 66.7258 58.6049C66.2725 59.1716 65.8758 59.7382 65.5358 60.3049C65.0825 60.8716 64.6291 61.4382 64.1758 62.0049C63.7224 62.5716 63.2124 63.1382 62.6458 63.7049V65.7449H61.9658C61.7391 65.8582 61.4558 65.9149 61.1158 65.9149C60.8891 66.0282 60.7191 66.1416 60.6058 66.2549C60.4924 66.2549 60.4358 66.2549 60.4358 66.2549C60.4358 66.2549 60.4358 66.3116 60.4358 66.4249C60.4358 66.4249 60.4924 66.4816 60.6058 66.5949L60.7758 66.9349C60.7758 67.2749 60.8325 67.5582 60.9458 67.7849H60.2658C59.5858 68.3516 58.9624 69.0316 58.3958 69.8249C57.9424 70.5049 57.4325 71.2982 56.8658 72.2049H57.0358C56.8091 72.4316 56.5258 72.7149 56.1858 73.0549C55.9591 73.2816 55.9025 73.6216 56.0158 74.0749L52.4458 78.3249L52.6158 79.1749L52.4458 80.5349C50.9725 80.8749 49.7825 82.0649 48.8758 84.1049C48.4225 84.7849 48.0258 85.8049 47.6858 87.1649C47.5725 87.7316 47.3458 88.3549 47.0058 89.0349C46.7791 89.7149 46.5524 90.4516 46.3258 91.2449V90.7349C46.2124 90.8482 46.1558 91.0749 46.1558 91.4149C46.0425 91.5282 45.9858 91.6416 45.9858 91.7549C45.9858 91.8682 45.9291 91.9816 45.8158 92.0949C45.7024 92.3216 45.6458 92.6049 45.6458 92.9449C45.6458 93.1716 45.5891 93.3982 45.4758 93.6249C45.2491 94.1916 44.7391 94.9849 43.9458 96.0049V94.8149L43.6058 94.6449L42.0758 97.1949L40.3758 99.7449L39.8658 100.935C39.7525 101.162 39.6391 101.388 39.5258 101.615C39.4124 101.842 39.2991 102.068 39.1858 102.295H38.8458L39.1858 102.635C38.8458 102.975 38.5625 103.768 38.3358 105.015C38.1091 106.148 37.5991 106.772 36.8058 106.885V107.905L35.7858 109.775L36.2958 110.285L33.5758 111.645L33.4058 111.305L31.8758 113.345C31.0824 114.252 30.6858 115.045 30.6858 115.725C30.6858 116.178 30.4024 116.518 29.8358 116.745C29.1558 116.972 28.9291 117.368 29.1558 117.935L28.4758 118.445L28.9858 120.145L27.4558 120.825C27.2291 121.505 27.1158 122.015 27.1158 122.355L27.7958 121.845L28.1358 123.205C28.1358 123.318 28.1924 123.375 28.3058 123.375V123.885C28.3058 124.565 28.0791 125.188 27.6258 125.755L27.2858 126.095C27.0591 126.548 26.9458 127.115 26.9458 127.795L26.2658 127.455C26.2658 127.568 26.1524 127.738 25.9258 127.965L25.7558 128.135C25.8691 128.248 25.9258 128.418 25.9258 128.645V128.985C25.8124 129.098 25.7558 129.212 25.7558 129.325L25.2458 129.835H25.5858L22.6958 134.255L23.0358 135.275H22.5258L22.1858 136.125H23.0358C23.2624 135.785 23.4891 135.445 23.7158 135.105C23.9424 134.765 24.1691 134.482 24.3958 134.255V133.575L24.7358 133.235L26.2658 130.515H26.6058L30.6858 123.205L30.5158 122.865C30.7424 122.638 31.1391 122.185 31.7058 121.505C32.2724 120.825 32.8391 120.145 33.4058 119.465C33.6324 119.125 33.8591 118.785 34.0858 118.445C34.4258 118.105 34.7091 117.822 34.9358 117.595C35.2758 117.028 35.4458 116.632 35.4458 116.405L41.3958 107.735V107.055L41.0558 106.545L41.3958 106.885V106.545L41.9058 107.225L43.6058 104.165H43.7758V103.995C43.7758 103.655 44.0591 103.258 44.6258 102.805C45.1924 102.352 45.7025 102.012 46.1558 101.785C46.1558 101.558 45.9858 101.388 45.6458 101.275L48.0258 98.2149L48.5358 98.0449C48.7624 98.0449 49.3291 97.3649 50.2358 96.0049C51.2558 94.6449 51.9925 93.7382 52.4458 93.2849L52.1058 92.6049C52.6724 92.0382 53.1824 91.4716 53.6358 90.9049C54.2024 90.3382 54.7125 89.8282 55.1658 89.3749C55.7325 88.8082 56.1858 88.2416 56.5258 87.6749C56.9791 87.1082 57.4325 86.5416 57.8858 85.9749V85.2949L58.5658 85.6349C59.1324 84.2749 59.9824 83.1982 61.1158 82.4049L61.4558 82.5749V82.4049L61.9658 81.5549C62.1924 80.7616 62.5891 80.3649 63.1558 80.3649H63.4958L64.6858 79.3449V79.0049C64.6858 78.5516 65.0258 78.3249 65.7058 78.3249H65.8758C66.1025 78.3249 66.4991 78.0416 67.0658 77.4749L67.4058 76.9649C67.6325 76.6249 67.8591 76.2849 68.0858 75.9449C68.4258 75.6049 68.8225 75.4349 69.2758 75.4349C69.6158 74.9816 70.0124 74.5282 70.4658 74.0749C70.9191 73.6216 71.4291 73.2816 71.9958 73.0549L74.2058 73.7349C72.9591 74.6416 71.8258 75.5482 70.8058 76.4549C69.7858 77.2482 68.8224 78.1549 67.9158 79.1749C67.8024 79.2882 67.5191 79.4582 67.0658 79.6849C66.6124 79.7982 66.2724 79.9682 66.0458 80.1949L65.7058 80.5349C65.5925 80.8749 65.3658 81.2149 65.0258 81.5549L65.1958 82.2349H64.1758L62.8158 83.9349H62.6458C61.5125 85.4082 60.2091 86.8816 58.7358 88.3549C57.2625 89.7149 56.0158 91.3016 54.9958 93.1149H54.4858C53.6924 94.2482 52.8425 95.4382 51.9358 96.6849C51.1425 97.8182 50.2924 98.9516 49.3858 100.085C47.5724 102.238 45.8724 104.618 44.2858 107.225V107.395L32.7258 124.055C32.4991 124.508 32.2724 124.962 32.0458 125.415C31.8191 125.868 31.5924 126.378 31.3658 126.945L30.6858 127.115L30.8558 127.285C30.8558 127.965 30.7424 128.532 30.5158 128.985C30.2891 129.325 29.9491 129.778 29.4958 130.345L28.4758 131.365C27.9091 131.705 27.5691 132.102 27.4558 132.555H27.2858C26.6058 133.802 25.5291 135.842 24.0558 138.675C22.5824 141.508 20.9958 144.512 19.2958 147.685C17.5958 150.972 16.0658 153.975 14.7058 156.695C13.4591 159.188 12.0991 161.965 10.6258 165.025C9.15245 168.198 7.90578 171.088 6.88578 173.695C5.75245 176.415 5.18578 178.398 5.18578 179.645C5.18578 180.212 5.46911 180.948 6.03578 181.855L7.05578 182.875L8.07578 183.555C8.07578 183.895 7.90578 184.065 7.56578 184.065C6.54578 184.518 5.63911 184.745 4.84578 184.745ZM51.7658 129.155C50.7458 129.155 49.7258 128.305 48.7058 126.605C47.6858 124.905 47.1758 123.658 47.1758 122.865C47.1758 122.412 47.2891 121.732 47.5158 120.825C47.7425 119.918 47.9691 119.295 48.1958 118.955V119.125C48.4224 118.898 48.5925 118.615 48.7058 118.275C48.8191 117.935 48.9891 117.878 49.2158 118.105L49.5558 117.425H49.7258C49.9525 117.425 50.1224 117.368 50.2358 117.255C50.4624 117.028 50.6324 116.858 50.7458 116.745H50.9158C51.1425 116.518 51.2558 116.292 51.2558 116.065C51.1424 115.952 51.2558 115.782 51.5958 115.555H51.7658L53.4658 114.025L53.2958 113.855H53.8058V113.685L54.1458 113.175L54.4858 113.345V113.175L55.8458 111.815V111.985L56.0158 111.815H56.3558V111.475L56.5258 111.645L56.6958 110.965H56.8658C57.2058 110.512 57.5458 110.115 57.8858 109.775C58.2258 109.322 58.6224 108.868 59.0758 108.415L61.2858 106.205L61.6258 107.055H61.7958L62.1358 106.715C62.1358 106.602 62.0225 106.432 61.7958 106.205C62.1358 105.865 62.3058 105.582 62.3058 105.355L62.8158 104.845L64.1758 104.335V104.505L64.3458 104.675C64.3458 104.448 64.4024 104.108 64.5158 103.655C64.7425 103.202 64.9691 102.975 65.1958 102.975C65.4224 102.975 65.5358 103.088 65.5358 103.315L66.0458 102.635C66.2724 102.408 66.3291 102.238 66.2158 102.125C66.3291 102.125 66.4425 102.068 66.5558 101.955C66.7825 101.842 66.8391 101.728 66.7258 101.615L67.4058 102.295C67.6325 102.068 67.8024 101.898 67.9158 101.785C68.0291 101.558 68.1425 101.388 68.2558 101.275L68.4258 102.125L68.5958 102.295V101.275L69.1058 100.935L68.7658 99.9149C68.9924 99.9149 69.1058 99.8016 69.1058 99.5749C69.1058 99.4616 69.2191 99.4049 69.4458 99.4049C69.6725 99.4049 69.8991 99.5182 70.1258 99.7449L70.6358 100.255V100.595H70.9758C70.2958 101.048 69.8991 101.502 69.7858 101.955C69.6724 102.408 69.2758 102.862 68.5958 103.315H67.9158L66.0458 104.845H65.8758V105.185L63.8358 107.735C63.1558 108.642 62.2491 109.095 61.1158 109.095L61.2858 109.265V109.435C61.1724 109.548 61.1158 109.662 61.1158 109.775V110.115C61.0025 110.115 60.8324 110.002 60.6058 109.775V109.945L57.3758 113.345L57.0358 113.175L55.8458 114.025L56.0158 114.195L54.4858 115.725L54.8258 116.235L53.6358 116.915V117.595C53.5224 117.708 53.4658 117.878 53.4658 118.105C52.8991 118.558 52.3891 119.068 51.9358 119.635C51.5958 120.202 51.3125 120.768 51.0858 121.335L51.7658 121.675C51.8791 121.788 52.1058 121.845 52.4458 121.845C52.5591 121.845 52.6158 121.732 52.6158 121.505C52.7291 121.392 52.8991 121.278 53.1258 121.165C53.3525 121.052 53.6358 120.882 53.9758 120.655C54.5425 120.315 54.8824 120.145 54.9958 120.145V120.825L56.1858 120.315L55.8458 119.805H56.6958C56.9225 119.918 57.2058 119.975 57.5458 119.975C57.7725 119.975 57.9991 119.862 58.2258 119.635C58.2258 119.408 58.2824 119.238 58.3958 119.125V118.785L60.0958 118.105V117.935L61.9658 115.895H62.1358L61.9658 115.555H62.8158L63.6658 114.535V114.365L64.0058 114.535V114.195C64.5725 113.968 64.8558 113.628 64.8558 113.175C64.8558 112.948 64.7991 112.778 64.6858 112.665C64.9125 112.438 65.2525 112.098 65.7058 111.645C66.1591 111.192 66.6124 110.682 67.0658 110.115C67.9724 109.095 68.8791 108.585 69.7858 108.585C69.7858 108.132 69.9558 107.848 70.2958 107.735V107.565C70.2958 107.225 70.6358 106.488 71.3158 105.355C72.1091 104.108 72.9025 102.918 73.6958 101.785C74.6025 100.652 75.2258 99.9149 75.5658 99.5749V99.7449L75.9058 98.8949L76.0758 99.0649L77.2658 97.7049L77.0958 96.6849L77.2658 96.3449C77.2658 96.1182 77.5491 96.0049 78.1158 96.0049C78.6825 95.8916 79.0791 95.8349 79.3058 95.8349L79.1358 95.3249C78.5691 95.3249 78.0591 95.0982 77.6058 94.6449C77.7191 94.5316 78.0591 94.4749 78.6258 94.4749C79.1925 93.7949 79.5325 93.0582 79.6458 92.2649H79.8158C80.3825 91.3582 80.8358 90.2816 81.1758 89.0349C81.4024 87.7882 81.9124 86.7682 82.7058 85.9749L82.3658 85.4649C82.5925 84.8982 82.8758 84.3316 83.2158 83.7649C83.3291 83.7649 83.3858 83.7082 83.3858 83.5949C83.3858 83.3682 83.4424 83.2549 83.5558 83.2549V82.9149C83.5558 82.3482 83.4991 81.9516 83.3858 81.7249C83.2724 81.4982 83.2158 81.1582 83.2158 80.7049C83.2158 78.4382 83.0458 76.5116 82.7058 74.9249C82.4791 73.3382 81.1191 72.5449 78.6258 72.5449C78.2858 72.5449 77.9458 72.5449 77.6058 72.5449C77.2658 72.5449 76.9258 72.6016 76.5858 72.7149L74.3758 73.2249H74.2058C73.8658 73.2249 73.6391 73.1682 73.5258 73.0549V72.3749C73.5258 72.0349 73.8091 71.8649 74.3758 71.8649H75.5658V71.3549L75.7358 71.5249L76.9258 70.6749H77.7758C77.8891 70.6749 78.0025 70.6182 78.1158 70.5049L79.1358 69.9949L80.1558 70.1649L80.6658 69.9949V70.1649C80.6658 70.0516 80.8925 69.9949 81.3458 69.9949C81.7991 69.9949 81.9125 69.8816 81.6858 69.6549C82.2525 69.7682 82.7625 69.8816 83.2158 69.9949C83.6691 70.1082 84.0091 70.2216 84.2358 70.3349L84.4058 69.9949L85.7658 71.1849C85.8791 71.2982 85.9358 71.2416 85.9358 71.0149V70.6749H86.1058C87.1258 72.0349 88.3724 73.1116 89.8458 73.9049C91.3191 74.6982 92.1691 76.1149 92.3958 78.1549C92.5091 78.7216 92.5658 79.2882 92.5658 79.8549C92.5658 80.4216 92.5658 80.9882 92.5658 81.5549V84.9549C92.5658 88.6949 92.1125 91.7549 91.2058 94.1349C90.2991 96.5149 88.7125 99.1782 86.4458 102.125C86.2191 102.465 85.4825 103.485 84.2358 105.185C82.9891 106.772 81.6858 108.358 80.3258 109.945C78.9658 111.418 78.0024 112.155 77.4358 112.155L77.7758 112.665C77.2091 113.005 76.5291 113.742 75.7358 114.875C74.9424 115.895 74.2625 116.518 73.6958 116.745V117.595L70.4658 119.975L70.1258 119.635L68.2558 120.995V121.165C68.3691 121.278 68.5391 121.335 68.7658 121.335C68.8791 121.335 68.9358 121.448 68.9358 121.675V121.845L67.2358 122.355V122.525L66.2158 123.545L66.3858 124.055L64.5158 123.375L64.6858 125.075L62.6458 125.755V126.095C61.2858 126.662 60.3791 127.172 59.9258 127.625C59.2458 127.625 58.7924 127.682 58.5658 127.795L57.2058 128.305L57.0358 128.135V128.305H55.3358L54.9958 128.985H52.6158C52.3891 129.098 52.1058 129.155 51.7658 129.155ZM17.7658 144.795C18.7858 143.208 19.8624 141.452 20.9958 139.525C21.5624 138.392 22.1858 137.315 22.8658 136.295L21.3358 137.145C21.2224 137.485 21.0524 137.938 20.8258 138.505C20.5991 139.072 20.3724 139.468 20.1458 139.695C19.5791 139.695 19.1824 139.355 18.9558 138.675L18.7858 140.375L19.2958 140.885C19.2958 141.792 19.1258 142.528 18.7858 143.095C18.2191 143.662 17.8791 144.228 17.7658 144.795Z" fill="white"/>
</svg>
