<svg width="324" height="101" viewBox="0 0 324 101" fill="none" xmlns="http://www.w3.org/2000/svg">
  <path d="M290.105 94.7548C288.858 94.7548 287.611 94.5848 286.365 94.2448C284.551 93.5648 282.738 91.6948 280.925 88.6348L282.285 88.2948L281.095 87.4448L279.735 83.1948H279.565C279.451 82.8548 279.395 82.3448 279.395 81.6648V80.4748C279.395 80.0215 279.678 79.2281 280.245 78.0948C280.811 76.9615 281.321 75.8848 281.775 74.8648L280.075 75.2048V74.3548C280.188 74.2415 280.358 73.9581 280.585 73.5048C280.698 73.1648 280.981 72.9381 281.435 72.8248C281.548 72.9381 281.605 73.1081 281.605 73.3348L281.945 72.9948V72.1448C281.945 71.6915 281.945 71.2381 281.945 70.7848C282.058 70.2181 282.285 69.7648 282.625 69.4248C282.625 68.7448 282.681 68.3481 282.795 68.2348L282.965 67.5548H283.305V66.8748L284.325 65.5148C284.891 64.9481 285.231 64.6648 285.345 64.6648V64.4948C285.231 64.6081 285.061 64.6648 284.835 64.6648C284.381 64.6648 284.155 64.4381 284.155 63.9848C284.155 63.8715 284.211 63.7581 284.325 63.6448V62.7948C284.438 62.6815 284.495 62.3981 284.495 61.9448C284.495 61.4915 284.381 61.1515 284.155 60.9248L285.345 59.5648L286.025 59.7348L285.855 59.5648H286.195L286.365 59.3948L286.875 57.5248L287.725 58.8848L288.235 55.9948C288.348 55.4281 288.461 54.8615 288.575 54.2948C288.688 53.7281 288.801 53.1615 288.915 52.5948L290.785 52.4248V51.0648H290.275V50.2148L291.125 49.3648V49.5348L291.295 49.3648V48.5148L292.825 47.4948V46.8148C293.618 46.3615 294.298 45.5681 294.865 44.4348C295.205 43.6415 295.998 43.1315 297.245 42.9048H296.225L296.395 42.7348L295.715 43.2448V41.8848H296.055L296.225 41.5448H296.395L296.735 40.8648V40.0148C297.415 39.5615 298.095 38.9948 298.775 38.3148C299.568 37.6348 299.965 36.8981 299.965 36.1048L300.645 35.5948V34.9148L301.325 35.2548L303.535 33.2148V32.5348L304.895 31.6848L305.575 30.6648C305.575 30.3248 305.745 30.1548 306.085 30.1548C306.198 30.1548 306.425 30.2681 306.765 30.4948C307.218 30.6081 307.558 30.7215 307.785 30.8348H308.805C310.618 30.8348 312.431 31.5148 314.245 32.8748C316.058 34.1215 317.588 35.6515 318.835 37.4648C320.081 39.2781 320.705 41.0915 320.705 42.9048C320.705 43.4715 320.875 44.0381 321.215 44.6048C321.328 44.9448 321.385 45.2848 321.385 45.6248C321.498 45.9648 321.555 46.3615 321.555 46.8148V47.4948C321.555 47.9481 321.498 48.2315 321.385 48.3448C319.458 52.8781 316.455 57.2415 312.375 61.4348C308.408 65.6281 304.271 68.9148 299.965 71.2948C299.058 71.7481 298.038 72.2015 296.905 72.6548C295.771 73.1081 294.638 73.3348 293.505 73.3348C293.165 73.3348 292.938 73.2781 292.825 73.1648L291.635 72.8248C291.975 72.7115 292.485 72.4281 293.165 71.9748C293.391 71.8615 293.618 71.7481 293.845 71.6348C294.071 71.5215 294.298 71.4081 294.525 71.2948L295.545 70.7848C295.771 70.7848 295.941 70.7281 296.055 70.6148L295.885 70.4448C295.885 69.9915 296.168 69.7648 296.735 69.7648C297.415 69.3115 297.981 69.0281 298.435 68.9148L300.135 68.4048C300.815 68.1781 301.381 68.0081 301.835 67.8948C302.401 67.6681 302.685 67.3281 302.685 66.8748C303.138 66.5348 303.705 65.7981 304.385 64.6648C305.178 63.3048 305.745 62.4548 306.085 62.1148L307.615 61.7748L309.315 59.2248L308.975 58.5448L310.335 57.8648V57.1848H310.675C311.921 55.8248 312.885 54.6348 313.565 53.6148C314.358 52.4815 315.038 51.0081 315.605 49.1948C315.605 48.9681 315.775 48.8548 316.115 48.8548V48.6848C316.795 47.3248 317.135 46.0215 317.135 44.7748C317.135 42.0548 315.831 40.6948 313.225 40.6948C312.998 40.6948 312.715 40.6381 312.375 40.5248C311.921 40.5248 311.695 40.6381 311.695 40.8648H312.545L311.695 41.5448C311.128 41.7715 310.561 42.1115 309.995 42.5648C309.541 43.0181 309.315 43.6415 309.315 44.4348H308.635C308.861 44.4348 309.031 44.6615 309.145 45.1148C308.351 45.1148 307.785 45.3415 307.445 45.7948L308.295 46.3048C308.068 46.5315 307.785 46.7581 307.445 46.9848C307.105 47.0981 306.765 47.2681 306.425 47.4948C306.085 47.6081 305.745 47.7781 305.405 48.0048C305.065 48.1181 304.781 48.2881 304.555 48.5148C303.308 49.4215 302.685 50.2715 302.685 51.0648C302.685 51.1781 302.741 51.2915 302.855 51.4048C302.968 51.5181 303.081 51.6315 303.195 51.7448C303.421 51.8581 303.648 52.0281 303.875 52.2548L302.515 52.0848C302.515 52.0848 302.571 52.0848 302.685 52.0848C302.798 51.9715 302.911 51.9148 303.025 51.9148C302.571 51.9148 302.231 51.9715 302.005 52.0848C301.778 52.0848 301.778 52.1981 302.005 52.4248L302.175 52.5948C302.175 52.5948 302.118 52.5948 302.005 52.5948C302.005 52.5948 302.005 52.6515 302.005 52.7648C301.891 52.8781 301.835 52.9915 301.835 53.1048H301.495C301.041 53.6715 300.588 54.2381 300.135 54.8048C299.795 55.3715 299.511 55.9381 299.285 56.5048C298.831 57.5248 298.208 58.5448 297.415 59.5648L298.605 60.4148H297.415L296.735 61.0948V61.9448L295.715 62.7948L296.055 62.9648L294.355 65.8548L293.845 66.0248V67.3848L291.975 69.4248L292.145 70.1048H291.805V71.2948C291.011 72.0881 290.501 73.1081 290.275 74.3548C290.161 75.4881 289.708 76.6215 288.915 77.7548H289.935L288.575 78.6048V79.1148C288.461 79.2281 288.405 79.3981 288.405 79.6248C288.405 80.0781 288.405 80.4748 288.405 80.8148C288.518 81.1548 288.631 81.4948 288.745 81.8348C288.858 82.1748 288.915 82.5148 288.915 82.8548C289.028 83.1948 289.085 83.5915 289.085 84.0448C289.085 84.9515 289.425 86.1415 290.105 87.6148C290.898 88.9748 291.691 89.6548 292.485 89.6548C294.638 89.6548 296.791 89.0881 298.945 87.9548C300.985 86.7081 303.081 86.0281 305.235 85.9148L308.805 83.0248C310.618 81.5515 312.205 79.7948 313.565 77.7548C315.038 75.7148 316.681 73.9581 318.495 72.4848H318.665L318.325 72.1448C318.665 71.6915 319.175 71.0115 319.855 70.1048C320.535 69.1981 320.931 68.4615 321.045 67.8948C321.158 67.7815 321.215 67.5548 321.215 67.2148C321.215 66.9881 321.271 66.8181 321.385 66.7048C321.611 66.1381 321.951 65.8548 322.405 65.8548C322.858 65.8548 323.085 66.1381 323.085 66.7048C323.085 67.0448 323.028 67.2715 322.915 67.3848C322.915 68.5181 322.405 70.1615 321.385 72.3148C320.478 74.3548 319.401 75.6015 318.155 76.0548V76.5648C317.588 77.1315 317.021 77.9248 316.455 78.9448C315.661 79.9648 314.528 81.3815 313.055 83.1948C311.695 85.0081 310.561 85.9148 309.655 85.9148L307.275 87.4448V88.1248C307.275 88.6915 306.935 89.0881 306.255 89.3148C305.801 89.8815 305.235 90.1081 304.555 89.9948C304.215 90.6748 303.648 91.1281 302.855 91.3548C302.515 91.4681 302.005 91.7515 301.325 92.2048C301.098 92.5448 300.531 92.8848 299.625 93.2248C298.831 93.5648 298.265 93.7915 297.925 93.9048C297.358 94.3581 296.678 94.6415 295.885 94.7548C295.091 94.7548 294.411 94.7548 293.845 94.7548H290.105Z" fill="white"/>
  <path d="M267.71 96.6249C266.01 96.6249 264.65 96.1149 263.63 95.0949C262.61 94.0749 261.646 92.9416 260.74 91.6949C260.853 91.4682 260.91 91.2982 260.91 91.1849C261.023 91.0716 261.08 91.0149 261.08 91.0149C261.08 90.9016 260.966 90.7316 260.74 90.5049C259.833 88.9182 259.266 87.2182 259.04 85.4049C258.813 83.4782 258.643 81.6649 258.53 79.9649L258.87 79.6249C259.096 77.9249 259.266 76.2249 259.38 74.5249C259.493 72.8249 259.55 71.0682 259.55 69.2549C259.55 68.4616 259.833 67.6682 260.4 66.8749V66.7049C260.286 66.7049 260.23 66.6482 260.23 66.5349V66.3649C260.23 66.1382 260.286 66.0249 260.4 66.0249C260.513 64.3249 260.853 62.6816 261.42 61.0949C262.326 58.2616 263.29 55.5416 264.31 52.9349C265.33 50.2149 266.463 47.2682 267.71 44.0949C268.05 43.7549 268.106 43.4149 267.88 43.0749L267.54 42.3949C267.54 41.1482 267.993 39.7882 268.9 38.3149C269.92 36.8416 270.77 35.5949 271.45 34.5749C271.45 34.0082 271.733 33.1016 272.3 31.8549C272.866 30.4949 273.433 29.1916 274 27.9449C274.68 26.6982 275.133 25.9616 275.36 25.7349C274.453 25.9616 274.056 25.9049 274.17 25.5649C274.396 25.1116 274.623 24.8849 274.85 24.8849L276.55 22.3349C277.116 21.6549 277.456 20.8049 277.57 19.7849C277.796 18.8782 278.08 17.9716 278.42 17.0649C278.76 16.1582 279.496 15.5916 280.63 15.3649C280.856 15.1382 281.196 15.0249 281.65 15.0249C282.556 15.0249 283.803 15.3082 285.39 15.8749C287.09 16.3282 288.62 16.9516 289.98 17.7449C291.34 18.5382 292.02 19.3882 292.02 20.2949C292.02 21.3149 291.566 22.6749 290.66 24.3749C289.866 25.9616 288.96 27.6616 287.94 29.4749L284.71 34.5749C283.576 36.1616 282.726 37.6349 282.16 38.9949H281.82V39.5049L280.29 41.0349V41.7149L280.12 41.8849C280.006 42.6782 279.836 43.5282 279.61 44.4349C279.383 45.2282 278.986 46.0216 278.42 46.8149L277.4 46.6449C276.72 48.1182 276.323 48.4582 276.21 47.6649C276.21 46.8716 276.663 45.7382 277.57 44.2649L277.23 43.7549C276.776 44.6616 276.38 45.5116 276.04 46.3049C275.813 46.9849 275.756 47.8349 275.87 48.8549V48.6849L276.04 48.8549L275.36 49.1949L274.85 50.8949C274.736 51.2349 274.623 51.5749 274.51 51.9149C274.396 52.2549 274.283 52.5382 274.17 52.7649C273.716 54.1249 273.093 54.9182 272.3 55.1449L272.47 56.1649L271.96 57.6949C271.733 58.4882 271.676 58.9982 271.79 59.2249H271.11V59.3949L268.56 63.6449C268.673 63.7582 268.73 63.9282 268.73 64.1549C268.73 64.8349 268.446 65.8549 267.88 67.2149C267.086 68.6882 266.633 69.8216 266.52 70.6149C266.406 70.8416 266.293 71.0682 266.18 71.2949C266.18 71.5216 266.236 71.8616 266.35 72.3149L266.18 72.1449C266.18 72.2582 266.18 72.3716 266.18 72.4849C266.293 72.5982 266.35 72.6549 266.35 72.6549V73.3349C266.35 74.8082 266.123 76.0549 265.67 77.0749C265.216 78.3216 264.99 79.6249 264.99 80.9849C264.99 81.6649 265.103 82.4582 265.33 83.3649C265.443 83.8182 265.5 84.2716 265.5 84.7249C265.613 85.0649 265.67 85.4616 265.67 85.9149C265.67 86.5949 265.613 87.1049 265.5 87.4449C265.386 87.6716 265.33 87.9549 265.33 88.2949C265.33 88.6349 265.33 88.9182 265.33 89.1449C265.33 90.0516 265.896 91.0149 267.03 92.0349C268.163 92.9416 269.183 93.3949 270.09 93.3949C271.45 93.3949 272.413 93.1682 272.98 92.7149C273.206 92.4882 273.49 92.2616 273.83 92.0349C274.283 91.6949 274.736 91.4116 275.19 91.1849L276.04 89.4849V91.5249L275.87 91.6949C275.303 92.9416 274.113 94.0749 272.3 95.0949C270.486 96.1149 268.956 96.6249 267.71 96.6249ZM183.39 95.2649C183.163 95.2649 182.766 95.1516 182.2 94.9249C181.633 94.5849 181.293 94.1882 181.18 93.7349H181.69C181.916 93.6216 182.2 93.5082 182.54 93.3949C182.766 93.2816 182.936 93.1682 183.05 93.0549C183.276 92.9416 183.56 92.8282 183.9 92.7149C184.126 92.6016 184.353 92.4882 184.58 92.3749C185.373 91.9216 186.11 91.0149 186.79 89.6549C187.47 88.2949 188.036 86.8782 188.49 85.4049C189.056 83.8182 189.453 82.6849 189.68 82.0049L190.19 79.7949C190.19 79.3416 190.19 78.9449 190.19 78.6049C190.303 78.2649 190.416 77.9249 190.53 77.5849C190.87 76.3382 191.266 75.1482 191.72 74.0149C192.286 72.8816 192.853 71.7482 193.42 70.6149C193.533 70.3882 193.59 69.8782 193.59 69.0849C193.703 68.2916 193.76 67.7249 193.76 67.3849C193.646 67.3849 193.476 67.2716 193.25 67.0449C193.136 66.9316 193.08 66.8182 193.08 66.7049C193.08 66.4782 193.136 66.3649 193.25 66.3649C193.59 65.5716 193.986 64.7216 194.44 63.8149C195.006 62.7949 195.743 62.1716 196.65 61.9449C196.876 61.3782 197.16 60.8116 197.5 60.2449C197.84 59.6782 198.123 59.1116 198.35 58.5449C198.576 57.9782 198.86 57.4682 199.2 57.0149C199.54 56.4482 199.823 55.8816 200.05 55.3149L201.58 50.7249C201.806 49.9316 202.033 49.1949 202.26 48.5149C202.6 47.7216 202.996 46.9849 203.45 46.3049H202.94L202.6 45.2849L203.28 44.2649L202.09 43.9249C202.43 43.8116 202.713 43.6416 202.94 43.4149V43.2449C202.6 42.9049 202.43 42.5649 202.43 42.2249C202.43 41.9982 202.486 41.8849 202.6 41.8849C202.826 41.4316 202.996 41.0349 203.11 40.6949C203.223 40.2416 203.336 39.7882 203.45 39.3349C203.676 38.4282 204.073 37.6916 204.64 37.1249H204.3C204.3 37.2382 204.13 37.2949 203.79 37.2949C203.563 37.2949 203.45 37.1249 203.45 36.7849C203.45 36.2182 203.563 35.5949 203.79 34.9149C204.016 34.1216 204.243 33.4416 204.47 32.8749C204.696 32.0816 204.923 31.2882 205.15 30.4949C205.376 29.7016 205.49 28.9082 205.49 28.1149C205.49 27.6616 205.433 27.3216 205.32 27.0949C205.093 26.6416 204.98 26.2449 204.98 25.9049C204.98 25.4516 205.206 24.9982 205.66 24.5449C206 24.3182 206.34 24.0349 206.68 23.6949C206 23.4682 205.546 23.2416 205.32 23.0149C205.093 22.6749 204.696 22.4482 204.13 22.3349H203.96L202.26 21.9949L200.9 21.4849C200.333 21.2582 200.05 20.9749 200.05 20.6349C200.05 20.2949 200.333 20.0116 200.9 19.7849C201.58 19.5582 201.976 19.3882 202.09 19.2749C203.676 19.6149 205.716 20.0682 208.21 20.6349C210.816 21.2016 213.253 21.8816 215.52 22.6749C217.786 23.4682 219.26 24.3749 219.94 25.3949C220.166 25.8482 220.28 26.3016 220.28 26.7549C220.393 27.0949 220.45 27.4349 220.45 27.7749C220.45 28.5682 220.11 29.9282 219.43 31.8549C218.863 33.7816 218.126 35.5949 217.22 37.2949C216.313 38.8816 215.35 39.8449 214.33 40.1849L214.5 40.3549L215.18 41.5449C215.406 42.2249 215.52 42.5649 215.52 42.5649C215.52 42.9049 215.406 43.3016 215.18 43.7549C215.066 44.0949 214.783 44.3216 214.33 44.4349L214.16 44.6049C214.16 44.7182 214.103 44.8316 213.99 44.9449C213.876 45.0582 213.82 45.2282 213.82 45.4549C213.82 45.7949 213.763 46.0216 213.65 46.1349H213.82V46.8149C213.82 47.4949 213.48 48.0049 212.8 48.3449C212.686 48.9116 212.29 49.9316 211.61 51.4049C211.043 52.7649 210.59 53.6149 210.25 53.9549L209.57 54.9749C209.683 55.0882 209.74 55.2016 209.74 55.3149C209.74 55.6549 209.626 55.8249 209.4 55.8249L209.06 56.1649C208.946 56.5049 208.663 56.9016 208.21 57.3549C208.096 57.5816 207.926 57.8082 207.7 58.0349C207.586 58.1482 207.473 58.3182 207.36 58.5449C206.68 59.3382 206.453 60.1882 206.68 61.0949H206.51C206.51 61.3216 206.396 61.5482 206.17 61.7749C205.943 62.2282 205.66 62.7382 205.32 63.3049C204.98 63.8716 204.526 64.2116 203.96 64.3249C203.846 64.7782 203.733 65.2882 203.62 65.8549C203.506 66.3082 203.393 66.6482 203.28 66.8749C203.166 67.1016 203.053 67.3849 202.94 67.7249C202.826 67.9516 202.713 68.1782 202.6 68.4049L201.92 70.1049C201.353 71.4649 200.843 72.8816 200.39 74.3549C199.936 75.7149 199.483 77.1882 199.03 78.7749H199.54C199.54 78.8882 199.596 78.9449 199.71 78.9449C200.276 78.9449 200.786 78.6049 201.24 77.9249C201.693 77.1316 201.806 76.3949 201.58 75.7149C202.146 75.4882 202.543 75.2049 202.77 74.8649C203.336 74.2982 203.79 74.0149 204.13 74.0149C204.696 73.4482 205.15 73.0516 205.49 72.8249L206.68 71.6349C208.38 70.0482 209.853 68.2349 211.1 66.1949C211.666 65.2882 212.29 64.3816 212.97 63.4749C213.763 62.4549 214.556 61.5482 215.35 60.7549C216.256 59.6216 217.163 58.4882 218.07 57.3549C219.09 56.2216 219.996 55.0316 220.79 53.7849C221.583 52.5382 222.376 51.3482 223.17 50.2149C224.076 49.0816 224.983 47.9482 225.89 46.8149C226.683 45.9082 227.476 45.0016 228.27 44.0949C229.063 43.0749 229.743 41.9982 230.31 40.8649C230.083 40.6382 229.97 40.4116 229.97 40.1849C229.97 39.6182 230.536 38.8249 231.67 37.8049C232.803 36.6716 234.106 35.5382 235.58 34.4049C237.166 33.2716 238.64 32.2516 240 31.3449C241.473 30.4382 242.493 29.8716 243.06 29.6449C243.4 29.6449 244.136 29.4749 245.27 29.1349C246.516 28.7949 247.253 28.6249 247.48 28.6249H247.99C247.99 29.8716 247.933 31.0616 247.82 32.1949C247.82 33.3282 247.65 34.3482 247.31 35.2549C246.97 36.2749 246.573 37.2949 246.12 38.3149C245.78 39.3349 245.383 40.3549 244.93 41.3749C244.136 43.5282 243.286 45.5682 242.38 47.4949L240.85 51.5749C240.623 52.2549 240.34 52.9349 240 53.6149C239.66 54.2949 239.376 54.9182 239.15 55.4849L238.47 57.1849C238.356 57.7516 238.073 58.2616 237.62 58.7149C237.62 58.8282 237.563 59.0549 237.45 59.3949C237.45 59.6216 237.393 59.9049 237.28 60.2449C237.62 60.2449 237.96 60.1882 238.3 60.0749C237.506 61.8882 236.94 63.4182 236.6 64.6649C236.26 65.7982 236.033 67.3282 235.92 69.2549C237.28 67.4416 238.696 65.5716 240.17 63.6449C241.756 61.6049 242.776 60.3582 243.23 59.9049C244.476 58.9982 245.78 57.9216 247.14 56.6749C248.5 55.4282 249.803 54.1816 251.05 52.9349C251.73 52.2549 252.41 51.5749 253.09 50.8949C253.77 50.2149 254.393 49.5349 254.96 48.8549C255.526 48.1749 256.093 47.5516 256.66 46.9849C257.34 46.3049 257.963 45.6816 258.53 45.1149C258.983 44.6616 259.38 44.2082 259.72 43.7549C260.173 43.3016 260.57 42.8482 260.91 42.3949C261.476 41.4882 262.213 40.5816 263.12 39.6749C263.8 38.9949 264.423 38.0882 264.99 36.9549C265.216 36.5016 265.443 36.0482 265.67 35.5949C265.896 35.1416 266.236 34.6882 266.69 34.2349L267.88 33.0449C268.333 32.5916 268.73 32.3649 269.07 32.3649C269.523 32.3649 269.75 32.6482 269.75 33.2149C269.75 34.6882 268.843 36.5582 267.03 38.8249C265.216 40.9782 263.686 42.7916 262.44 44.2649C261.986 44.7182 261.59 45.2282 261.25 45.7949C260.91 46.2482 260.57 46.7582 260.23 47.3249C259.436 48.4582 258.586 49.4782 257.68 50.3849L253.6 54.9749C251.9 56.6749 250.54 58.2616 249.52 59.7349C247.933 62.0016 246.29 64.3249 244.59 66.7049C243.003 68.9716 241.19 71.0682 239.15 72.9949C237.903 74.2416 236.883 75.7149 236.09 77.4149C235.41 79.1149 234.73 80.7582 234.05 82.3449C234.163 83.2516 234.106 84.0449 233.88 84.7249C233.653 85.2916 232.916 85.5749 231.67 85.5749C230.536 85.5749 229.403 85.5182 228.27 85.4049C227.136 85.1782 226.286 84.3849 225.72 83.0249C225.606 82.7982 225.323 82.4582 224.87 82.0049C224.53 81.7782 224.36 81.4382 224.36 80.9849C224.36 80.8716 224.416 80.7582 224.53 80.6449V80.3049L225.55 79.7949V79.6249C225.436 79.0582 225.323 78.4916 225.21 77.9249C225.21 77.3582 225.21 76.7916 225.21 76.2249C225.21 75.0916 225.266 74.0149 225.38 72.9949C225.493 71.8616 225.663 70.7282 225.89 69.5949C226.116 68.5749 226.343 67.5549 226.57 66.5349C226.796 65.4016 226.966 64.2682 227.08 63.1349C227.306 63.1349 227.306 63.0216 227.08 62.7949C227.306 60.5282 227.873 58.2616 228.78 55.9949C229.686 53.7282 230.536 51.5182 231.33 49.3649C232.236 47.0982 232.69 44.9449 232.69 42.9049V42.2249C232.35 43.0182 231.896 43.6982 231.33 44.2649C231.103 44.7182 230.876 45.1149 230.65 45.4549C230.423 45.7949 230.14 46.1349 229.8 46.4749L229.29 46.8149C228.723 47.2682 228.326 48.0049 228.1 49.0249C227.986 49.4782 227.816 49.9316 227.59 50.3849C227.363 50.7249 227.136 51.1216 226.91 51.5749C226.796 51.8016 226.4 52.2549 225.72 52.9349L225.21 53.2749C224.87 53.5016 224.586 53.7849 224.36 54.1249C224.133 54.4649 223.906 54.7482 223.68 54.9749C223 56.3349 222.15 57.5249 221.13 58.5449C220.563 59.1116 219.996 59.7349 219.43 60.4149C218.976 60.9816 218.466 61.5482 217.9 62.1149L217.22 63.1349C216.766 63.5882 216.483 63.9849 216.37 64.3249L214.33 67.8949C214.103 68.3482 213.82 68.7449 213.48 69.0849C213.14 69.4249 212.856 69.7082 212.63 69.9349C211.836 70.5016 211.213 71.1816 210.76 71.9749C209.173 74.1282 207.813 76.2249 206.68 78.2649C206 79.3982 205.206 80.4749 204.3 81.4949C203.506 82.4016 202.656 83.3082 201.75 84.2149C201.296 84.6682 200.9 85.0649 200.56 85.4049C200.22 85.7449 199.936 86.0849 199.71 86.4249C199.483 86.7649 199.2 87.1049 198.86 87.4449C198.52 87.7849 198.236 88.0682 198.01 88.2949L194.78 91.5249C192.966 92.9982 191.323 93.9049 189.85 94.2449C188.376 94.3582 186.506 94.6982 184.24 95.2649H183.39ZM204.3 61.9449H204.47C204.81 61.6049 205.036 61.3216 205.15 61.0949L205.32 60.9249L204.98 60.2449C204.866 60.5849 204.753 60.9249 204.64 61.2649C204.526 61.4916 204.413 61.7182 204.3 61.9449ZM233.37 72.8249C233.596 72.5982 233.766 72.3716 233.88 72.1449C234.106 71.8049 234.333 71.4649 234.56 71.1249C234.446 71.1249 234.163 71.2382 233.71 71.4649C233.596 71.6916 233.483 71.9182 233.37 72.1449C233.256 72.3716 233.256 72.5982 233.37 72.8249Z" fill="white"/>
  <path d="M176.242 100.195C174.542 100.195 173.069 99.7981 171.822 99.0048C170.689 98.2115 169.499 97.1915 168.252 95.9448L168.592 95.6048C168.592 95.4915 168.479 95.3215 168.252 95.0948C167.459 94.0748 166.892 93.2814 166.552 92.7148C166.326 92.1481 166.099 91.5815 165.872 91.0148C165.759 90.4481 165.646 89.8815 165.532 89.3148C165.419 88.7481 165.192 87.9548 164.852 86.9348C164.739 86.4815 164.739 86.1981 164.852 86.0848V82.6848C164.852 82.1181 164.852 81.6081 164.852 81.1548C164.852 80.5881 164.796 80.0215 164.682 79.4548C164.569 79.0015 164.456 78.6048 164.342 78.2648C164.342 77.8115 164.342 77.4715 164.342 77.2448C164.342 77.1315 164.456 76.7348 164.682 76.0548C164.682 75.7148 164.739 75.4881 164.852 75.3748C164.626 75.1481 164.512 74.9781 164.512 74.8648C164.512 74.7515 164.569 74.6381 164.682 74.5248L164.852 74.3548C164.852 74.3548 164.909 74.2981 165.022 74.1848C165.022 74.0715 165.079 73.9581 165.192 73.8448C165.079 73.8448 165.022 73.7881 165.022 73.6748C165.022 73.4481 165.079 73.3348 165.192 73.3348C164.966 72.2015 165.022 71.3515 165.362 70.7848C165.702 70.1048 165.702 69.1415 165.362 67.8948H166.212V66.7048L166.382 66.5348L165.532 65.3448L166.722 65.1748V65.0048C166.722 64.8915 166.779 64.7781 166.892 64.6648C168.139 61.7181 169.159 58.8281 169.952 55.9948L168.932 56.1648V54.9748H169.272C169.839 54.0681 170.349 53.0481 170.802 51.9148C171.029 51.3481 171.256 50.8948 171.482 50.5548C171.709 50.2148 171.879 49.8181 171.992 49.3648L171.822 49.5348C171.029 50.3281 170.576 51.1781 170.462 52.0848C170.349 52.6515 170.122 53.1614 169.782 53.6148C169.556 54.0681 169.216 54.5215 168.762 54.9748C168.309 55.4281 167.912 55.7115 167.572 55.8248C167.119 56.1648 166.779 56.6181 166.552 57.1848C165.532 59.4515 164.286 61.6048 162.812 63.6448C161.452 65.6848 160.092 67.6681 158.732 69.5948C158.506 69.9348 158.166 70.3315 157.712 70.7848C157.259 71.2381 156.919 71.7481 156.692 72.3148C156.352 72.8815 156.069 73.4481 155.842 74.0148L154.822 75.7148C154.596 76.1681 154.312 76.5648 153.972 76.9048C153.632 77.2448 153.236 77.6415 152.782 78.0948L150.402 80.3048C147.569 83.5915 144.622 86.8781 141.562 90.1648C138.616 93.3381 135.159 95.8881 131.192 97.8148C130.852 97.9281 130.569 97.9848 130.342 97.9848C130.116 98.0981 129.889 98.1548 129.662 98.1548C128.302 98.1548 127.169 97.5315 126.262 96.2848C125.469 95.0381 125.072 93.7915 125.072 92.5448C125.072 91.9781 125.186 91.3548 125.412 90.6748L126.092 88.9748C126.319 88.2948 126.432 87.6715 126.432 87.1048C126.432 86.5381 126.546 85.9148 126.772 85.2348C127.112 83.9881 127.509 82.8548 127.962 81.8348C128.416 80.7015 128.926 79.5115 129.492 78.2648C129.492 78.2648 129.606 77.7548 129.832 76.7348C129.832 75.9415 129.889 75.4315 130.002 75.2048C129.436 74.9781 129.152 74.8081 129.152 74.6948C129.152 74.5815 129.209 74.5248 129.322 74.5248V74.3548C129.662 73.6748 130.059 72.8815 130.512 71.9748C131.079 70.9548 131.816 70.3881 132.722 70.2748C133.289 69.0281 133.799 67.8381 134.252 66.7048C134.819 65.5715 135.386 64.4381 135.952 63.3048C137.086 61.1515 137.936 58.7148 138.502 55.9948L139.012 55.3148H138.672L138.162 54.6348L138.842 53.6148L137.822 53.1048L138.842 52.5948H138.162V52.2548C138.049 52.1415 137.992 51.9715 137.992 51.7448C137.992 51.5181 138.049 51.3481 138.162 51.2348C138.616 50.4415 138.899 49.6481 139.012 48.8548C139.239 47.9481 139.579 47.2681 140.032 46.8148H139.862L139.692 46.9848H139.352C139.012 46.9848 138.842 46.8715 138.842 46.6448V46.4748C138.842 45.2281 139.182 44.0381 139.862 42.9048C139.976 42.4515 140.089 42.0548 140.202 41.7148C140.316 41.3748 140.429 40.9781 140.542 40.5248C140.656 40.1848 140.712 39.8448 140.712 39.5048C140.826 39.1648 140.882 38.8248 140.882 38.4848C140.882 38.0315 140.826 37.6915 140.712 37.4648C140.486 37.0115 140.372 36.6148 140.372 36.2748C140.372 35.8215 140.542 35.4248 140.882 35.0848C141.336 34.7448 141.732 34.4615 142.072 34.2348V34.0648C141.846 33.9515 141.392 33.7815 140.712 33.5548C140.146 33.2148 139.806 33.0448 139.692 33.0448L139.862 32.3648C139.636 32.5915 139.466 32.7048 139.352 32.7048C139.466 32.7048 139.466 32.7615 139.352 32.8748H139.012C138.672 32.7615 138.049 32.5915 137.142 32.3648C136.122 32.1381 135.612 31.7981 135.612 31.3448C135.612 31.1181 135.896 30.8915 136.462 30.6648C137.029 30.3248 137.426 30.1548 137.652 30.1548C139.239 30.4948 141.166 30.9481 143.432 31.5148C145.812 31.9681 148.022 32.5348 150.062 33.2148C152.216 33.8948 153.689 34.8015 154.482 35.9348C154.709 36.2748 154.822 36.6715 154.822 37.1248C154.936 37.4648 154.992 37.8048 154.992 38.1448C154.992 39.1648 154.709 40.2981 154.142 41.5448C153.689 42.7915 153.236 43.9248 152.782 44.9448C152.442 45.6248 152.272 46.0781 152.272 46.3048C152.272 46.3048 152.159 46.6448 151.932 47.3248C151.366 47.8914 150.969 48.3448 150.742 48.6848C150.289 49.1381 149.779 49.4781 149.212 49.7048L149.382 50.2148L149.552 50.3848C149.779 50.6115 149.892 50.7815 149.892 50.8948C150.119 51.3481 150.232 51.8015 150.232 52.2548C150.232 52.4815 150.176 52.7648 150.062 53.1048C149.949 53.4448 149.666 53.6715 149.212 53.7848L148.872 54.1248H149.042C148.816 54.5781 148.702 54.9748 148.702 55.3148V55.8248C148.702 56.0515 148.646 56.3348 148.532 56.6748C148.419 57.0148 148.192 57.2415 147.852 57.3548C147.626 57.9215 147.229 58.8281 146.662 60.0748C146.209 61.3215 145.756 62.1715 145.302 62.6248L144.792 63.6448L144.962 64.1548L144.282 64.6648C144.169 65.4581 143.716 66.2515 142.922 67.0448C142.129 67.6115 141.846 68.4048 142.072 69.4248H141.732C141.846 69.5381 141.902 69.6515 141.902 69.7648C141.902 69.9915 141.789 70.1048 141.562 70.1048C141.449 70.4448 141.222 70.8415 140.882 71.2948C140.542 71.6348 140.032 71.9181 139.352 72.1448C139.012 73.3915 138.502 75.0915 137.822 77.2448C137.142 79.2848 136.519 81.1548 135.952 82.8548C135.386 84.5548 135.046 85.5748 134.932 85.9148C135.046 86.0281 135.272 86.0848 135.612 86.0848C136.066 86.0848 136.746 85.8581 137.652 85.4048C138.559 84.8381 138.899 84.1581 138.672 83.3648C139.126 83.3648 139.522 83.0815 139.862 82.5148C140.316 82.0615 140.712 81.7781 141.052 81.6648C142.412 80.5315 143.716 79.3981 144.962 78.2648C146.209 77.0181 147.399 75.7148 148.532 74.3548C149.666 72.9948 150.799 71.6348 151.932 70.2748C153.066 68.9148 154.199 67.6115 155.332 66.3648C155.446 66.2515 156.126 65.4015 157.372 63.8148C158.732 62.2281 160.319 60.3015 162.132 58.0348C163.946 55.7681 165.759 53.4448 167.572 51.0648C169.386 48.6848 170.859 46.6448 171.992 44.9448C173.126 43.2448 173.636 42.1681 173.522 41.7148H174.882L175.052 41.8848L175.392 41.5448L174.542 41.7148V40.6948H174.882C175.109 40.3548 175.336 40.0148 175.562 39.6748C175.789 39.3348 176.016 39.0515 176.242 38.8248C176.582 38.4848 176.866 37.8048 177.092 36.7848C177.206 36.3315 177.319 35.9348 177.432 35.5948C177.546 35.1415 177.659 34.6881 177.772 34.2348C177.999 33.4415 178.622 32.9881 179.642 32.8748L179.812 32.7048C180.832 32.7048 182.362 32.8748 184.402 33.2148C186.442 33.5548 188.256 34.0648 189.842 34.7448C191.542 35.4248 192.392 36.3315 192.392 37.4648C192.392 38.3715 191.996 39.5048 191.202 40.8648C190.522 42.2248 189.729 43.5281 188.822 44.7748C188.369 45.3415 187.972 45.9648 187.632 46.6448C187.292 47.3248 186.896 47.9481 186.442 48.5148C185.649 49.7615 184.969 51.0648 184.402 52.4248H183.892V52.7648C183.666 52.8781 183.326 53.1614 182.872 53.6148C182.532 53.9548 182.249 54.2381 182.022 54.4648H182.532C182.532 55.0315 182.476 55.4848 182.362 55.8248L182.192 57.1848L181.172 58.8848H180.322C180.322 59.3381 180.039 59.5648 179.472 59.5648C179.132 59.5648 178.962 59.4515 178.962 59.2248C178.849 59.2248 178.792 59.0548 178.792 58.7148C178.792 58.4881 178.906 58.3748 179.132 58.3748L179.982 56.6748L179.642 56.3348C179.302 57.1281 179.019 57.8081 178.792 58.3748C178.679 58.9415 178.736 59.6781 178.962 60.5848H178.792L178.962 60.7548L178.112 61.0948L177.942 62.2848L177.432 63.8148C177.092 64.9481 176.582 65.6281 175.902 65.8548L176.242 66.5348L175.732 68.5748L175.222 69.2548H175.392L173.182 72.6548C173.296 72.7681 173.352 73.0515 173.352 73.5048C173.352 74.4115 173.126 75.2615 172.672 76.0548C172.219 76.8481 171.879 77.7548 171.652 78.7748L171.822 79.2848L171.482 79.6248C171.596 79.6248 171.652 79.7381 171.652 79.9648L173.182 80.4748C172.616 80.4748 172.219 80.4181 171.992 80.3048V81.4948C171.992 81.9481 171.992 82.4015 171.992 82.8548C171.992 83.1948 171.936 83.5915 171.822 84.0448C171.709 84.4981 171.596 84.8948 171.482 85.2348C171.482 85.5748 171.482 85.9715 171.482 86.4248C171.482 87.3315 171.652 88.1248 171.992 88.8048C172.219 89.1448 172.332 89.5415 172.332 89.9948C172.446 90.3348 172.559 90.7315 172.672 91.1848C172.786 91.4115 172.842 91.8081 172.842 92.3748C172.842 92.8281 172.842 93.3381 172.842 93.9048C172.956 94.8115 173.692 95.6048 175.052 96.2848C176.526 96.9648 177.716 97.3048 178.622 97.3048C179.756 97.3048 180.662 97.1348 181.342 96.7948C182.022 96.4548 182.816 96.0015 183.722 95.4348L183.552 95.6048H184.232V95.7748C183.666 97.0215 182.476 98.0415 180.662 98.8348C178.849 99.7415 177.376 100.195 176.242 100.195ZM139.862 70.1048H140.032C140.259 69.6515 140.486 69.3681 140.712 69.2548L140.542 68.5748C140.316 68.9148 140.089 69.4248 139.862 70.1048Z" fill="white"/>
  <path d="M97.4172 94.5848C96.8505 94.5848 96.2839 94.5848 95.7172 94.5848C95.2639 94.4715 94.7539 94.3581 94.1872 94.2448C93.6205 94.0181 93.0539 93.8481 92.4872 93.7348C91.9205 93.6215 91.3539 93.5081 90.7872 93.3948L90.9572 92.5448C87.4439 92.5448 85.0639 91.9215 83.8172 90.6748C82.6839 89.3148 82.1172 86.8215 82.1172 83.1948C82.1172 82.8548 82.1739 82.6281 82.2872 82.5148V82.0048C82.8539 82.1181 83.3072 82.2315 83.6472 82.3448C83.9872 82.3448 84.2705 82.3448 84.4972 82.3448C85.6305 82.3448 86.4239 82.1181 86.8772 81.6648C87.5572 81.5515 88.2372 81.4948 88.9172 81.4948C89.5972 81.4948 90.2772 81.4381 90.9572 81.3248C91.5239 81.3248 92.1472 81.3248 92.8272 81.3248C93.5072 81.2115 94.1305 81.0981 94.6972 80.9848V80.8148C92.7705 76.9615 91.0705 73.4481 89.5972 70.2748C88.2372 67.1015 87.5572 63.5881 87.5572 59.7348C87.5572 57.1281 88.0105 54.7481 88.9172 52.5948C89.9372 50.4415 90.7305 48.1748 91.2972 45.7948C91.5239 45.1148 91.8639 44.7748 92.3172 44.7748C92.8839 44.6615 93.2805 44.5481 93.5072 44.4348C93.9605 43.8681 94.3572 43.3581 94.6972 42.9048C95.1505 42.4515 95.6039 41.9981 96.0572 41.5448C96.3972 41.2048 96.7372 40.9215 97.0772 40.6948C97.5305 40.3548 97.9272 40.0148 98.2672 39.6748L99.4572 38.6548C102.517 36.0481 105.974 33.8381 109.827 32.0248C113.681 30.0981 117.364 28.3981 120.877 26.9248L125.297 29.8148C125.864 30.9481 126.544 32.1381 127.337 33.3848C128.131 34.5181 128.527 35.8215 128.527 37.2948V37.9748C128.414 38.2015 128.357 38.5415 128.357 38.9948L127.337 40.5248C127.337 40.5248 126.431 41.0915 124.617 42.2248C122.917 43.3581 120.877 44.6048 118.497 45.9648C116.231 47.3248 114.191 48.5715 112.377 49.7048C110.677 50.7248 109.771 51.2348 109.657 51.2348C109.204 51.2348 108.977 51.0648 108.977 50.7248C108.977 50.3848 109.657 49.6481 111.017 48.5148C112.491 47.2681 114.134 45.9648 115.947 44.6048C117.761 43.1315 119.404 41.8848 120.877 40.8648C122.351 39.8448 123.144 39.2781 123.257 39.1648C120.084 39.5048 116.967 40.1848 113.907 41.2048C110.847 42.1115 108.127 43.4148 105.747 45.1148C105.521 45.2281 105.181 45.2281 104.727 45.1148C104.274 45.0015 103.934 45.0581 103.707 45.2848C103.367 45.5115 103.141 45.9648 103.027 46.6448C102.914 47.3248 102.744 47.7781 102.517 48.0048C101.044 49.4781 99.8539 51.2348 98.9472 53.2748C98.1539 55.3148 97.7572 57.6381 97.7572 60.2448C97.7572 60.8115 98.0405 62.1715 98.6072 64.3248C99.1739 66.3648 99.9105 68.6315 100.817 71.1248C101.724 73.6181 102.687 75.7715 103.707 77.5848C104.727 79.3981 105.691 80.3048 106.597 80.3048H110.847C111.527 80.3048 112.207 80.3048 112.887 80.3048C113.567 80.1915 114.247 80.0781 114.927 79.9648C116.174 79.7381 117.364 79.3981 118.497 78.9448C120.877 78.3781 123.257 78.0381 125.637 77.9248C126.431 77.4715 127.394 77.1315 128.527 76.9048C129.094 76.7915 129.604 76.7348 130.057 76.7348C130.624 76.7348 131.134 76.6781 131.587 76.5648L132.607 77.0748L132.437 78.6048C131.644 78.8315 130.341 79.2848 128.527 79.9648C126.827 80.6448 125.071 81.2681 123.257 81.8348C121.557 82.4015 120.254 82.6848 119.347 82.6848L118.667 82.5148C118.554 82.5148 118.497 82.4581 118.497 82.3448H118.327C117.421 82.3448 116.514 82.5148 115.607 82.8548C115.154 83.0815 114.644 83.3081 114.077 83.5348C113.624 83.6481 113.171 83.8181 112.717 84.0448C111.811 84.3848 110.734 84.7248 109.487 85.0648C108.354 85.2915 107.164 85.3481 105.917 85.2348C105.691 87.5015 104.841 89.6548 103.367 91.6948C102.007 93.6215 100.024 94.5848 97.4172 94.5848ZM93.8472 87.9548C94.1872 87.9548 94.3572 87.6148 94.3572 86.9348C94.3572 86.7081 94.3005 86.4248 94.1872 86.0848C94.0739 85.6315 93.9039 85.4048 93.6772 85.4048C93.1105 85.4048 92.4872 85.4048 91.8072 85.4048C91.1272 85.2915 90.5039 85.1781 89.9372 85.0648C89.2572 84.9515 88.5772 84.8948 87.8972 84.8948C87.2172 84.7815 86.5939 84.7248 86.0272 84.7248H85.8572C86.0839 85.0648 86.8205 85.5181 88.0672 86.0848C89.3139 86.5381 90.5605 86.9915 91.8072 87.4448C93.0539 87.7848 93.7339 87.9548 93.8472 87.9548Z" fill="white"/>
  <path d="M46.3936 94.7548C45.1469 94.7548 43.9003 94.5848 42.6536 94.2448C40.8403 93.5648 39.0269 91.6948 37.2136 88.6348L38.5736 88.2948L37.3836 87.4448L36.0236 83.1948H35.8536C35.7403 82.8548 35.6836 82.3448 35.6836 81.6648V80.4748C35.6836 80.0215 35.9669 79.2281 36.5336 78.0948C37.1003 76.9615 37.6103 75.8848 38.0636 74.8648L36.3636 75.2048V74.3548C36.4769 74.2415 36.6469 73.9581 36.8736 73.5048C36.9869 73.1648 37.2703 72.9381 37.7236 72.8248C37.8369 72.9381 37.8936 73.1081 37.8936 73.3348L38.2336 72.9948V72.1448C38.2336 71.6915 38.2336 71.2381 38.2336 70.7848C38.3469 70.2181 38.5736 69.7648 38.9136 69.4248C38.9136 68.7448 38.9703 68.3481 39.0836 68.2348L39.2536 67.5548H39.5936V66.8748L40.6136 65.5148C41.1803 64.9481 41.5203 64.6648 41.6336 64.6648V64.4948C41.5203 64.6081 41.3503 64.6648 41.1236 64.6648C40.6703 64.6648 40.4436 64.4381 40.4436 63.9848C40.4436 63.8715 40.5003 63.7581 40.6136 63.6448V62.7948C40.7269 62.6815 40.7836 62.3981 40.7836 61.9448C40.7836 61.4915 40.6703 61.1515 40.4436 60.9248L41.6336 59.5648L42.3136 59.7348L42.1436 59.5648H42.4836L42.6536 59.3948L43.1636 57.5248L44.0136 58.8848L44.5236 55.9948C44.6369 55.4281 44.7503 54.8615 44.8636 54.2948C44.9769 53.7281 45.0903 53.1615 45.2036 52.5948L47.0736 52.4248V51.0648H46.5636V50.2148L47.4136 49.3648V49.5348L47.5836 49.3648V48.5148L49.1136 47.4948V46.8148C49.9069 46.3615 50.5869 45.5681 51.1536 44.4348C51.4936 43.6415 52.2869 43.1315 53.5336 42.9048H52.5136L52.6836 42.7348L52.0036 43.2448V41.8848H52.3436L52.5136 41.5448H52.6836L53.0236 40.8648V40.0148C53.7036 39.5615 54.3836 38.9948 55.0636 38.3148C55.8569 37.6348 56.2536 36.8981 56.2536 36.1048L56.9336 35.5948V34.9148L57.6136 35.2548L59.8236 33.2148V32.5348L61.1836 31.6848L61.8636 30.6648C61.8636 30.3248 62.0336 30.1548 62.3736 30.1548C62.4869 30.1548 62.7136 30.2681 63.0536 30.4948C63.5069 30.6081 63.8469 30.7215 64.0736 30.8348H65.0936C66.9069 30.8348 68.7203 31.5148 70.5336 32.8748C72.3469 34.1215 73.8769 35.6515 75.1236 37.4648C76.3703 39.2781 76.9936 41.0915 76.9936 42.9048C76.9936 43.4715 77.1636 44.0381 77.5036 44.6048C77.6169 44.9448 77.6736 45.2848 77.6736 45.6248C77.7869 45.9648 77.8436 46.3615 77.8436 46.8148V47.4948C77.8436 47.9481 77.7869 48.2315 77.6736 48.3448C75.7469 52.8781 72.7436 57.2415 68.6636 61.4348C64.6969 65.6281 60.5603 68.9148 56.2536 71.2948C55.3469 71.7481 54.3269 72.2015 53.1936 72.6548C52.0603 73.1081 50.9269 73.3348 49.7936 73.3348C49.4536 73.3348 49.2269 73.2781 49.1136 73.1648L47.9236 72.8248C48.2636 72.7115 48.7736 72.4281 49.4536 71.9748C49.6803 71.8615 49.9069 71.7481 50.1336 71.6348C50.3603 71.5215 50.5869 71.4081 50.8136 71.2948L51.8336 70.7848C52.0603 70.7848 52.2303 70.7281 52.3436 70.6148L52.1736 70.4448C52.1736 69.9915 52.4569 69.7648 53.0236 69.7648C53.7036 69.3115 54.2703 69.0281 54.7236 68.9148L56.4236 68.4048C57.1036 68.1781 57.6703 68.0081 58.1236 67.8948C58.6903 67.6681 58.9736 67.3281 58.9736 66.8748C59.4269 66.5348 59.9936 65.7981 60.6736 64.6648C61.4669 63.3048 62.0336 62.4548 62.3736 62.1148L63.9036 61.7748L65.6036 59.2248L65.2636 58.5448L66.6236 57.8648V57.1848H66.9636C68.2103 55.8248 69.1736 54.6348 69.8536 53.6148C70.6469 52.4815 71.3269 51.0081 71.8936 49.1948C71.8936 48.9681 72.0636 48.8548 72.4036 48.8548V48.6848C73.0836 47.3248 73.4236 46.0215 73.4236 44.7748C73.4236 42.0548 72.1203 40.6948 69.5136 40.6948C69.2869 40.6948 69.0036 40.6381 68.6636 40.5248C68.2103 40.5248 67.9836 40.6381 67.9836 40.8648H68.8336L67.9836 41.5448C67.4169 41.7715 66.8503 42.1115 66.2836 42.5648C65.8303 43.0181 65.6036 43.6415 65.6036 44.4348H64.9236C65.1503 44.4348 65.3203 44.6615 65.4336 45.1148C64.6403 45.1148 64.0736 45.3415 63.7336 45.7948L64.5836 46.3048C64.3569 46.5315 64.0736 46.7581 63.7336 46.9848C63.3936 47.0981 63.0536 47.2681 62.7136 47.4948C62.3736 47.6081 62.0336 47.7781 61.6936 48.0048C61.3536 48.1181 61.0703 48.2881 60.8436 48.5148C59.5969 49.4215 58.9736 50.2715 58.9736 51.0648C58.9736 51.1781 59.0303 51.2915 59.1436 51.4048C59.2569 51.5181 59.3703 51.6315 59.4836 51.7448C59.7103 51.8581 59.9369 52.0281 60.1636 52.2548L58.8036 52.0848C58.8036 52.0848 58.8603 52.0848 58.9736 52.0848C59.0869 51.9715 59.2003 51.9148 59.3136 51.9148C58.8603 51.9148 58.5203 51.9715 58.2936 52.0848C58.0669 52.0848 58.0669 52.1981 58.2936 52.4248L58.4636 52.5948C58.4636 52.5948 58.4069 52.5948 58.2936 52.5948C58.2936 52.5948 58.2936 52.6515 58.2936 52.7648C58.1803 52.8781 58.1236 52.9915 58.1236 53.1048H57.7836C57.3303 53.6715 56.8769 54.2381 56.4236 54.8048C56.0836 55.3715 55.8003 55.9381 55.5736 56.5048C55.1203 57.5248 54.4969 58.5448 53.7036 59.5648L54.8936 60.4148H53.7036L53.0236 61.0948V61.9448L52.0036 62.7948L52.3436 62.9648L50.6436 65.8548L50.1336 66.0248V67.3848L48.2636 69.4248L48.4336 70.1048H48.0936V71.2948C47.3003 72.0881 46.7903 73.1081 46.5636 74.3548C46.4503 75.4881 45.9969 76.6215 45.2036 77.7548H46.2236L44.8636 78.6048V79.1148C44.7503 79.2281 44.6936 79.3981 44.6936 79.6248C44.6936 80.0781 44.6936 80.4748 44.6936 80.8148C44.8069 81.1548 44.9203 81.4948 45.0336 81.8348C45.1469 82.1748 45.2036 82.5148 45.2036 82.8548C45.3169 83.1948 45.3736 83.5915 45.3736 84.0448C45.3736 84.9515 45.7136 86.1415 46.3936 87.6148C47.1869 88.9748 47.9803 89.6548 48.7736 89.6548C50.9269 89.6548 53.0803 89.0881 55.2336 87.9548C57.2736 86.7081 59.3703 86.0281 61.5236 85.9148L65.0936 83.0248C66.9069 81.5515 68.4936 79.7948 69.8536 77.7548C71.3269 75.7148 72.9703 73.9581 74.7836 72.4848H74.9536L74.6136 72.1448C74.9536 71.6915 75.4636 71.0115 76.1436 70.1048C76.8236 69.1981 77.2203 68.4615 77.3336 67.8948C77.4469 67.7815 77.5036 67.5548 77.5036 67.2148C77.5036 66.9881 77.5603 66.8181 77.6736 66.7048C77.9003 66.1381 78.2403 65.8548 78.6936 65.8548C79.1469 65.8548 79.3736 66.1381 79.3736 66.7048C79.3736 67.0448 79.3169 67.2715 79.2036 67.3848C79.2036 68.5181 78.6936 70.1615 77.6736 72.3148C76.7669 74.3548 75.6903 75.6015 74.4436 76.0548V76.5648C73.8769 77.1315 73.3103 77.9248 72.7436 78.9448C71.9503 79.9648 70.8169 81.3815 69.3436 83.1948C67.9836 85.0081 66.8503 85.9148 65.9436 85.9148L63.5636 87.4448V88.1248C63.5636 88.6915 63.2236 89.0881 62.5436 89.3148C62.0903 89.8815 61.5236 90.1081 60.8436 89.9948C60.5036 90.6748 59.9369 91.1281 59.1436 91.3548C58.8036 91.4681 58.2936 91.7515 57.6136 92.2048C57.3869 92.5448 56.8203 92.8848 55.9136 93.2248C55.1203 93.5648 54.5536 93.7915 54.2136 93.9048C53.6469 94.3581 52.9669 94.6415 52.1736 94.7548C51.3803 94.7548 50.7003 94.7548 50.1336 94.7548H46.3936Z" fill="white"/>
  <path d="M23.696 83.8749C23.356 83.8749 23.0727 83.7615 22.846 83.5349C22.7327 83.6482 22.3927 83.7049 21.826 83.7049C20.3527 83.7049 18.8794 82.6849 17.406 80.6449C15.9327 78.6049 15.196 76.8482 15.196 75.3749C15.196 72.7682 15.876 70.0482 17.236 67.2149L20.976 59.3949C21.656 58.0349 21.996 57.1282 21.996 56.6749C21.996 56.6749 21.7127 56.2215 21.146 55.3149L20.296 54.4649C20.0693 54.2382 19.8427 54.0682 19.616 53.9549C19.5027 53.7282 19.3327 53.5015 19.106 53.2749C18.426 52.4815 17.746 51.5749 17.066 50.5549C16.386 49.5349 15.9327 48.3449 15.706 46.9849C15.4794 47.2115 14.9693 48.0615 14.176 49.5349C13.3827 51.0082 12.5893 52.4249 11.796 53.7849C11.0027 55.1449 10.3793 55.8249 9.92602 55.8249C9.69935 55.8249 9.52935 55.7682 9.41602 55.6549C9.30268 55.5415 9.13268 55.4849 8.90602 55.4849C8.67935 55.4849 8.39602 55.9382 8.05602 56.8449C7.60268 57.5249 6.97935 58.5449 6.18602 59.9049C5.39268 61.1515 4.59935 62.3415 3.80602 63.4749C3.01268 64.6082 2.27602 65.1749 1.59602 65.1749C1.14268 65.1749 0.916016 64.9482 0.916016 64.4949C0.916016 64.1549 1.14268 63.5315 1.59602 62.6249C2.04935 61.6049 2.55935 60.6415 3.12602 59.7349C3.80602 58.7149 4.25935 58.0915 4.48602 57.8649C5.84602 55.9382 6.97935 54.2382 7.88602 52.7649C8.79268 51.2915 9.64268 49.7615 10.436 48.1749C11.116 46.7015 11.796 45.2282 12.476 43.7549C13.2693 42.1682 14.176 40.4115 15.196 38.4849C15.4227 36.8982 15.7627 35.2549 16.216 33.5549C17.916 28.4549 19.8993 24.0349 22.166 20.2949C24.546 16.4415 27.4927 12.5315 31.006 8.56487C31.7993 7.77154 32.706 6.80821 33.726 5.67487C34.8594 4.42821 35.9927 3.29487 37.126 2.27487C38.2593 1.25487 39.2227 0.744873 40.016 0.744873C40.696 0.744873 41.4894 1.02821 42.396 1.59487C42.8493 1.82154 43.246 2.04821 43.586 2.27487C43.926 2.50154 44.266 2.72821 44.606 2.95487L48.006 4.82487C49.2527 5.50488 49.876 6.58154 49.876 8.05487C49.876 8.62154 49.8194 8.96154 49.706 9.07487C49.366 10.3215 48.2327 11.6815 46.306 13.1549C44.4927 14.5149 42.4527 15.9315 40.186 17.4049C38.0327 18.8782 36.276 20.2949 34.916 21.6549C32.876 23.4682 31.1193 25.5082 29.646 27.7749C28.1727 30.0415 26.8127 32.4782 25.566 35.0849C25.4527 35.5382 25.2827 35.9349 25.056 36.2749C24.9427 36.6149 24.8294 37.0115 24.716 37.4649C24.6027 38.2582 24.3193 39.1649 23.866 40.1849C23.7527 40.4115 23.6393 40.6949 23.526 41.0349C23.4127 41.2615 23.356 41.5449 23.356 41.8849C23.356 42.4515 23.4127 42.8482 23.526 43.0749C23.6393 43.4149 23.696 43.8682 23.696 44.4349C23.696 45.1149 23.6393 45.5682 23.526 45.7949C23.4127 46.1349 23.356 46.6449 23.356 47.3249C23.356 48.5715 23.9793 49.7615 25.226 50.8949C26.4727 51.9149 27.6627 53.0482 28.796 54.2949C30.0427 55.5415 30.666 56.9582 30.666 58.5449C30.666 59.9049 30.2127 61.5482 29.306 63.4749C28.3993 65.4015 27.3793 67.3282 26.246 69.2549C25.1127 71.1816 24.206 72.9382 23.526 74.5249L22.676 76.5649L22.336 77.7549C22.336 77.9815 22.3927 78.0949 22.506 78.0949L22.846 78.6049C23.866 78.6049 25.2827 77.8682 27.096 76.3949C28.9093 74.9215 30.7227 73.3349 32.536 71.6349C34.3494 69.8215 35.596 68.5749 36.276 67.8949C37.636 66.4215 38.8827 64.8915 40.016 63.3049C41.1494 61.6049 42.226 59.9049 43.246 58.2049C43.4727 57.6382 43.8127 57.0149 44.266 56.3349C44.8327 55.5415 45.3993 55.1449 45.966 55.1449C46.646 55.1449 46.986 55.5415 46.986 56.3349C46.986 57.0149 46.3627 58.3749 45.116 60.4149C43.9827 62.3415 42.736 64.2682 41.376 66.1949C40.016 68.1215 39.0527 69.3682 38.486 69.9349L38.316 70.2749V70.4449C37.976 71.2382 37.466 71.7482 36.786 71.9749C36.6727 72.0882 36.5027 72.3715 36.276 72.8249C36.0493 73.2782 35.8793 73.5615 35.766 73.6749C35.766 73.9015 35.596 74.1282 35.256 74.3549L34.576 74.5249C34.4627 74.9782 34.1227 75.3749 33.556 75.7149L32.536 76.7349C32.4227 76.7349 32.366 76.7915 32.366 76.9049C32.366 77.0182 32.3093 77.0749 32.196 77.0749C32.0827 77.7549 31.6294 78.0949 30.836 78.0949C30.6094 78.5482 30.2694 79.1149 29.816 79.7949C29.476 80.4749 29.0227 80.8149 28.456 80.8149C27.8894 81.6082 27.1527 82.0049 26.246 82.0049C26.1327 82.1182 26.076 82.2882 26.076 82.5149C26.076 82.6282 26.0193 82.7415 25.906 82.8549C25.6793 83.4215 25.1693 83.7049 24.376 83.7049C24.2627 83.8182 24.036 83.8749 23.696 83.8749Z" fill="white"/>
</svg>
