<svg width="1074" height="575" viewBox="0 0 1074 575" fill="none" xmlns="http://www.w3.org/2000/svg">
  <g clip-path="url(#clip0_3409_292)">
    <path d="M1073.48 244.75C1068.66 251.267 1062.71 257.217 1055.63 262.6C1048.83 267.7 1041.03 270.25 1032.25 270.25C1027.43 270.25 1022.62 269.117 1017.8 266.85C1013.27 264.3 1009.58 260.617 1006.75 255.8C1004.77 260.333 1002.22 265.575 999.102 271.525C995.985 277.192 992.302 283 988.052 288.95C983.802 294.617 978.985 299.858 973.602 304.675C968.502 309.492 962.977 313.458 957.027 316.575C951.927 318.842 947.677 319.975 944.277 319.975C934.077 319.975 928.977 315.442 928.977 306.375C928.977 301.275 929.827 296.033 931.527 290.65C933.51 285.267 935.918 280.025 938.752 274.925C941.585 269.825 944.56 265.008 947.677 260.475C951.077 255.942 954.193 252.258 957.027 249.425C962.977 242.908 969.777 237.383 977.427 232.85C985.077 228.317 993.293 225.625 1002.08 224.775C1002.64 222.508 1003.49 219.958 1004.63 217.125C1005.76 214.008 1007.74 212.167 1010.58 211.6C1011.99 211.317 1013.41 211.033 1014.83 210.75C1016.24 210.467 1017.52 210.042 1018.65 209.475C1019.5 208.908 1020.35 208.908 1021.2 209.475C1022.05 209.758 1022.19 210.467 1021.63 211.6C1019.64 214.717 1018.08 218.683 1016.95 223.5C1016.1 228.317 1015.68 233.558 1015.68 239.225C1015.68 247.158 1017.09 253.675 1019.93 258.775C1023.04 263.875 1028.28 266.425 1035.65 266.425C1043.02 266.425 1049.68 264.017 1055.63 259.2C1061.58 254.383 1066.53 249.142 1070.5 243.475C1071.07 242.058 1071.92 241.633 1073.05 242.2C1074.47 242.767 1074.61 243.617 1073.48 244.75ZM1003.35 247.725C1002.78 245.175 1002.36 242.2 1002.08 238.8C1001.79 235.4 1001.65 232.142 1001.65 229.025C1001.65 227.608 1001.08 226.9 999.952 226.9C996.835 226.9 993.577 228.033 990.177 230.3C986.777 232.283 983.377 235.117 979.977 238.8C976.577 242.2 973.177 246.167 969.777 250.7C966.377 255.233 963.26 259.908 960.427 264.725C956.743 270.958 953.343 277.758 950.227 285.125C947.393 292.208 946.118 299.008 946.402 305.525C946.402 307.508 946.685 309.35 947.252 311.05C948.102 312.75 949.802 313.6 952.352 313.6C957.168 313.6 962.41 310.908 968.077 305.525C973.743 300.142 979.127 293.908 984.227 286.825C989.327 279.458 993.577 272.092 996.977 264.725C1000.66 257.358 1002.78 251.692 1003.35 247.725Z" fill="white"/>
    <path d="M934.986 166.55C934.986 169.95 933.428 173.35 930.311 176.75C927.478 180.15 924.22 181.85 920.536 181.85C917.136 181.85 915.436 180.15 915.436 176.75C915.436 173.067 916.711 169.525 919.261 166.125C922.095 162.725 925.495 161.025 929.461 161.025C933.145 161.025 934.986 162.867 934.986 166.55ZM954.111 261.325C947.311 270.108 939.52 278.467 930.736 286.4C921.953 294.333 913.878 300.708 906.511 305.525C900.845 309.208 895.036 312.042 889.086 314.025C883.136 316.008 877.753 317 872.936 317C871.236 317 869.253 316.858 866.986 316.575C864.72 316.292 862.595 315.583 860.611 314.45C858.911 313.317 857.353 311.9 855.936 310.2C854.803 308.217 854.236 305.667 854.236 302.55C854.236 298.867 855.653 293.908 858.486 287.675C861.32 281.158 864.578 274.5 868.261 267.7C872.228 260.9 876.053 254.383 879.736 248.15C883.703 241.917 886.82 237.242 889.086 234.125C890.503 231.858 892.911 230.017 896.311 228.6C899.995 226.9 902.403 226.05 903.536 226.05C904.953 226.05 905.661 226.475 905.661 227.325C905.661 227.892 905.378 228.742 904.811 229.875C904.528 231.008 904.103 231.858 903.536 232.425C899.853 238.092 896.028 244.325 892.061 251.125C888.378 257.925 884.978 264.583 881.861 271.1C878.745 277.333 876.195 283.142 874.211 288.525C872.511 293.908 871.661 298.158 871.661 301.275C871.661 304.675 872.511 307.225 874.211 308.925C876.195 310.342 878.745 311.05 881.861 311.05C887.528 311.05 893.761 309.208 900.561 305.525C907.361 301.558 914.02 296.883 920.536 291.5C927.336 286.117 933.57 280.45 939.236 274.5C944.903 268.55 949.295 263.45 952.411 259.2C953.828 257.783 954.536 257.5 954.536 258.35C954.82 258.917 954.678 259.908 954.111 261.325Z" fill="white"/>
    <path d="M970.634 39.9C970.634 43.8667 969.075 49.675 965.959 57.325C962.842 64.975 958.309 73.9 952.359 84.1C946.692 94.0166 939.609 104.783 931.109 116.4C922.892 127.733 913.4 139.067 902.634 150.4C892.15 161.733 880.534 172.642 867.784 183.125C855.034 193.325 841.434 202.392 826.984 210.325C824.434 214.858 820.892 220.95 816.359 228.6C811.825 236.25 807.292 244.325 802.759 252.825C798.509 261.325 794.684 269.683 791.284 277.9C788.167 286.117 786.609 293.058 786.609 298.725C786.609 307.792 790.717 312.325 798.934 312.325C806.017 312.325 813.384 310.342 821.034 306.375C828.684 302.408 835.909 297.592 842.709 291.925C849.792 286.258 856.309 280.308 862.259 274.075C868.492 267.558 873.734 261.75 877.984 256.65C879.967 254.667 881.1 254.242 881.384 255.375C881.667 256.225 881.242 257.217 880.109 258.35C875.009 264.583 868.917 271.242 861.834 278.325C855.034 285.408 847.667 291.925 839.734 297.875C832.084 303.825 824.009 308.783 815.509 312.75C807.009 316.717 798.509 318.7 790.009 318.7C782.642 318.7 777.259 317 773.859 313.6C770.742 309.917 769.184 305.525 769.184 300.425C769.184 295.325 771.309 288.1 775.559 278.75C780.092 269.117 785.334 259.058 791.284 248.575C797.234 238.092 803.184 228.175 809.134 218.825C815.084 209.475 819.475 202.392 822.309 197.575C827.125 189.358 832.084 180.858 837.184 172.075C842.567 163.008 847.809 154.225 852.909 145.725C858.009 137.225 862.825 129.15 867.359 121.5C872.175 113.567 876.567 106.625 880.534 100.675C885.35 93.3083 890.309 86.3667 895.409 79.85C900.509 73.3333 907.025 66.8167 914.959 60.3C925.725 51.2333 935.642 44.2917 944.709 39.475C953.775 34.6583 959.867 32.25 962.984 32.25C965.25 32.25 967.092 32.9583 968.509 34.375C969.925 35.5083 970.634 37.35 970.634 39.9ZM951.509 50.95C951.509 46.4167 949.667 44.15 945.984 44.15C944.567 44.15 943.009 44.575 941.309 45.425C939.609 46.275 937.342 48.1167 934.509 50.95C931.959 53.5 928.7 57.1833 924.734 62C921.05 66.8167 916.234 73.05 910.284 80.7C908.017 83.8167 904.759 88.35 900.509 94.3C896.542 100.25 891.3 108.183 884.784 118.1C878.55 127.733 870.9 139.775 861.834 154.225C853.05 168.392 842.567 185.25 830.384 204.8C847.384 195.167 863.25 183.55 877.984 169.95C893 156.067 905.892 141.9 916.659 127.45C927.425 113 935.925 98.975 942.159 85.375C948.392 71.775 951.509 60.3 951.509 50.95Z" fill="white"/>
    <path d="M804.033 244.75C799.217 251.267 793.267 257.217 786.183 262.6C779.383 267.7 771.592 270.25 762.808 270.25C757.992 270.25 753.175 269.117 748.358 266.85C743.825 264.3 740.142 260.617 737.308 255.8C735.325 260.333 732.775 265.575 729.658 271.525C726.542 277.192 722.858 283 718.608 288.95C714.358 294.617 709.542 299.858 704.158 304.675C699.058 309.492 693.533 313.458 687.583 316.575C682.483 318.842 678.233 319.975 674.833 319.975C664.633 319.975 659.533 315.442 659.533 306.375C659.533 301.275 660.383 296.033 662.083 290.65C664.067 285.267 666.475 280.025 669.308 274.925C672.142 269.825 675.117 265.008 678.233 260.475C681.633 255.942 684.75 252.258 687.583 249.425C693.533 242.908 700.333 237.383 707.983 232.85C715.633 228.317 723.85 225.625 732.633 224.775C733.2 222.508 734.05 219.958 735.183 217.125C736.317 214.008 738.3 212.167 741.133 211.6C742.55 211.317 743.967 211.033 745.383 210.75C746.8 210.467 748.075 210.042 749.208 209.475C750.058 208.908 750.908 208.908 751.758 209.475C752.608 209.758 752.75 210.467 752.183 211.6C750.2 214.717 748.642 218.683 747.508 223.5C746.658 228.317 746.233 233.558 746.233 239.225C746.233 247.158 747.65 253.675 750.483 258.775C753.6 263.875 758.842 266.425 766.208 266.425C773.575 266.425 780.233 264.017 786.183 259.2C792.133 254.383 797.092 249.142 801.058 243.475C801.625 242.058 802.475 241.633 803.608 242.2C805.025 242.767 805.167 243.617 804.033 244.75ZM733.908 247.725C733.342 245.175 732.917 242.2 732.633 238.8C732.35 235.4 732.208 232.142 732.208 229.025C732.208 227.608 731.642 226.9 730.508 226.9C727.392 226.9 724.133 228.033 720.733 230.3C717.333 232.283 713.933 235.117 710.533 238.8C707.133 242.2 703.733 246.167 700.333 250.7C696.933 255.233 693.817 259.908 690.983 264.725C687.3 270.958 683.9 277.758 680.783 285.125C677.95 292.208 676.675 299.008 676.958 305.525C676.958 307.508 677.242 309.35 677.808 311.05C678.658 312.75 680.358 313.6 682.908 313.6C687.725 313.6 692.967 310.908 698.633 305.525C704.3 300.142 709.683 293.908 714.783 286.825C719.883 279.458 724.133 272.092 727.533 264.725C731.217 257.358 733.342 251.692 733.908 247.725Z" fill="white"/>
    <path d="M836.253 13.125C836.253 14.2583 835.969 16.2417 835.403 19.075C835.119 21.9083 834.694 25.025 834.128 28.425C833.844 31.825 833.419 35.225 832.853 38.625C832.569 42.025 832.428 44.575 832.428 46.275C831.861 46.8417 831.153 47.125 830.303 47.125C829.736 47.125 829.169 46.8417 828.603 46.275C829.169 44.0083 829.453 42.025 829.453 40.325C829.736 38.625 829.878 36.925 829.878 35.225C829.878 29.5583 827.469 25.1667 822.653 22.05C818.119 18.9333 811.603 17.375 803.103 17.375C797.153 17.375 790.919 18.3667 784.403 20.35C778.169 22.3333 771.653 25.875 764.853 30.975C758.336 36.075 751.394 42.875 744.028 51.375C736.944 59.875 729.578 70.6417 721.928 83.675C717.678 91.0417 712.436 100.533 706.203 112.15C699.969 123.767 693.311 136.233 686.228 149.55C679.144 162.583 672.061 176.042 664.978 189.925C657.894 203.525 651.378 216.275 645.428 228.175C647.978 228.175 652.228 228.175 658.178 228.175C664.128 227.892 670.219 227.75 676.453 227.75C682.686 227.75 688.353 227.75 693.453 227.75C698.836 227.75 702.378 227.75 704.078 227.75C705.494 228.6 705.919 230.017 705.353 232C704.219 232 701.386 232 696.853 232C692.319 232 686.936 232.142 680.703 232.425C674.469 232.425 667.953 232.567 661.153 232.85C654.636 232.85 648.686 232.85 643.303 232.85C633.953 250.983 624.036 269.258 613.553 287.675C603.353 305.808 593.011 323.375 582.528 340.375C572.328 357.375 562.128 373.1 551.928 387.55C542.011 402.283 532.803 415.175 524.303 426.225C503.053 453.425 482.936 476.375 463.953 495.075C444.686 514.058 426.411 529.358 409.128 540.975C391.844 552.875 375.694 561.375 360.678 566.475C345.378 571.858 330.928 574.55 317.328 574.55C313.361 574.55 309.111 574.125 304.578 573.275C299.761 572.425 295.228 570.725 290.978 568.175C286.444 565.625 282.478 561.942 279.078 557.125C275.678 552.592 273.128 546.5 271.428 538.85C271.428 536.583 271.711 535.592 272.278 535.875C272.844 536.158 273.411 537.008 273.978 538.425C274.261 540.408 275.394 542.958 277.378 546.075C279.361 549.475 282.336 552.733 286.303 555.85C289.986 558.967 294.661 561.517 300.328 563.5C305.994 565.767 312.794 566.9 320.728 566.9C333.478 566.617 347.361 564.208 362.378 559.675C377.111 555.425 392.694 547.775 409.128 536.725C425.561 525.675 442.844 510.8 460.978 492.1C478.828 473.683 497.386 450.308 516.653 421.975C526.853 406.958 537.053 390.808 547.253 373.525C557.169 356.525 566.803 339.525 576.153 322.525C585.786 305.808 594.711 289.658 602.928 274.075C611.428 258.492 619.078 244.892 625.878 233.275C613.694 234.125 604.061 234.975 596.978 235.825C589.894 236.675 584.228 238.092 579.978 240.075C575.728 241.775 572.328 244.467 569.778 248.15C567.511 251.55 564.819 256.367 561.703 262.6L560.428 262.175C564.394 252.825 568.361 245.883 572.328 241.35C576.294 236.533 579.978 233.558 583.378 232.425C585.644 231.858 588.619 231.292 592.303 230.725C596.269 230.158 600.378 229.733 604.628 229.45C609.161 229.167 613.553 228.883 617.803 228.6C622.053 228.317 625.736 228.175 628.853 228.175C643.019 202.108 656.619 178.025 669.653 155.925C682.969 133.542 696.711 111.725 710.878 90.475C718.528 78.8583 726.744 67.6667 735.528 56.9C744.311 45.85 753.236 36.2167 762.303 28C771.369 19.5 780.294 12.8416 789.078 8.02498C798.144 2.92498 806.786 0.375 815.003 0.375C820.669 0.375 825.628 1.64999 829.878 4.2C834.128 6.74999 836.253 9.72499 836.253 13.125Z" fill="white"/>
    <path d="M592.29 144.45C592.29 146.717 591.865 148.983 591.015 151.25C590.448 153.517 588.607 156.492 585.49 160.175C582.657 163.858 578.123 168.392 571.89 173.775C565.94 179.158 557.582 186.1 546.815 194.6C543.982 199.133 540.865 204.092 537.465 209.475C534.065 214.858 530.665 220.383 527.265 226.05C524.148 231.433 521.032 236.958 517.915 242.625C515.082 248.008 512.673 253.25 510.69 258.35C522.023 257.783 533.782 257.358 545.965 257.075C558.148 256.792 569.623 256.367 580.39 255.8C581.523 256.933 581.098 257.783 579.115 258.35C571.182 258.917 563.957 259.625 557.44 260.475C551.207 261.042 545.257 261.892 539.59 263.025C533.923 263.875 528.398 264.867 523.015 266C517.632 267.133 511.823 268.408 505.59 269.825C505.307 270.675 504.457 272.658 503.04 275.775C501.907 278.608 500.773 281.867 499.64 285.55C498.506 288.95 497.373 292.492 496.24 296.175C495.39 299.575 494.965 302.267 494.965 304.25C494.965 310.483 497.232 314.025 501.765 314.875C503.182 315.158 503.89 315.725 503.89 316.575C504.173 317.142 503.607 317.425 502.19 317.425C498.507 317.425 494.54 317.708 490.29 318.275C486.323 318.842 483.773 319.267 482.64 319.55C481.507 319.55 480.232 318.983 478.815 317.85C477.398 316.717 476.69 314.025 476.69 309.775C476.69 307.225 477.256 304.25 478.39 300.85C479.806 297.167 481.365 293.483 483.065 289.8C484.765 286.117 486.607 282.433 488.59 278.75C490.573 275.067 492.273 271.95 493.69 269.4C491.99 267.133 489.44 265.433 486.04 264.3C484.623 263.733 484.057 262.883 484.34 261.75C484.623 260.333 485.473 259.625 486.89 259.625L500.065 258.775C505.732 248.858 511.115 239.367 516.215 230.3C521.598 221.233 527.123 212.167 532.79 203.1C529.39 205.65 525.282 208.483 520.465 211.6C515.648 214.717 510.832 217.833 506.015 220.95C501.198 223.783 496.523 226.475 491.99 229.025C487.74 231.292 484.34 233.133 481.79 234.55C478.673 235.967 475.557 236.817 472.44 237.1C469.607 237.383 464.79 237.808 457.99 238.375C454.873 238.658 451.757 239.225 448.64 240.075C445.807 240.642 442.973 241.917 440.14 243.9C428.523 250.983 417.615 260.9 407.415 273.65C397.498 286.4 388.998 298.867 381.915 311.05C379.932 314.733 377.948 316.717 375.965 317C375.115 317.283 373.132 317.85 370.015 318.7C367.182 319.55 365.623 319.267 365.34 317.85C365.34 317.283 365.482 316.717 365.765 316.15L367.04 313.6C374.407 302.55 381.348 291.217 387.865 279.6C394.382 267.983 399.34 256.792 402.74 246.025C403.873 242.625 404.44 239.65 404.44 237.1C404.44 233.7 402.882 232 399.765 232C398.632 232 397.073 232.283 395.09 232.85C393.39 233.417 391.548 234.125 389.565 234.975C387.582 235.542 385.598 236.25 383.615 237.1C381.915 237.667 380.64 238.233 379.79 238.8C377.807 239.933 376.673 240.075 376.39 239.225C376.107 238.375 376.673 237.383 378.09 236.25C386.59 232.283 394.665 229.308 402.315 227.325C410.248 225.342 415.632 224.35 418.465 224.35C423.282 224.35 425.69 226.192 425.69 229.875C425.69 232.142 424.415 235.683 421.865 240.5C419.315 245.317 415.207 253.108 409.54 263.875C408.407 266.425 408.832 266.708 410.815 264.725C417.615 257.642 424.273 251.408 430.79 246.025C437.307 240.642 444.673 235.4 452.89 230.3C454.307 229.45 455.582 228.742 456.715 228.175C458.132 227.325 459.973 226.9 462.24 226.9C471.307 226.9 478.957 226.475 485.19 225.625C491.423 224.775 496.523 223.217 500.49 220.95C507.007 217.833 513.098 214.292 518.765 210.325C524.431 206.358 530.098 202.392 535.765 198.425C542.281 187.942 548.373 178.308 554.04 169.525C559.707 160.742 564.665 153.658 568.915 148.275C569.765 147.425 570.898 146.575 572.315 145.725C574.015 144.875 575.715 144.025 577.415 143.175C579.398 142.325 581.24 141.758 582.94 141.475C584.64 140.908 586.057 140.625 587.19 140.625C588.89 140.625 590.165 141.05 591.015 141.9C591.865 142.75 592.29 143.6 592.29 144.45ZM586.765 145.725C586.765 144.025 586.198 143.175 585.065 143.175C583.365 143.175 579.681 146.717 574.015 153.8C568.348 160.883 560.273 172.783 549.79 189.5C551.773 187.8 554.748 185.392 558.715 182.275C562.965 178.875 567.073 175.192 571.04 171.225C575.29 166.975 578.973 162.583 582.09 158.05C585.207 153.517 586.765 149.408 586.765 145.725Z" fill="white"/>
    <path d="M406.592 244.75C401.775 251.267 395.825 257.217 388.742 262.6C381.942 267.7 374.15 270.25 365.367 270.25C360.55 270.25 355.733 269.117 350.917 266.85C346.383 264.3 342.7 260.617 339.867 255.8C337.883 260.333 335.333 265.575 332.217 271.525C329.1 277.192 325.417 283 321.167 288.95C316.917 294.617 312.1 299.858 306.717 304.675C301.617 309.492 296.092 313.458 290.142 316.575C285.042 318.842 280.792 319.975 277.392 319.975C267.192 319.975 262.092 315.442 262.092 306.375C262.092 301.275 262.942 296.033 264.642 290.65C266.625 285.267 269.033 280.025 271.867 274.925C274.7 269.825 277.675 265.008 280.792 260.475C284.192 255.942 287.308 252.258 290.142 249.425C296.092 242.908 302.892 237.383 310.542 232.85C318.192 228.317 326.408 225.625 335.192 224.775C335.758 222.508 336.608 219.958 337.742 217.125C338.875 214.008 340.858 212.167 343.692 211.6C345.108 211.317 346.525 211.033 347.942 210.75C349.358 210.467 350.633 210.042 351.767 209.475C352.617 208.908 353.467 208.908 354.317 209.475C355.167 209.758 355.308 210.467 354.742 211.6C352.758 214.717 351.2 218.683 350.067 223.5C349.217 228.317 348.792 233.558 348.792 239.225C348.792 247.158 350.208 253.675 353.042 258.775C356.158 263.875 361.4 266.425 368.767 266.425C376.133 266.425 382.792 264.017 388.742 259.2C394.692 254.383 399.65 249.142 403.617 243.475C404.183 242.058 405.033 241.633 406.167 242.2C407.583 242.767 407.725 243.617 406.592 244.75ZM336.467 247.725C335.9 245.175 335.475 242.2 335.192 238.8C334.908 235.4 334.767 232.142 334.767 229.025C334.767 227.608 334.2 226.9 333.067 226.9C329.95 226.9 326.692 228.033 323.292 230.3C319.892 232.283 316.492 235.117 313.092 238.8C309.692 242.2 306.292 246.167 302.892 250.7C299.492 255.233 296.375 259.908 293.542 264.725C289.858 270.958 286.458 277.758 283.342 285.125C280.508 292.208 279.233 299.008 279.517 305.525C279.517 307.508 279.8 309.35 280.367 311.05C281.217 312.75 282.917 313.6 285.467 313.6C290.283 313.6 295.525 310.908 301.192 305.525C306.858 300.142 312.242 293.908 317.342 286.825C322.442 279.458 326.692 272.092 330.092 264.725C333.775 257.358 335.9 251.692 336.467 247.725Z" fill="white"/>
    <path d="M295.7 250.275C280.683 269.258 264.533 283.425 247.25 292.775C230.25 301.842 212.4 308.5 193.7 312.75C187.183 314.167 181.517 315.3 176.7 316.15C171.883 317 167.067 317.85 162.25 318.7C154.034 332.583 146.242 346.325 138.875 359.925C131.509 373.808 124.142 387.55 116.775 401.15C106.008 421.267 96.2335 440.25 87.4502 458.1C78.6668 475.95 69.1752 493.658 58.9752 511.225C56.9918 514.625 54.3002 517.175 50.9002 518.875C47.5002 520.858 43.5335 522.558 39.0002 523.975C34.4668 525.392 29.2252 526.808 23.2752 528.225C17.3252 529.642 10.8085 531.625 3.72516 534.175C2.02516 535.025 1.0335 534.742 0.750167 533.325C0.466834 532.192 1.17517 531.342 2.87517 530.775C10.2418 527.942 16.4752 525.108 21.5752 522.275C26.6752 519.725 31.3502 516.608 35.6002 512.925C39.5668 509.242 43.3918 504.85 47.0752 499.75C50.7585 494.65 55.0085 488.275 59.8252 480.625C64.6418 472.692 70.5918 462.775 77.6752 450.875C84.4752 439.258 92.1252 426.367 100.625 412.2C109.125 398.033 118.05 382.875 127.4 366.725C136.75 350.858 146.242 334.85 155.875 318.7C154.175 318.133 153.325 316.575 153.325 314.025C153.325 312.325 154.175 311.333 155.875 311.05C157.859 310.767 159.417 310.483 160.55 310.2L180.1 278.325C189.167 263.592 198.233 248.292 207.3 232.425C216.367 216.558 225.717 202.392 235.35 189.925C236.483 188.792 238.042 187.942 240.025 187.375C240.592 187.092 241.725 186.808 243.425 186.525C245.125 186.242 246.825 185.958 248.525 185.675C250.225 185.392 251.783 185.25 253.2 185.25C254.617 184.967 255.467 184.825 255.75 184.825C256.6 184.825 257.025 185.108 257.025 185.675C257.025 186.525 256.458 187.517 255.325 188.65C249.375 194.033 244.133 199.275 239.6 204.375C235.067 209.192 230.817 214.008 226.85 218.825C222.883 223.358 219.059 228.033 215.375 232.85C211.975 237.667 208.434 242.908 204.75 248.575C207.584 245.458 210.7 242.2 214.1 238.8C217.5 235.4 220.9 232.283 224.3 229.45C227.7 226.617 231.1 224.35 234.5 222.65C237.9 220.667 241.017 219.675 243.85 219.675C246.683 219.675 248.95 220.525 250.65 222.225C252.633 223.925 253.625 226.758 253.625 230.725C253.625 233.558 252.35 237.95 249.8 243.9C247.533 249.85 243.425 256.508 237.475 263.875C231.808 271.242 224.158 278.892 214.525 286.825C204.892 294.758 192.85 302.125 178.4 308.925C186.05 308.075 194.55 306.8 203.9 305.1C213.533 303.117 223.45 300 233.65 295.75C243.85 291.217 254.05 285.267 264.25 277.9C274.45 270.25 284.083 260.475 293.15 248.575C293.433 248.008 293.858 247.867 294.425 248.15C295.275 248.15 295.7 248.858 295.7 250.275ZM236.2 239.225C236.2 238.092 235.917 236.675 235.35 234.975C235.067 233.275 233.65 232.425 231.1 232.425C229.683 232.425 227.558 233.275 224.725 234.975C222.175 236.392 219.2 238.517 215.8 241.35C212.4 243.9 208.858 247.158 205.175 251.125C201.492 255.092 197.95 259.483 194.55 264.3C189.733 271.1 185.058 278.467 180.525 286.4C175.992 294.05 171.459 301.983 166.925 310.2C176.275 307.65 185.058 303.4 193.275 297.45C201.775 291.5 209.142 284.983 215.375 277.9C221.892 270.817 226.992 263.733 230.675 256.65C234.358 249.567 236.2 243.758 236.2 239.225Z" fill="white"/>
  </g>
  <defs>
    <clipPath id="clip0_3409_292">
      <rect width="1073.54" height="574.175" fill="white" transform="translate(0.689453 0.375)"/>
    </clipPath>
  </defs>
</svg>
