<svg width="1172" height="314" viewBox="0 0 1172 314" fill="none" xmlns="http://www.w3.org/2000/svg">
  <g clip-path="url(#clip0_3409_281)">
    <path d="M1171.64 215.75C1166.82 222.267 1160.87 228.217 1153.79 233.6C1146.99 238.7 1139.2 241.25 1130.41 241.25C1125.6 241.25 1120.78 240.117 1115.96 237.85C1111.43 235.3 1107.75 231.617 1104.91 226.8C1102.93 231.333 1100.38 236.575 1097.26 242.525C1094.15 248.192 1090.46 254 1086.21 259.95C1081.96 265.617 1077.15 270.858 1071.76 275.675C1066.66 280.492 1061.14 284.458 1055.19 287.575C1050.09 289.842 1045.84 290.975 1042.44 290.975C1032.24 290.975 1027.14 286.442 1027.14 277.375C1027.14 272.275 1027.99 267.033 1029.69 261.65C1031.67 256.267 1034.08 251.025 1036.91 245.925C1039.75 240.825 1042.72 236.008 1045.84 231.475C1049.24 226.942 1052.36 223.258 1055.19 220.425C1061.14 213.908 1067.94 208.383 1075.59 203.85C1083.24 199.317 1091.46 196.625 1100.24 195.775C1100.81 193.508 1101.66 190.958 1102.79 188.125C1103.92 185.008 1105.91 183.167 1108.74 182.6C1110.16 182.317 1111.57 182.033 1112.99 181.75C1114.41 181.467 1115.68 181.042 1116.81 180.475C1117.66 179.908 1118.51 179.908 1119.36 180.475C1120.21 180.758 1120.36 181.467 1119.79 182.6C1117.81 185.717 1116.25 189.683 1115.11 194.5C1114.26 199.317 1113.84 204.558 1113.84 210.225C1113.84 218.158 1115.26 224.675 1118.09 229.775C1121.21 234.875 1126.45 237.425 1133.81 237.425C1141.18 237.425 1147.84 235.017 1153.79 230.2C1159.74 225.383 1164.7 220.142 1168.66 214.475C1169.23 213.058 1170.08 212.633 1171.21 213.2C1172.63 213.767 1172.77 214.617 1171.64 215.75ZM1101.51 218.725C1100.95 216.175 1100.52 213.2 1100.24 209.8C1099.96 206.4 1099.81 203.142 1099.81 200.025C1099.81 198.608 1099.25 197.9 1098.11 197.9C1095 197.9 1091.74 199.033 1088.34 201.3C1084.94 203.283 1081.54 206.117 1078.14 209.8C1074.74 213.2 1071.34 217.167 1067.94 221.7C1064.54 226.233 1061.42 230.908 1058.59 235.725C1054.91 241.958 1051.51 248.758 1048.39 256.125C1045.56 263.208 1044.28 270.008 1044.56 276.525C1044.56 278.508 1044.85 280.35 1045.41 282.05C1046.26 283.75 1047.96 284.6 1050.51 284.6C1055.33 284.6 1060.57 281.908 1066.24 276.525C1071.91 271.142 1077.29 264.908 1082.39 257.825C1087.49 250.458 1091.74 243.092 1095.14 235.725C1098.82 228.358 1100.95 222.692 1101.51 218.725Z" fill="#A1999A"/>
    <path d="M1051.72 137.55C1051.72 139.817 1050.87 141.375 1049.17 142.225C1047.47 142.792 1045.62 143.783 1043.64 145.2C1041.94 146.617 1040.1 147.325 1038.12 147.325C1035.85 147.325 1034.29 146.475 1033.44 144.775C1032.87 142.792 1032.59 140.95 1032.59 139.25C1032.59 136.7 1033.72 133.583 1035.99 129.9C1038.26 125.933 1040.95 123.95 1044.07 123.95C1046.62 123.95 1048.17 125.367 1048.74 128.2C1049.02 129.9 1049.59 131.6 1050.44 133.3C1051.29 134.717 1051.72 136.133 1051.72 137.55ZM1050.87 235.3C1046.05 240.4 1040.38 246.067 1033.87 252.3C1027.35 258.533 1020.27 264.342 1012.62 269.725C1005.25 275.108 997.599 279.642 989.666 283.325C982.016 287.008 974.649 288.85 967.566 288.85C959.916 288.85 956.091 285.308 956.091 278.225C956.091 272.558 958.641 264.767 963.741 254.85C969.124 244.65 976.916 230.767 987.116 213.2C988.532 210.367 987.541 209.233 984.141 209.8C973.374 211.5 962.749 213.483 952.266 215.75C941.782 218.017 932.716 219.15 925.066 219.15C919.682 219.15 916.991 218.017 916.991 215.75C916.991 213.2 916.424 213.058 915.291 215.325C912.741 221.275 908.632 228.5 902.966 237C897.299 245.5 891.066 253.858 884.266 262.075C877.466 270.008 870.524 276.808 863.441 282.475C856.357 288.142 850.124 290.975 844.741 290.975C841.624 290.975 838.932 290.125 836.666 288.425C834.399 286.725 833.266 283.75 833.266 279.5C833.266 274.683 834.116 269.867 835.816 265.05C837.516 260.233 839.499 255.558 841.766 251.025C844.316 246.492 846.724 242.525 848.991 239.125C851.541 235.442 853.524 232.75 854.941 231.05C858.341 226.517 863.724 221.842 871.091 217.025C878.457 211.925 889.082 206.967 902.966 202.15C904.949 201.583 906.082 200.308 906.366 198.325C907.499 192.092 908.491 185.008 909.341 177.075C910.191 169.142 910.616 162.058 910.616 155.825C910.616 143.925 911.182 132.025 912.316 120.125C913.732 107.942 916.424 96.6083 920.391 86.125C922.941 79.8917 926.624 73.9417 931.441 68.275C936.257 62.325 941.782 57.0833 948.016 52.55C954.532 48.0167 961.616 44.3333 969.266 41.5C976.916 38.6667 984.849 37.25 993.066 37.25C997.316 37.25 1001.99 37.8167 1007.09 38.95C1012.47 40.0833 1017.29 42.0667 1021.54 44.9C1026.07 47.45 1029.76 51.1333 1032.59 55.95C1035.71 60.7667 1037.27 66.8583 1037.27 74.225C1037.27 87.2583 1033.3 100.008 1025.37 112.475C1017.43 124.658 1007.52 136.7 995.616 148.6C987.116 157.1 978.474 165.742 969.691 174.525C960.907 183.025 952.266 191.808 943.766 200.875C940.366 204.558 938.666 207.392 938.666 209.375C938.666 211.075 940.224 211.925 943.341 211.925C946.174 211.925 950.141 211.642 955.241 211.075C960.341 210.508 965.866 209.658 971.816 208.525C978.049 207.392 984.141 206.258 990.091 205.125C996.324 203.708 1001.71 202.433 1006.24 201.3C1008.51 201.3 1009.64 201.725 1009.64 202.575C1009.64 203.425 1009.22 204.133 1008.37 204.7C1006.38 205.55 1004.54 207.25 1002.84 209.8C999.441 215.183 995.899 220.992 992.216 227.225C988.532 233.458 985.132 239.55 982.016 245.5C979.182 251.45 976.774 257.117 974.791 262.5C972.807 267.6 971.816 271.85 971.816 275.25C971.816 280.067 974.082 282.475 978.616 282.475C984.282 282.475 993.632 278.367 1006.67 270.15C1019.98 261.933 1034.01 249.325 1048.74 232.325C1049.31 231.758 1050.02 231.9 1050.87 232.75C1052 233.317 1052 234.167 1050.87 235.3ZM1024.09 79.75C1024.09 76.35 1023.52 72.525 1022.39 68.275C1021.54 64.025 1019.7 60.0583 1016.87 56.375C1014.32 52.6917 1010.49 49.7167 1005.39 47.45C1000.57 44.9 994.341 43.625 986.691 43.625C980.741 43.625 974.082 44.475 966.716 46.175C959.632 47.875 952.974 51.5583 946.741 57.225C940.791 62.8917 935.691 70.9667 931.441 81.45C927.474 91.9333 925.491 106.1 925.491 123.95C925.491 141.233 924.924 156.675 923.791 170.275C922.941 183.875 921.099 196.2 918.266 207.25C917.982 208.95 918.549 209.375 919.966 208.525C928.182 203.142 938.241 195.633 950.141 186C962.041 176.367 973.374 165.6 984.141 153.7C995.191 141.8 1004.54 129.475 1012.19 116.725C1020.12 103.692 1024.09 91.3667 1024.09 79.75ZM903.816 210.225C903.816 209.375 903.674 208.525 903.391 207.675C903.391 206.825 902.824 206.4 901.691 206.4C901.407 206.4 899.991 206.825 897.441 207.675C894.891 208.525 891.916 209.942 888.516 211.925C885.116 213.625 881.432 215.892 877.466 218.725C873.782 221.558 870.666 225.1 868.116 229.35C865.282 233.6 862.591 238.133 860.041 242.95C857.774 247.767 855.649 252.442 853.666 256.975C851.966 261.225 850.549 265.192 849.416 268.875C848.566 272.558 848.141 275.533 848.141 277.8C848.141 281.2 849.557 282.9 852.391 282.9C855.224 282.9 859.191 280.917 864.291 276.95C869.391 272.7 874.491 267.317 879.591 260.8C884.974 254 889.932 246.208 894.466 237.425C898.999 228.642 902.116 219.575 903.816 210.225Z" fill="#A1999A"/>
    <path d="M859.602 237C854.785 243.8 849.118 251.025 842.602 258.675C836.085 266.042 829.285 272.842 822.202 279.075C815.118 285.308 807.893 290.408 800.527 294.375C793.16 298.625 786.218 300.75 779.702 300.75C774.885 300.75 771.06 299.475 768.227 296.925C765.677 294.375 764.402 290.408 764.402 285.025C764.402 282.475 764.685 279.642 765.252 276.525C766.102 273.125 767.377 269.442 769.077 265.475C767.377 267.458 765.393 269.867 763.127 272.7C761.143 275.25 758.735 277.8 755.902 280.35C753.352 282.617 750.377 284.6 746.977 286.3C743.86 287.717 740.318 288.425 736.352 288.425C733.235 288.425 730.685 287.575 728.702 285.875C726.718 283.892 725.727 280.917 725.727 276.95C725.727 274.683 726.152 271.85 727.002 268.45C728.135 265.05 729.977 260.517 732.527 254.85C735.36 248.9 739.043 241.675 743.577 233.175C748.393 224.392 754.485 213.625 761.852 200.875C763.268 198.042 764.543 196.625 765.677 196.625C767.66 196.625 769.643 197.9 771.627 200.45C773.893 202.717 775.027 204.275 775.027 205.125C775.027 205.975 774.177 207.675 772.477 210.225C767.943 217.025 763.693 223.825 759.727 230.625C755.76 237.425 752.218 243.8 749.102 249.75C746.268 255.7 743.86 261.083 741.877 265.9C740.177 270.433 739.327 273.975 739.327 276.525C739.327 280.775 740.885 282.9 744.002 282.9C746.835 282.9 750.66 280.775 755.477 276.525C760.577 271.992 766.527 264.483 773.327 254C775.877 249.467 778.427 244.792 780.977 239.975C783.81 234.875 786.502 230.058 789.052 225.525C791.602 220.992 794.01 216.883 796.277 213.2C798.543 209.233 800.243 206.258 801.377 204.275C802.793 202.292 803.927 201.3 804.777 201.3C805.91 201.3 807.185 202.575 808.602 205.125C810.018 207.392 810.727 210.225 810.727 213.625C810.727 215.892 810.16 218.017 809.027 220C805.627 225.1 801.943 230.2 797.977 235.3C794.293 240.117 790.752 245.217 787.352 250.6C784.235 255.983 781.543 261.65 779.277 267.6C777.01 273.55 775.877 280.067 775.877 287.15C775.877 293.383 778.852 296.5 784.802 296.5C788.768 296.5 793.443 294.942 798.827 291.825C804.493 288.992 810.585 284.883 817.102 279.5C823.618 274.117 830.277 267.6 837.077 259.95C844.16 252.3 850.818 243.942 857.052 234.875C858.752 234.308 859.602 235.017 859.602 237Z" fill="#A1999A"/>
    <path d="M767.829 109.5C767.829 110.633 766.979 112.617 765.279 115.45C763.579 118 762.021 119.275 760.604 119.275C760.037 119.275 759.329 119.133 758.479 118.85C757.629 118.567 756.496 117.717 755.079 116.3C751.112 112.617 744.737 109.075 735.954 105.675C727.171 101.992 716.829 100.15 704.929 100.15C696.429 100.15 687.929 101.567 679.429 104.4C671.212 107.233 663.704 111.625 656.904 117.575C650.387 123.242 645.146 130.325 641.179 138.825C637.212 147.325 635.229 157.242 635.229 168.575C635.229 182.458 638.629 193.508 645.429 201.725C645.429 203.142 644.154 204.842 641.604 206.825C639.337 208.525 637.637 209.375 636.504 209.375C634.804 209.375 632.679 208.1 630.129 205.55C627.579 202.717 623.471 201.3 617.804 201.3C612.987 201.3 608.879 203 605.479 206.4C602.362 209.517 600.804 214.475 600.804 221.275C600.804 224.392 601.229 227.367 602.079 230.2C603.212 233.033 604.204 235.867 605.054 238.7C606.187 241.25 607.179 243.8 608.029 246.35C609.162 248.9 609.729 251.45 609.729 254C612.846 250.033 615.962 246.067 619.079 242.1C622.196 237.85 625.171 233.883 628.004 230.2C629.137 229.35 630.837 228.358 633.104 227.225C635.371 226.092 638.487 224.817 642.454 223.4C646.704 221.7 652.087 219.717 658.604 217.45C665.121 215.183 673.196 212.633 682.829 209.8C685.096 205.833 688.354 200.167 692.604 192.8C697.137 185.15 701.812 177.358 706.629 169.425C711.446 161.208 716.262 153.558 721.079 146.475C725.896 139.392 729.862 134.15 732.979 130.75C734.112 129.9 736.662 128.767 740.629 127.35C744.596 125.65 747.571 124.8 749.554 124.8C750.121 124.8 750.404 125.083 750.404 125.65C750.404 126.217 749.554 127.35 747.854 129.05C745.871 131.317 742.896 135.142 738.929 140.525C734.962 145.908 730.571 152.142 725.754 159.225C720.937 166.308 715.979 174.1 710.879 182.6C705.779 190.817 700.962 199.033 696.429 207.25C706.346 205.833 717.254 204.558 729.154 203.425C741.337 202.008 753.379 201.017 765.279 200.45C765.279 201.583 764.996 202.433 764.429 203C759.612 203.283 754.229 203.708 748.279 204.275C742.329 204.558 736.096 205.125 729.579 205.975C723.346 206.542 717.112 207.25 710.879 208.1C704.929 208.95 699.404 209.942 694.304 211.075C692.604 214.475 690.479 219.008 687.929 224.675C685.662 230.058 683.396 235.725 681.129 241.675C679.146 247.625 677.304 253.433 675.604 259.1C674.187 264.767 673.479 269.583 673.479 273.55C673.479 278.367 674.329 282.475 676.029 285.875C677.729 289.275 682.262 290.975 689.629 290.975C694.162 290.975 699.262 290.125 704.929 288.425C710.879 287.008 715.837 284.742 719.804 281.625C720.371 281.058 721.362 281.058 722.779 281.625C724.196 282.192 723.771 283.183 721.504 284.6C715.554 288 709.037 290.692 701.954 292.675C694.871 294.942 687.646 296.075 680.279 296.075C675.179 296.075 669.937 294.658 664.554 291.825C659.454 289.275 656.904 284.175 656.904 276.525C656.904 273.408 657.187 270.15 657.754 266.75C658.604 263.35 659.879 259.242 661.579 254.425C663.279 249.608 665.687 243.942 668.804 237.425C672.204 230.625 676.454 222.55 681.554 213.2C662.854 218.867 646.987 225.667 633.954 233.6C621.204 241.533 612.846 250.742 608.879 261.225C608.029 263.775 606.612 266.75 604.629 270.15C602.646 273.55 599.954 276.808 596.554 279.925C593.154 282.758 588.904 285.308 583.804 287.575C578.987 289.558 573.179 290.55 566.379 290.55C562.412 290.55 558.587 289.417 554.904 287.15C551.221 284.6 549.379 280.067 549.379 273.55C549.379 271.85 549.662 270.15 550.229 268.45C550.796 266.467 551.646 265.05 552.779 264.2C553.629 263.633 555.329 262.925 557.879 262.075C560.429 261.225 562.129 260.8 562.979 260.8C564.396 261.367 564.537 262.217 563.404 263.35C562.271 264.483 561.704 266.608 561.704 269.725C561.704 273.975 562.979 277.658 565.529 280.775C568.362 283.608 572.896 285.025 579.129 285.025C583.946 285.025 588.337 283.467 592.304 280.35C596.271 276.95 598.254 272.275 598.254 266.325C598.254 264.058 597.971 261.65 597.404 259.1C596.837 256.267 595.846 253.717 594.429 251.45C589.896 243.233 587.629 236.15 587.629 230.2C587.629 223.967 589.612 217.875 593.579 211.925C597.829 205.692 604.912 200.592 614.829 196.625C618.229 195.208 621.912 194.5 625.879 194.5C628.146 194.5 629.987 194.783 631.404 195.35C633.104 195.917 634.096 196.2 634.379 196.2C635.229 196.2 635.371 195.775 634.804 194.925C633.387 191.525 632.396 187.842 631.829 183.875C631.262 179.625 630.979 175.942 630.979 172.825C630.979 163.758 632.679 154.408 636.079 144.775C639.479 135.142 644.721 126.358 651.804 118.425C658.887 110.492 667.954 103.975 679.004 98.875C690.054 93.775 703.229 91.225 718.529 91.225C725.896 91.225 733.687 92.5 741.904 95.05C750.404 97.3166 757.346 100.008 762.729 103.125C766.129 105.108 767.829 107.233 767.829 109.5Z" fill="#A1999A"/>
    <path d="M512.796 269.3C512.796 270.717 512.23 272.7 511.096 275.25C509.963 277.517 508.405 279.783 506.421 282.05C504.721 284.317 502.738 286.3 500.471 288C498.205 289.417 495.938 290.125 493.671 290.125C491.688 290.125 489.846 289.558 488.146 288.425C486.73 287.292 486.021 285.592 486.021 283.325C486.021 277.658 487.863 272.7 491.546 268.45C495.513 264.2 499.905 262.075 504.721 262.075C506.138 262.075 507.838 262.642 509.822 263.775C511.805 264.625 512.796 266.467 512.796 269.3Z" fill="#A1999A"/>
    <path d="M582.868 10.9C582.868 14.8667 581.31 20.675 578.193 28.325C575.076 35.975 570.543 44.9 564.593 55.1C558.926 65.0166 551.843 75.7833 543.343 87.4C535.126 98.7333 525.635 110.067 514.868 121.4C504.385 132.733 492.768 143.642 480.018 154.125C467.268 164.325 453.668 173.392 439.218 181.325C436.668 185.858 433.126 191.95 428.593 199.6C424.06 207.25 419.526 215.325 414.993 223.825C410.743 232.325 406.918 240.683 403.518 248.9C400.401 257.117 398.843 264.058 398.843 269.725C398.843 278.792 402.951 283.325 411.168 283.325C418.251 283.325 425.618 281.342 433.268 277.375C440.918 273.408 448.143 268.592 454.943 262.925C462.026 257.258 468.543 251.308 474.493 245.075C480.726 238.558 485.968 232.75 490.218 227.65C492.201 225.667 493.335 225.242 493.618 226.375C493.901 227.225 493.476 228.217 492.343 229.35C487.243 235.583 481.151 242.242 474.068 249.325C467.268 256.408 459.901 262.925 451.968 268.875C444.318 274.825 436.243 279.783 427.743 283.75C419.243 287.717 410.743 289.7 402.243 289.7C394.876 289.7 389.493 288 386.093 284.6C382.976 280.917 381.418 276.525 381.418 271.425C381.418 266.325 383.543 259.1 387.793 249.75C392.326 240.117 397.568 230.058 403.518 219.575C409.468 209.092 415.418 199.175 421.368 189.825C427.318 180.475 431.71 173.392 434.543 168.575C439.36 160.358 444.318 151.858 449.418 143.075C454.801 134.008 460.043 125.225 465.143 116.725C470.243 108.225 475.06 100.15 479.593 92.5C484.41 84.5667 488.801 77.625 492.768 71.675C497.585 64.3083 502.543 57.3667 507.643 50.85C512.743 44.3333 519.26 37.8167 527.193 31.3C537.96 22.2333 547.876 15.2917 556.943 10.475C566.01 5.65832 572.101 3.25 575.218 3.25C577.485 3.25 579.326 3.95833 580.743 5.375C582.16 6.50833 582.868 8.34999 582.868 10.9ZM563.743 21.95C563.743 17.4167 561.901 15.15 558.218 15.15C556.801 15.15 555.243 15.575 553.543 16.425C551.843 17.275 549.576 19.1167 546.743 21.95C544.193 24.5 540.935 28.1833 536.968 33C533.285 37.8167 528.468 44.05 522.518 51.7C520.251 54.8167 516.993 59.35 512.743 65.3C508.776 71.25 503.535 79.1833 497.018 89.1C490.785 98.7333 483.135 110.775 474.068 125.225C465.285 139.392 454.801 156.25 442.618 175.8C459.618 166.167 475.485 154.55 490.218 140.95C505.235 127.067 518.126 112.9 528.893 98.45C539.66 84 548.16 69.975 554.393 56.375C560.626 42.775 563.743 31.3 563.743 21.95Z" fill="#A1999A"/>
    <path d="M384.027 137.55C384.027 140.95 382.469 144.35 379.352 147.75C376.519 151.15 373.261 152.85 369.577 152.85C366.177 152.85 364.477 151.15 364.477 147.75C364.477 144.067 365.752 140.525 368.302 137.125C371.136 133.725 374.536 132.025 378.502 132.025C382.186 132.025 384.027 133.867 384.027 137.55ZM403.152 232.325C396.352 241.108 388.561 249.467 379.777 257.4C370.994 265.333 362.919 271.708 355.552 276.525C349.886 280.208 344.077 283.042 338.127 285.025C332.177 287.008 326.794 288 321.977 288C320.277 288 318.294 287.858 316.027 287.575C313.761 287.292 311.636 286.583 309.652 285.45C307.952 284.317 306.394 282.9 304.977 281.2C303.844 279.217 303.277 276.667 303.277 273.55C303.277 269.867 304.694 264.908 307.527 258.675C310.361 252.158 313.619 245.5 317.302 238.7C321.269 231.9 325.094 225.383 328.777 219.15C332.744 212.917 335.861 208.242 338.127 205.125C339.544 202.858 341.952 201.017 345.352 199.6C349.036 197.9 351.444 197.05 352.577 197.05C353.994 197.05 354.702 197.475 354.702 198.325C354.702 198.892 354.419 199.742 353.852 200.875C353.569 202.008 353.144 202.858 352.577 203.425C348.894 209.092 345.069 215.325 341.102 222.125C337.419 228.925 334.019 235.583 330.902 242.1C327.786 248.333 325.236 254.142 323.252 259.525C321.552 264.908 320.702 269.158 320.702 272.275C320.702 275.675 321.552 278.225 323.252 279.925C325.236 281.342 327.786 282.05 330.902 282.05C336.569 282.05 342.802 280.208 349.602 276.525C356.402 272.558 363.061 267.883 369.577 262.5C376.377 257.117 382.611 251.45 388.277 245.5C393.944 239.55 398.336 234.45 401.452 230.2C402.869 228.783 403.577 228.5 403.577 229.35C403.861 229.917 403.719 230.908 403.152 232.325Z" fill="#A1999A"/>
    <path d="M301.145 203C300.862 208.383 298.737 214.333 294.77 220.85C290.803 227.083 285.987 233.458 280.32 239.975C274.653 246.208 268.278 252.442 261.195 258.675C254.395 264.625 247.595 270.008 240.795 274.825C234.278 279.358 228.187 283.183 222.52 286.3C216.853 289.133 212.462 290.55 209.345 290.55L202.545 283.75C202.545 282.617 203.112 282.192 204.245 282.475C210.762 281.908 216.145 279.5 220.395 275.25C224.645 270.717 227.903 261.933 230.17 248.9C230.737 245.783 231.303 242.383 231.87 238.7C232.437 234.733 233.003 231.05 233.57 227.65C234.137 223.967 234.703 220.708 235.27 217.875C236.12 215.042 236.828 213.058 237.395 211.925C238.528 208.525 238.812 206.542 238.245 205.975C237.962 205.125 236.687 204.7 234.42 204.7L222.095 206.825C219.545 205.692 219.687 204.7 222.52 203.85C228.187 203 234.845 202.008 242.495 200.875C250.145 199.742 256.237 198.467 260.77 197.05C261.62 197.617 261.762 198.183 261.195 198.75C260.062 199.6 258.787 200.592 257.37 201.725C255.953 202.858 254.82 204.417 253.97 206.4C252.553 209.517 251.278 213.342 250.145 217.875C249.295 222.408 248.445 226.8 247.595 231.05C246.745 235.3 245.895 239.267 245.045 242.95C244.478 246.35 243.912 248.758 243.345 250.175C241.645 254.992 238.812 259.667 234.845 264.2C230.878 268.733 226.912 272.558 222.945 275.675C221.812 277.658 221.953 278.225 223.37 277.375C231.587 274.542 239.378 270.858 246.745 266.325C254.395 261.508 261.195 255.983 267.145 249.75C273.095 243.233 277.912 236.008 281.595 228.075C285.562 220.142 287.97 211.5 288.82 202.15C289.67 191.1 287.97 183.875 283.72 180.475C283.153 180.192 283.012 179.908 283.295 179.625C283.578 179.342 284.57 179.342 286.27 179.625C291.37 180.192 295.337 182.6 298.17 186.85C301.003 191.1 301.995 196.483 301.145 203Z" fill="#A1999A"/>
    <path d="M235.179 237.425C230.362 243.375 224.554 249.608 217.754 256.125C211.237 262.358 204.012 268.167 196.079 273.55C188.429 278.65 180.354 282.9 171.854 286.3C163.637 289.417 155.42 290.975 147.204 290.975C133.887 290.975 127.229 285.025 127.229 273.125C127.229 265.192 129.212 256.692 133.179 247.625C137.429 238.275 142.812 229.775 149.329 222.125C155.845 214.192 162.929 207.675 170.579 202.575C178.512 197.192 186.02 194.5 193.104 194.5C197.07 194.5 199.762 195.208 201.179 196.625C202.879 198.042 203.729 199.883 203.729 202.15C203.729 205.55 202.595 209.233 200.329 213.2C198.345 217.167 195.228 220.992 190.979 224.675C186.729 228.075 181.345 231.05 174.829 233.6C168.312 235.867 160.52 237 151.454 237C150.037 239.55 148.479 243.658 146.779 249.325C145.079 254.708 144.229 260.233 144.229 265.9C144.229 277.517 149.47 283.325 159.954 283.325C166.47 283.325 173.129 281.767 179.929 278.65C187.012 275.533 193.812 271.708 200.329 267.175C206.845 262.358 212.795 257.258 218.179 251.875C223.845 246.208 228.52 240.967 232.204 236.15C232.77 235.583 233.337 235.442 233.904 235.725C234.754 236.008 235.179 236.575 235.179 237.425ZM190.554 204.275C190.554 200.592 188.712 198.75 185.029 198.75C182.195 198.75 179.22 199.883 176.104 202.15C173.27 204.133 170.437 206.825 167.604 210.225C164.77 213.625 162.079 217.308 159.529 221.275C156.979 225.242 154.854 229.067 153.154 232.75C153.72 233.033 154.712 233.317 156.129 233.6C157.545 233.6 158.679 233.6 159.529 233.6C167.745 233.6 174.97 230.767 181.204 225.1C187.437 219.15 190.554 212.208 190.554 204.275Z" fill="#A1999A"/>
    <path d="M281.888 5.37495C281.888 7.07495 281.038 8.77495 279.338 10.4749C277.638 12.1749 276.505 14.5833 275.938 17.7C275.371 19.6833 274.38 20.6749 272.963 20.6749C272.113 20.6749 271.263 20.5333 270.413 20.25C269.563 19.6833 268.43 19.1166 267.013 18.55C265.88 17.9833 264.321 17.5583 262.338 17.2749C260.638 16.7083 258.088 16.4249 254.688 16.4249C249.871 16.4249 245.055 17.1333 240.238 18.55C235.421 19.6833 231.03 21.5249 227.063 24.0749C219.13 29.1749 210.488 36.3999 201.138 45.7499C192.071 55.0999 183.713 65.2999 176.063 76.3499C157.08 103.55 140.363 129.05 125.913 152.85C111.746 176.367 99.8462 197.475 90.2129 216.175C80.5795 234.875 73.3546 250.883 68.5379 264.2C63.7212 277.233 61.3129 286.867 61.3129 293.1C61.3129 297.917 62.3046 301.883 64.2879 305C66.5546 308.117 70.0962 309.675 74.9129 309.675C82.5629 309.675 89.7879 307.267 96.5879 302.45C103.671 297.633 110.33 291.683 116.563 284.6C122.796 277.233 128.463 269.158 133.563 260.375C138.663 251.592 143.055 243.375 146.738 235.725C147.305 234.592 148.155 234.167 149.288 234.45C150.705 234.733 150.705 235.867 149.288 237.85C144.188 248.05 138.663 257.825 132.713 267.175C127.046 276.242 120.955 284.175 114.438 290.975C108.205 298.058 101.546 303.583 94.4629 307.55C87.6629 311.517 80.8629 313.5 74.0629 313.5C66.4129 313.5 60.7462 311.375 57.0629 307.125C53.3796 303.158 51.5379 297.917 51.5379 291.4C51.5379 284.6 52.8129 277.375 55.3629 269.725C58.1962 261.792 62.4462 252.158 68.1129 240.825C60.1796 250.458 53.2379 258.533 47.2879 265.05C41.3379 271.567 36.0962 276.667 31.5629 280.35C27.0296 284.033 23.0629 286.583 19.6629 288C16.5462 289.7 13.7129 290.55 11.1629 290.55C7.19622 290.55 4.50456 289.558 3.08789 287.575C1.67122 285.308 0.962891 282.475 0.962891 279.075C0.962891 276.525 1.67122 273.267 3.08789 269.3C4.50456 265.05 6.48789 260.942 9.03789 256.975C19.5212 239.975 31.1379 226.092 43.8879 215.325C56.9212 204.558 72.9295 197.475 91.9129 194.075C105.513 170.275 118.546 148.883 131.013 129.9C143.48 110.917 157.08 92.3583 171.813 74.225C183.996 58.925 196.038 45.4666 207.938 33.8499C220.121 22.2333 232.588 13.4499 245.338 7.49994C254.971 2.96661 263.33 0.699951 270.413 0.699951C273.813 0.699951 276.505 1.12495 278.488 1.97495C280.755 2.82495 281.888 3.95828 281.888 5.37495ZM88.5129 200.45C77.7462 200.733 69.3879 202.858 63.4379 206.825C57.7712 210.508 52.6712 215.183 48.1379 220.85C37.3712 234.167 29.7212 245.642 25.1879 255.275C20.6546 264.625 18.3879 271.567 18.3879 276.1C18.3879 277.517 18.9546 278.508 20.0879 279.075C21.2212 279.642 22.0712 279.925 22.6379 279.925C24.6212 279.925 28.1629 277.8 33.2629 273.55C38.6462 269.3 44.4546 263.633 50.6879 256.55C57.2046 249.183 63.8629 240.683 70.6629 231.05C77.4629 221.417 83.4129 211.217 88.5129 200.45Z" fill="#A1999A"/>
  </g>
  <defs>
    <clipPath id="clip0_3409_281">
      <rect width="1171.43" height="312.8" fill="white" transform="translate(0.962891 0.699951)"/>
    </clipPath>
  </defs>
</svg>
