<svg width="1557" height="277" viewBox="0 0 1557 277" fill="none" xmlns="http://www.w3.org/2000/svg">
  <g clip-path="url(#clip0_3409_301)">
    <path d="M1551.5 179.225C1550.65 180.641 1549.94 180.783 1549.37 179.65C1547.67 175.966 1544.13 174.125 1538.75 174.125C1534.78 174.125 1530.82 175.258 1526.85 177.525C1522.88 179.791 1520.9 183.191 1520.9 187.725C1520.9 189.991 1521.61 192.258 1523.02 194.525C1524.44 196.791 1526.42 199.766 1528.97 203.45C1531.24 206.85 1533.37 210.25 1535.35 213.65C1537.33 217.05 1538.32 220.591 1538.32 224.275C1538.32 231.641 1536.62 237.733 1533.22 242.55C1529.82 247.083 1525.72 250.766 1520.9 253.6C1516.37 256.433 1511.69 258.275 1506.87 259.125C1502.06 260.258 1498.23 260.825 1495.4 260.825C1478.12 260.825 1468.62 255.016 1466.92 243.4C1468.34 242.55 1469.9 241.558 1471.6 240.425C1473.58 239.008 1475 237.733 1475.85 236.6C1476.42 236.6 1476.84 237.166 1477.12 238.3C1478.54 243.4 1481.23 247.791 1485.2 251.475C1489.17 255.158 1493.84 257 1499.22 257C1501.49 257 1504.18 256.858 1507.3 256.575C1510.42 256.008 1513.25 255.016 1515.8 253.6C1518.63 251.9 1521.04 249.633 1523.02 246.8C1525.01 243.966 1526 240.141 1526 235.325C1526 231.641 1525.29 228.241 1523.87 225.125C1522.46 222.008 1520.9 219.175 1519.2 216.625C1517.5 213.791 1515.8 210.958 1514.1 208.125C1512.4 205.291 1511.55 202.175 1511.55 198.775C1511.55 195.375 1512.68 191.691 1514.95 187.725C1517.5 183.758 1520.62 180.216 1524.3 177.1C1527.98 173.7 1531.95 170.866 1536.2 168.6C1540.73 166.333 1545.12 165.2 1549.37 165.2C1553.91 165.2 1556.17 166.616 1556.17 169.45C1555.32 170.866 1554.47 172.566 1553.62 174.55C1552.77 176.25 1552.07 177.808 1551.5 179.225Z" fill="#A1999A"/>
    <path d="M1526.44 168.175C1522.76 169.308 1518.09 170.442 1512.42 171.575C1507.03 172.425 1501.37 173.275 1495.42 174.125C1489.75 174.975 1484.23 175.683 1478.84 176.25C1473.74 176.817 1469.63 177.242 1466.52 177.525C1465.1 177.808 1464.11 178.517 1463.54 179.65C1463.26 180.783 1463.12 182.058 1463.12 183.475C1463.12 191.125 1461.98 199.058 1459.72 207.275C1457.73 215.208 1455.04 222.858 1451.64 230.225C1448.53 237.308 1444.98 243.825 1441.02 249.775C1437.05 255.442 1433.08 259.975 1429.12 263.375C1424.3 267.625 1419.48 270.883 1414.67 273.15C1410.13 275.417 1404.61 276.55 1398.09 276.55C1390.73 276.55 1384.92 274.283 1380.67 269.75C1376.42 265.217 1374.29 259.267 1374.29 251.9C1374.29 248.783 1374.58 245.808 1375.14 242.975C1369.76 246.092 1363.81 249.208 1357.29 252.325C1350.78 255.442 1344.4 257 1338.17 257C1334.77 257 1331.94 256.008 1329.67 254.025C1327.69 251.758 1326.69 248.5 1326.69 244.25C1326.69 239.15 1328.11 233.342 1330.94 226.825C1334.06 220.025 1337.6 213.367 1341.57 206.85C1345.82 200.05 1349.93 193.958 1353.89 188.575C1357.86 182.908 1360.84 178.8 1362.82 176.25C1363.67 175.117 1364.66 173.983 1365.79 172.85C1367.21 171.433 1368.77 170.442 1370.47 169.875C1372.73 169.308 1375.28 168.742 1378.12 168.175C1380.95 167.325 1383.22 166.758 1384.92 166.475C1386.05 166.475 1386.62 166.9 1386.62 167.75C1386.62 168.317 1385.77 168.883 1384.07 169.45C1382.65 170.017 1380.67 171.575 1378.12 174.125C1373.87 178.658 1369.62 184.325 1365.37 191.125C1361.4 197.642 1357.72 204.3 1354.32 211.1C1350.92 217.617 1348.23 223.85 1346.24 229.8C1344.26 235.75 1343.27 240.425 1343.27 243.825C1343.27 245.525 1343.83 247.083 1344.97 248.5C1346.1 249.917 1347.66 250.625 1349.64 250.625C1351.06 250.625 1353.89 249.917 1358.14 248.5C1362.68 247.083 1368.63 243.967 1375.99 239.15C1378.54 228.1 1382.51 217.333 1387.89 206.85C1393.28 196.083 1399.51 186.45 1406.59 177.95C1408.01 176.25 1410.42 173.842 1413.82 170.725C1417.22 167.608 1421.18 166.05 1425.72 166.05C1427.98 166.05 1429.26 166.9 1429.54 168.6C1430.11 170.017 1430.39 171.15 1430.39 172C1430.39 173.417 1429.83 176.108 1428.69 180.075C1427.84 184.042 1425.86 188.858 1422.74 194.525C1419.63 199.908 1415.38 206 1409.99 212.8C1404.61 219.317 1397.39 226.258 1388.32 233.625C1388.32 237.592 1388.6 241.558 1389.17 245.525C1389.74 249.492 1390.87 253.033 1392.57 256.15C1394.27 259.267 1396.53 261.817 1399.37 263.8C1402.2 265.783 1405.89 266.775 1410.42 266.775C1417.22 266.775 1423.17 264.367 1428.27 259.55C1433.37 255.017 1437.48 249.208 1440.59 242.125C1443.99 235.042 1446.54 227.25 1448.24 218.75C1449.94 210.25 1450.79 202.175 1450.79 194.525C1450.79 187.725 1450.37 182.2 1449.52 177.95C1448.95 173.7 1446.4 171.292 1441.87 170.725C1440.73 169.592 1440.88 168.742 1442.29 168.175C1443.99 168.175 1446.12 167.608 1448.67 166.475C1451.22 165.058 1453.06 164.35 1454.19 164.35C1454.76 164.35 1455.33 164.775 1455.89 165.625C1456.46 166.192 1457.59 166.9 1459.29 167.75C1461.28 168.317 1464.11 169.025 1467.79 169.875C1471.48 170.442 1476.72 170.725 1483.52 170.725C1491.73 170.725 1500.09 170.158 1508.59 169.025C1517.09 167.608 1523.04 166.333 1526.44 165.2C1527.58 164.917 1528.29 165.2 1528.57 166.05C1529.14 166.9 1528.43 167.608 1526.44 168.175ZM1419.77 180.5C1419.77 179.933 1419.49 178.8 1418.92 177.1C1418.64 175.4 1417.64 174.55 1415.94 174.55C1414.53 174.55 1412.54 175.683 1409.99 177.95C1407.44 180.217 1404.75 183.617 1401.92 188.15C1399.37 192.683 1396.82 198.492 1394.27 205.575C1391.72 212.375 1389.74 220.45 1388.32 229.8C1399.65 220.733 1407.73 211.808 1412.54 203.025C1417.36 193.958 1419.77 186.45 1419.77 180.5Z" fill="#A1999A"/>
    <path d="M1350.04 206.425C1345.22 212.375 1339.41 218.608 1332.61 225.125C1326.09 231.358 1318.87 237.166 1310.94 242.55C1303.29 247.65 1295.21 251.9 1286.71 255.3C1278.49 258.416 1270.28 259.975 1262.06 259.975C1248.74 259.975 1242.09 254.025 1242.09 242.125C1242.09 234.191 1244.07 225.691 1248.04 216.625C1252.29 207.275 1257.67 198.775 1264.19 191.125C1270.7 183.191 1277.79 176.675 1285.44 171.575C1293.37 166.191 1300.88 163.5 1307.96 163.5C1311.93 163.5 1314.62 164.208 1316.04 165.625C1317.74 167.041 1318.59 168.883 1318.59 171.15C1318.59 174.55 1317.45 178.233 1315.19 182.2C1313.2 186.166 1310.09 189.991 1305.84 193.675C1301.59 197.075 1296.2 200.05 1289.69 202.6C1283.17 204.866 1275.38 206 1266.31 206C1264.89 208.55 1263.34 212.658 1261.64 218.325C1259.94 223.708 1259.09 229.233 1259.09 234.9C1259.09 246.516 1264.33 252.325 1274.81 252.325C1281.33 252.325 1287.99 250.766 1294.79 247.65C1301.87 244.533 1308.67 240.708 1315.19 236.175C1321.7 231.358 1327.65 226.258 1333.04 220.875C1338.7 215.208 1343.38 209.966 1347.06 205.15C1347.63 204.583 1348.19 204.441 1348.76 204.725C1349.61 205.008 1350.04 205.575 1350.04 206.425ZM1305.41 173.275C1305.41 169.591 1303.57 167.75 1299.89 167.75C1297.05 167.75 1294.08 168.883 1290.96 171.15C1288.13 173.133 1285.29 175.825 1282.46 179.225C1279.63 182.625 1276.94 186.308 1274.39 190.275C1271.84 194.241 1269.71 198.066 1268.01 201.75C1268.58 202.033 1269.57 202.316 1270.99 202.6C1272.4 202.6 1273.54 202.6 1274.39 202.6C1282.6 202.6 1289.83 199.766 1296.06 194.1C1302.29 188.15 1305.41 181.208 1305.41 173.275Z" fill="#A1999A"/>
    <path d="M1265.49 202.175C1260.39 209.258 1254.44 216.483 1247.64 223.85C1241.12 230.933 1234.04 237.308 1226.39 242.975C1219.02 248.642 1211.37 253.317 1203.44 257C1195.79 260.683 1188.28 262.525 1180.91 262.525C1177.51 262.525 1174.4 261.958 1171.56 260.825C1168.73 259.975 1167.31 257.567 1167.31 253.6C1167.31 249.633 1168.73 244.675 1171.56 238.725C1174.4 232.492 1177.65 225.975 1181.34 219.175C1185.3 212.375 1189.27 205.433 1193.24 198.35C1197.49 191.267 1200.89 184.75 1203.44 178.8C1204 177.383 1204 176.25 1203.44 175.4C1203.15 174.267 1202.3 174.125 1200.89 174.975C1197.77 176.958 1194.09 179.65 1189.84 183.05C1185.59 186.45 1181.2 190.133 1176.66 194.1C1172.41 197.783 1168.16 201.608 1163.91 205.575C1159.95 209.542 1156.69 213.083 1154.14 216.2C1149.6 223.283 1145.64 229.8 1142.24 235.75C1139.12 241.7 1135.15 248.358 1130.34 255.725C1129.2 257.425 1128.35 258.275 1127.79 258.275C1126.37 258.275 1125.1 256.717 1123.96 253.6C1123.11 250.483 1122.69 248.5 1122.69 247.65C1122.69 245.1 1124.39 241.7 1127.79 237.45C1131.47 232.917 1135.44 227.958 1139.69 222.575C1144.22 213.508 1148.9 204.017 1153.71 194.1C1158.53 183.9 1162.64 174.833 1166.04 166.9C1166.89 165.483 1168.16 164.775 1169.86 164.775C1171.56 164.775 1173.12 165.483 1174.54 166.9C1175.95 168.317 1176.66 169.875 1176.66 171.575C1176.66 172.708 1174.54 176.675 1170.29 183.475C1166.32 189.992 1162.35 197.642 1158.39 206.425C1163.77 201.608 1169.58 196.508 1175.81 191.125C1182.33 185.742 1188.42 180.783 1194.09 176.25C1200.04 171.717 1205.14 168.033 1209.39 165.2C1213.92 162.083 1217.04 160.525 1218.74 160.525C1219.87 160.525 1220.86 161.233 1221.71 162.65C1222.85 163.783 1223.41 164.917 1223.41 166.05C1223.41 167.183 1222.7 168.883 1221.29 171.15C1218.17 175.683 1214.35 181.492 1209.81 188.575C1205.28 195.658 1200.89 203.025 1196.64 210.675C1192.67 218.042 1189.27 225.125 1186.44 231.925C1183.6 238.725 1182.19 244.108 1182.19 248.075C1182.19 251.475 1182.9 253.883 1184.31 255.3C1185.73 256.433 1188 257 1191.11 257C1195.93 257 1201.6 255.158 1208.11 251.475C1214.63 247.792 1221.29 243.258 1228.09 237.875C1235.17 232.208 1241.83 225.975 1248.06 219.175C1254.3 212.375 1259.4 205.858 1263.36 199.625C1263.93 198.775 1264.78 198.633 1265.91 199.2C1267.05 199.483 1266.9 200.475 1265.49 202.175Z" fill="#A1999A"/>
    <path d="M1079.3 238.3C1079.3 239.716 1078.74 241.7 1077.6 244.25C1076.47 246.516 1074.91 248.783 1072.93 251.05C1071.23 253.316 1069.25 255.3 1066.98 257C1064.71 258.416 1062.45 259.125 1060.18 259.125C1058.2 259.125 1056.35 258.558 1054.65 257.425C1053.24 256.291 1052.53 254.591 1052.53 252.325C1052.53 246.658 1054.37 241.7 1058.05 237.45C1062.02 233.2 1066.41 231.075 1071.23 231.075C1072.65 231.075 1074.35 231.641 1076.33 232.775C1078.31 233.625 1079.3 235.466 1079.3 238.3Z" fill="#A1999A"/>
    <path d="M1092.98 168.175C1089.29 169.308 1084.62 170.442 1078.95 171.575C1073.57 172.425 1067.9 173.275 1061.95 174.125C1056.28 174.975 1050.76 175.683 1045.38 176.25C1040.28 176.817 1036.17 177.242 1033.05 177.525C1031.63 177.808 1030.64 178.517 1030.08 179.65C1029.79 180.783 1029.65 182.058 1029.65 183.475C1029.65 191.125 1028.52 199.058 1026.25 207.275C1024.27 215.208 1021.58 222.858 1018.18 230.225C1015.06 237.308 1011.52 243.825 1007.55 249.775C1003.58 255.442 999.618 259.975 995.652 263.375C990.835 267.625 986.018 270.883 981.202 273.15C976.668 275.417 971.143 276.55 964.627 276.55C957.26 276.55 951.452 274.283 947.202 269.75C942.952 265.217 940.827 259.267 940.827 251.9C940.827 248.783 941.11 245.808 941.677 242.975C936.293 246.092 930.343 249.208 923.827 252.325C917.31 255.442 910.935 257 904.702 257C901.302 257 898.468 256.008 896.202 254.025C894.218 251.758 893.227 248.5 893.227 244.25C893.227 239.15 894.643 233.342 897.477 226.825C900.593 220.025 904.135 213.367 908.102 206.85C912.352 200.05 916.46 193.958 920.427 188.575C924.393 182.908 927.368 178.8 929.352 176.25C930.202 175.117 931.193 173.983 932.327 172.85C933.743 171.433 935.302 170.442 937.002 169.875C939.268 169.308 941.818 168.742 944.652 168.175C947.485 167.325 949.752 166.758 951.452 166.475C952.585 166.475 953.152 166.9 953.152 167.75C953.152 168.317 952.302 168.883 950.602 169.45C949.185 170.017 947.202 171.575 944.652 174.125C940.402 178.658 936.152 184.325 931.902 191.125C927.935 197.642 924.252 204.3 920.852 211.1C917.452 217.617 914.76 223.85 912.777 229.8C910.793 235.75 909.802 240.425 909.802 243.825C909.802 245.525 910.368 247.083 911.502 248.5C912.635 249.917 914.193 250.625 916.177 250.625C917.593 250.625 920.427 249.917 924.677 248.5C929.21 247.083 935.16 243.967 942.527 239.15C945.077 228.1 949.043 217.333 954.427 206.85C959.81 196.083 966.043 186.45 973.127 177.95C974.543 176.25 976.952 173.842 980.352 170.725C983.752 167.608 987.718 166.05 992.252 166.05C994.518 166.05 995.793 166.9 996.077 168.6C996.643 170.017 996.927 171.15 996.927 172C996.927 173.417 996.36 176.108 995.227 180.075C994.377 184.042 992.393 188.858 989.277 194.525C986.16 199.908 981.91 206 976.527 212.8C971.143 219.317 963.918 226.258 954.852 233.625C954.852 237.592 955.135 241.558 955.702 245.525C956.268 249.492 957.402 253.033 959.102 256.15C960.802 259.267 963.068 261.817 965.902 263.8C968.735 265.783 972.418 266.775 976.952 266.775C983.752 266.775 989.702 264.367 994.802 259.55C999.902 255.017 1004.01 249.208 1007.13 242.125C1010.53 235.042 1013.08 227.25 1014.78 218.75C1016.48 210.25 1017.33 202.175 1017.33 194.525C1017.33 187.725 1016.9 182.2 1016.05 177.95C1015.48 173.7 1012.93 171.292 1008.4 170.725C1007.27 169.592 1007.41 168.742 1008.83 168.175C1010.53 168.175 1012.65 167.608 1015.2 166.475C1017.75 165.058 1019.59 164.35 1020.73 164.35C1021.29 164.35 1021.86 164.775 1022.43 165.625C1022.99 166.192 1024.13 166.9 1025.83 167.75C1027.81 168.317 1030.64 169.025 1034.33 169.875C1038.01 170.442 1043.25 170.725 1050.05 170.725C1058.27 170.725 1066.63 170.158 1075.13 169.025C1083.63 167.608 1089.58 166.333 1092.98 165.2C1094.11 164.917 1094.82 165.2 1095.1 166.05C1095.67 166.9 1094.96 167.608 1092.98 168.175ZM986.302 180.5C986.302 179.933 986.018 178.8 985.452 177.1C985.168 175.4 984.177 174.55 982.477 174.55C981.06 174.55 979.077 175.683 976.527 177.95C973.977 180.217 971.285 183.617 968.452 188.15C965.902 192.683 963.352 198.492 960.802 205.575C958.252 212.375 956.268 220.45 954.852 229.8C966.185 220.733 974.26 211.808 979.077 203.025C983.893 193.958 986.302 186.45 986.302 180.5Z" fill="#A1999A"/>
    <path d="M916.569 206.425C911.752 212.375 905.944 218.608 899.144 225.125C892.627 231.358 885.403 237.166 877.469 242.55C869.819 247.65 861.744 251.9 853.244 255.3C845.027 258.416 836.811 259.975 828.594 259.975C815.278 259.975 808.619 254.025 808.619 242.125C808.619 234.191 810.602 225.691 814.569 216.625C818.819 207.275 824.203 198.775 830.719 191.125C837.236 183.191 844.319 176.675 851.969 171.575C859.903 166.191 867.411 163.5 874.494 163.5C878.461 163.5 881.152 164.208 882.569 165.625C884.269 167.041 885.119 168.883 885.119 171.15C885.119 174.55 883.986 178.233 881.719 182.2C879.736 186.166 876.619 189.991 872.369 193.675C868.119 197.075 862.736 200.05 856.219 202.6C849.703 204.866 841.911 206 832.844 206C831.428 208.55 829.869 212.658 828.169 218.325C826.469 223.708 825.619 229.233 825.619 234.9C825.619 246.516 830.861 252.325 841.344 252.325C847.861 252.325 854.519 250.766 861.319 247.65C868.402 244.533 875.203 240.708 881.719 236.175C888.236 231.358 894.186 226.258 899.569 220.875C905.236 215.208 909.911 209.966 913.594 205.15C914.161 204.583 914.728 204.441 915.294 204.725C916.144 205.008 916.569 205.575 916.569 206.425ZM871.944 173.275C871.944 169.591 870.103 167.75 866.419 167.75C863.586 167.75 860.611 168.883 857.494 171.15C854.661 173.133 851.827 175.825 848.994 179.225C846.161 182.625 843.469 186.308 840.919 190.275C838.369 194.241 836.244 198.066 834.544 201.75C835.111 202.033 836.102 202.316 837.519 202.6C838.936 202.6 840.069 202.6 840.919 202.6C849.136 202.6 856.361 199.766 862.594 194.1C868.828 188.15 871.944 181.208 871.944 173.275Z" fill="#A1999A"/>
    <path d="M812.078 106.55C812.078 109.95 810.52 113.35 807.403 116.75C804.57 120.15 801.311 121.85 797.628 121.85C794.228 121.85 792.528 120.15 792.528 116.75C792.528 113.067 793.803 109.525 796.353 106.125C799.186 102.725 802.586 101.025 806.553 101.025C810.236 101.025 812.078 102.867 812.078 106.55ZM831.203 201.325C824.403 210.108 816.611 218.467 807.828 226.4C799.045 234.333 790.97 240.708 783.603 245.525C777.936 249.208 772.128 252.042 766.178 254.025C760.228 256.008 754.845 257 750.028 257C748.328 257 746.345 256.858 744.078 256.575C741.811 256.292 739.686 255.583 737.703 254.45C736.003 253.317 734.445 251.9 733.028 250.2C731.895 248.217 731.328 245.667 731.328 242.55C731.328 238.867 732.745 233.908 735.578 227.675C738.411 221.158 741.67 214.5 745.353 207.7C749.32 200.9 753.145 194.383 756.828 188.15C760.795 181.917 763.911 177.242 766.178 174.125C767.595 171.858 770.003 170.017 773.403 168.6C777.086 166.9 779.495 166.05 780.628 166.05C782.045 166.05 782.753 166.475 782.753 167.325C782.753 167.892 782.47 168.742 781.903 169.875C781.62 171.008 781.195 171.858 780.628 172.425C776.945 178.092 773.12 184.325 769.153 191.125C765.47 197.925 762.07 204.583 758.953 211.1C755.836 217.333 753.286 223.142 751.303 228.525C749.603 233.908 748.753 238.158 748.753 241.275C748.753 244.675 749.603 247.225 751.303 248.925C753.286 250.342 755.836 251.05 758.953 251.05C764.62 251.05 770.853 249.208 777.653 245.525C784.453 241.558 791.111 236.883 797.628 231.5C804.428 226.117 810.661 220.45 816.328 214.5C821.995 208.55 826.386 203.45 829.503 199.2C830.92 197.783 831.628 197.5 831.628 198.35C831.911 198.917 831.77 199.908 831.203 201.325Z" fill="#A1999A"/>
    <path d="M729.196 172C728.912 177.383 726.787 183.333 722.821 189.85C718.854 196.083 714.037 202.458 708.371 208.975C702.704 215.208 696.329 221.442 689.246 227.675C682.446 233.625 675.646 239.008 668.846 243.825C662.329 248.358 656.237 252.183 650.571 255.3C644.904 258.133 640.512 259.55 637.396 259.55L630.596 252.75C630.596 251.617 631.162 251.192 632.296 251.475C638.812 250.908 644.196 248.5 648.446 244.25C652.696 239.717 655.954 230.933 658.221 217.9C658.787 214.783 659.354 211.383 659.921 207.7C660.487 203.733 661.054 200.05 661.621 196.65C662.187 192.967 662.754 189.708 663.321 186.875C664.171 184.042 664.879 182.058 665.446 180.925C666.579 177.525 666.862 175.542 666.296 174.975C666.012 174.125 664.737 173.7 662.471 173.7L650.146 175.825C647.596 174.692 647.737 173.7 650.571 172.85C656.237 172 662.896 171.008 670.546 169.875C678.196 168.742 684.287 167.467 688.821 166.05C689.671 166.617 689.812 167.183 689.246 167.75C688.112 168.6 686.837 169.592 685.421 170.725C684.004 171.858 682.871 173.417 682.021 175.4C680.604 178.517 679.329 182.342 678.196 186.875C677.346 191.408 676.496 195.8 675.646 200.05C674.796 204.3 673.946 208.267 673.096 211.95C672.529 215.35 671.962 217.758 671.396 219.175C669.696 223.992 666.862 228.667 662.896 233.2C658.929 237.733 654.962 241.558 650.996 244.675C649.862 246.658 650.004 247.225 651.421 246.375C659.637 243.542 667.429 239.858 674.796 235.325C682.446 230.508 689.246 224.983 695.196 218.75C701.146 212.233 705.962 205.008 709.646 197.075C713.612 189.142 716.021 180.5 716.871 171.15C717.721 160.1 716.021 152.875 711.771 149.475C711.204 149.192 711.062 148.908 711.346 148.625C711.629 148.342 712.621 148.342 714.321 148.625C719.421 149.192 723.387 151.6 726.221 155.85C729.054 160.1 730.046 165.483 729.196 172Z" fill="#A1999A"/>
    <path d="M588.064 238.3C588.064 239.716 587.497 241.7 586.364 244.25C585.231 246.516 583.672 248.783 581.689 251.05C579.989 253.316 578.006 255.3 575.739 257C573.472 258.416 571.206 259.125 568.939 259.125C566.956 259.125 565.114 258.558 563.414 257.425C561.997 256.291 561.289 254.591 561.289 252.325C561.289 246.658 563.131 241.7 566.814 237.45C570.781 233.2 575.172 231.075 579.989 231.075C581.406 231.075 583.106 231.641 585.089 232.775C587.072 233.625 588.064 235.466 588.064 238.3Z" fill="#A1999A"/>
    <path d="M564.675 84.4498C564.675 86.7164 564.25 88.9831 563.4 91.2498C562.833 93.5164 560.991 96.4914 557.875 100.175C555.041 103.858 550.508 108.391 544.275 113.775C538.325 119.158 529.966 126.1 519.2 134.6C516.366 139.133 513.25 144.091 509.85 149.475C506.45 154.858 503.05 160.383 499.65 166.05C496.533 171.433 493.416 176.958 490.3 182.625C487.466 188.008 485.058 193.25 483.075 198.35C494.408 197.783 506.166 197.358 518.35 197.075C530.533 196.791 542.008 196.366 552.775 195.8C553.908 196.933 553.483 197.783 551.5 198.35C543.566 198.916 536.341 199.625 529.825 200.475C523.591 201.041 517.641 201.891 511.975 203.025C506.308 203.875 500.783 204.866 495.4 206C490.016 207.133 484.208 208.408 477.975 209.825C477.691 210.675 476.841 212.658 475.425 215.775C474.291 218.608 473.158 221.866 472.025 225.55C470.891 228.95 469.758 232.491 468.625 236.175C467.775 239.575 467.35 242.266 467.35 244.25C467.35 250.483 469.616 254.025 474.15 254.875C475.566 255.158 476.275 255.725 476.275 256.575C476.558 257.141 475.991 257.425 474.575 257.425C470.891 257.425 466.925 257.708 462.675 258.275C458.708 258.841 456.158 259.266 455.025 259.55C453.891 259.55 452.616 258.983 451.2 257.85C449.783 256.716 449.075 254.025 449.075 249.775C449.075 247.225 449.641 244.25 450.775 240.85C452.191 237.166 453.75 233.483 455.45 229.8C457.15 226.116 458.991 222.433 460.975 218.75C462.958 215.066 464.658 211.95 466.075 209.4C464.375 207.133 461.825 205.433 458.425 204.3C457.008 203.733 456.441 202.883 456.725 201.75C457.008 200.333 457.858 199.625 459.275 199.625L472.45 198.775C478.116 188.858 483.5 179.366 488.6 170.3C493.983 161.233 499.508 152.166 505.175 143.1C501.775 145.65 497.666 148.483 492.85 151.6C488.033 154.716 483.216 157.833 478.4 160.95C473.583 163.783 468.908 166.475 464.375 169.025C460.125 171.291 456.725 173.133 454.175 174.55C451.058 175.966 447.941 176.816 444.825 177.1C441.991 177.383 437.175 177.808 430.375 178.375C427.258 178.658 424.141 179.225 421.025 180.075C418.191 180.641 415.358 181.916 412.525 183.9C400.908 190.983 390 200.9 379.8 213.65C369.883 226.4 361.383 238.866 354.3 251.05C352.316 254.733 350.333 256.716 348.35 257C347.5 257.283 345.516 257.85 342.4 258.7C339.566 259.55 338.008 259.266 337.725 257.85C337.725 257.283 337.866 256.716 338.15 256.15L339.425 253.6C346.791 242.55 353.733 231.216 360.25 219.6C366.766 207.983 371.725 196.791 375.125 186.025C376.258 182.625 376.825 179.65 376.825 177.1C376.825 173.7 375.266 172 372.15 172C371.016 172 369.458 172.283 367.475 172.85C365.775 173.416 363.933 174.125 361.95 174.975C359.966 175.541 357.983 176.25 356 177.1C354.3 177.666 353.025 178.233 352.175 178.8C350.191 179.933 349.058 180.075 348.775 179.225C348.491 178.375 349.058 177.383 350.475 176.25C358.975 172.283 367.05 169.308 374.7 167.325C382.633 165.341 388.016 164.35 390.85 164.35C395.666 164.35 398.075 166.191 398.075 169.875C398.075 172.141 396.8 175.683 394.25 180.5C391.7 185.316 387.591 193.108 381.925 203.875C380.791 206.425 381.216 206.708 383.2 204.725C390 197.641 396.658 191.408 403.175 186.025C409.691 180.641 417.058 175.4 425.275 170.3C426.691 169.45 427.966 168.741 429.1 168.175C430.516 167.325 432.358 166.9 434.625 166.9C443.691 166.9 451.341 166.475 457.575 165.625C463.808 164.775 468.908 163.216 472.875 160.95C479.391 157.833 485.483 154.291 491.15 150.325C496.816 146.358 502.483 142.391 508.15 138.425C514.666 127.941 520.758 118.308 526.425 109.525C532.091 100.741 537.05 93.6581 541.3 88.2748C542.15 87.4248 543.283 86.5748 544.7 85.7248C546.4 84.8748 548.1 84.0248 549.8 83.1748C551.783 82.3248 553.625 81.7581 555.325 81.4748C557.025 80.9081 558.441 80.6248 559.575 80.6248C561.275 80.6248 562.55 81.0498 563.4 81.8998C564.25 82.7498 564.675 83.5998 564.675 84.4498ZM559.15 85.7248C559.15 84.0248 558.583 83.1748 557.45 83.1748C555.75 83.1748 552.066 86.7164 546.4 93.7998C540.733 100.883 532.658 112.783 522.175 129.5C524.158 127.8 527.133 125.391 531.1 122.275C535.35 118.875 539.458 115.191 543.425 111.225C547.675 106.975 551.358 102.583 554.475 98.0498C557.591 93.5164 559.15 89.4081 559.15 85.7248Z" fill="#A1999A"/>
    <path d="M378.977 184.75C374.16 191.266 368.21 197.216 361.127 202.6C354.327 207.7 346.535 210.25 337.752 210.25C332.935 210.25 328.118 209.116 323.302 206.85C318.768 204.3 315.085 200.616 312.252 195.8C310.268 200.333 307.718 205.575 304.602 211.525C301.485 217.191 297.802 223 293.552 228.95C289.302 234.616 284.485 239.858 279.102 244.675C274.002 249.491 268.477 253.458 262.527 256.575C257.427 258.841 253.177 259.975 249.777 259.975C239.577 259.975 234.477 255.441 234.477 246.375C234.477 241.275 235.327 236.033 237.027 230.65C239.01 225.266 241.418 220.025 244.252 214.925C247.085 209.825 250.06 205.008 253.177 200.475C256.577 195.941 259.693 192.258 262.527 189.425C268.477 182.908 275.277 177.383 282.927 172.85C290.577 168.316 298.793 165.625 307.577 164.775C308.143 162.508 308.993 159.958 310.127 157.125C311.26 154.008 313.243 152.166 316.077 151.6C317.493 151.316 318.91 151.033 320.327 150.75C321.743 150.466 323.018 150.041 324.152 149.475C325.002 148.908 325.852 148.908 326.702 149.475C327.552 149.758 327.693 150.466 327.127 151.6C325.143 154.716 323.585 158.683 322.452 163.5C321.602 168.316 321.177 173.558 321.177 179.225C321.177 187.158 322.593 193.675 325.427 198.775C328.543 203.875 333.785 206.425 341.152 206.425C348.518 206.425 355.177 204.016 361.127 199.2C367.077 194.383 372.035 189.141 376.002 183.475C376.568 182.058 377.418 181.633 378.552 182.2C379.968 182.766 380.11 183.616 378.977 184.75ZM308.852 187.725C308.285 185.175 307.86 182.2 307.577 178.8C307.293 175.4 307.152 172.141 307.152 169.025C307.152 167.608 306.585 166.9 305.452 166.9C302.335 166.9 299.077 168.033 295.677 170.3C292.277 172.283 288.877 175.116 285.477 178.8C282.077 182.2 278.677 186.166 275.277 190.7C271.877 195.233 268.76 199.908 265.927 204.725C262.243 210.958 258.843 217.758 255.727 225.125C252.893 232.208 251.618 239.008 251.902 245.525C251.902 247.508 252.185 249.35 252.752 251.05C253.602 252.75 255.302 253.6 257.852 253.6C262.668 253.6 267.91 250.908 273.577 245.525C279.243 240.141 284.627 233.908 289.727 226.825C294.827 219.458 299.077 212.091 302.477 204.725C306.16 197.358 308.285 191.691 308.852 187.725Z" fill="#A1999A"/>
    <path d="M342.068 10.4998C341.501 12.7665 340.935 15.1748 340.368 17.7248C339.801 19.9915 339.235 22.5415 338.668 25.3748C337.535 26.2248 336.685 26.0831 336.118 24.9498C336.118 23.2498 335.693 21.4081 334.843 19.4248C333.993 17.4415 332.293 15.5998 329.743 13.8998C327.476 11.9165 324.36 10.3581 320.393 9.22481C316.426 7.80815 311.326 7.09982 305.093 7.09982C290.36 7.09982 276.051 12.3415 262.168 22.8248C248.568 33.0248 233.835 49.8831 217.968 73.3998C212.585 81.3331 206.635 90.6831 200.118 101.45C193.601 112.216 186.943 123.55 180.143 135.45C173.343 147.35 166.543 159.533 159.743 172C152.943 184.183 146.568 195.8 140.618 206.85C140.051 208.266 139.768 209.4 139.768 210.25C139.768 210.816 140.335 210.533 141.468 209.4C148.551 202.316 157.051 194.95 166.968 187.3C176.885 179.65 186.376 173.133 195.443 167.75C197.71 166.333 200.118 165.625 202.668 165.625C203.801 165.625 204.935 165.766 206.068 166.05C207.201 166.333 207.768 167.183 207.768 168.6C207.768 169.45 207.485 170.158 206.918 170.725C203.801 174.691 200.118 180.5 195.868 188.15C191.618 195.8 187.51 203.875 183.543 212.375C179.576 220.875 176.176 229.091 173.343 237.025C170.51 244.675 169.093 250.625 169.093 254.875C169.093 258.558 169.801 261.391 171.218 263.375C172.918 265.358 175.751 266.35 179.718 266.35C187.368 266.35 197.001 261.958 208.618 253.175C220.518 244.108 235.676 228.95 254.093 207.7C254.943 207.133 255.51 207.275 255.793 208.125C256.36 208.691 256.643 209.258 256.643 209.825C249.276 218.608 241.626 226.966 233.693 234.9C225.76 242.833 217.826 249.916 209.893 256.15C201.96 262.1 194.168 266.775 186.518 270.175C179.151 273.858 172.351 275.7 166.118 275.7C160.735 275.7 157.051 274.425 155.068 271.875C153.085 269.325 152.093 266.066 152.093 262.1C152.093 257.85 153.368 252.325 155.918 245.525C158.468 238.725 161.443 231.641 164.843 224.275C168.526 216.908 172.068 209.825 175.468 203.025C179.151 195.941 181.985 190.133 183.968 185.6C184.251 185.033 184.676 184.041 185.243 182.625C186.093 180.925 185.81 180.075 184.393 180.075C182.976 180.075 180.426 181.35 176.743 183.9C173.06 186.45 168.951 189.425 164.418 192.825C160.168 196.225 155.918 199.766 151.668 203.45C147.701 206.85 144.726 209.541 142.743 211.525C140.193 214.075 138.068 216.483 136.368 218.75C134.951 221.016 133.393 223.566 131.693 226.4C130.276 229.233 128.718 232.35 127.018 235.75C125.601 238.866 123.618 242.833 121.068 247.65C120.218 248.783 119.226 249.35 118.093 249.35C116.676 249.35 114.835 247.933 112.568 245.1C110.585 241.983 109.593 239.716 109.593 238.3C109.593 236.033 112.285 230.225 117.668 220.875C123.051 211.525 130.843 197.925 141.043 180.075C137.076 182.341 133.393 184.183 129.993 185.6C126.876 187.016 124.61 187.725 123.193 187.725C120.926 181.775 118.376 177.1 115.543 173.7C112.71 170.3 109.31 168.6 105.343 168.6C97.1263 168.6 91.6013 172.141 88.768 179.225C85.9346 186.025 83.668 194.808 81.968 205.575C80.8346 212.658 79.1346 219.458 76.868 225.975C74.8846 232.491 71.9096 238.158 67.943 242.975C64.2596 247.508 59.443 251.191 53.493 254.025C47.543 256.575 40.0346 257.85 30.968 257.85C21.3346 257.566 14.1096 255.866 9.29297 252.75C4.19297 249.633 1.35964 246.233 0.792969 242.55C0.792969 241.7 2.06797 239.291 4.61797 235.325C7.16797 231.075 9.29297 227.533 10.993 224.7C12.4096 224.7 12.693 225.691 11.843 227.675C11.5596 229.375 11.5596 231.783 11.843 234.9C12.1263 237.733 12.9763 240.566 14.393 243.4C15.8096 246.233 18.0763 248.783 21.193 251.05C24.3096 253.033 28.5596 254.025 33.943 254.025C39.893 254.025 44.8513 252.183 48.818 248.5C52.7846 244.816 56.043 240.141 58.593 234.475C61.143 228.808 63.1263 222.575 64.543 215.775C66.243 208.691 67.8013 202.033 69.218 195.8C71.4846 184.75 76.5846 176.816 84.518 172C92.4513 167.183 100.951 164.775 110.018 164.775C117.668 164.775 123.051 166.333 126.168 169.45C129.568 172.283 132.401 175.541 134.668 179.225C138.918 179.225 141.751 178.091 143.168 175.825C151.385 161.091 160.31 145.791 169.943 129.925C179.86 114.058 190.06 98.7581 200.543 84.0248C211.31 69.2915 222.36 55.9748 233.693 44.0748C245.026 32.1748 256.36 22.8248 267.693 16.0248C273.36 12.6248 280.443 9.22481 288.943 5.82481C297.443 2.14148 305.801 0.299805 314.018 0.299805C321.668 0.299805 328.185 1.43313 333.568 3.6998C339.235 5.96648 342.068 8.23315 342.068 10.4998Z" fill="#A1999A"/>
  </g>
  <defs>
    <clipPath id="clip0_3409_301">
      <rect width="1555.38" height="276.25" fill="white" transform="translate(0.792969 0.299805)"/>
    </clipPath>
  </defs>
</svg>
