<svg width="228" height="71" viewBox="0 0 228 71" fill="none" xmlns="http://www.w3.org/2000/svg">
  <g clip-path="url(#clip0_3377_194)">
    <path d="M204.106 0.946106C207.491 0.946106 210.531 1.44756 213.227 2.45047C215.953 3.42204 218.272 4.78537 220.184 6.54046C222.096 8.29555 223.553 10.3954 224.556 12.84C225.591 15.2532 226.108 17.9172 226.108 20.8319C226.108 23.3392 225.747 25.6584 225.026 27.7896C224.337 29.9208 223.381 31.958 222.159 33.9011C220.936 35.8129 219.51 37.6777 217.881 39.4955C216.282 41.2819 214.574 43.0997 212.756 44.9488L199.358 58.6761C201.082 58.1747 202.774 57.7829 204.435 57.5008C206.128 57.1874 207.711 57.0307 209.184 57.0307H221.971C223.538 57.0307 224.776 57.4695 225.685 58.347C226.593 59.1932 227.048 60.3215 227.048 61.7319V70.1939H178.908V65.4928C178.908 64.5839 179.096 63.6123 179.472 62.5781C179.848 61.5438 180.507 60.6036 181.447 59.7574L201.192 39.8716C202.884 38.1791 204.357 36.5651 205.611 35.0294C206.864 33.4937 207.899 31.9893 208.713 30.5163C209.528 29.0119 210.139 27.5232 210.547 26.0502C210.954 24.5458 211.158 22.9631 211.158 21.302C211.158 18.5754 210.5 16.4912 209.184 15.0495C207.899 13.5765 205.924 12.84 203.26 12.84C202.163 12.84 201.16 12.9967 200.251 13.3101C199.343 13.6235 198.528 14.0466 197.807 14.5794C197.086 15.1122 196.459 15.739 195.926 16.4599C195.425 17.1807 195.017 17.9642 194.704 18.8104C194.203 20.2208 193.56 21.2394 192.777 21.8662C192.024 22.493 190.99 22.8064 189.674 22.8064C189.36 22.8064 189.016 22.7907 188.64 22.7594C188.295 22.7281 187.934 22.681 187.558 22.6184L179.848 21.255C180.35 17.8389 181.306 14.8615 182.716 12.3229C184.158 9.78425 185.929 7.66874 188.028 5.97633C190.16 4.28392 192.589 3.03028 195.315 2.21541C198.042 1.36921 200.972 0.946106 204.106 0.946106Z" fill="#FFD800"/>
    <path d="M133.112 59.6634H146.275V25.11C146.275 23.4176 146.322 21.6468 146.416 19.7977L138.659 26.2383C138.158 26.6457 137.657 26.9434 137.155 27.1315C136.654 27.2882 136.168 27.3665 135.698 27.3665C134.883 27.3665 134.146 27.1942 133.488 26.8494C132.861 26.4733 132.391 26.0816 132.078 25.6741L127.471 19.5627L148.814 1.65131H160.849V59.6634H172.132V70.1939H133.112V59.6634Z" fill="#FFD800"/>
    <path d="M105.649 26.8024C108.125 26.8024 110.57 27.2098 112.983 28.0247C115.396 28.8396 117.559 30.0932 119.471 31.7856C121.382 33.478 122.918 35.6249 124.078 38.2262C125.269 40.7961 125.864 43.8362 125.864 47.3464C125.864 50.5432 125.269 53.5832 124.078 56.4666C122.887 59.3186 121.194 61.8259 119.001 63.9884C116.838 66.1196 114.221 67.812 111.15 69.0657C108.078 70.3193 104.678 70.9461 100.948 70.9461C97.1246 70.9461 93.6927 70.3506 90.6527 69.1597C87.6126 67.9374 85.027 66.245 82.8958 64.0824C80.7959 61.9199 79.1819 59.3343 78.0536 56.3256C76.9567 53.3168 76.4082 50.0104 76.4082 46.4062C76.4082 42.99 77.0664 39.5895 78.3827 36.2047C79.699 32.8199 81.6421 29.3723 84.2121 25.8622L99.6318 5.03611C100.321 4.09589 101.356 3.31236 102.735 2.68554C104.114 2.02738 105.681 1.6983 107.436 1.6983H120.411L100.102 25.9562C99.7886 26.3009 99.4751 26.6614 99.1617 27.0375C98.8797 27.3822 98.5976 27.727 98.3155 28.0717C99.4125 27.6643 100.556 27.3509 101.747 27.1315C102.97 26.9121 104.27 26.8024 105.649 26.8024ZM90.4176 48.3806C90.4176 50.073 90.6213 51.5931 91.0288 52.9407C91.4362 54.2884 92.063 55.448 92.9092 56.4196C93.7554 57.3912 94.821 58.1433 96.106 58.6761C97.391 59.1776 98.911 59.4283 100.666 59.4283C102.17 59.4283 103.565 59.1462 104.85 58.5821C106.166 58.018 107.295 57.2501 108.235 56.2786C109.175 55.2756 109.912 54.116 110.444 52.7997C111.009 51.452 111.291 49.9947 111.291 48.4276C111.291 46.6725 111.024 45.1055 110.491 43.7265C109.99 42.3475 109.269 41.1879 108.329 40.2477C107.389 39.3074 106.245 38.5866 104.897 38.0851C103.581 37.5837 102.108 37.3329 100.478 37.3329C99.005 37.3329 97.6574 37.5993 96.4351 38.1321C95.2128 38.6336 94.1472 39.3701 93.2383 40.3417C92.3607 41.3133 91.6712 42.4729 91.1698 43.8205C90.6683 45.1682 90.4176 46.6882 90.4176 48.3806Z" fill="#FFD800"/>
    <path d="M71.3511 35.9226C71.3511 40.8745 70.4892 45.4816 68.7654 49.744C67.073 54.0063 64.6754 57.7202 61.5727 60.8857C58.4699 64.0198 54.7247 66.48 50.337 68.2665C45.9806 70.0529 41.1384 70.9461 35.8104 70.9461C30.4825 70.9461 25.6246 70.0529 21.2369 68.2665C16.8492 66.48 13.0883 64.0198 9.95416 60.8857C6.8514 57.7202 4.43815 54.0063 2.7144 49.744C1.02199 45.4816 0.175781 40.8745 0.175781 35.9226C0.175781 30.9707 1.02199 26.3636 2.7144 22.1012C4.43815 17.8389 6.8514 14.1406 9.95416 11.0065C13.0883 7.87245 16.8492 5.41219 21.2369 3.62576C25.6246 1.83932 30.4825 0.946106 35.8104 0.946106C41.1384 0.946106 45.9806 1.85499 50.337 3.67277C54.7247 5.4592 58.4699 7.91947 61.5727 11.0536C64.6754 14.1877 67.073 17.8859 68.7654 22.1483C70.4892 26.4106 71.3511 31.0021 71.3511 35.9226ZM55.0851 35.9226C55.0851 32.5378 54.6463 29.4977 53.7688 26.8024C52.8912 24.0757 51.6219 21.7722 49.9609 19.8917C48.3311 18.0113 46.3253 16.5696 43.9434 15.5667C41.5615 14.5637 38.8505 14.0623 35.8104 14.0623C32.739 14.0623 29.9967 14.5637 27.5834 15.5667C25.2015 16.5696 23.18 18.0113 21.519 19.8917C19.8892 21.7722 18.6356 24.0757 17.7581 26.8024C16.8805 29.4977 16.4417 32.5378 16.4417 35.9226C16.4417 39.3388 16.8805 42.4102 17.7581 45.1368C18.6356 47.8322 19.8892 50.12 21.519 52.0005C23.18 53.881 25.2015 55.3226 27.5834 56.3255C29.9967 57.2971 32.739 57.7829 35.8104 57.7829C38.8505 57.7829 41.5615 57.2971 43.9434 56.3255C46.3253 55.3226 48.3311 53.881 49.9609 52.0005C51.6219 50.12 52.8912 47.8322 53.7688 45.1368C54.6463 42.4102 55.0851 39.3388 55.0851 35.9226Z" fill="#FFD800"/>
  </g>
  <defs>
    <clipPath id="clip0_3377_194">
      <rect width="226.872" height="70" fill="white" transform="translate(0.175781 0.946106)"/>
    </clipPath>
  </defs>
</svg>
