<svg width="71" height="71" viewBox="0 0 71 71" fill="none" xmlns="http://www.w3.org/2000/svg">
  <path fill-rule="evenodd" clip-rule="evenodd" d="M26.1272 13.3531C16.9205 13.3531 9.45703 20.8166 9.45703 30.0233C9.45703 39.4466 19.897 54.6882 24.2527 60.0751C25.2196 61.2706 27.0348 61.2706 28.0016 60.0751C30.8207 56.5886 36.1514 48.978 39.5879 41.484L41.4066 37.0141C42.2593 34.512 42.7973 32.1213 42.7973 30.0233C42.7973 27.5342 42.2357 25.1815 41.2577 23.0603L38.5414 18.9207C35.489 15.5102 31.0643 13.3531 26.1272 13.3531ZM26.1272 24.0696C29.4159 24.0696 32.0808 26.7345 32.0808 30.0233C32.0808 33.312 29.4159 35.9769 26.1272 35.9769C22.8384 35.9769 20.1735 33.312 20.1735 30.0233C20.1735 26.7345 22.8384 24.0696 26.1272 24.0696Z" fill="#FFFF00"/>
  <path d="M54.5231 15.8416C53.9135 15.8416 53.3038 16.0783 52.8394 16.5439C51.9106 17.475 51.9106 18.9826 52.8394 19.9114C53.7681 20.8402 55.2757 20.8402 56.2069 19.9114C57.1356 18.9803 57.1356 17.4727 56.2069 16.5439C55.7425 16.0783 55.1328 15.8416 54.5231 15.8416Z" fill="#00FFFF"/>
  <path d="M39.5879 41.484C40.6117 41.7707 41.6876 41.9305 42.7973 41.9305C49.3451 41.9305 54.7045 36.5711 54.7045 30.0233C54.7045 23.4754 49.3451 18.116 42.7973 18.116C41.3007 18.116 39.8667 18.4124 38.5414 18.9207L41.2577 23.0603C41.7536 22.9516 42.2641 22.8789 42.7973 22.8789C46.7707 22.8789 49.9416 26.0498 49.9416 30.0233C49.9416 33.9967 46.7707 37.1676 42.7973 37.1676C42.317 37.1676 41.8569 37.1028 41.4066 37.0141L39.5879 41.484Z" fill="#00FFFF"/>
  <path d="M42.7973 10.9717C41.4827 10.9717 40.4158 12.0386 40.4158 13.3531C40.4158 14.6677 41.4827 15.7346 42.7973 15.7346C44.1118 15.7346 45.1787 14.6677 45.1787 13.3531C45.1787 12.0386 44.1118 10.9717 42.7973 10.9717Z" fill="#00FFFF"/>
  <path d="M59.4674 27.6418C58.1529 27.6418 57.086 28.7087 57.086 30.0233C57.086 31.3378 58.1529 32.4047 59.4674 32.4047C60.782 32.4047 61.8489 31.3378 61.8489 30.0233C61.8489 28.7087 60.782 27.6418 59.4674 27.6418Z" fill="#00FFFF"/>
  <path d="M54.5696 39.4095C53.96 39.4095 53.3503 39.6382 52.8859 40.1025C51.9571 41.0313 51.9571 42.5413 52.8859 43.4701C53.817 44.4012 55.3246 44.4012 56.2534 43.4701C57.1822 42.5413 57.1822 41.0313 56.2534 40.1025C55.789 39.6382 55.1793 39.4095 54.5696 39.4095Z" fill="#00FFFF"/>
  <path d="M42.7973 44.3119C41.4827 44.3119 40.4158 45.3788 40.4158 46.6934C40.4158 48.0079 41.4827 49.0748 42.7973 49.0748C44.1118 49.0748 45.1787 48.0079 45.1787 46.6934C45.1787 45.3788 44.1118 44.3119 42.7973 44.3119Z" fill="#00FFFF"/>
</svg>
