<svg width="270" height="97" viewBox="0 0 270 97" fill="none" xmlns="http://www.w3.org/2000/svg">
  <path fill-rule="evenodd" clip-rule="evenodd" d="M30.6621 7.07854C13.7279 7.07854 0 20.8064 0 37.7406C0 55.0735 19.2028 83.108 27.2143 93.0163C28.9927 95.2152 32.3315 95.2152 34.1099 93.0163C39.2951 86.6035 49.1001 72.6049 55.4211 58.8208L58.7662 50.5992C60.3346 45.997 61.3242 41.5997 61.3242 37.7406C61.3242 33.1625 60.2912 28.835 58.4924 24.9334L53.4961 17.3192C47.8817 11.0462 39.7433 7.07854 30.6621 7.07854ZM30.6621 26.7899C36.7113 26.7899 41.6129 31.6914 41.6129 37.7406C41.6129 43.7898 36.7113 48.6914 30.6621 48.6914C24.6129 48.6914 19.7114 43.7898 19.7114 37.7406C19.7114 31.6914 24.6129 26.7899 30.6621 26.7899Z" fill="#FFFF00"/>
  <path d="M82.8921 11.6556C81.7707 11.6556 80.6492 12.0911 79.795 12.9475C78.0867 14.6602 78.0867 17.4332 79.795 19.1415C81.5034 20.8498 84.2764 20.8498 85.9891 19.1415C87.6974 17.4288 87.6974 14.6558 85.9891 12.9475C85.1349 12.0911 84.0134 11.6556 82.8921 11.6556Z" fill="#00FFFF"/>
  <path d="M55.4211 58.8208C57.3041 59.3483 59.2831 59.6421 61.3242 59.6421C73.3679 59.6421 83.2257 49.7843 83.2257 37.7406C83.2257 25.6969 73.3679 15.8391 61.3242 15.8391C58.5715 15.8391 55.9339 16.3843 53.4961 17.3192L58.4924 24.9334C59.4044 24.7334 60.3436 24.5997 61.3242 24.5997C68.6327 24.5997 74.4651 30.4322 74.4651 37.7406C74.4651 45.0491 68.6327 50.8815 61.3242 50.8815C60.4407 50.8815 59.5945 50.7624 58.7662 50.5992L55.4211 58.8208Z" fill="#00FFFF"/>
  <path d="M61.3242 2.69824C58.9063 2.69824 56.9439 4.66062 56.9439 7.07854C56.9439 9.49647 58.9063 11.4588 61.3242 11.4588C63.7421 11.4588 65.7045 9.49647 65.7045 7.07854C65.7045 4.66062 63.7421 2.69824 61.3242 2.69824Z" fill="#00FFFF"/>
  <path d="M91.9863 33.3603C89.5684 33.3603 87.606 35.3227 87.606 37.7406C87.606 40.1586 89.5684 42.1209 91.9863 42.1209C94.4042 42.1209 96.3666 40.1586 96.3666 37.7406C96.3666 35.3227 94.4042 33.3603 91.9863 33.3603Z" fill="#00FFFF"/>
  <path d="M82.9776 55.0052C81.8562 55.0052 80.7348 55.4258 79.8806 56.2799C78.1723 57.9882 78.1723 60.7656 79.8806 62.4739C81.5933 64.1866 84.3663 64.1866 86.0746 62.4739C87.7829 60.7656 87.7829 57.9882 86.0746 56.2799C85.2205 55.4258 84.099 55.0052 82.9776 55.0052Z" fill="#00FFFF"/>
  <path d="M61.3242 64.0224C58.9063 64.0224 56.9439 65.9848 56.9439 68.4027C56.9439 70.8207 58.9063 72.783 61.3242 72.783C63.7421 72.783 65.7045 70.8207 65.7045 68.4027C65.7045 65.9848 63.7421 64.0224 61.3242 64.0224Z" fill="#00FFFF"/>
  <path d="M269.675 70.3332H258.931V38.1025H242.816V32.7307H258.931V0.5H269.675V70.3332ZM205.214 59.5897H199.842V5.87179H210.585V32.7307H226.701V5.87179H237.444V59.5897H232.073V64.9614H205.214V59.5897ZM226.701 38.1025H210.585V59.5897H226.701V38.1025Z" fill="#00FFFF"/>
  <path d="M140.752 70.3332H130.008V43.4743H113.893V38.1025H162.239V0.5H172.982V70.3332H162.239V54.2179H151.495V48.8461H162.239V43.4743H140.752V70.3332ZM189.098 70.3332H178.354V0.5H189.098V70.3332ZM113.893 11.2436H124.636V5.87179H146.123V11.2436H156.867V27.3589H146.123V32.7307H124.636V27.3589H113.893V11.2436ZM130.008 16.6154H124.636V21.9871H130.008V27.3589H140.752V21.9871H146.123V16.6154H140.752V11.2436H130.008V16.6154Z" fill="#FFFF00"/>
  <path d="M174.988 72.6123H185.406V76.085H174.988V72.6123ZM174.988 83.0303H185.406V76.085H188.879V96.921H174.988V93.4483H185.406V86.503H174.988V83.0303ZM171.516 86.503H174.988V93.4483H171.516V86.503Z" fill="#FFFF00"/>
  <path d="M156.512 72.6123V76.085H146.094V72.6123H156.512ZM156.512 76.085H159.984V86.503H146.094V93.4483H142.621V76.085H146.094V83.0303H156.512V76.085ZM156.512 96.921H146.094V93.4483H156.512V96.921Z" fill="#FFFF00"/>
  <path d="M113.73 72.6123H117.203V89.9757H113.73V72.6123ZM127.621 72.6123H131.094V89.9757H127.621V72.6123ZM120.676 76.085H124.148V89.9757H120.676V76.085ZM117.203 96.921V89.9757H120.676V96.921H117.203ZM124.148 96.921V89.9757H127.621V96.921H124.148Z" fill="#FFFF00"/>
  <path d="M256.109 96.921H252.637V72.6123H256.109V76.085H259.582V79.5576H256.109V96.921ZM270 72.6123V76.085H259.582V72.6123H270Z" fill="#00FFFF"/>
  <path d="M226.521 72.6123H229.994V93.4483H226.521V72.6123ZM243.885 96.921H229.994V93.4483H240.412V72.6123H243.885V96.921Z" fill="#00FFFF"/>
  <path d="M203.881 93.4484H214.299V96.921H200.408V65.667H203.881V72.6123H214.299V76.085H203.881V93.4484ZM217.772 93.4484H214.299V76.085H217.772V93.4484Z" fill="#00FFFF"/>
</svg>
