<svg width="181" height="112" viewBox="0 0 181 112" fill="none" xmlns="http://www.w3.org/2000/svg">
  <g clip-path="url(#weabur)">
    <path d="M179.768 80.5213H167.393V43.3961H148.83V37.2086H167.393V0.0834961H179.768V80.5213ZM105.518 68.1462H99.3301V6.27102H111.705V37.2086H130.268V6.27102H142.643V68.1462H136.455V74.3338H105.518V68.1462ZM130.268 43.3961H111.705V68.1462H130.268V43.3961Z" fill="#00FFFF"/>
    <path d="M31.2677 80.5213H18.8926V49.5837H0.330078V43.3961H56.0178V0.0834961H68.3928V80.5213H56.0178V61.9587H43.6427V55.7712H56.0178V49.5837H31.2677V80.5213ZM86.9554 80.5213H74.5803V0.0834961H86.9554V80.5213ZM0.330078 12.4585H12.7051V6.27102H37.4552V12.4585H49.8303V31.0211H37.4552V37.2086H12.7051V31.0211H0.330078V12.4585ZM18.8926 18.6461H12.7051V24.8336H18.8926V31.0211H31.2677V24.8336H37.4552V18.6461H31.2677V12.4585H18.8926V18.6461Z" fill="#FFFF00"/>
    <path d="M70.7031 83.1465H82.7032V87.1465H70.7031V83.1465ZM70.7031 95.1465H82.7032V87.1465H86.7032V111.147H70.7031V107.147H82.7032V99.1465H70.7031V95.1465ZM66.7031 99.1465H70.7031V107.147H66.7031V99.1465Z" fill="#FFFF00"/>
    <path d="M49.42 83.1465V87.1465H37.4199V83.1465H49.42ZM49.42 87.1465H53.42V99.1465H37.4199V107.147H33.4199V87.1465H37.4199V95.1465H49.42V87.1465ZM49.42 111.147H37.4199V107.147H49.42V111.147Z" fill="#FFFF00"/>
    <path d="M0.142578 83.1465H4.14259V103.147H0.142578V83.1465ZM16.1426 83.1465H20.1426V103.147H16.1426V83.1465ZM8.14261 87.1465H12.1426V103.147H8.14261V87.1465ZM4.14259 111.147V103.147H8.14261V111.147H4.14259ZM12.1426 111.147V103.147H16.1426V111.147H12.1426Z" fill="#FFFF00"/>
    <path d="M164.143 111.147H160.143V83.1465H164.143V87.1465H168.143V91.1465H164.143V111.147ZM180.143 83.1465V87.1465H168.143V83.1465H180.143Z" fill="#00FFFF"/>
    <path d="M130.062 83.1465H134.063V107.147H130.062V83.1465ZM150.063 111.147H134.063V107.147H146.063V83.1465H150.063V111.147Z" fill="#00FFFF"/>
    <path d="M103.982 107.147H115.982V111.147H99.9824V75.1465H103.982V83.1465H115.982V87.1465H103.982V107.147ZM119.982 107.147H115.982V87.1465H119.982V107.147Z" fill="#00FFFF"/>
  </g>
  <defs>
    <clipPath id="weabur">
      <rect width="180" height="111.063" fill="white" transform="translate(0.142578 0.0834961)"/>
    </clipPath>
  </defs>
</svg>
