<svg width="71" height="71" viewBox="0 0 71 71" fill="none" xmlns="http://www.w3.org/2000/svg">
  <path d="M19.7855 36.3778L19.304 35.1399L18.6851 36.3778L13.2518 43.5305C12.8391 42.6135 12.6328 41.4901 12.6328 40.1605C12.6328 38.8079 12.8506 37.4095 13.2862 35.9652C13.7218 34.5209 14.398 33.1683 15.3151 31.9074L31.3397 10.2432H38.7675L23.2242 30.4631L40.9337 60.131L28.4655 51.6447L26.4567 48.3104L19.7855 36.3778Z" fill="#DA3832"/>
  <path d="M43.0417 60.2433C39.9697 60.2433 37.1728 59.543 34.6511 58.1423C32.1522 56.7417 30.1577 54.686 28.6676 51.9751C27.2004 49.2642 26.4668 45.9433 26.4668 42.0126C26.4668 38.9176 26.9368 36.2293 27.8767 33.9477C28.8395 31.666 30.1119 29.7797 31.6937 28.2887C33.2985 26.7977 35.0867 25.6908 37.0582 24.9679C39.0298 24.2224 41.0243 23.8496 43.0417 23.8496C46.5492 23.8496 49.541 24.6629 52.0169 26.2894C54.4928 27.8934 56.3727 30.0734 57.6565 32.8294C58.9632 35.5629 59.6166 38.624 59.6166 42.0126C59.6166 44.9494 59.1695 47.5586 58.2754 49.8402C57.4043 52.0993 56.2007 54.0082 54.6647 55.567C53.1287 57.1032 51.3635 58.2666 49.369 59.0573C47.3745 59.8479 45.2654 60.2433 43.0417 60.2433ZM43.0417 55.3637C45.2654 55.3637 47.0994 54.7537 48.5437 53.5338C49.988 52.3139 51.054 50.6987 51.7418 48.6881C52.4525 46.655 52.8078 44.4298 52.8078 42.0126C52.8078 38.9854 52.3493 36.4891 51.4323 34.5237C50.5382 32.5583 49.3461 31.1012 47.856 30.1524C46.3888 29.2036 44.784 28.7292 43.0417 28.7292C41.2994 28.7292 39.6831 29.2036 38.193 30.1524C36.7258 31.1012 35.5337 32.5583 34.6167 34.5237C33.7226 36.4891 33.2756 38.9854 33.2756 42.0126C33.2756 45.9433 34.1238 49.1512 35.8203 51.6362C37.5167 54.1212 39.9239 55.3637 43.0417 55.3637Z" fill="#DA3832"/>
</svg>
