<svg width="270" height="65" viewBox="0 0 270 65" fill="none" xmlns="http://www.w3.org/2000/svg">
  <g clip-path="url(#komponent)">
    <path d="M16.0357 25.3196L15.5738 24.1318L14.9799 25.3196L9.76662 32.1826C9.37068 31.3028 9.1727 30.2249 9.1727 28.9491C9.1727 27.6513 9.38167 26.3095 9.79961 24.9237C10.2176 23.5379 10.8665 22.2401 11.7463 21.0302L27.1222 0.243164H34.2492L19.3353 19.6444L36.3276 48.111L24.3643 39.9683L22.4368 36.769L16.0357 25.3196Z" fill="#DA3832"/>
    <path d="M0 48.2184V0.243164H6.26911V48.2184H0Z" fill="#FFFFFF"/>
    <path d="M38.351 48.2186C35.4034 48.2186 32.7198 47.5467 30.3002 46.2028C27.9025 44.8589 25.9888 42.8863 24.559 40.2852C23.1512 37.6841 22.4473 34.4977 22.4473 30.7261C22.4473 27.7565 22.8982 25.177 23.8001 22.9878C24.7239 20.7985 25.9448 18.9885 27.4626 17.5579C29.0023 16.1273 30.7181 15.0652 32.6098 14.3715C34.5016 13.6562 36.4153 13.2986 38.351 13.2986C41.7165 13.2986 44.5871 14.0789 46.9628 15.6396C49.3385 17.1786 51.1422 19.2703 52.374 21.9148C53.6279 24.5376 54.2548 27.4747 54.2548 30.7261C54.2548 33.544 53.8258 36.0476 52.9679 38.2368C52.1321 40.4044 50.9772 42.2361 49.5034 43.7317C48.0296 45.2057 46.3359 46.322 44.4222 47.0807C42.5084 47.8393 40.4847 48.2186 38.351 48.2186ZM38.351 43.5366C40.4847 43.5366 42.2445 42.9514 43.6303 41.7809C45.0161 40.6104 46.0389 39.0605 46.6988 37.1314C47.3807 35.1805 47.7217 33.0454 47.7217 30.7261C47.7217 27.8215 47.2818 25.4263 46.4019 23.5405C45.544 21.6547 44.4002 20.2566 42.9704 19.3462C41.5626 18.4358 40.0228 17.9806 38.351 17.9806C36.6792 17.9806 35.1285 18.4358 33.6987 19.3462C32.2909 20.2566 31.147 21.6547 30.2672 23.5405C29.4093 25.4263 28.9803 27.8215 28.9803 30.7261C28.9803 34.4977 29.7942 37.5757 31.422 39.9601C33.0498 42.3444 35.3594 43.5366 38.351 43.5366Z" fill="#DA3832"/>
    <path d="M263.137 48.2185C259.552 48.2185 256.791 47.0416 254.855 44.688C252.942 42.3343 251.985 39.0678 251.985 34.8884V17.9288V16.1304V4.66463L257.792 2.81689V35.6143C257.792 37.8799 258.276 39.7827 259.244 41.3225C260.234 42.8402 261.531 43.5991 263.137 43.5991C263.995 43.5991 264.82 43.5221 265.612 43.3682C266.426 43.2142 267.405 42.9612 268.548 42.6093L270 46.7667C268.328 47.3166 267.031 47.6906 266.107 47.8885C265.183 48.1085 264.193 48.2185 263.137 48.2185ZM265.711 17.9288C264.677 17.9288 263.797 17.7308 263.071 17.3348C262.367 16.9169 261.773 16.367 261.289 15.6851C260.828 14.9812 260.454 14.2113 260.168 13.3754H269.472V17.9288H265.711Z" fill="#FFFFFF"/>
    <path d="M251.996 23.406C251.996 21.8882 251.091 20.6454 250.409 19.6775C249.727 18.6877 248.704 18.1927 247.34 18.1927C246.812 18.1927 246.35 18.2477 245.954 18.3577C245.558 18.4677 245.075 18.5887 244.503 18.7207C243.227 19.0066 242.039 19.0176 240.939 18.7537C239.839 18.4897 238.827 17.8848 237.904 16.9389C240.257 15.5531 242.215 14.6292 243.777 14.1673C245.361 13.6834 246.746 13.4414 247.934 13.4414C249.694 13.4414 251.322 13.7604 252.817 14.3983C254.313 15.0362 255.512 16.125 256.414 17.6648C257.316 19.2046 257.767 20.6784 257.767 23.406H251.996ZM229.787 48.2185V22.4161C229.787 21.1843 229.71 19.8755 229.556 18.4897C229.424 17.1039 229.171 15.6411 228.797 14.1013H233.548C234.604 15.2891 235.297 16.466 235.627 17.6318C235.957 18.7976 236.122 20.0405 236.122 21.3603V48.2185H229.787Z" fill="#FFFFFF"/>
    <path d="M215.743 48.8784C213.324 48.8784 211.124 48.4275 209.144 47.5256C207.186 46.6237 205.504 45.3699 204.096 43.7641C202.71 42.1364 201.643 40.2336 200.895 38.0559C200.147 35.8562 199.773 33.4586 199.773 30.8629C199.773 27.2994 200.422 24.2199 201.72 21.6242C203.04 19.0066 204.91 16.9939 207.329 15.5861C209.749 14.1563 212.62 13.4414 215.941 13.4414C218.207 13.4414 220.209 13.9473 221.946 14.9592C223.684 15.9491 225.081 17.3129 226.137 19.0506C227.215 20.7664 227.874 22.7241 228.116 24.9238C228.38 27.1015 228.149 29.3672 227.424 31.7208H208.286C208.748 30.467 209.397 29.4222 210.233 28.5863C211.091 27.7284 212.312 27.2995 213.895 27.2995H222.276C222.474 25.6057 222.276 24.0769 221.682 22.7131C221.11 21.3273 220.253 20.2274 219.109 19.4136C217.987 18.5997 216.711 18.1927 215.281 18.1927C213.434 18.1927 211.806 18.6877 210.398 19.6775C208.99 20.6674 207.89 22.1192 207.098 24.0329C206.307 25.9246 205.911 28.2233 205.911 30.9289C205.911 33.5466 206.362 35.8452 207.263 37.825C208.187 39.8047 209.441 41.3555 211.025 42.4773C212.609 43.5772 214.401 44.1271 216.403 44.1271C217.921 44.1271 219.362 43.9731 220.725 43.6651C222.089 43.3352 223.706 42.6973 225.576 41.7514L227.226 46.1068C225.114 47.1846 223.068 47.9105 221.088 48.2845C219.109 48.6804 217.327 48.8784 215.743 48.8784Z" fill="#FFFFFF"/>
    <path d="M190.689 48.2185V23.406C190.689 21.8882 190.349 20.6454 189.667 19.6775C188.985 18.6877 187.962 18.1927 186.598 18.1927C186.07 18.1927 185.608 18.2477 185.212 18.3577C184.816 18.4677 184.332 18.5887 183.76 18.7207C182.485 19.0066 181.297 19.0176 180.197 18.7537C179.097 18.4897 178.085 17.8848 177.161 16.9389C179.515 15.5531 181.473 14.6292 183.035 14.1673C184.618 13.6834 186.004 13.4414 187.192 13.4414C188.952 13.4414 190.58 13.7604 192.075 14.3983C193.571 15.0362 194.77 16.125 195.672 17.6648C196.574 19.2046 197.025 21.3383 197.025 24.0659V48.2185H190.689ZM169.045 48.2185V22.4161C169.045 21.1843 168.968 19.8755 168.814 18.4897C168.682 17.1039 168.429 15.6411 168.055 14.1013H172.806C173.862 15.2891 174.555 16.466 174.885 17.6318C175.215 18.7976 175.38 20.0405 175.38 21.3603V48.2185H169.045Z" fill="#FFFFFF"/>
    <path d="M149.4 48.8784C146.452 48.8784 143.769 48.1965 141.349 46.8327C138.951 45.4689 137.038 43.4672 135.608 40.8275C134.2 38.1879 133.496 34.9544 133.496 31.1269C133.496 28.1133 133.947 25.4957 134.849 23.274C135.773 21.0523 136.994 19.2156 138.511 17.7638C140.051 16.312 141.767 15.2342 143.659 14.5303C145.55 13.8044 147.464 13.4414 149.4 13.4414C152.765 13.4414 155.636 14.2333 158.012 15.8171C160.387 17.3789 162.191 19.5015 163.423 22.1852C164.677 24.8468 165.304 27.8274 165.304 31.1269C165.304 33.9865 164.875 36.5271 164.017 38.7488C163.181 40.9485 162.026 42.8073 160.552 44.325C159.078 45.8208 157.385 46.9537 155.471 47.7236C153.557 48.4935 151.534 48.8784 149.4 48.8784ZM149.4 44.1271C151.534 44.1271 153.293 43.5332 154.679 42.3453C156.065 41.1575 157.088 39.5847 157.748 37.627C158.43 35.6473 158.771 33.4806 158.771 31.1269C158.771 28.1793 158.331 25.7487 157.451 23.8349C156.593 21.9212 155.449 20.5024 154.019 19.5785C152.611 18.6547 151.072 18.1927 149.4 18.1927C147.728 18.1927 146.177 18.6547 144.748 19.5785C143.34 20.5024 142.196 21.9212 141.316 23.8349C140.458 25.7487 140.029 28.1793 140.029 31.1269C140.029 34.9544 140.843 38.0779 142.471 40.4976C144.099 42.9172 146.408 44.1271 149.4 44.1271Z" fill="#FFFFFF"/>
    <path d="M100.428 64.1222V25.3857C100.428 22.7461 100.412 20.4914 100.192 18.6217C99.9725 16.7519 99.7015 14.8353 99.4375 13.6914C99.9285 13.6914 104.911 15.0472 105.241 15.5531C105.593 16.059 105.912 16.7629 106.198 17.6648L106.33 18.7207L106.858 17.5328C108.243 16.015 109.816 14.9592 111.576 14.3653C113.336 13.7494 114.908 13.4414 116.294 13.4414C119.374 13.4414 121.991 14.2333 124.147 15.8171C126.303 17.3789 127.942 19.5125 129.063 22.2182C130.185 24.9238 130.746 27.9594 130.746 31.3249C130.746 33.9645 130.328 36.3512 129.492 38.4849C128.656 40.5966 127.513 42.4113 126.061 43.9291C124.609 45.4469 122.97 46.6127 121.145 47.4266C119.319 48.2185 117.416 48.6144 115.436 48.6144C114.446 48.6144 113.391 48.5265 112.269 48.3505C111.169 48.1965 110.025 47.9105 108.837 47.4926C109.475 46.3928 110.289 45.5019 111.279 44.82C112.269 44.1381 113.523 43.8191 115.04 43.8631C116.558 43.9071 118.021 43.5002 119.429 42.6423C120.837 41.7844 121.98 40.4316 122.86 38.5839C123.762 36.7141 124.213 34.2945 124.213 31.3249C124.213 28.7732 123.872 26.5076 123.19 24.5278C122.508 22.5481 121.496 20.9973 120.155 19.8755C118.835 18.7537 117.196 18.1927 115.238 18.1927C113.765 18.1927 112.291 18.5887 110.817 19.3806C109.365 20.1505 108.226 21.3603 106.862 23.0101V64.1222H100.428Z" fill="#FFFFFF"/>
    <path d="M100.428 48.2185V23.406C100.428 21.8882 100.087 20.6454 99.4049 19.6775C98.745 18.6877 97.7221 18.1927 96.3363 18.1927C95.8084 18.1927 95.3134 18.2477 94.8515 18.3577C94.4116 18.4677 93.8946 18.5887 93.3007 18.7207C92.0249 19.0066 90.8371 19.0176 89.7372 18.7537C88.6374 18.4897 87.6255 17.8848 86.7017 16.9389C89.0553 15.5531 91.057 14.6292 92.7068 14.1673C94.3786 13.6834 95.8084 13.4414 96.9962 13.4414C98.734 13.4414 100.34 13.7604 101.814 14.3983C103.309 15.0362 104.508 16.125 105.41 17.6648C106.312 19.2046 106.763 21.3383 106.763 24.0659V48.2185H100.428ZM57.9957 48.2185V22.4161C57.9957 21.1843 57.9187 19.8755 57.7648 18.4897C57.6328 17.1039 57.3798 15.6411 57.0059 14.1013H61.7572C62.813 15.2891 63.5059 16.466 63.8359 17.6318C64.1658 18.7976 64.3308 20.0405 64.3308 21.3603V48.2185H57.9957ZM79.2447 48.2185V23.406C79.2447 21.8882 78.9258 20.6454 78.2878 19.6775C77.6719 18.6877 76.7151 18.1927 75.4173 18.1927C74.8893 18.1927 74.4274 18.2367 74.0315 18.3247C73.6355 18.4127 73.1516 18.5227 72.5797 18.6547C71.3038 18.9406 70.138 18.9516 69.0822 18.6877C68.0263 18.4237 67.0364 17.8188 66.1126 16.8729C68.4662 15.4871 70.424 14.5742 71.9857 14.1343C73.5695 13.6724 74.9553 13.4414 76.1432 13.4414C77.8589 13.4414 79.4317 13.7604 80.8615 14.3983C82.2913 15.0362 83.4351 16.125 84.293 17.6648C85.1509 19.2046 85.5798 21.3383 85.5798 24.0659V48.2185H79.2447Z" fill="#FFFFFF"/>
  </g>
  <defs>
    <clipPath id="komponent">
      <rect width="270" height="63.8791" fill="white" transform="translate(0 0.243164)"/>
    </clipPath>
  </defs>
</svg>
