<svg width="70" height="70" viewBox="0 0 70 70" fill="none" xmlns="http://www.w3.org/2000/svg">
  <path d="M27.7543 12.2093C24.1123 12.8479 20.8195 14.9633 18.774 17.9967C18.3549 18.6153 8.1273 36.3465 7.69824 37.1846C7.23925 38.1126 6.7104 39.7091 6.52082 40.7967C6.28134 42.1238 6.3013 44.309 6.57071 45.6661C7.13946 48.5697 8.5364 51.1341 10.6917 53.1896C12.6873 55.0854 15.0721 56.2928 17.7961 56.7518C18.8638 56.9414 36.0462 57.0511 45.0365 56.9314L51.5223 56.8416L52.6697 56.5423C55.3239 55.8338 57.3096 54.6763 59.1655 52.7506C59.6345 52.2716 60.2531 51.5332 60.5425 51.1241C61.6501 49.5576 62.5681 47.3324 62.8973 45.4366C63.1169 44.2093 63.1169 41.9941 62.8973 40.7967C62.6978 39.6892 62.1789 38.1026 61.7 37.1647C61.2709 36.3165 51.0732 18.6353 50.6442 17.9967C50.0455 17.1086 48.9778 15.9212 48.2095 15.2826C46.7128 14.0353 45.4256 13.3169 43.5996 12.7083C41.6239 12.0497 41.0951 12.0098 34.5494 12.0198C29.4606 12.0297 28.6523 12.0497 27.7543 12.2093ZM32.3143 13.5664C35.4774 14.1152 38.381 15.9312 40.217 18.5056C40.676 19.1442 50.7839 36.576 51.3427 37.7035C52.1808 39.3699 52.5999 41.146 52.5999 43.0917C52.5999 45.1672 52.2407 46.7138 51.3227 48.5897C49.367 52.6208 45.3358 55.3349 41.0452 55.5245L40.4465 55.5544L17.5068 55.3149C17.4868 55.3149 17.0977 55.2052 16.6387 55.0755C12.1086 53.7583 8.6761 49.8369 7.85789 45.0474C7.68826 44.0596 7.7182 41.8444 7.91776 40.8965C8.13728 39.8488 8.5863 38.5117 8.97544 37.7334C9.55418 36.586 19.6521 19.1541 20.121 18.5056C21.6976 16.2804 24.2221 14.5143 26.7665 13.8458C28.5226 13.3868 30.628 13.277 32.3143 13.5664ZM41.3545 13.5564C42.522 13.7659 44.1384 14.3147 45.1063 14.8236C46.6928 15.6718 48.2794 17.0587 49.2971 18.5056C49.6663 19.0344 54.2263 26.8573 59.415 35.8975C60.5824 37.923 60.9716 38.7812 61.3108 40.1282C62.598 45.1871 60.5026 50.5853 56.1322 53.4889C54.2862 54.7262 52.4103 55.3449 50.0854 55.5145C48.7982 55.6043 46.3835 55.6342 46.3835 55.5644C46.3835 55.5444 46.6729 55.3648 47.0321 55.1653C48.6386 54.2672 50.5644 52.4811 51.6021 50.9046C53.2086 48.4699 53.9869 45.9255 53.9869 43.0917C53.9869 40.9863 53.5079 38.9109 52.6199 37.1447C51.9813 35.8975 42.2127 18.9945 41.5142 17.9468C40.4166 16.3004 38.6205 14.654 36.8644 13.6861L36.3555 13.4067H38.411C39.8279 13.4067 40.7459 13.4566 41.3545 13.5564Z" fill="#332941"/>
  <path d="M32.3143 13.5664C35.4774 14.1152 38.381 15.9312 40.217 18.5056C40.676 19.1442 50.7839 36.576 51.3427 37.7035C52.1808 39.3699 52.5999 41.146 52.5999 43.0917C52.5999 45.1672 52.2407 46.7138 51.3227 48.5897C49.367 52.6208 45.3358 55.3349 41.0452 55.5245L40.4465 55.5544L17.5068 55.3149C17.4868 55.3149 17.0977 55.2052 16.6387 55.0755C12.1086 53.7583 8.6761 49.8369 7.85789 45.0474C7.68826 44.0596 7.7182 41.8444 7.91776 40.8965C8.13728 39.8488 8.5863 38.5117 8.97544 37.7334C9.55418 36.586 19.6521 19.1541 20.121 18.5056C21.6976 16.2804 24.2221 14.5143 26.7665 13.8458C28.5226 13.3868 30.628 13.277 32.3143 13.5664Z" fill="#EEF5FF"/>
  <path d="M41.3545 13.5564C42.522 13.7659 44.1384 14.3147 45.1063 14.8236C46.6928 15.6718 48.2794 17.0587 49.2971 18.5056C49.6663 19.0344 54.2263 26.8573 59.415 35.8975C60.5824 37.923 60.9716 38.7812 61.3108 40.1282C62.598 45.1871 60.5026 50.5853 56.1322 53.4889C54.2862 54.7262 52.4103 55.3449 50.0854 55.5145C48.7982 55.6043 46.3835 55.6342 46.3835 55.5644C46.3835 55.5444 46.6729 55.3648 47.0321 55.1653C48.6386 54.2672 50.5644 52.4811 51.6021 50.9046C53.2086 48.4699 53.9869 45.9255 53.9869 43.0917C53.9869 40.9863 53.5079 38.9109 52.6199 37.1447C51.9813 35.8975 42.2127 18.9945 41.5142 17.9468C40.4166 16.3004 38.6205 14.654 36.8644 13.6861L36.3555 13.4067H38.411C39.8279 13.4067 40.7459 13.4566 41.3545 13.5564Z" fill="#EEF5FF"/>
  <path d="M19.6322 36.3052C18.9143 37.0324 18.7548 37.8606 19.1736 38.709C19.8316 40.0019 21.4868 40.2645 22.5835 39.2747C23.1419 38.7696 23.2416 38.5474 23.2416 37.7394C23.2416 36.9314 23.1419 36.7092 22.5835 36.2042C21.6463 35.3355 20.5495 35.3759 19.6322 36.3052Z" fill="#EE9B00"/>
  <path d="M35.9267 36.1268C34.8402 37.0505 34.939 38.5765 36.144 39.4801C37.1318 40.223 38.6332 39.8816 39.1864 38.7773C39.6605 37.8336 39.542 37.0505 38.7913 36.2874C37.922 35.404 36.8355 35.3437 35.9267 36.1268Z" fill="#EE9B00"/>
  <path d="M22.5217 42.5623C21.724 43.4598 22.6214 44.2974 25.4534 45.2746C28.5047 46.3316 31.8353 46.0923 34.6273 44.6364C36.143 43.8187 36.502 43.2404 35.8838 42.5623C35.4051 42.0238 35.3054 42.0438 33.6701 42.8814C30.8979 44.2774 27.8267 44.2376 24.6756 42.7817C23.14 42.0637 23.0004 42.0438 22.5217 42.5623Z" fill="#EF233C"/>
</svg>
