<svg width="270" height="42" viewBox="0 0 270 42" fill="none" xmlns="http://www.w3.org/2000/svg">
  <path d="M262.29 3.63896C262.497 3.55039 262.63 3.5061 262.689 3.5061C262.777 3.5061 262.969 3.53563 263.264 3.59467C263.914 3.80133 264.371 4.11132 264.637 4.52464L264.947 5.01176V9.9273C264.947 11.8758 264.932 13.3224 264.903 14.2671C264.873 15.2119 264.785 16.0385 264.637 16.7471C264.49 17.4261 264.298 17.8984 264.062 18.1641C263.855 18.4003 263.515 18.6513 263.043 18.917C262.6 19.1532 261.109 19.286 258.57 19.3155C256.061 19.3451 254.526 19.2417 253.965 19.0055C252.931 18.5922 252.282 17.8099 252.016 16.6585C251.81 15.8023 251.677 13.7505 251.618 10.503C251.559 7.25549 251.618 5.42508 251.795 5.01176C251.972 4.56892 252.267 4.21465 252.68 3.94895C253.094 3.65372 253.507 3.53563 253.92 3.59467C254.481 3.68324 254.909 3.87514 255.205 4.17037C255.529 4.46559 255.736 4.79034 255.825 5.14462C255.913 5.49889 255.972 6.16315 256.002 7.1374L256.046 8.77591H257.596C259.397 8.77591 260.401 8.71687 260.607 8.59878C260.696 8.53973 260.755 7.93451 260.784 6.78313C260.814 5.69079 260.917 4.95272 261.094 4.56892C261.272 4.18513 261.67 3.87514 262.29 3.63896ZM260.386 13.1158C260.297 13.0862 260.061 13.0715 259.677 13.0715C259.323 13.0715 259.131 13.0862 259.102 13.1158C259.072 13.1453 258.615 13.1896 257.729 13.2486C256.902 13.3077 256.4 13.3815 256.223 13.47C256.076 13.5586 256.002 13.7653 256.002 14.09C256.002 14.5328 256.09 14.7838 256.267 14.8428C256.445 14.9019 257.109 14.9314 258.26 14.9314C259.589 14.9314 260.283 14.8871 260.342 14.7986C260.46 14.7395 260.519 14.459 260.519 13.9572C260.519 13.4553 260.474 13.1748 260.386 13.1158ZM255.338 22.7697C263.87 22.6516 268.372 22.7106 268.844 22.9468C269.317 23.183 269.641 23.5373 269.818 24.0096C270.025 24.4525 270.055 24.9249 269.907 25.4267C269.73 26.0762 269.376 26.5191 268.844 26.7553C268.342 26.9619 267.398 27.0948 266.01 27.1538C265.213 27.1833 264.77 27.2129 264.681 27.2424C264.593 27.2424 264.534 27.4343 264.504 27.8181C264.504 28.1724 264.49 29.4566 264.46 31.6708C264.431 34.564 264.357 36.2173 264.239 36.6306C263.973 37.4573 263.471 37.9444 262.733 38.092C261.995 38.2396 261.316 37.9887 260.696 37.3392C260.371 36.9849 260.179 36.5273 260.12 35.9664C260.061 35.4054 260.046 33.8702 260.076 31.3608C260.105 31.0656 260.12 30.6375 260.12 30.0766C260.15 28.5119 260.105 27.6114 259.987 27.3752C259.869 27.1095 259.426 26.9767 258.659 26.9767C258.423 27.0062 258.231 27.021 258.083 27.021C256.548 27.021 255.766 27.1243 255.736 27.331C255.736 27.4195 255.736 28.2904 255.736 29.9437C255.766 33.3979 255.692 35.5088 255.515 36.2763C255.426 36.6011 255.249 36.9406 254.983 37.2949C254.718 37.6492 254.496 37.8263 254.319 37.8263C254.26 37.8263 254.142 37.8706 253.965 37.9591C253.581 38.1658 253.109 38.1068 252.548 37.782C252.016 37.4868 251.662 37.0587 251.485 36.4978C251.367 36.173 251.308 34.6821 251.308 32.0251C251.337 29.368 251.322 27.9066 251.263 27.6409L251.219 27.2867H249.581C248.695 27.2867 248.119 27.2719 247.854 27.2424C247.617 27.1833 247.366 27.0652 247.101 26.8881C246.481 26.3862 246.23 25.7367 246.348 24.9396C246.495 24.1425 246.938 23.5816 247.676 23.2568C248.267 22.9911 250.821 22.8287 255.338 22.7697Z" fill="#EF233C"/>
  <path d="M240.529 7.27013C241.444 7.03395 242.152 7.24061 242.654 7.89011C243.186 8.51009 243.392 9.44005 243.274 10.68C243.215 11.2705 243.171 14.8427 243.141 21.3968C243.112 27.1537 243.053 30.5783 242.964 31.6707C242.905 32.763 242.654 33.4716 242.211 33.7963C241.709 34.1506 241.193 34.2982 240.661 34.2392C240.16 34.1801 239.717 33.9292 239.333 33.4863C239.008 33.073 238.816 32.7187 238.757 32.4235C238.728 32.1283 238.728 31.2131 238.757 29.6779C238.816 27.6703 238.846 24.4966 238.846 20.1568C238.846 13.1599 238.949 9.38101 239.156 8.82007C239.421 7.96392 239.879 7.44727 240.529 7.27013ZM228.129 9.35148C230.196 9.1153 231.509 9.60243 232.07 10.8129C232.247 11.1671 232.321 12.4809 232.292 14.7541C232.292 16.9979 232.203 18.415 232.026 19.0054C231.701 20.1273 230.978 20.8949 229.856 21.3082C229.561 21.4263 228.734 21.5444 227.376 21.6625C226.018 21.7806 224.941 21.8248 224.143 21.7953C223.464 21.7658 223.11 21.7806 223.081 21.8396C222.992 21.8986 222.963 22.6367 222.992 24.0538C223.022 25.4709 223.066 26.209 223.125 26.268C223.184 26.2975 223.981 26.2975 225.516 26.268C227.051 26.2385 228.173 26.1942 228.882 26.1352C229.59 26.0761 230.196 26.0171 230.697 25.958C231.996 25.8399 232.912 26.1204 233.443 26.7994C233.975 27.4489 233.96 28.2608 233.399 29.235C232.926 30.0026 231.805 30.4455 230.033 30.5636C228.852 30.6226 226.978 30.6521 224.409 30.6521C221.87 30.6521 220.512 30.6079 220.335 30.5193C219.833 30.2536 219.435 29.8993 219.139 29.4565L218.829 28.9693V24.0981C218.829 21.6772 218.829 20.2601 218.829 19.8468C218.859 19.404 218.947 19.0792 219.095 18.8726C219.626 18.0164 220.217 17.5883 220.866 17.5883C220.985 17.5883 221.162 17.5588 221.398 17.4998C221.575 17.4407 222.313 17.3817 223.612 17.3226C226.269 17.2045 227.701 17.0569 227.908 16.8798C227.967 16.8207 228.011 16.4074 228.04 15.6398C228.07 14.8722 228.055 14.3704 227.996 14.1342C227.908 13.8094 227.598 13.6913 227.066 13.7799C226.741 13.8094 226.121 13.8537 225.206 13.9127C224.232 13.9423 223.391 14.0161 222.682 14.1342C221.531 14.3113 220.793 14.3556 220.468 14.267C219.671 14.0013 219.169 13.5142 218.962 12.8056C218.756 12.0676 218.933 11.3738 219.494 10.7243C219.612 10.5472 219.818 10.3848 220.114 10.2372C220.438 10.06 220.689 9.97146 220.866 9.97146C220.985 9.97146 221.103 9.94194 221.221 9.88289C221.309 9.82385 221.796 9.7648 222.682 9.70576C223.833 9.61719 224.557 9.55814 224.852 9.52862C225.383 9.46957 225.959 9.44005 226.579 9.44005C227.229 9.44005 227.745 9.41053 228.129 9.35148Z" fill="#EEF5FF"/>
  <path d="M192.743 3.81611C193.008 3.78659 194.721 3.75706 197.88 3.72754C200.478 3.72754 201.969 3.75706 202.352 3.81611C202.766 3.84563 203.12 3.97848 203.415 4.21467C203.917 4.62798 204.153 5.17415 204.124 5.85318C204.124 6.5322 203.888 7.10789 203.415 7.58026C203.12 7.84596 202.766 8.00834 202.352 8.06738C201.969 8.12643 201.245 8.14119 200.182 8.11167C198.854 8.08214 197.496 8.09691 196.108 8.15595C194.721 8.18547 193.983 8.22976 193.894 8.2888C193.806 8.37737 193.761 8.92354 193.761 9.92732C193.761 10.9016 193.806 11.4182 193.894 11.4773C194.071 11.6544 196.094 11.743 199.961 11.743C201.703 11.743 202.736 11.7725 203.061 11.8315C203.799 11.9201 204.36 12.2744 204.744 12.8944C205.157 13.4848 205.231 14.09 204.965 14.71C204.64 15.4185 204.168 15.8614 203.548 16.0385C202.928 16.2157 201.673 16.2747 199.784 16.2157C198.308 16.1566 196.655 16.1123 194.824 16.0828C193.82 16.0533 193.068 16.0238 192.566 15.9942C192.093 15.9647 191.606 15.8614 191.104 15.6842C190.602 15.4776 190.263 15.2709 190.086 15.0643C189.938 14.8576 189.79 14.4591 189.643 13.8686C189.495 13.2781 189.407 12.6877 189.377 12.0972C189.377 11.4773 189.377 10.5621 189.377 9.35162C189.377 7.84596 189.436 6.81267 189.554 6.25173C189.672 5.66128 189.923 5.17416 190.307 4.79036C190.602 4.49513 190.898 4.28847 191.193 4.17038C191.488 4.05229 192.005 3.9342 192.743 3.81611ZM201.555 18.7841C204.508 18.666 206.279 18.6808 206.869 18.8284C207.667 19.0941 208.154 19.6403 208.331 20.4669C208.508 21.264 208.286 21.9283 207.667 22.4597C207.283 22.7845 206.796 22.9764 206.205 23.0354C205.615 23.0649 203.563 23.1092 200.05 23.1683C195.887 23.1978 192.639 23.2568 190.307 23.3454C188.447 23.434 187.266 23.4783 186.764 23.4783C186.292 23.4487 185.893 23.3306 185.569 23.124C185.096 22.8288 184.772 22.4007 184.594 21.8397C184.447 21.2493 184.521 20.7769 184.816 20.4226C184.904 20.3341 184.949 20.2603 184.949 20.2012C184.949 20.1127 185.052 19.9798 185.259 19.8027C185.495 19.6255 185.716 19.4927 185.923 19.4041C186.248 19.2565 186.853 19.1532 187.739 19.0941C188.624 19.0351 190.647 18.9908 193.806 18.9613C197.644 18.9022 200.227 18.8432 201.555 18.7841ZM189.421 25.3382C189.51 25.1906 189.835 25.2053 190.396 25.3825C190.957 25.5596 191.34 25.7663 191.547 26.0024C191.813 26.3272 191.96 26.6519 191.99 26.9767C192.049 27.2719 192.093 28.2609 192.123 29.9437C192.123 31.9808 192.167 33.0289 192.256 33.0879C192.344 33.1469 194.189 33.1617 197.791 33.1322C197.998 33.1322 198.308 33.1322 198.721 33.1322C201.201 33.1027 202.662 33.1174 203.105 33.1765C203.548 33.2355 203.902 33.4274 204.168 33.7522C204.198 33.7817 204.227 33.8112 204.257 33.8407C204.788 34.5198 204.906 35.2135 204.611 35.9221C204.345 36.6602 203.784 37.1325 202.928 37.3392C202.662 37.3982 200.655 37.4573 196.905 37.5163C193.186 37.6049 191.075 37.6196 190.573 37.5606C190.041 37.5016 189.54 37.3244 189.067 37.0292C188.595 36.734 188.27 36.3797 188.093 35.9664C187.916 35.5235 187.783 33.9736 187.694 31.3165C187.606 28.6595 187.65 27.1834 187.827 26.8881C187.916 26.711 187.96 26.5781 187.96 26.4896C187.96 26.401 188.108 26.2239 188.403 25.9582C188.728 25.6629 188.964 25.5006 189.111 25.471C189.289 25.4415 189.392 25.3972 189.421 25.3382Z" fill="#EEF5FF"/>
  <path d="M169.689 6.96022C170.84 6.90117 171.43 6.85689 171.46 6.82737C171.489 6.79784 172.419 6.78308 174.25 6.78308C176.405 6.78308 177.807 6.88641 178.457 7.09307C179.136 7.27021 179.682 7.71305 180.095 8.42159C180.272 8.77587 180.361 9.95678 180.361 11.9643C180.391 13.9719 180.302 16.0975 180.095 18.3412C180.036 19.4041 179.756 20.1864 179.254 20.6883C178.782 21.1607 178.029 21.4706 176.995 21.6183C176.287 21.6773 175.844 21.7363 175.667 21.7954C175.549 21.8249 175.475 21.943 175.445 22.1497C175.445 22.3563 175.445 23.0796 175.445 24.3196C175.445 25.8548 175.431 27.2128 175.401 28.3937C175.372 29.4565 175.386 30.0322 175.445 30.1208C175.504 30.2094 175.992 30.2684 176.907 30.2979C177.852 30.3275 178.796 30.3127 179.741 30.2537C181.808 30.1356 183.062 30.106 183.505 30.1651C183.948 30.1946 184.361 30.3718 184.745 30.6965C185.808 31.7003 185.808 32.7336 184.745 33.7964C184.391 34.1507 183.933 34.3573 183.372 34.4164C182.811 34.5049 180.981 34.564 177.881 34.5935C174.279 34.6821 172.464 34.7264 172.434 34.7264C172.316 34.8149 170.663 34.8444 167.474 34.8149C164.286 34.7854 162.603 34.7411 162.426 34.6821C161.688 34.3573 161.23 33.8259 161.053 33.0878C160.876 32.3203 161.068 31.6855 161.629 31.1836C161.983 30.8589 162.352 30.6522 162.736 30.5636C163.149 30.4751 164.005 30.4456 165.304 30.4751C168.611 30.5046 170.427 30.416 170.751 30.2094C170.869 30.1503 170.928 29.988 170.928 29.7223C170.958 29.427 170.958 28.4528 170.928 26.7995C170.928 24.5853 170.943 23.183 170.973 22.5925C171.032 22.0611 171.017 21.7511 170.928 21.6625C170.869 21.5445 170.648 21.4854 170.264 21.4854C167.666 21.4854 166.175 20.3783 165.792 18.1641C165.673 17.6032 165.614 16.0975 165.614 13.6471C165.614 11.1672 165.659 9.75012 165.747 9.39584C166.013 8.45112 166.397 7.83114 166.899 7.53591C167.401 7.21116 168.33 7.01926 169.689 6.96022ZM175.888 11.3443C175.741 11.1672 174.796 11.0934 173.054 11.1229C171.312 11.1229 170.353 11.2115 170.176 11.3886C170.117 11.4477 170.058 12.1415 169.999 13.47C169.969 14.7985 169.984 15.7285 170.043 16.2599C170.072 16.5846 170.205 16.7765 170.441 16.8356C170.678 16.8946 171.475 16.9537 172.833 17.0127C174.22 17.0718 175.032 17.0865 175.268 17.057C175.505 17.0275 175.667 16.9241 175.755 16.747C175.844 16.5403 175.903 15.6104 175.933 13.9571C175.962 12.3038 175.947 11.4329 175.888 11.3443Z" fill="#EE9B00"/>
  <path d="M143.357 7.93445C143.653 7.72779 144.095 7.68351 144.686 7.80159C145.276 7.91969 145.704 8.14111 145.97 8.46586C146 8.46586 146.014 8.48062 146.014 8.51014C146.28 8.80537 146.428 9.32202 146.457 10.0601C146.516 10.7686 146.531 13.1157 146.502 17.1013C146.502 17.2784 146.502 17.426 146.502 17.5441C146.443 23.1239 146.428 26.6666 146.457 28.1723C146.457 30.0913 146.428 31.2279 146.369 31.5822C146.251 32.2907 145.941 32.8369 145.439 33.2207C144.937 33.5749 144.391 33.693 143.8 33.5749C143.21 33.4569 142.737 33.1026 142.383 32.5121C142.176 32.2169 142.073 28.3199 142.073 20.8211C142.073 13.3223 142.162 9.39582 142.339 9.04155C142.546 8.59871 142.885 8.22967 143.357 7.93445ZM129.186 8.64299C130.19 8.46586 131.312 8.61347 132.552 9.08584C133.822 9.52868 134.811 10.1487 135.519 10.9458C136.257 11.7429 136.685 12.85 136.803 14.2671C136.951 15.6842 136.759 16.9536 136.228 18.0755C135.814 18.9317 135.342 19.6107 134.811 20.1126C134.279 20.6145 133.585 21.0425 132.729 21.3968C131.43 21.9282 129.954 21.9577 128.301 21.4854C126.648 20.9835 125.393 20.1569 124.537 19.0055C123.858 18.1198 123.489 17.1013 123.43 15.9499C123.37 14.7985 123.562 13.7357 124.005 12.7614C124.478 11.7576 125.171 10.872 126.087 10.1044C127.002 9.30726 128.035 8.82013 129.186 8.64299ZM131.401 13.2485C130.515 12.9828 129.703 13.0862 128.965 13.5585C128.227 14.0309 127.858 14.6804 127.858 15.507C127.858 16.2156 128.257 16.7617 129.054 17.1455C129.851 17.4998 130.633 17.4998 131.401 17.1455C132.198 16.7913 132.596 16.1122 132.596 15.1085C132.596 14.1047 132.198 13.4847 131.401 13.2485ZM137.29 25.1167C137.999 25.0281 138.56 25.0429 138.973 25.161C139.328 25.2495 139.667 25.4267 139.992 25.6924C140.287 25.9581 140.479 26.3271 140.567 26.7995C140.686 27.2423 140.656 27.6409 140.479 27.9951C140.154 28.6742 139.623 29.117 138.885 29.3237C138.176 29.5008 136.774 29.5894 134.678 29.5894C133.32 29.5894 131.784 29.6189 130.072 29.6779C126.382 29.8551 124.33 29.8846 123.917 29.7665C123.061 29.5303 122.5 29.0432 122.234 28.3051C121.998 27.5375 122.175 26.8438 122.765 26.2238C123.09 25.8695 123.444 25.6628 123.828 25.6038C124.212 25.5448 125.334 25.4857 127.194 25.4267C129.408 25.3971 130.84 25.3529 131.489 25.2938C132.227 25.2348 133.246 25.1905 134.545 25.161C135.962 25.161 136.877 25.1462 137.29 25.1167Z" fill="#EEF5FF"/>
  <path d="M114.056 3.46178C114.47 3.34369 114.898 3.35845 115.341 3.50607C115.813 3.62416 116.167 3.84558 116.403 4.17033C116.669 4.49508 116.817 4.80507 116.846 5.1003C116.905 5.39552 116.935 6.17788 116.935 7.44736C116.935 8.98254 116.964 9.79441 117.023 9.88298C117.112 9.94203 117.85 9.97155 119.238 9.97155C120.419 10.0011 121.157 10.0601 121.452 10.1487C121.747 10.2077 122.072 10.4144 122.426 10.7687C122.957 11.3296 123.164 11.9348 123.046 12.5843C122.957 13.2043 122.588 13.6914 121.939 14.0457C121.762 14.1343 121.555 14.1933 121.319 14.2228C121.083 14.2228 120.404 14.2228 119.282 14.2228C119.134 14.2228 118.928 14.2228 118.662 14.2228C117.688 14.1933 117.112 14.2523 116.935 14.4C116.787 14.5476 116.728 15.0937 116.758 16.0385C116.787 16.2747 116.802 16.4666 116.802 16.6142C116.832 17.677 116.861 18.5479 116.891 19.2269C116.979 20.4964 116.595 21.3821 115.739 21.884C114.883 22.3563 114.027 22.1792 113.171 21.3526C113.141 21.3526 113.112 21.3378 113.082 21.3083C112.787 21.0131 112.61 20.5407 112.551 19.8912C112.492 19.2122 112.477 17.0127 112.506 13.2929C112.506 13.0272 112.506 12.8205 112.506 12.6729C112.506 8.98254 112.521 6.81261 112.551 6.16311C112.58 5.51362 112.654 5.04125 112.772 4.74602C113.126 4.00795 113.554 3.57988 114.056 3.46178ZM103.34 4.56889C103.753 4.50984 104.137 4.55413 104.491 4.70174C104.727 4.79031 104.949 4.92316 105.155 5.1003C105.391 5.27743 105.51 5.41029 105.51 5.49885C105.51 5.58742 105.554 5.66123 105.642 5.72027C105.879 5.92693 105.952 6.29597 105.864 6.82738C105.805 7.35879 105.598 7.90496 105.244 8.46589C105.126 8.64303 105.052 8.79064 105.022 8.90873C104.904 9.08587 104.786 9.263 104.668 9.44014C104.196 10.2077 103.93 10.7539 103.871 11.0786C103.812 11.3739 103.901 11.6543 104.137 11.9201C104.461 12.3038 104.653 12.54 104.712 12.6286C105.273 13.2781 106.13 14.1785 107.281 15.3299C107.871 15.9499 108.27 16.4223 108.477 16.747C108.683 17.0718 108.787 17.4113 108.787 17.7656C108.787 18.1493 108.639 18.5331 108.344 18.9169C108.078 19.3007 107.768 19.5369 107.414 19.6255C107.237 19.655 107.133 19.6993 107.104 19.7583C107.045 19.8174 106.868 19.8321 106.572 19.8026C106.307 19.7731 106.07 19.7141 105.864 19.6255C105.51 19.4188 105.141 19.1679 104.757 18.8727C104.402 18.5479 103.694 17.8246 102.631 16.7027C101.893 15.9647 101.48 15.5956 101.391 15.5956C101.332 15.5956 101.125 15.8909 100.771 16.4813C100.299 17.2489 99.8707 17.9279 99.4869 18.5184C99.0736 19.1679 98.7046 19.6107 98.3798 19.8469C98.0551 20.0831 97.6565 20.2012 97.1841 20.2012C96.1804 20.2012 95.5161 19.7583 95.1914 18.8727C94.8666 17.9574 95.0733 17.0865 95.8113 16.2599C95.8704 16.2008 95.8999 16.1418 95.8999 16.0828C95.8999 15.9351 96.4608 14.9904 97.5827 13.2486C97.7008 13.0419 97.8189 12.8205 97.937 12.5843C98.1141 12.2596 98.2322 12.0381 98.2912 11.9201C98.3798 11.7429 98.4389 11.6396 98.4684 11.6101C98.5274 11.551 98.6308 11.3739 98.7784 11.0786C99.0441 10.5768 99.2064 10.2815 99.2655 10.193C99.4131 9.92726 99.5164 9.73537 99.5755 9.61727C99.7821 9.263 99.915 9.02682 99.974 8.90873C100.092 8.70207 100.166 8.55446 100.195 8.46589C100.255 8.37732 100.446 8.05257 100.771 7.49164C101.125 6.90118 101.332 6.56167 101.391 6.4731C101.539 6.05979 101.819 5.66123 102.233 5.27743C102.675 4.86411 103.044 4.62793 103.34 4.56889ZM109.318 23.5225C110.145 23.4339 110.986 23.4782 111.842 23.6553C112.078 23.7144 112.344 23.7734 112.639 23.8325C112.935 23.8915 113.171 23.9506 113.348 24.0096C113.554 24.0982 113.673 24.1425 113.702 24.1425C113.938 24.1425 114.381 24.4082 115.031 24.9396C115.68 25.471 116.123 25.9286 116.359 26.3124C116.536 26.5486 116.713 26.8881 116.891 27.3309C117.097 27.7738 117.201 28.0542 117.201 28.1723C117.201 28.2609 117.245 28.438 117.333 28.7037C117.688 29.7961 117.584 31.1246 117.023 32.6893C116.462 34.2245 115.651 35.4054 114.588 36.232C114.174 36.5568 113.643 36.852 112.994 37.1177C112.964 37.1472 112.757 37.2358 112.374 37.3834C112.255 37.4425 112.064 37.5015 111.798 37.5605C111.207 37.6491 110.868 37.7082 110.779 37.7377C109.628 37.9443 108.299 37.7229 106.794 37.0734C105.288 36.4534 104.299 35.6859 103.827 34.7706C103.827 34.7411 103.797 34.6821 103.738 34.5935C103.709 34.5345 103.679 34.4754 103.65 34.4164C103.65 34.3868 103.635 34.3721 103.605 34.3721C103.251 33.7226 103.03 33.0288 102.941 32.2907C102.646 30.4308 103.059 28.689 104.181 27.0652C104.771 26.2091 105.554 25.4415 106.528 24.7624C107.532 24.0539 108.462 23.6406 109.318 23.5225ZM111.754 28.2609C111.458 28.1723 111.06 28.128 110.558 28.128C110.056 28.128 109.657 28.1723 109.362 28.2609C108.477 28.4675 107.827 29.117 107.414 30.2094C107 31.3017 107.074 32.1579 107.635 32.7779C107.96 33.1321 108.565 33.3536 109.451 33.4421C110.337 33.5307 111.045 33.4421 111.576 33.1764C112.226 32.8221 112.684 32.2907 112.949 31.5822C113.215 30.8441 113.23 30.1503 112.994 29.5008C112.787 28.8218 112.374 28.4085 111.754 28.2609Z" fill="#EEF5FF"/>
  <path d="M88.8939 8.33314C89.1891 8.15601 89.5729 8.11172 90.0453 8.20029C90.5177 8.25934 90.9015 8.42171 91.1967 8.68742C91.2262 8.71694 91.2557 8.74646 91.2852 8.77598C91.5805 9.04169 91.7428 9.44024 91.7724 9.97165C91.8314 10.4735 91.8462 12.1563 91.8167 15.02C91.8167 15.4334 91.8167 15.7581 91.8167 15.9943C91.8167 20.3046 91.8462 23.3159 91.9052 25.0283C92.0233 28.3053 92.0676 30.2685 92.0381 30.918C92.0086 31.5675 91.8462 32.0694 91.551 32.4237C91.1672 32.9846 90.6062 33.2503 89.8682 33.2208C89.1301 33.1913 88.5839 32.8961 88.2296 32.3351C88.023 32.0399 87.8901 31.6561 87.8311 31.1837C87.772 30.6819 87.7278 29.6043 87.6982 27.951C87.6687 26.0615 87.6244 24.5411 87.5654 23.3897C87.5063 22.2974 87.4768 19.9356 87.4768 16.3043C87.4768 12.6435 87.5063 10.6064 87.5654 10.1931C87.7425 9.30739 88.1854 8.68742 88.8939 8.33314ZM71.5788 9.92737C72.1102 9.75023 72.4055 9.73547 72.4645 9.88309C72.5235 9.94213 72.6121 9.97165 72.7302 9.97165C73.0845 9.97165 73.4388 10.2078 73.793 10.6802C74.1768 11.123 74.354 11.5659 74.3244 12.0087C74.3244 12.5106 73.5126 14.3115 71.8888 17.4114C71.7117 17.7952 71.6526 18.0904 71.7117 18.2971C71.7707 18.5037 72.0364 18.917 72.5088 19.537C73.3059 20.5703 73.7783 21.2346 73.9259 21.5298C73.9259 21.5298 74.103 21.8103 74.4573 22.3712C75.343 23.6997 75.8744 24.5411 76.0515 24.8954C76.2287 25.2497 76.3172 25.6039 76.3172 25.9582C76.3172 26.4896 75.9629 27.0358 75.2544 27.5967C75.1658 27.6558 75.0477 27.7001 74.9001 27.7296C74.6935 27.7886 74.5311 27.8477 74.413 27.9067C74.2063 27.9658 73.9111 27.9362 73.5273 27.8181C73.173 27.7001 72.8631 27.5082 72.5974 27.2425C72.2726 27.0063 71.8593 26.4601 71.3574 25.6039C70.6784 24.4526 70.1174 23.6259 69.6746 23.124C69.527 22.9174 69.3941 22.8436 69.276 22.9026C69.1875 22.9617 69.0251 23.2126 68.7889 23.6554C68.5527 24.1573 68.4051 24.4378 68.3461 24.4968C68.287 24.5854 68.228 24.674 68.1689 24.7625C67.9032 25.353 67.5637 25.8696 67.1504 26.3125C66.678 26.7849 66.1614 27.0358 65.6005 27.0653C65.0395 27.0653 64.5819 26.8882 64.2277 26.5339C63.8734 26.1796 63.6224 25.7368 63.4748 25.2054C63.3567 24.674 63.4896 24.0983 63.8734 23.4783C63.9029 23.4488 64.4491 22.3564 65.5119 20.2013C66.6338 17.9871 67.3128 16.6586 67.549 16.2157C68.0509 15.2415 68.4051 14.5772 68.6118 14.2229C69.0546 13.3668 69.3646 12.7763 69.5418 12.4516C69.7484 12.0678 69.9255 11.7283 70.0732 11.433C70.2208 11.1378 70.4422 10.8426 70.7374 10.5473C71.0622 10.2226 71.3426 10.0159 71.5788 9.92737ZM81.5427 10.7688C82.0446 10.444 82.6203 10.444 83.2698 10.7688C83.9193 11.064 84.3326 11.5364 84.5098 12.1859C84.5983 12.5401 84.6131 15.3891 84.5541 20.7327C84.5245 26.0468 84.4507 28.7924 84.3326 28.9695C84.2441 29.1762 84.0817 29.3976 83.8455 29.6338C83.6093 29.8405 83.4174 29.9438 83.2698 29.9438C83.1813 29.9438 83.0779 29.9881 82.9598 30.0766C82.6646 30.2833 82.2513 30.2538 81.7199 29.9881C81.1885 29.6928 80.7899 29.2943 80.5242 28.7924C80.288 28.32 80.1995 26.7553 80.2585 24.0983C80.2585 23.8916 80.2585 23.6259 80.2585 23.3012C80.3176 22.2974 80.2585 21.7217 80.0814 21.5741C79.9338 21.397 79.4023 21.2936 78.4871 21.2641C78.1624 21.2641 77.9114 21.2641 77.7343 21.2641C76.6715 21.2346 76.022 21.2051 75.7858 21.1755C75.5792 21.146 75.3725 21.0574 75.1658 20.9098C74.6344 20.5556 74.3244 20.0537 74.2359 19.4042C74.1473 18.7547 74.3097 18.2085 74.723 17.7657C75.0477 17.3819 75.4315 17.1457 75.8744 17.0571C76.3467 16.939 77.2029 16.88 78.4429 16.88C79.6238 16.88 80.2437 16.8357 80.3028 16.7471C80.3914 16.6586 80.4061 15.9205 80.3471 14.5329C80.3176 13.2339 80.3618 12.363 80.4799 11.9202C80.6275 11.4773 80.9818 11.0935 81.5427 10.7688Z" fill="#EE9B00"/>
  <path d="M19.76 0.176142C16.3971 0.765794 13.3567 2.71902 11.468 5.51987C11.081 6.0911 1.63735 22.4632 1.24117 23.2371C0.81736 24.0939 0.329054 25.5681 0.154001 26.5723C-0.0671187 27.7977 -0.0486921 29.8154 0.200068 31.0684C0.725227 33.7495 2.01509 36.1173 4.00517 38.0153C5.84783 39.7658 8.04982 40.8806 10.5651 41.3044C11.5509 41.4795 27.4162 41.5808 35.7174 41.4703L41.7061 41.3873L42.7656 41.1109C45.2164 40.4568 47.0498 39.3881 48.7635 37.6099C49.1965 37.1676 49.7677 36.4859 50.0349 36.1081C51.0576 34.6616 51.9052 32.607 52.2093 30.8565C52.412 29.7233 52.412 27.6779 52.2093 26.5723C52.025 25.5496 51.5459 24.0847 51.1037 23.2187C50.7075 22.4355 41.2915 6.10953 40.8953 5.51987C40.3425 4.69989 39.3567 3.6035 38.6473 3.01385C37.2653 1.86218 36.0767 1.19882 34.3907 0.636811C32.5665 0.028732 32.0782 -0.00812238 26.0342 0.00109094C21.3354 0.0103043 20.5892 0.0287284 19.76 0.176142ZM23.9704 1.42916C26.8911 1.93589 29.5721 3.61272 31.2674 5.98975C31.6912 6.57941 41.0243 22.6751 41.5402 23.7162C42.3142 25.2548 42.7011 26.8948 42.7011 28.6914C42.7011 30.6078 42.3694 32.0358 41.5218 33.7679C39.716 37.4901 35.9938 39.9961 32.0321 40.1712L31.4793 40.1988L10.2979 39.9777C10.2794 39.9777 9.92012 39.8764 9.49631 39.7566C5.31346 38.5404 2.14408 34.9196 1.38859 30.4972C1.23196 29.5851 1.2596 27.5397 1.44387 26.6644C1.64656 25.6971 2.06116 24.4625 2.42048 23.7438C2.95485 22.6843 12.2787 6.58862 12.7118 5.98975C14.1675 3.93518 16.4984 2.30442 18.8478 1.68713C20.4694 1.26332 22.4134 1.16197 23.9704 1.42916ZM32.3177 1.41994C33.3957 1.61342 34.8882 2.12016 35.7819 2.59003C37.2468 3.37317 38.7118 4.65382 39.6515 5.98975C39.9924 6.47806 44.2029 13.7013 48.9938 22.0486C50.0718 23.9189 50.4311 24.7112 50.7444 25.955C51.9329 30.6262 49.9981 35.6106 45.9626 38.2917C44.2582 39.4341 42.5261 40.0053 40.3794 40.162C39.1908 40.2449 36.9612 40.2725 36.9612 40.208C36.9612 40.1896 37.2284 40.0238 37.5601 39.8395C39.0434 39.0103 40.8216 37.3611 41.7798 35.9054C43.2631 33.6574 43.9818 31.308 43.9818 28.6914C43.9818 26.7474 43.5395 24.831 42.7196 23.2002C42.1299 22.0486 33.1101 6.44121 32.4651 5.47381C31.4517 3.95361 29.7933 2.43341 28.1717 1.53972L27.7018 1.28174H29.5998C30.9081 1.28174 31.7557 1.32781 32.3177 1.41994Z" fill="#332941"/>
  <path d="M23.9704 1.42916C26.8911 1.93589 29.5721 3.61272 31.2674 5.98975C31.6912 6.57941 41.0243 22.6751 41.5402 23.7162C42.3142 25.2548 42.7011 26.8948 42.7011 28.6914C42.7011 30.6078 42.3694 32.0358 41.5218 33.7679C39.716 37.4901 35.9938 39.9961 32.0321 40.1712L31.4793 40.1988L10.2979 39.9777C10.2794 39.9777 9.92012 39.8764 9.49631 39.7566C5.31346 38.5404 2.14408 34.9196 1.38859 30.4972C1.23196 29.5851 1.2596 27.5397 1.44387 26.6644C1.64656 25.6971 2.06116 24.4625 2.42048 23.7438C2.95485 22.6843 12.2787 6.58862 12.7118 5.98975C14.1675 3.93518 16.4984 2.30442 18.8478 1.68713C20.4694 1.26332 22.4134 1.16197 23.9704 1.42916Z" fill="#EEF5FF"/>
  <path d="M32.3177 1.41994C33.3957 1.61342 34.8882 2.12016 35.7819 2.59003C37.2468 3.37317 38.7118 4.65382 39.6515 5.98975C39.9924 6.47806 44.2029 13.7013 48.9938 22.0486C50.0718 23.9189 50.4311 24.7112 50.7444 25.955C51.9329 30.6262 49.9981 35.6106 45.9626 38.2917C44.2582 39.4341 42.5261 40.0053 40.3794 40.162C39.1908 40.2449 36.9612 40.2725 36.9612 40.208C36.9612 40.1896 37.2284 40.0238 37.5601 39.8395C39.0434 39.0103 40.8216 37.3611 41.7798 35.9054C43.2631 33.6574 43.9818 31.308 43.9818 28.6914C43.9818 26.7474 43.5395 24.831 42.7196 23.2002C42.1299 22.0486 33.1101 6.44121 32.4651 5.47381C31.4517 3.95361 29.7933 2.43341 28.1717 1.53972L27.7018 1.28174H29.5998C30.9081 1.28174 31.7557 1.32781 32.3177 1.41994Z" fill="#EEF5FF"/>
  <path d="M12.2604 22.425C11.5975 23.0965 11.4502 23.8613 11.8369 24.6447C12.4445 25.8384 13.9728 26.0809 14.9855 25.1669C15.5011 24.7006 15.5931 24.4954 15.5931 23.7494C15.5931 23.0033 15.5011 22.7981 14.9855 22.3318C14.1201 21.5297 13.1074 21.567 12.2604 22.425Z" fill="#EE9B00"/>
  <path d="M27.306 22.2604C26.3027 23.1132 26.3939 24.5223 27.5066 25.3566C28.4187 26.0426 29.805 25.7274 30.3158 24.7077C30.7535 23.8363 30.6441 23.1132 29.9509 22.4087C29.1483 21.5929 28.1451 21.5373 27.306 22.2604Z" fill="#EE9B00"/>
  <path d="M14.9284 28.2025C14.1918 29.0312 15.0205 29.8046 17.6354 30.7069C20.4528 31.6829 23.5281 31.4619 26.1061 30.1176C27.5057 29.3626 27.8371 28.8286 27.2663 28.2025C26.8243 27.7053 26.7322 27.7237 25.2222 28.4971C22.6626 29.7862 19.8267 29.7493 16.9172 28.4051C15.4993 27.7421 15.3704 27.7237 14.9284 28.2025Z" fill="#EF233C"/>
</svg>
