<svg width="180" height="181" viewBox="0 0 180 181" fill="none" xmlns="http://www.w3.org/2000/svg">
  <path d="M173.282 0.378829C173.462 0.301651 173.578 0.263062 173.63 0.263062C173.707 0.263062 173.874 0.288788 174.131 0.34024C174.697 0.520321 175.096 0.790442 175.328 1.1506L175.598 1.57508V5.85844C175.598 7.55635 175.585 8.81691 175.559 9.64014C175.533 10.4634 175.456 11.1837 175.328 11.8011C175.199 12.3928 175.032 12.8044 174.826 13.036C174.646 13.2418 174.35 13.4604 173.938 13.692C173.552 13.8978 172.253 14.0135 170.041 14.0393C167.854 14.065 166.516 13.975 166.028 13.7691C165.127 13.409 164.561 12.7272 164.33 11.7239C164.15 10.9779 164.034 9.18994 163.982 6.36009C163.931 3.53025 163.982 1.93524 164.137 1.57508C164.291 1.18919 164.548 0.880484 164.909 0.648951C165.269 0.391692 165.629 0.288788 165.989 0.34024C166.478 0.417417 166.851 0.584635 167.108 0.841895C167.391 1.09915 167.571 1.38214 167.648 1.69085C167.726 1.99956 167.777 2.57839 167.803 3.42734L167.841 4.85513H169.192C170.761 4.85513 171.636 4.80368 171.816 4.70077C171.893 4.64932 171.945 4.12194 171.97 3.11863C171.996 2.16678 172.086 1.52363 172.24 1.18919C172.395 0.854758 172.742 0.584636 173.282 0.378829ZM171.623 8.63683C171.546 8.61111 171.34 8.59824 171.006 8.59824C170.697 8.59824 170.53 8.61111 170.504 8.63683C170.478 8.66256 170.079 8.70115 169.308 8.7526C168.587 8.80405 168.15 8.86837 167.996 8.94554C167.867 9.02272 167.803 9.2028 167.803 9.48579C167.803 9.87167 167.88 10.0903 168.034 10.1418C168.189 10.1932 168.767 10.219 169.771 10.219C170.928 10.219 171.533 10.1804 171.584 10.1032C171.687 10.0518 171.739 9.80736 171.739 9.37002C171.739 8.93268 171.7 8.68829 171.623 8.63683ZM167.224 17.0492C174.659 16.9463 178.582 16.9977 178.993 17.2035C179.405 17.4094 179.688 17.7181 179.842 18.1297C180.023 18.5156 180.048 18.9272 179.92 19.3645C179.765 19.9305 179.457 20.3164 178.993 20.5222C178.556 20.7023 177.733 20.818 176.524 20.8695C175.829 20.8952 175.443 20.9209 175.366 20.9467C175.289 20.9467 175.237 21.1139 175.212 21.4483C175.212 21.757 175.199 22.8761 175.173 24.8055C175.147 27.3267 175.083 28.7673 174.98 29.1275C174.749 29.8478 174.311 30.2723 173.668 30.4009C173.025 30.5295 172.433 30.3109 171.893 29.7449C171.61 29.4362 171.443 29.0374 171.391 28.5487C171.34 28.0599 171.327 26.7221 171.353 24.5354C171.379 24.2782 171.391 23.9051 171.391 23.4163C171.417 22.0529 171.379 21.2682 171.276 21.0624C171.173 20.8309 170.787 20.7151 170.118 20.7151C169.912 20.7409 169.745 20.7537 169.616 20.7537C168.279 20.7537 167.597 20.8438 167.571 21.0238C167.571 21.101 167.571 21.8599 167.571 23.3006C167.597 26.3105 167.533 28.1499 167.378 28.8188C167.301 29.1018 167.147 29.3976 166.915 29.7063C166.684 30.015 166.491 30.1694 166.336 30.1694C166.285 30.1694 166.182 30.208 166.028 30.2852C165.693 30.4652 165.282 30.4138 164.793 30.1308C164.33 29.8735 164.021 29.5005 163.867 29.0117C163.764 28.7287 163.712 27.4296 163.712 25.1143C163.738 22.7989 163.725 21.5255 163.674 21.294L163.635 20.9852H162.207C161.436 20.9852 160.934 20.9724 160.702 20.9467C160.497 20.8952 160.278 20.7923 160.046 20.638C159.506 20.2006 159.287 19.6346 159.39 18.94C159.519 18.2454 159.905 17.7567 160.548 17.4737C161.063 17.2421 163.288 17.1006 167.224 17.0492Z" fill="#EF233C"/>
  <path d="M154.319 3.54302C155.117 3.33721 155.734 3.51729 156.172 4.08326C156.635 4.6235 156.815 5.43387 156.712 6.51436C156.661 7.02887 156.622 10.1417 156.596 15.8528C156.57 20.8694 156.519 23.8536 156.442 24.8054C156.39 25.7573 156.172 26.3747 155.786 26.6577C155.349 26.9664 154.898 27.0951 154.435 27.0436C153.998 26.9921 153.612 26.7735 153.278 26.3876C152.995 26.0274 152.827 25.7187 152.776 25.4615C152.75 25.2042 152.75 24.4067 152.776 23.069C152.827 21.3196 152.853 18.5541 152.853 14.7724C152.853 8.67533 152.943 5.38242 153.123 4.89362C153.355 4.14757 153.753 3.69737 154.319 3.54302ZM143.515 5.35669C145.315 5.15088 146.46 5.57536 146.949 6.63012C147.103 6.93883 147.168 8.08363 147.142 10.0645C147.142 12.0197 147.065 13.2545 146.91 13.7691C146.627 14.7466 145.997 15.4155 145.02 15.7757C144.762 15.8786 144.042 15.9815 142.859 16.0844C141.675 16.1873 140.736 16.2259 140.042 16.2001C139.45 16.1744 139.141 16.1873 139.115 16.2387C139.038 16.2902 139.013 16.9333 139.038 18.1682C139.064 19.403 139.103 20.0462 139.154 20.0976C139.206 20.1233 139.9 20.1233 141.238 20.0976C142.576 20.0719 143.553 20.0333 144.171 19.9818C144.788 19.9304 145.315 19.8789 145.753 19.8275C146.885 19.7246 147.682 19.969 148.145 20.5607C148.608 21.1266 148.595 21.8341 148.107 22.6831C147.695 23.3519 146.717 23.7378 145.174 23.8407C144.145 23.8922 142.511 23.9179 140.273 23.9179C138.061 23.9179 136.877 23.8793 136.723 23.8021C136.286 23.5706 135.938 23.2619 135.681 22.876L135.411 22.4515V18.2068C135.411 16.0972 135.411 14.8624 135.411 14.5022C135.437 14.1163 135.514 13.8334 135.642 13.6533C136.106 12.9072 136.62 12.5342 137.186 12.5342C137.289 12.5342 137.443 12.5085 137.649 12.457C137.803 12.4056 138.447 12.3541 139.579 12.3027C141.894 12.1998 143.142 12.0711 143.322 11.9168C143.373 11.8653 143.412 11.5052 143.437 10.8363C143.463 10.1674 143.45 9.73009 143.399 9.52428C143.322 9.2413 143.052 9.13839 142.588 9.21557C142.305 9.2413 141.765 9.27989 140.968 9.33134C140.119 9.35706 139.386 9.42138 138.768 9.52428C137.765 9.67864 137.122 9.71722 136.839 9.64005C136.144 9.40851 135.707 8.98404 135.527 8.36662C135.347 7.72347 135.501 7.11891 135.99 6.55294C136.093 6.39859 136.273 6.25709 136.53 6.12847C136.813 5.97411 137.032 5.89693 137.186 5.89693C137.289 5.89693 137.392 5.87121 137.495 5.81976C137.572 5.7683 137.996 5.71685 138.768 5.6654C139.771 5.58822 140.402 5.53677 140.659 5.51105C141.122 5.45959 141.624 5.43387 142.164 5.43387C142.73 5.43387 143.18 5.40814 143.515 5.35669Z" fill="#EEF5FF"/>
  <path d="M112.679 0.533234C112.911 0.507508 114.403 0.481782 117.156 0.456055C119.419 0.456055 120.719 0.481781 121.053 0.533234C121.413 0.558959 121.722 0.674726 121.979 0.880533C122.417 1.2407 122.622 1.71662 122.597 2.30832C122.597 2.90001 122.391 3.40167 121.979 3.81328C121.722 4.04481 121.413 4.18631 121.053 4.23776C120.719 4.28921 120.088 4.30207 119.162 4.27635C118.005 4.25062 116.821 4.26348 115.612 4.31494C114.403 4.34066 113.76 4.37925 113.683 4.4307C113.605 4.50788 113.567 4.98381 113.567 5.85849C113.567 6.70744 113.605 7.15764 113.683 7.2091C113.837 7.36345 115.599 7.44063 118.969 7.44063C120.487 7.44063 121.388 7.46636 121.67 7.51781C122.314 7.59498 122.802 7.9037 123.137 8.44394C123.497 8.95846 123.561 9.48584 123.33 10.0261C123.047 10.6435 122.635 11.0294 122.095 11.1837C121.555 11.3381 120.461 11.3895 118.815 11.3381C117.529 11.2866 116.088 11.2481 114.493 11.2223C113.618 11.1966 112.962 11.1709 112.525 11.1452C112.113 11.1194 111.689 11.0294 111.252 10.875C110.814 10.695 110.518 10.5149 110.364 10.3348C110.235 10.1547 110.107 9.80741 109.978 9.29289C109.849 8.77838 109.772 8.26386 109.747 7.74934C109.747 7.2091 109.747 6.41159 109.747 5.35683C109.747 4.04481 109.798 3.14441 109.901 2.65562C110.004 2.1411 110.222 1.71662 110.557 1.38219C110.814 1.12493 111.071 0.944848 111.329 0.841945C111.586 0.739041 112.036 0.636137 112.679 0.533234ZM120.358 13.5762C122.931 13.4733 124.475 13.4862 124.989 13.6148C125.684 13.8464 126.108 14.3223 126.263 15.0426C126.417 15.7372 126.224 16.3161 125.684 16.7791C125.349 17.0621 124.925 17.2293 124.41 17.2808C123.896 17.3065 122.108 17.3451 119.046 17.3965C115.419 17.4223 112.589 17.4737 110.557 17.5509C108.936 17.6281 107.907 17.6667 107.47 17.6667C107.058 17.6409 106.711 17.538 106.428 17.358C106.016 17.1007 105.733 16.7277 105.579 16.2389C105.45 15.7244 105.515 15.3127 105.772 15.004C105.849 14.9269 105.888 14.8625 105.888 14.8111C105.888 14.7339 105.978 14.6181 106.158 14.4638C106.364 14.3094 106.557 14.1937 106.737 14.1165C107.02 13.9879 107.547 13.8978 108.319 13.8464C109.091 13.7949 110.853 13.7563 113.605 13.7306C116.95 13.6792 119.201 13.6277 120.358 13.5762ZM109.785 19.2874C109.862 19.1588 110.145 19.1716 110.634 19.326C111.123 19.4803 111.457 19.6604 111.637 19.8662C111.869 20.1492 111.998 20.4322 112.023 20.7152C112.075 20.9724 112.113 21.8343 112.139 23.3006C112.139 25.0757 112.178 25.989 112.255 26.0404C112.332 26.0919 113.94 26.1047 117.078 26.079C117.259 26.079 117.529 26.079 117.889 26.079C120.05 26.0533 121.323 26.0662 121.709 26.1176C122.095 26.1691 122.404 26.3363 122.635 26.6193C122.661 26.645 122.687 26.6707 122.712 26.6964C123.175 27.2881 123.278 27.8927 123.021 28.5101C122.79 29.1533 122.301 29.5649 121.555 29.745C121.323 29.7964 119.574 29.8479 116.307 29.8993C113.065 29.9765 111.226 29.9894 110.788 29.9379C110.325 29.8865 109.888 29.7321 109.476 29.4748C109.065 29.2176 108.782 28.9089 108.627 28.5487C108.473 28.1628 108.357 26.8122 108.28 24.4969C108.203 22.1816 108.242 20.8953 108.396 20.638C108.473 20.4836 108.512 20.3679 108.512 20.2907C108.512 20.2135 108.64 20.0592 108.898 19.8276C109.181 19.5704 109.386 19.4289 109.515 19.4032C109.669 19.3774 109.759 19.3388 109.785 19.2874Z" fill="#EEF5FF"/>
  <path d="M92.59 3.27301C93.5933 3.22156 94.1079 3.18297 94.1336 3.15724C94.1593 3.13152 94.9697 3.11865 96.5647 3.11865C98.4427 3.11865 99.6646 3.20869 100.231 3.38878C100.822 3.54313 101.298 3.92902 101.658 4.54644C101.813 4.85515 101.89 5.88419 101.89 7.63354C101.916 9.3829 101.838 11.2352 101.658 13.1903C101.607 14.1165 101.363 14.7982 100.925 15.2355C100.514 15.6472 99.8576 15.9173 98.9572 16.0459C98.3398 16.0974 97.9539 16.1488 97.7995 16.2003C97.6966 16.226 97.6323 16.3289 97.6066 16.509C97.6066 16.689 97.6066 17.3193 97.6066 18.3998C97.6066 19.7376 97.5937 20.921 97.568 21.95C97.5423 22.8761 97.5551 23.3778 97.6066 23.455C97.658 23.5321 98.0825 23.5836 98.88 23.6093C99.7032 23.635 100.526 23.6222 101.35 23.5707C103.15 23.4678 104.244 23.4421 104.63 23.4935C105.016 23.5193 105.376 23.6736 105.71 23.9566C106.636 24.8313 106.636 25.7317 105.71 26.6578C105.402 26.9665 105.003 27.1466 104.514 27.1981C104.025 27.2752 102.43 27.3267 99.729 27.3524C96.5904 27.4296 95.0083 27.4682 94.9825 27.4682C94.8796 27.5454 93.439 27.5711 90.6606 27.5454C87.8822 27.5196 86.4158 27.4811 86.2615 27.4296C85.6183 27.1466 85.2196 26.6836 85.0652 26.0404C84.9109 25.3715 85.0781 24.8184 85.5669 24.3811C85.8756 24.0981 86.1971 23.918 86.5316 23.8408C86.8917 23.7637 87.6378 23.7379 88.7697 23.7637C91.651 23.7894 93.2332 23.7122 93.5162 23.5321C93.6191 23.4807 93.6705 23.3392 93.6705 23.1077C93.6962 22.8504 93.6962 22.0014 93.6705 20.5608C93.6705 18.6314 93.6834 17.4094 93.7091 16.8949C93.7606 16.4318 93.7477 16.1617 93.6705 16.0845C93.6191 15.9816 93.4261 15.9301 93.0917 15.9301C90.8278 15.9301 89.5287 14.9654 89.1942 13.036C89.0913 12.5472 89.0399 11.2352 89.0399 9.09992C89.0399 6.93894 89.0784 5.7041 89.1556 5.39539C89.3872 4.57216 89.7216 4.03192 90.1589 3.77466C90.5963 3.49168 91.4066 3.32446 92.59 3.27301ZM97.9925 7.0933C97.8638 6.93894 97.0406 6.87463 95.5228 6.90036C94.005 6.90036 93.1689 6.97753 93.0145 7.13189C92.9631 7.18334 92.9116 7.7879 92.8601 8.94556C92.8344 10.1032 92.8473 10.9136 92.8987 11.3767C92.9245 11.6596 93.0402 11.8269 93.246 11.8783C93.4518 11.9298 94.1464 11.9812 95.3298 12.0327C96.5389 12.0841 97.2464 12.097 97.4522 12.0713C97.658 12.0455 97.7995 11.9555 97.8767 11.8011C97.9539 11.6211 98.0053 10.8107 98.031 9.37004C98.0568 7.92939 98.0439 7.17048 97.9925 7.0933Z" fill="#EE9B00"/>
  <path d="M69.6453 4.12197C69.9026 3.94189 70.2885 3.9033 70.803 4.0062C71.3175 4.10911 71.6905 4.30205 71.9221 4.58504C71.9478 4.58504 71.9607 4.5979 71.9607 4.62362C72.1922 4.88088 72.3208 5.33108 72.3465 5.97423C72.398 6.59165 72.4109 8.63686 72.3851 12.1099C72.3851 12.2642 72.3851 12.3928 72.3851 12.4957C72.3337 17.3579 72.3208 20.445 72.3465 21.7571C72.3465 23.4292 72.3208 24.4197 72.2694 24.7284C72.1665 25.3458 71.8963 25.8217 71.459 26.1562C71.0217 26.4649 70.5457 26.5678 70.0312 26.4649C69.5167 26.362 69.1051 26.0533 68.7964 25.5388C68.6163 25.2815 68.5263 21.8857 68.5263 15.3513C68.5263 8.81694 68.6034 5.3954 68.7578 5.08669C68.9379 4.7008 69.2337 4.37923 69.6453 4.12197ZM57.2969 4.73939C58.1716 4.58503 59.1492 4.71366 60.2297 5.12528C61.3359 5.51117 62.1977 6.05141 62.8151 6.74601C63.4583 7.44061 63.8313 8.40533 63.9342 9.64017C64.0628 10.875 63.8956 11.9812 63.4325 12.9588C63.0724 13.7049 62.6608 14.2965 62.1977 14.7339C61.7346 15.1712 61.1301 15.5443 60.384 15.853C59.2521 16.316 57.9658 16.3418 56.5251 15.9301C55.0845 15.4928 53.9911 14.7725 53.2451 13.7692C52.6534 12.9974 52.3318 12.1099 52.2804 11.1065C52.2289 10.1032 52.3961 9.1771 52.782 8.32815C53.1936 7.45347 53.7982 6.68169 54.5957 6.01282C55.3932 5.31822 56.2936 4.89375 57.2969 4.73939ZM59.2264 8.75262C58.4546 8.52109 57.7471 8.61113 57.104 9.02275C56.4608 9.43436 56.1392 10.0003 56.1392 10.7207C56.1392 11.3381 56.4866 11.814 57.1812 12.1484C57.8757 12.4571 58.5575 12.4571 59.2264 12.1484C59.921 11.8397 60.2683 11.248 60.2683 10.3734C60.2683 9.49867 59.921 8.95843 59.2264 8.75262ZM64.3587 19.0944C64.9761 19.0172 65.4649 19.0301 65.825 19.133C66.1337 19.2102 66.4296 19.3645 66.7126 19.5961C66.9698 19.8276 67.1371 20.1492 67.2142 20.5608C67.3171 20.9467 67.2914 21.294 67.1371 21.6027C66.8541 22.1944 66.391 22.5803 65.7479 22.7604C65.1304 22.9147 63.9085 22.9919 62.0819 22.9919C60.8985 22.9919 59.5608 23.0176 58.0687 23.0691C54.853 23.2234 53.065 23.2492 52.7048 23.1462C51.9588 22.9404 51.47 22.516 51.2385 21.8728C51.0327 21.2039 51.187 20.5994 51.7015 20.0591C51.9845 19.7504 52.2932 19.5704 52.6277 19.5189C52.9621 19.4674 53.9397 19.416 55.5604 19.3645C57.4899 19.3388 58.7376 19.3002 59.3035 19.2488C59.9467 19.1973 60.8342 19.1587 61.9662 19.133C63.201 19.133 63.9985 19.1201 64.3587 19.0944Z" fill="#EEF5FF"/>
  <path d="M44.1127 0.224486C44.4728 0.121583 44.8458 0.134445 45.2317 0.263075C45.6433 0.365978 45.9521 0.558923 46.1579 0.841908C46.3894 1.12489 46.518 1.39501 46.5438 1.65227C46.5952 1.90953 46.6209 2.59127 46.6209 3.69748C46.6209 5.03522 46.6467 5.74269 46.6981 5.81986C46.7753 5.87132 47.4184 5.89704 48.6275 5.89704C49.6566 5.92277 50.2997 5.97422 50.557 6.0514C50.8142 6.10285 51.0972 6.28293 51.4059 6.59164C51.869 7.08043 52.0491 7.60781 51.9462 8.17378C51.869 8.71402 51.5474 9.1385 50.9815 9.44721C50.8271 9.52439 50.647 9.57584 50.4412 9.60157C50.2354 9.60157 49.6437 9.60157 48.6661 9.60157C48.5375 9.60157 48.3574 9.60157 48.1259 9.60157C47.2769 9.57584 46.7753 9.62729 46.6209 9.75592C46.4923 9.88455 46.4408 10.3605 46.4666 11.1837C46.4923 11.3895 46.5052 11.5567 46.5052 11.6854C46.5309 12.6115 46.5566 13.3704 46.5823 13.9621C46.6595 15.0683 46.3251 15.8401 45.579 16.2774C44.833 16.689 44.0869 16.5347 43.3409 15.8144C43.3152 15.8144 43.2894 15.8015 43.2637 15.7758C43.0064 15.5185 42.8521 15.1069 42.8006 14.5409C42.7492 13.9492 42.7363 12.0327 42.7621 8.7912C42.7621 8.55967 42.7621 8.37959 42.7621 8.25096C42.7621 5.03522 42.7749 3.14437 42.8006 2.5784C42.8264 2.01243 42.8907 1.60082 42.9936 1.34356C43.3023 0.700415 43.6753 0.32739 44.1127 0.224486ZM34.7742 1.18921C35.1343 1.13776 35.4688 1.17634 35.7775 1.30497C35.9833 1.38215 36.1762 1.49792 36.3563 1.65227C36.5621 1.80663 36.665 1.92239 36.665 1.99957C36.665 2.07675 36.7036 2.14106 36.7808 2.19252C36.9866 2.3726 37.0509 2.69417 36.9737 3.15724C36.9223 3.6203 36.7422 4.09623 36.4335 4.58502C36.3306 4.73938 36.2663 4.86801 36.2405 4.97091C36.1376 5.12526 36.0347 5.27962 35.9318 5.43397C35.5202 6.10285 35.2887 6.57878 35.2372 6.86176C35.1858 7.11902 35.263 7.36342 35.4688 7.59495C35.7518 7.92939 35.919 8.13519 35.9704 8.21237C36.4592 8.77834 37.2053 9.56298 38.2086 10.5663C38.7231 11.1065 39.0704 11.5181 39.2505 11.8011C39.4306 12.0841 39.5206 12.38 39.5206 12.6887C39.5206 13.0231 39.392 13.3575 39.1347 13.692C38.9032 14.0264 38.6331 14.2322 38.3243 14.3094C38.17 14.3351 38.0799 14.3737 38.0542 14.4252C38.0028 14.4766 37.8484 14.4895 37.5911 14.4638C37.3596 14.438 37.1538 14.3866 36.9737 14.3094C36.665 14.1293 36.3434 13.9107 36.009 13.6534C35.7003 13.3704 35.0829 12.7401 34.1567 11.7625C33.5136 11.1194 33.1534 10.7978 33.0763 10.7978C33.0248 10.7978 32.8447 11.0551 32.536 11.5696C32.1244 12.2385 31.7514 12.8302 31.4169 13.3447C31.0568 13.9107 30.7352 14.2965 30.4522 14.5023C30.1692 14.7082 29.8219 14.8111 29.4103 14.8111C28.5356 14.8111 27.9568 14.4252 27.6738 13.6534C27.3908 12.8559 27.5709 12.097 28.2141 11.3767C28.2655 11.3252 28.2912 11.2737 28.2912 11.2223C28.2912 11.0937 28.78 10.2704 29.7576 8.75261C29.8605 8.57253 29.9634 8.37959 30.0663 8.17378C30.2207 7.8908 30.3236 7.69785 30.375 7.59495C30.4522 7.44059 30.5037 7.35055 30.5294 7.32483C30.5809 7.27338 30.6709 7.11902 30.7995 6.86176C31.0311 6.42442 31.1725 6.16716 31.224 6.08998C31.3526 5.85845 31.4427 5.69123 31.4941 5.58833C31.6742 5.27962 31.79 5.07381 31.8414 4.97091C31.9443 4.79083 32.0086 4.6622 32.0344 4.58502C32.0858 4.50784 32.253 4.22486 32.536 3.73607C32.8447 3.22155 33.0248 2.9257 33.0763 2.84853C33.2049 2.48836 33.4493 2.14106 33.8094 1.80663C34.1953 1.44647 34.5169 1.24066 34.7742 1.18921ZM39.9837 17.7052C40.704 17.628 41.4372 17.6666 42.1832 17.821C42.389 17.8724 42.6206 17.9239 42.8778 17.9753C43.1351 18.0268 43.3409 18.0782 43.4952 18.1297C43.6753 18.2069 43.7782 18.2455 43.8039 18.2455C44.0098 18.2455 44.3956 18.477 44.9616 18.9401C45.5276 19.4031 45.9135 19.8019 46.1193 20.1363C46.2736 20.3421 46.428 20.638 46.5823 21.0239C46.7624 21.4097 46.8525 21.6541 46.8525 21.757C46.8525 21.8342 46.8911 21.9886 46.9682 22.2201C47.2769 23.172 47.1869 24.3296 46.6981 25.6931C46.2093 27.0308 45.5019 28.0599 44.5757 28.7802C44.2156 29.0632 43.7525 29.3204 43.1865 29.552C43.1608 29.5777 42.9807 29.6549 42.6463 29.7835C42.5434 29.835 42.3762 29.8864 42.1446 29.9379C41.6301 30.015 41.3343 30.0665 41.2571 30.0922C40.2538 30.2723 39.0961 30.0794 37.7841 29.5134C36.4721 28.9731 35.6103 28.3043 35.1986 27.5068C35.1986 27.481 35.1729 27.4296 35.1215 27.3524C35.0957 27.301 35.07 27.2495 35.0443 27.1981C35.0443 27.1723 35.0314 27.1595 35.0057 27.1595C34.697 26.5935 34.504 25.9889 34.4269 25.3458C34.1696 23.7251 34.5298 22.2072 35.5074 20.7923C36.0219 20.0463 36.7036 19.3774 37.5526 18.7857C38.4272 18.1683 39.2376 17.8081 39.9837 17.7052ZM42.106 21.8342C41.8488 21.757 41.5015 21.7185 41.0641 21.7185C40.6268 21.7185 40.2795 21.757 40.0222 21.8342C39.2505 22.0143 38.6845 22.5803 38.3243 23.5321C37.9642 24.484 38.0285 25.23 38.5173 25.7703C38.8003 26.079 39.3276 26.2719 40.0994 26.3491C40.8712 26.4263 41.4886 26.3491 41.9517 26.1176C42.5177 25.8089 42.9164 25.3458 43.1479 24.7284C43.3795 24.0852 43.3923 23.4807 43.1865 22.9147C43.0064 22.323 42.6463 21.9628 42.106 21.8342Z" fill="#EEF5FF"/>
  <path d="M22.1863 4.4693C22.4435 4.31494 22.778 4.27635 23.1896 4.35353C23.6012 4.40498 23.9356 4.54647 24.1929 4.77801C24.2186 4.80373 24.2444 4.82946 24.2701 4.85518C24.5273 5.08672 24.6688 5.43402 24.6946 5.89708C24.746 6.33442 24.7589 7.8008 24.7332 10.2962C24.7332 10.6564 24.7332 10.9394 24.7332 11.1452C24.7332 14.9011 24.7589 17.5252 24.8103 19.0173C24.9132 21.8728 24.9518 23.5836 24.9261 24.1496C24.9004 24.7156 24.7589 25.1529 24.5016 25.4616C24.1672 25.9504 23.6784 26.1819 23.0352 26.1562C22.3921 26.1305 21.9162 25.8732 21.6075 25.3844C21.4274 25.1272 21.3116 24.7927 21.2602 24.3811C21.2087 23.9438 21.1701 23.0048 21.1444 21.5641C21.1187 19.9177 21.0801 18.5928 21.0286 17.5895C20.9772 16.6376 20.9514 14.5796 20.9514 11.4153C20.9514 8.22527 20.9772 6.45019 21.0286 6.09003C21.183 5.31825 21.5689 4.77801 22.1863 4.4693ZM7.09807 5.85849C7.56113 5.70414 7.81839 5.69128 7.86985 5.81991C7.9213 5.87136 7.99847 5.89708 8.10138 5.89708C8.41009 5.89708 8.7188 6.10289 9.02751 6.5145C9.36195 6.90039 9.5163 7.28628 9.49058 7.67217C9.49058 8.10951 8.78311 9.67879 7.36819 12.38C7.21384 12.7144 7.16238 12.9717 7.21384 13.1518C7.26529 13.3319 7.49682 13.692 7.90843 14.2323C8.60303 15.1327 9.01465 15.7115 9.14328 15.9688C9.14328 15.9688 9.29763 16.2132 9.60634 16.7019C10.3781 17.8596 10.8412 18.5928 10.9955 18.9015C11.1499 19.2102 11.2271 19.5189 11.2271 19.8276C11.2271 20.2907 10.9184 20.7666 10.3009 21.2554C10.2238 21.3069 10.1209 21.3455 9.99223 21.3712C9.81215 21.4226 9.67066 21.4741 9.56775 21.5255C9.38767 21.577 9.13041 21.5513 8.79598 21.4484C8.48727 21.3455 8.21714 21.1782 7.98561 20.9467C7.70263 20.7409 7.34246 20.265 6.90512 19.5189C6.31343 18.5156 5.82464 17.7953 5.43875 17.358C5.31012 17.1779 5.19436 17.1136 5.09145 17.165C5.01427 17.2165 4.87278 17.4351 4.66698 17.821C4.46117 18.2584 4.33254 18.5028 4.28109 18.5542C4.22964 18.6314 4.17818 18.7086 4.12673 18.7857C3.8952 19.3003 3.59935 19.7505 3.23919 20.1364C2.82758 20.548 2.37737 20.7666 1.88858 20.7924C1.39979 20.7924 1.00104 20.638 0.692328 20.3293C0.383618 20.0206 0.164948 19.6347 0.0363189 19.1716C-0.0665846 18.7086 0.0491818 18.2069 0.383618 17.6667C0.409344 17.6409 0.885273 16.6891 1.8114 14.8111C2.78899 12.8817 3.38068 11.724 3.58649 11.3381C4.02383 10.4892 4.33254 9.91032 4.51262 9.60161C4.89851 8.85556 5.16863 8.34104 5.32298 8.05805C5.50307 7.72362 5.65742 7.42777 5.78605 7.17051C5.91468 6.91325 6.10762 6.656 6.36488 6.39874C6.64787 6.11575 6.89226 5.93567 7.09807 5.85849ZM15.7805 6.59168C16.2179 6.3087 16.7195 6.3087 17.2855 6.59168C17.8515 6.84894 18.2116 7.26055 18.366 7.82652C18.4432 8.13523 18.456 10.6178 18.4046 15.2742C18.3789 19.9048 18.3145 22.2973 18.2116 22.4517C18.1345 22.6318 17.993 22.8247 17.7872 23.0305C17.5814 23.2106 17.4141 23.3006 17.2855 23.3006C17.2083 23.3006 17.1183 23.3392 17.0154 23.4164C16.7581 23.5965 16.398 23.5708 15.9349 23.3392C15.4718 23.082 15.1245 22.7347 14.893 22.2973C14.6872 21.8857 14.61 20.5222 14.6615 18.2069C14.6615 18.0268 14.6615 17.7953 14.6615 17.5123C14.7129 16.6376 14.6615 16.136 14.5071 16.0074C14.3785 15.853 13.9154 15.763 13.1179 15.7372C12.8349 15.7372 12.6163 15.7372 12.4619 15.7372C11.5358 15.7115 10.9698 15.6858 10.764 15.6601C10.5839 15.6343 10.4038 15.5571 10.2238 15.4285C9.7607 15.1198 9.49057 14.6825 9.4134 14.1165C9.33622 13.5505 9.47771 13.0746 9.83787 12.6887C10.1209 12.3543 10.4553 12.1485 10.8412 12.0713C11.2528 11.9684 11.9988 11.9169 13.0793 11.9169C14.1084 11.9169 14.6486 11.8783 14.7001 11.8012C14.7772 11.724 14.7901 11.0808 14.7387 9.87173C14.7129 8.73979 14.7515 7.98088 14.8544 7.59499C14.983 7.2091 15.2918 6.87467 15.7805 6.59168Z" fill="#EE9B00"/>
  <path d="M178.522 43.8684C178.633 43.8208 178.783 43.8129 178.974 43.8446C179.18 43.8763 179.339 43.9319 179.45 44.0112C179.989 44.3444 180.132 44.8759 179.878 45.6057C179.783 45.9072 179.727 46.1372 179.712 46.2959C179.68 46.4704 179.632 46.645 179.569 46.8195C179.505 46.9782 179.45 47.1765 179.402 47.4145C179.37 47.6207 179.315 47.8032 179.236 47.9618C179.156 48.1046 179.117 48.2157 179.117 48.295C179.117 48.4061 179.085 48.541 179.021 48.6996C178.942 48.9217 178.887 49.0963 178.855 49.2232C178.791 49.4136 178.728 49.5723 178.664 49.6992C178.617 49.7944 178.577 49.8975 178.545 50.0086C178.53 50.1038 178.482 50.2069 178.403 50.318C178.323 50.429 178.268 50.5639 178.236 50.7225C178.204 50.8653 178.165 50.9843 178.117 51.0795C178.054 51.1906 177.998 51.3334 177.95 51.5079C177.808 52.0315 177.673 52.3964 177.546 52.6027C177.419 52.8089 177.276 52.9359 177.117 52.9835C176.975 53.0152 176.864 53.0628 176.784 53.1263C176.673 53.1739 176.586 53.1897 176.523 53.1739C176.475 53.1739 176.348 53.1342 176.142 53.0549C175.888 52.9279 175.666 52.7455 175.475 52.5075C175.285 52.2695 175.031 51.857 174.714 51.2699C174.381 50.6194 174.047 50.0086 173.714 49.4374C173.619 49.2946 173.524 49.128 173.429 48.9376C173.349 48.7631 173.262 48.6838 173.167 48.6996C173.072 48.7155 173.008 48.8107 172.976 48.9852C172.945 49.1121 172.873 49.3025 172.762 49.5564C172.651 49.8102 172.572 49.9689 172.524 50.0324C172.461 50.1117 172.429 50.1672 172.429 50.199C172.429 50.2307 172.389 50.318 172.31 50.4608C172.215 50.6035 172.151 50.7225 172.12 50.8177C172.072 50.9447 172.017 51.0557 171.953 51.1509C171.874 51.2461 171.834 51.3175 171.834 51.3651C171.834 51.3969 171.786 51.4841 171.691 51.6269C171.596 51.7697 171.548 51.857 171.548 51.8887C171.548 51.9204 171.485 52.0236 171.358 52.1981C171.231 52.3568 171.128 52.4678 171.049 52.5313C170.922 52.6423 170.716 52.7137 170.43 52.7455C170.16 52.7613 169.938 52.7296 169.764 52.6503C169.605 52.5709 169.407 52.3726 169.169 52.0553C168.931 51.7221 168.812 51.4762 168.812 51.3175C168.812 51.2699 168.764 51.143 168.669 50.9367C168.399 50.3497 168.201 49.9451 168.074 49.723C168.01 49.5802 167.963 49.4295 167.931 49.2708C167.899 49.1439 167.844 48.9693 167.764 48.7472C167.526 48.1126 167.352 47.5493 167.241 47.0575C167.209 46.8988 167.162 46.7322 167.098 46.5577C166.971 46.1769 166.939 45.7406 167.003 45.2487C167.035 45.0108 167.154 44.8124 167.36 44.6538C167.566 44.4951 167.804 44.4158 168.074 44.4158C168.264 44.4158 168.478 44.4872 168.716 44.63C168.97 44.7728 169.121 44.9156 169.169 45.0584C169.343 45.5185 169.454 45.8675 169.502 46.1055C169.549 46.3276 169.597 46.5101 169.645 46.6529C169.708 46.7957 169.756 46.9544 169.787 47.1289C169.819 47.3193 169.867 47.4938 169.93 47.6525C170.009 47.8111 170.057 47.946 170.073 48.057C170.168 48.4696 170.279 48.6917 170.406 48.7234C170.549 48.7393 170.668 48.5489 170.763 48.1522C170.795 48.0094 170.858 47.8508 170.954 47.6763C171.033 47.5017 171.073 47.3907 171.073 47.3431C171.073 47.2955 171.112 47.2082 171.191 47.0813C171.255 46.9544 171.311 46.8116 171.358 46.6529C171.422 46.4784 171.477 46.3673 171.525 46.3197C171.572 46.2721 171.612 46.1531 171.644 45.9627C171.675 45.7565 171.731 45.6057 171.81 45.5105C171.874 45.3995 171.921 45.3043 171.953 45.225C172.048 45.0028 172.278 44.8362 172.643 44.7252C173.008 44.5982 173.302 44.5903 173.524 44.7014C173.698 44.7966 173.881 44.9552 174.071 45.1774C174.262 45.3995 174.389 45.6137 174.452 45.8199C174.484 45.9151 174.547 46.05 174.642 46.2245C174.722 46.3832 174.761 46.4784 174.761 46.5101C174.761 46.5418 174.809 46.6212 174.904 46.7481C174.984 46.875 175.023 46.9623 175.023 47.0099C175.023 47.0416 175.079 47.1209 175.19 47.2479C175.285 47.3907 175.356 47.5176 175.404 47.6287C175.467 47.7239 175.563 47.8667 175.69 48.057C175.816 48.2474 175.896 48.3823 175.928 48.4616C176.102 48.8583 176.197 49.0566 176.213 49.0566C176.324 49.0566 176.38 49.009 176.38 48.9138C176.38 48.8503 176.411 48.771 176.475 48.6758C176.538 48.5806 176.594 48.422 176.641 48.1998C176.689 47.9936 176.745 47.8429 176.808 47.7477C176.856 47.6525 176.895 47.5335 176.927 47.3907C176.943 47.2479 176.975 47.1209 177.022 47.0099C177.086 46.883 177.149 46.6608 177.213 46.3435C177.276 46.0262 177.332 45.8199 177.379 45.7247C177.427 45.5978 177.474 45.4074 177.522 45.1536C177.601 44.7728 177.712 44.4872 177.855 44.2968C178.014 44.0905 178.236 43.9477 178.522 43.8684Z" fill="#EF233C"/>
  <path d="M159.952 43.9397C160.19 43.8445 160.666 43.7969 161.38 43.7969C162.11 43.7811 162.578 43.8128 162.784 43.8921C162.943 43.9556 163.046 43.9873 163.094 43.9873C163.157 43.9873 163.34 44.0667 163.641 44.2253C163.943 44.384 164.149 44.503 164.26 44.5823C164.514 44.7727 164.784 45.0266 165.069 45.3439C165.371 45.6453 165.521 45.8357 165.521 45.9151C165.521 45.9468 165.545 45.9785 165.593 46.0103C165.688 46.042 165.791 46.2641 165.902 46.6766C166.013 47.0891 166.045 47.3985 165.997 47.6048C165.886 48.176 165.617 48.5806 165.188 48.8185C164.776 49.0565 164.062 49.1993 163.046 49.2469C162.475 49.2628 162.134 49.3025 162.023 49.3659C161.896 49.4135 161.531 49.4453 160.928 49.4611C160.262 49.4611 159.929 49.5008 159.929 49.5801C159.929 49.6119 159.976 49.6832 160.071 49.7943C160.151 49.8895 160.19 49.953 160.19 49.9847C160.19 50.0164 160.27 50.1037 160.428 50.2465C160.587 50.3734 160.698 50.4369 160.762 50.4369C160.825 50.4369 160.912 50.4766 161.023 50.5559C161.134 50.6511 161.364 50.6987 161.714 50.6987C162.078 50.6987 162.38 50.659 162.618 50.5797C162.824 50.5004 163.015 50.4528 163.189 50.4369C163.364 50.4052 163.53 50.3576 163.689 50.2941C163.832 50.2148 163.99 50.1592 164.165 50.1275C164.308 50.0958 164.442 50.0482 164.569 49.9847C164.76 49.8736 165.014 49.834 165.331 49.8657C165.648 49.8816 165.886 49.953 166.045 50.0799C166.378 50.3655 166.521 50.7383 166.473 51.1985C166.442 51.6427 166.243 51.9759 165.878 52.198C165.45 52.4519 164.934 52.6343 164.331 52.7454C164.093 52.793 163.911 52.8406 163.784 52.8882C163.689 52.9358 163.506 52.9755 163.237 53.0072C162.983 53.0389 162.784 53.0786 162.642 53.1262C162.356 53.2055 161.88 53.2214 161.214 53.1738C160.563 53.1262 160.143 53.0389 159.952 52.912C159.873 52.8485 159.754 52.8009 159.595 52.7692C159.389 52.7216 159.08 52.5233 158.667 52.1742C158.08 51.6824 157.707 51.1191 157.549 50.4845C157.501 50.2941 157.453 50.1513 157.406 50.0561C157.342 49.945 157.311 49.5008 157.311 48.7234C157.311 47.9459 157.342 47.4937 157.406 47.3668C157.469 47.224 157.533 47.0336 157.596 46.7956C157.977 45.3201 158.762 44.3681 159.952 43.9397ZM162.404 46.4624C162.308 46.3672 162.023 46.3276 161.547 46.3434C161.071 46.3593 160.769 46.4148 160.643 46.51C160.373 46.7163 160.309 46.8353 160.452 46.867C160.547 46.8829 160.777 46.8908 161.142 46.8908C162.078 46.875 162.515 46.7639 162.451 46.5576C162.451 46.5259 162.435 46.4942 162.404 46.4624Z" fill="#EF233C"/>
  <path d="M153.325 44.0825C153.896 43.8128 154.388 43.9476 154.8 44.4871L155.014 44.7965L155.038 47.1764C155.038 48.7789 155.054 49.6832 155.086 49.8895C155.118 50.1909 155.133 50.6114 155.133 51.1508C155.149 51.6744 155.141 51.9917 155.11 52.1028C155.094 52.198 155.07 52.3091 155.038 52.436C155.006 52.6264 154.872 52.8009 154.634 52.9596C154.411 53.1182 154.181 53.1976 153.943 53.1976C153.674 53.1976 153.467 53.1579 153.325 53.0786C153.198 52.9992 153.047 52.8326 152.872 52.5788L152.634 52.2456L152.587 50.8176C152.476 47.0098 152.523 44.9631 152.73 44.6775C152.777 44.5981 152.833 44.5029 152.896 44.3919C152.976 44.2808 153.118 44.1777 153.325 44.0825Z" fill="#EF233C"/>
  <path d="M148.864 43.7255C149.388 43.5986 149.808 43.7731 150.126 44.2491C150.459 44.7092 150.483 45.1773 150.197 45.6532C150.134 45.7643 150.086 45.8992 150.054 46.0578C150.038 46.2006 149.991 46.3275 149.912 46.4386C149.848 46.5338 149.793 46.6687 149.745 46.8432C149.681 47.0019 149.634 47.1129 149.602 47.1764C149.555 47.2398 149.499 47.3668 149.436 47.5572C149.372 47.7317 149.324 47.8428 149.293 47.8904C149.261 47.9221 149.221 48.0331 149.174 48.2235C149.126 48.4298 149.063 48.5964 148.983 48.7233C148.745 49.2152 148.611 49.5404 148.579 49.6991C148.563 49.7784 148.523 49.8577 148.46 49.9371C148.412 50.0164 148.357 50.1354 148.293 50.2941C148.246 50.4369 148.19 50.5479 148.127 50.6272C148.063 50.7066 148.031 50.7621 148.031 50.7938C148.031 50.8256 147.992 50.897 147.912 51.008C147.849 51.1032 147.785 51.2143 147.722 51.3412C147.69 51.4682 147.659 51.5554 147.627 51.603C147.595 51.6347 147.508 51.7855 147.365 52.0552C147.127 52.5153 146.921 52.8168 146.746 52.9596C146.572 53.1024 146.326 53.1817 146.008 53.1976C145.659 53.2134 145.374 53.1182 145.152 52.912C144.93 52.7057 144.565 52.1901 144.057 51.365C143.851 51.0318 143.597 50.5717 143.295 49.9847C143.01 49.3818 142.819 48.9375 142.724 48.6519C142.486 47.9538 142.351 47.5889 142.32 47.5572C142.304 47.5254 142.264 47.4302 142.201 47.2716C142.153 47.097 142.09 46.9384 142.01 46.7956C141.947 46.6528 141.907 46.5338 141.891 46.4386C141.859 46.3434 141.804 46.2403 141.725 46.1292C141.503 45.796 141.376 45.5263 141.344 45.32C141.328 45.0979 141.399 44.8679 141.558 44.6299C141.844 44.1856 142.28 44.0349 142.867 44.1777C143.073 44.2094 143.295 44.3205 143.533 44.5109C143.771 44.7013 143.89 44.852 143.89 44.9631C143.89 44.9948 143.93 45.0662 144.009 45.1773C144.089 45.3042 144.152 45.447 144.2 45.6056C144.263 45.796 144.311 45.915 144.343 45.9626C144.374 45.9944 144.422 46.1213 144.485 46.3434C144.549 46.5655 144.612 46.7401 144.676 46.867C144.739 46.9781 144.787 47.105 144.819 47.2478C144.834 47.3906 144.874 47.5016 144.938 47.581C144.985 47.6762 145.033 47.7872 145.08 47.9142C145.128 48.0252 145.183 48.1283 145.247 48.2235C145.31 48.3029 145.35 48.3981 145.366 48.5091C145.398 48.6202 145.461 48.7789 145.556 48.9851C145.667 49.2072 145.723 49.3342 145.723 49.3659C145.723 49.3976 145.747 49.4373 145.794 49.4849C145.858 49.5325 145.897 49.5484 145.913 49.5325C145.945 49.5008 146.008 49.3659 146.104 49.1279C146.215 48.8899 146.278 48.7392 146.294 48.6757C146.31 48.5964 146.35 48.5091 146.413 48.4139C146.461 48.3346 146.508 48.2235 146.556 48.0807C146.588 47.9538 146.643 47.8269 146.722 47.7C146.786 47.5572 146.826 47.4461 146.841 47.3668C146.873 47.2716 146.921 47.1764 146.984 47.0812C147.064 46.9701 147.111 46.8432 147.127 46.7004C147.175 46.3831 147.246 46.2244 147.341 46.2244C147.373 46.2244 147.397 46.1689 147.413 46.0578C147.428 45.9468 147.476 45.804 147.555 45.6294C147.651 45.4549 147.722 45.2883 147.77 45.1297C147.928 44.6219 148.071 44.2808 148.198 44.1063C148.341 43.9159 148.563 43.789 148.864 43.7255Z" fill="#EF233C"/>
  <path d="M134.317 43.9397C134.555 43.8445 135.031 43.7969 135.745 43.7969C136.475 43.7811 136.943 43.8128 137.149 43.8921C137.308 43.9556 137.411 43.9873 137.459 43.9873C137.522 43.9873 137.705 44.0667 138.006 44.2253C138.308 44.384 138.514 44.503 138.625 44.5823C138.879 44.7727 139.148 45.0266 139.434 45.3439C139.735 45.6453 139.886 45.8357 139.886 45.9151C139.886 45.9468 139.91 45.9785 139.958 46.0103C140.053 46.042 140.156 46.2641 140.267 46.6766C140.378 47.0891 140.41 47.3985 140.362 47.6048C140.251 48.176 139.981 48.5806 139.553 48.8185C139.141 49.0565 138.427 49.1993 137.411 49.2469C136.84 49.2628 136.499 49.3025 136.388 49.3659C136.261 49.4135 135.896 49.4453 135.293 49.4611C134.627 49.4611 134.293 49.5008 134.293 49.5801C134.293 49.6119 134.341 49.6832 134.436 49.7943C134.516 49.8895 134.555 49.953 134.555 49.9847C134.555 50.0164 134.635 50.1037 134.793 50.2465C134.952 50.3734 135.063 50.4369 135.126 50.4369C135.19 50.4369 135.277 50.4766 135.388 50.5559C135.499 50.6511 135.729 50.6987 136.078 50.6987C136.443 50.6987 136.745 50.659 136.983 50.5797C137.189 50.5004 137.379 50.4528 137.554 50.4369C137.728 50.4052 137.895 50.3576 138.054 50.2941C138.196 50.2148 138.355 50.1592 138.53 50.1275C138.672 50.0958 138.807 50.0482 138.934 49.9847C139.125 49.8736 139.379 49.834 139.696 49.8657C140.013 49.8816 140.251 49.953 140.41 50.0799C140.743 50.3655 140.886 50.7383 140.838 51.1985C140.806 51.6427 140.608 51.9759 140.243 52.198C139.815 52.4519 139.299 52.6343 138.696 52.7454C138.458 52.793 138.276 52.8406 138.149 52.8882C138.054 52.9358 137.871 52.9755 137.602 53.0072C137.348 53.0389 137.149 53.0786 137.007 53.1262C136.721 53.2055 136.245 53.2214 135.579 53.1738C134.928 53.1262 134.508 53.0389 134.317 52.912C134.238 52.8485 134.119 52.8009 133.96 52.7692C133.754 52.7216 133.445 52.5233 133.032 52.1742C132.445 51.6824 132.072 51.1191 131.914 50.4845C131.866 50.2941 131.818 50.1513 131.771 50.0561C131.707 49.945 131.676 49.5008 131.676 48.7234C131.676 47.9459 131.707 47.4937 131.771 47.3668C131.834 47.224 131.898 47.0336 131.961 46.7956C132.342 45.3201 133.127 44.3681 134.317 43.9397ZM136.769 46.4624C136.673 46.3672 136.388 46.3276 135.912 46.3434C135.436 46.3593 135.134 46.4148 135.007 46.51C134.738 46.7163 134.674 46.8353 134.817 46.867C134.912 46.8829 135.142 46.8908 135.507 46.8908C136.443 46.875 136.88 46.7639 136.816 46.5576C136.816 46.5259 136.8 46.4942 136.769 46.4624Z" fill="white"/>
  <path d="M123.626 43.678C123.737 43.6304 123.896 43.6066 124.102 43.6066C124.309 43.5907 124.459 43.5986 124.555 43.6304C124.745 43.7097 124.927 43.8446 125.102 44.035C125.292 44.2253 125.411 44.3999 125.459 44.5585C125.538 44.86 125.713 44.8917 125.983 44.6537C126.094 44.5427 126.252 44.4237 126.458 44.2967C126.681 44.1698 126.823 44.1063 126.887 44.1063C126.934 44.1063 127.03 44.0667 127.172 43.9874C127.49 43.8128 127.974 43.7256 128.624 43.7256C129.275 43.7256 129.774 43.8049 130.124 43.9636C130.282 44.0429 130.417 44.0984 130.528 44.1301C130.814 44.1777 131.012 44.3919 131.123 44.7727C131.25 45.1376 131.226 45.4867 131.052 45.8199C130.909 46.1055 130.703 46.28 130.433 46.3435C130.179 46.3911 129.735 46.3593 129.1 46.2483C128.783 46.1848 128.545 46.1689 128.386 46.2007C128.228 46.2165 128.037 46.2959 127.815 46.4387C127.609 46.5815 127.387 46.7798 127.149 47.0336C126.927 47.2716 126.776 47.47 126.696 47.6286C126.617 47.8031 126.538 47.9301 126.458 48.0094C126.411 48.0887 126.379 48.2236 126.363 48.414C126.363 48.6044 126.363 49.2311 126.363 50.2941C126.363 51.4523 126.355 52.1266 126.339 52.317C126.324 52.4916 126.244 52.6502 126.102 52.793C125.816 53.1421 125.411 53.269 124.888 53.1738C124.38 53.0786 124.063 52.8248 123.936 52.4122C123.904 52.3012 123.888 51.5713 123.888 50.2227C123.888 48.8741 123.872 48.1522 123.841 48.057C123.809 47.9777 123.761 47.7793 123.698 47.462C123.65 47.1288 123.626 46.9067 123.626 46.7956C123.626 46.6846 123.579 46.5656 123.484 46.4387C123.388 46.2959 123.333 46.1531 123.317 46.0103C123.301 45.8833 123.246 45.7406 123.15 45.5819C122.96 45.2646 122.912 44.9076 123.008 44.5109C123.103 44.1143 123.309 43.8366 123.626 43.678Z" fill="white"/>
  <path d="M110.632 43.8208C110.885 43.7414 111.266 43.6938 111.774 43.678C112.297 43.6621 112.647 43.6859 112.821 43.7494C112.869 43.7811 113.011 43.8366 113.249 43.916C113.472 43.9953 113.749 44.1857 114.082 44.4871C114.431 44.7886 114.638 45.0187 114.701 45.1773C114.749 45.2884 114.796 45.3756 114.844 45.4391C114.907 45.5026 114.963 45.6374 115.011 45.8437C115.058 46.05 115.122 46.2324 115.201 46.3911C115.296 46.5656 115.344 47.4382 115.344 49.009C115.344 50.5639 115.304 51.4603 115.225 51.6983C115.161 51.8887 115.13 52.0156 115.13 52.0791C115.13 52.4757 114.923 52.7851 114.511 53.0072C114.098 53.2452 113.702 53.269 113.321 53.0786C112.797 52.8565 112.551 52.4519 112.583 51.8649C112.647 50.7225 112.718 50.0403 112.797 49.8181C112.861 49.6436 112.892 49.2946 112.892 48.771C112.908 48.2315 112.885 47.8825 112.821 47.7238C112.773 47.5969 112.726 47.4144 112.678 47.1764C112.615 46.8274 112.52 46.5894 112.393 46.4625C112.266 46.3355 112.067 46.2721 111.798 46.2721C111.211 46.2721 110.695 46.5497 110.251 47.105C110.14 47.2478 110.076 47.4303 110.06 47.6524C110.044 47.8587 110.037 48.5568 110.037 49.7468V51.9839L109.87 52.2219C109.648 52.5709 109.323 52.7692 108.894 52.8168C108.466 52.8644 108.117 52.7454 107.847 52.4599C107.657 52.2536 107.546 52.0632 107.514 51.8887C107.482 51.7141 107.458 51.0954 107.442 50.0323C107.427 49.001 107.403 48.3505 107.371 48.0808C107.355 47.7952 107.3 47.5255 107.204 47.2716C106.903 46.5259 106.459 46.3752 105.872 46.8195C105.586 47.0257 105.396 47.1923 105.301 47.3192C105.221 47.4462 105.166 47.6207 105.134 47.8428C105.086 48.0491 105.031 48.2236 104.967 48.3664C104.904 48.4933 104.864 48.6361 104.848 48.7948C104.848 48.9376 104.848 49.3898 104.848 50.1513C104.848 51.0398 104.832 51.5951 104.801 51.8173C104.769 52.0235 104.682 52.1981 104.539 52.3409C104.285 52.6264 103.976 52.7692 103.611 52.7692C103.246 52.7692 102.929 52.6344 102.659 52.3647C102.484 52.206 102.381 51.9997 102.349 51.7459C102.334 51.492 102.318 50.6035 102.302 49.0804C102.27 47.2558 102.238 46.28 102.207 46.1531C102.143 45.9151 102.143 45.6454 102.207 45.3439C102.286 45.0266 102.413 44.7886 102.587 44.6299C102.699 44.5347 102.889 44.4633 103.159 44.4157C103.428 44.3682 103.635 44.3761 103.777 44.4395C104.238 44.6141 104.579 44.6061 104.801 44.4157C104.975 44.2571 105.277 44.1381 105.705 44.0588C106.134 43.9636 106.514 43.9318 106.847 43.9636C107.133 44.0112 107.466 44.1222 107.847 44.2968C108.244 44.4554 108.474 44.5982 108.537 44.7251C108.648 44.8838 108.791 44.8838 108.966 44.7251C109.315 44.392 109.87 44.0905 110.632 43.8208Z" fill="white"/>
  <path d="M98.8394 43.8208C99.3312 43.5987 99.7596 43.6383 100.125 43.9398C100.489 44.2254 100.672 44.6855 100.672 45.3201C100.672 45.6533 100.696 46.0103 100.743 46.3911C100.791 46.7719 100.815 47.0892 100.815 47.3431C100.815 47.5969 100.846 47.819 100.91 48.0094C100.973 48.1998 101.021 48.4299 101.053 48.6996C101.084 48.9693 101.132 49.2311 101.196 49.485C101.275 49.7388 101.33 49.9689 101.362 50.1752C101.378 50.3814 101.426 50.5797 101.505 50.7701C101.6 51.0399 101.656 51.3651 101.671 51.7459C101.687 52.1267 101.656 52.3964 101.576 52.5551C101.433 52.8407 101.18 53.0311 100.815 53.1262C100.466 53.2373 100.164 53.2056 99.9104 53.0311C99.5454 52.7931 99.3233 52.5313 99.244 52.2457C99.1964 52.087 99.1488 52.0077 99.1012 52.0077C99.0536 52.0077 98.9346 52.095 98.7442 52.2695C98.5379 52.444 98.3079 52.6027 98.054 52.7455C97.8002 52.8883 97.6018 52.9597 97.459 52.9597C97.3321 52.9597 97.1576 52.9835 96.9355 53.0311C96.7133 53.0787 96.2929 53.0549 95.6741 52.9597C95.1347 52.8803 94.6111 52.5947 94.1034 52.1029C93.5957 51.5952 93.2783 51.0637 93.1514 50.5083C93.1038 50.2704 93.0483 50.0403 92.9848 49.8182C92.9055 49.5326 92.8579 49.1677 92.842 48.7234C92.8261 48.2474 92.8024 47.9301 92.7706 47.7714C92.7389 47.5493 92.723 47.0575 92.723 46.2959C92.723 45.5185 92.7468 45.0504 92.7944 44.8918C92.9213 44.4316 93.2228 44.1461 93.6988 44.035C94.1906 43.9081 94.619 44.0191 94.9839 44.3682C95.095 44.4792 95.1585 44.6141 95.1743 44.7728C95.2061 44.9156 95.2299 45.3915 95.2457 46.2007C95.2616 47.232 95.3013 47.8587 95.3647 48.0808C95.4282 48.303 95.4758 48.6044 95.5075 48.9852C95.5551 49.4612 95.6741 49.842 95.8645 50.1276C96.0708 50.4131 96.3326 50.5559 96.6499 50.5559C96.7927 50.5559 96.9672 50.4052 97.1735 50.1038C97.3797 49.8023 97.4987 49.5167 97.5304 49.247C97.5622 49.0883 97.6177 48.9455 97.697 48.8186C97.7605 48.6758 97.8081 48.295 97.8398 47.6763C97.8716 47.0733 97.9192 46.7084 97.9826 46.5815C98.062 46.4546 98.1096 46.0738 98.1254 45.4391C98.1413 44.6617 98.1968 44.273 98.292 44.273C98.3237 44.273 98.3634 44.2254 98.411 44.1302C98.4745 44.035 98.6173 43.9319 98.8394 43.8208Z" fill="white"/>
  <path d="M90.4811 37.4902C90.608 37.4426 90.7667 37.4267 90.957 37.4426C91.1474 37.4426 91.2744 37.4664 91.3378 37.514C91.4172 37.5775 91.4727 37.6092 91.5044 37.6092C91.5679 37.6092 91.6631 37.6965 91.79 37.871C91.9169 38.0455 91.9883 38.1804 92.0042 38.2756C92.0201 38.4025 92.0597 38.5532 92.1232 38.7277C92.1867 38.9023 92.2184 41.1553 92.2184 45.4867C92.2343 49.8023 92.2105 52.0235 92.147 52.1504C92.0835 52.2456 92.0359 52.3329 92.0042 52.4122C91.9249 52.555 91.7266 52.6899 91.4092 52.8168C91.1078 52.9438 90.8063 53.0072 90.5049 53.0072C90.3303 53.0072 90.1241 53.031 89.8861 53.0786C89.664 53.1421 89.1086 53.1738 88.2201 53.1738C87.3475 53.1897 86.8081 53.1738 86.6018 53.1262C86.459 53.0786 86.229 53.0231 85.9116 52.9596C85.5785 52.8644 85.1421 52.6661 84.6027 52.3646C84.0791 52.0473 83.8173 51.8252 83.8173 51.6983C83.8173 51.6824 83.7539 51.6031 83.6269 51.4603C83.5 51.3016 83.4365 51.1985 83.4365 51.1509C83.4365 51.1033 83.3969 51.0319 83.3175 50.9367C83.1906 50.778 83.0954 50.4052 83.0319 49.8181C82.9843 49.2152 82.9923 48.7154 83.0557 48.3188C83.0875 48.1601 83.1192 47.9697 83.1509 47.7476C83.1827 47.5255 83.2303 47.3748 83.2937 47.2954C83.3572 47.2002 83.4127 47.0892 83.4603 46.9622C83.6349 46.4863 84.0474 46.0103 84.6979 45.5343C85.3484 45.0424 86.0068 44.7331 86.6732 44.6061C86.9271 44.5585 87.1095 44.5109 87.2206 44.4633C87.3475 44.4157 87.76 44.384 88.4581 44.3681C89.1562 44.3523 89.5291 44.3285 89.5767 44.2967C89.6402 44.265 89.6719 43.2496 89.6719 41.2505C89.6719 39.7432 89.6798 38.8547 89.6957 38.585C89.7116 38.3152 89.7592 38.1248 89.8385 38.0138C89.9972 37.7441 90.2113 37.5695 90.4811 37.4902ZM89.5529 47.1526C89.4894 47.0892 89.418 47.0574 89.3387 47.0574C89.2594 47.0416 88.9817 47.0257 88.5057 47.0098C87.9028 47.0098 87.5538 47.0257 87.4586 47.0574C86.7922 47.232 86.3242 47.4382 86.0544 47.6762C85.7847 47.9142 85.626 48.2474 85.5784 48.6758C85.4991 49.4691 85.6102 49.9847 85.9116 50.2227C86.229 50.4448 86.9826 50.5559 88.1726 50.5559C88.2836 50.5559 88.4264 50.5559 88.6009 50.5559C89.1562 50.5718 89.4736 50.5321 89.5529 50.4369C89.6481 50.3417 89.6957 50.0244 89.6957 49.4849C89.6957 49.3104 89.6957 49.1756 89.6957 49.0804C89.7116 48.3029 89.7116 47.8111 89.6957 47.6048C89.6798 47.3986 89.6322 47.2478 89.5529 47.1526Z" fill="white"/>
  <path d="M77.4375 43.6541C77.6914 43.6065 77.9373 43.6224 78.1753 43.7017C78.2705 43.7176 78.4926 43.7572 78.8417 43.8207C79.27 43.9 79.7381 44.0666 80.2458 44.3205C80.4679 44.4157 80.7535 44.6299 81.1026 44.963C81.4516 45.2804 81.6817 45.5342 81.7927 45.7246C81.8245 45.7881 81.8959 45.915 82.0069 46.1054C82.0863 46.2641 82.1418 46.3672 82.1735 46.4148C82.2211 46.4941 82.2687 46.629 82.3163 46.8194C82.3639 47.0098 82.4115 47.1605 82.4591 47.2716C82.5067 47.4144 82.5305 47.8031 82.5305 48.4377C82.5305 49.0565 82.4988 49.4293 82.4353 49.5563C82.3719 49.6673 82.3322 49.8022 82.3163 49.9609C82.3005 50.1037 82.2291 50.294 82.1021 50.532C81.8324 51.008 81.531 51.4126 81.1978 51.7458C80.8804 52.079 80.46 52.4042 79.9364 52.7216C79.6191 52.9278 79.1748 53.0706 78.6037 53.1499C78.0325 53.2293 77.6279 53.2055 77.3899 53.0785C77.263 53.0309 77.1281 52.9913 76.9853 52.9595C76.43 52.8644 75.8747 52.555 75.3194 52.0314C74.7641 51.4919 74.4467 50.9604 74.3674 50.4368C74.3357 50.294 74.296 50.1433 74.2484 49.9847C74.2008 49.826 74.1691 49.4452 74.1532 48.8423C74.1374 48.2394 74.1532 47.8745 74.2008 47.7475C74.2326 47.6682 74.2881 47.4461 74.3674 47.0812C74.4785 46.5259 74.6213 46.0975 74.7958 45.796C74.8751 45.6532 74.9307 45.5501 74.9624 45.4866C75.1845 45.0424 75.5336 44.6457 76.0096 44.2967C76.4855 43.9476 76.9615 43.7334 77.4375 43.6541ZM78.7941 46.4386C78.3815 46.2799 78.1039 46.2482 77.9611 46.3434C77.9294 46.3751 77.8262 46.4148 77.6517 46.4624C77.3502 46.5576 77.1598 46.7559 77.0805 47.0574C77.0488 47.1843 76.9933 47.343 76.9139 47.5333C76.787 47.8824 76.7235 48.287 76.7235 48.7471C76.7235 49.2072 76.8029 49.588 76.9615 49.8895C77.0884 50.175 77.2312 50.3654 77.3899 50.4606C77.5644 50.5558 77.8262 50.6034 78.1753 50.6034C78.4609 50.6034 78.6592 50.5796 78.7703 50.532C78.8972 50.4686 79.0876 50.294 79.3414 50.0085C79.865 49.469 80.0633 48.8026 79.9364 48.0093C79.8095 47.2002 79.4287 46.6766 78.7941 46.4386Z" fill="#EE9B00"/>
  <path d="M68.9598 43.8208C69.2136 43.7414 69.5944 43.6938 70.1021 43.678C70.6257 43.6621 70.9748 43.6859 71.1493 43.7494C71.1969 43.7811 71.3397 43.8366 71.5777 43.916C71.7998 43.9953 72.0775 44.1857 72.4107 44.4871C72.7597 44.7886 72.966 45.0187 73.0294 45.1773C73.077 45.2884 73.1246 45.3756 73.1722 45.4391C73.2357 45.5026 73.2912 45.6374 73.3388 45.8437C73.3864 46.05 73.4499 46.2324 73.5292 46.3911C73.6244 46.5656 73.672 47.4382 73.672 49.009C73.672 50.5639 73.6323 51.4603 73.553 51.6983C73.4896 51.8887 73.4578 52.0156 73.4578 52.0791C73.4578 52.4757 73.2516 52.7851 72.839 53.0072C72.4265 53.2452 72.0299 53.269 71.6491 53.0786C71.1255 52.8565 70.8796 52.4519 70.9113 51.8649C70.9748 50.7225 71.0462 50.0403 71.1255 49.8181C71.189 49.6436 71.2207 49.2946 71.2207 48.771C71.2366 48.2315 71.2128 47.8825 71.1493 47.7238C71.1017 47.5969 71.0541 47.4144 71.0065 47.1764C70.9431 46.8274 70.8479 46.5894 70.7209 46.4625C70.594 46.3355 70.3957 46.2721 70.1259 46.2721C69.5389 46.2721 69.0233 46.5497 68.579 47.105C68.4679 47.2478 68.4045 47.4303 68.3886 47.6524C68.3727 47.8587 68.3648 48.5568 68.3648 49.7468V51.9839L68.1982 52.2219C67.9761 52.5709 67.6508 52.7692 67.2225 52.8168C66.7941 52.8644 66.445 52.7454 66.1753 52.4599C65.9849 52.2536 65.8738 52.0632 65.8421 51.8887C65.8104 51.7141 65.7866 51.0954 65.7707 50.0323C65.7548 49.001 65.731 48.3505 65.6993 48.0808C65.6834 47.7952 65.6279 47.5255 65.5327 47.2716C65.2313 46.5259 64.787 46.3752 64.2 46.8195C63.9144 47.0257 63.724 47.1923 63.6288 47.3192C63.5495 47.4462 63.4939 47.6207 63.4622 47.8428C63.4146 48.0491 63.3591 48.2236 63.2956 48.3664C63.2321 48.4933 63.1925 48.6361 63.1766 48.7948C63.1766 48.9376 63.1766 49.3898 63.1766 50.1513C63.1766 51.0398 63.1607 51.5951 63.129 51.8173C63.0973 52.0235 63.01 52.1981 62.8672 52.3409C62.6134 52.6264 62.304 52.7692 61.939 52.7692C61.5741 52.7692 61.2568 52.6344 60.9871 52.3647C60.8126 52.206 60.7094 51.9997 60.6777 51.7459C60.6618 51.492 60.646 50.6035 60.6301 49.0804C60.5984 47.2558 60.5666 46.28 60.5349 46.1531C60.4714 45.9151 60.4714 45.6454 60.5349 45.3439C60.6142 45.0266 60.7412 44.7886 60.9157 44.6299C61.0268 44.5347 61.2171 44.4633 61.4869 44.4157C61.7566 44.3682 61.9628 44.3761 62.1056 44.4395C62.5658 44.6141 62.9069 44.6061 63.129 44.4157C63.3035 44.2571 63.605 44.1381 64.0334 44.0588C64.4618 43.9636 64.8425 43.9318 65.1757 43.9636C65.4613 44.0112 65.7945 44.1222 66.1753 44.2968C66.5719 44.4554 66.802 44.5982 66.8655 44.7251C66.9765 44.8838 67.1193 44.8838 67.2938 44.7251C67.6429 44.392 68.1982 44.0905 68.9598 43.8208Z" fill="#EE9B00"/>
  <path d="M47.5631 43.6541C47.8487 43.6065 48.2612 43.6145 48.8007 43.6779C49.356 43.7255 49.7209 43.7969 49.8954 43.8921C49.9748 43.9239 50.0858 43.9397 50.2286 43.9397C50.3873 43.9397 50.4904 43.9239 50.538 43.8921C50.6967 43.7335 50.9585 43.789 51.3234 44.0587C51.7042 44.3284 51.9263 44.622 51.9898 44.9393C52.0215 45.0821 52.0612 45.2249 52.1088 45.3677C52.1405 45.4787 52.1722 45.7485 52.204 46.1768C52.2515 46.6052 52.2991 46.8908 52.3467 47.0336C52.3785 47.1764 52.4023 47.4065 52.4181 47.7238C52.434 48.0094 52.4657 48.2077 52.5133 48.3188C52.5451 48.4457 52.5689 48.7868 52.5847 49.3421C52.6006 49.9133 52.6482 50.2782 52.7275 50.4369C52.8227 50.6114 52.8703 51.484 52.8703 53.0548C52.8703 54.6414 52.8227 55.5061 52.7275 55.6489C52.6482 55.7599 52.5927 55.8789 52.5609 56.0059C52.5451 56.1169 52.4737 56.3073 52.3467 56.5771C52.2198 56.8468 52.1167 57.0292 52.0374 57.1244C51.8946 57.3148 51.8073 57.418 51.7756 57.4338C51.7121 57.5449 51.5693 57.7035 51.3472 57.9098C51.1251 58.1161 50.9823 58.2509 50.9188 58.3144C50.8712 58.3303 50.7998 58.3858 50.7046 58.481C50.6094 58.5603 50.4111 58.6714 50.1096 58.8142C49.8082 58.957 49.5543 59.0522 49.3481 59.0998C49.0783 59.1791 48.6658 59.2108 48.1105 59.195C47.5552 59.1791 47.1744 59.1315 46.9681 59.0522C46.7778 58.9887 46.627 58.9411 46.516 58.9094C46.1669 58.83 45.7623 58.6238 45.3022 58.2906C44.858 57.9574 44.5724 57.6718 44.4454 57.4338C44.3978 57.3069 44.3423 57.2038 44.2788 57.1244C44.1995 57.0451 44.0885 56.7992 43.9457 56.3867C43.7077 55.7679 43.6283 55.2205 43.7077 54.7445C43.8029 54.2844 44.0329 53.9512 44.3978 53.745C44.8421 53.507 45.2625 53.5308 45.6592 53.8164C46.0558 54.1178 46.2621 54.5541 46.278 55.1253C46.278 55.3157 46.3573 55.5537 46.516 55.8393C46.6746 56.1249 46.8016 56.2677 46.8967 56.2677C46.9443 56.2677 47.0395 56.3073 47.1823 56.3867C47.3727 56.4977 47.698 56.5533 48.1581 56.5533C48.6182 56.5533 48.9435 56.5057 49.1339 56.4105C49.5623 56.1725 49.8558 55.871 50.0144 55.5061C50.189 55.157 50.2762 54.6097 50.2762 53.864C50.2445 52.6423 50.1572 52.0235 50.0144 52.0076C49.9034 52.0552 49.8002 52.0949 49.705 52.1266C49.5622 52.1901 49.4353 52.2535 49.3243 52.317C49.0863 52.4757 48.6182 52.5947 47.9201 52.674C47.6187 52.7216 47.2458 52.7057 46.8016 52.6264C46.3732 52.5312 46.0717 52.4281 45.8972 52.317C45.8179 52.2535 45.7544 52.2218 45.7068 52.2218C45.5957 52.2218 45.3736 52.0156 45.0404 51.603C44.7231 51.1747 44.5248 50.8335 44.4454 50.5797C44.382 50.3893 44.3106 50.2227 44.2312 50.0799C44.1202 49.8419 44.0647 49.3104 44.0647 48.4854C44.0805 47.6603 44.1519 47.1526 44.2788 46.9622C44.3264 46.8829 44.3661 46.748 44.3978 46.5576C44.4296 46.3514 44.4772 46.2086 44.5406 46.1292C44.6041 46.0499 44.6517 45.9468 44.6834 45.8199C44.8421 45.3439 45.207 44.8917 45.7782 44.4633C46.3494 44.0349 46.9443 43.7652 47.5631 43.6541ZM48.8959 46.3672C47.9598 46.0658 47.2855 46.3196 46.8729 47.1288L46.635 47.6048V48.5092C46.6191 49.0645 46.635 49.4135 46.6826 49.5563C46.7302 49.6832 46.8571 49.8102 47.0633 49.9371C47.3331 50.1116 47.6425 50.1434 47.9915 50.0323C48.3564 49.9212 48.6658 49.6912 48.9197 49.3421C49.0307 49.1835 49.1259 48.9058 49.2053 48.5092C49.3005 48.1125 49.3481 47.7317 49.3481 47.3668C49.3639 46.9701 49.3481 46.7242 49.3005 46.629C49.2529 46.518 49.118 46.4307 48.8959 46.3672Z" fill="white"/>
  <path d="M36.0388 43.7494C36.2768 43.6542 36.5624 43.7018 36.8955 43.8922C37.2446 44.0826 37.4509 44.3126 37.5143 44.5823C37.5461 44.6934 37.5857 44.7569 37.6333 44.7727C37.6809 44.7886 37.7523 44.7648 37.8475 44.7013C38.2283 44.4316 38.7281 44.273 39.3469 44.2254C39.9656 44.1619 40.5051 44.2333 40.9652 44.4396C41.3142 44.5823 41.6395 44.7965 41.941 45.0821C42.2583 45.3519 42.4487 45.5898 42.5121 45.7961C42.5439 45.8754 42.5835 45.9468 42.6311 46.0103C42.6946 46.0738 42.7422 46.169 42.7739 46.2959C42.8057 46.4069 42.8533 46.5259 42.9167 46.6529C43.0278 46.875 43.1071 47.4938 43.1547 48.5092C43.2182 49.5088 43.2102 50.2307 43.1309 50.6749C43.0833 50.8812 43.0516 51.1588 43.0357 51.5079C43.004 52.0156 42.8612 52.4281 42.6073 52.7454C42.3693 53.0469 42.06 53.1976 41.6792 53.1976C41.4729 53.1976 41.2508 53.1262 41.0128 52.9834C40.7748 52.8406 40.6082 52.674 40.513 52.4837C40.4654 52.3885 40.4416 52.0711 40.4416 51.5317C40.4416 50.9764 40.4733 50.6273 40.5368 50.4845C40.6003 50.2941 40.6241 49.834 40.6082 49.1042C40.6082 48.3585 40.5606 47.8587 40.4654 47.6048C40.2433 46.9226 39.9022 46.6529 39.4421 46.7957C39.2675 46.8591 39.1723 46.9067 39.1565 46.9385C39.1406 46.9543 39.0613 47.0019 38.9185 47.0813C38.6963 47.1923 38.4663 47.343 38.2283 47.5334C37.9903 47.708 37.8554 47.8349 37.8237 47.9142C37.792 47.9777 37.784 48.7155 37.7999 50.1275V52.2457L37.6333 52.4599C37.3795 52.7296 37.0621 52.8724 36.6814 52.8882C36.3006 52.92 35.9832 52.8089 35.7294 52.5551C35.5866 52.4123 35.4914 52.2853 35.4438 52.1743C35.4121 52.0473 35.3883 51.7776 35.3724 51.3651C35.3565 50.8732 35.3169 50.548 35.2534 50.3893C35.2058 50.2307 35.1661 49.4612 35.1344 48.0808C35.1185 46.7005 35.0947 45.9468 35.063 45.8199C34.9361 45.3757 34.9599 44.9631 35.1344 44.5823C35.3248 44.1857 35.6263 43.908 36.0388 43.7494Z" fill="white"/>
  <path d="M31.0352 43.5351C31.178 43.4717 31.4081 43.4399 31.7254 43.4399C32.011 43.4558 32.2014 43.4875 32.2966 43.5351C32.3918 43.5827 32.5187 43.7097 32.6773 43.9159L32.9153 44.2015L32.9391 45.9864C32.9709 47.1923 33.0105 47.8666 33.0581 48.0094C33.1057 48.1839 33.1295 48.3267 33.1295 48.4378C33.1295 48.644 33.1613 48.9137 33.2247 49.2469C33.3041 49.5642 33.3834 49.8022 33.4627 49.9609C33.6848 50.4369 33.8832 50.7701 34.0577 50.9605C34.4861 51.484 34.613 51.9918 34.4385 52.4836C34.2798 52.9596 33.899 53.1976 33.2961 53.1976C32.9312 53.1976 32.5583 53.0151 32.1776 52.6502C31.8126 52.2853 31.5033 51.8014 31.2494 51.1985C31.1701 50.9922 31.0987 50.8891 31.0352 50.8891C30.9876 50.8891 30.8527 51.0001 30.6306 51.2223C30.3609 51.492 30.0356 51.7538 29.6549 52.0076C29.2899 52.2456 29.0281 52.3646 28.8695 52.3646C28.8219 52.3646 28.695 52.4043 28.4887 52.4836C28.219 52.5947 27.8065 52.6502 27.2511 52.6502C26.6958 52.6343 26.2992 52.5709 26.0612 52.4598C25.7756 52.3329 25.5217 52.1663 25.2996 51.96C25.0775 51.7538 24.9268 51.5634 24.8474 51.3888C24.8316 51.3254 24.7919 51.2381 24.7284 51.1271C24.6491 51.016 24.5936 50.8732 24.5618 50.6987C24.5301 50.5083 24.4825 50.3496 24.419 50.2227C24.3556 50.064 24.3239 49.7308 24.3239 49.2231C24.3239 48.7154 24.3556 48.3822 24.419 48.2236C24.4984 48.0808 24.546 47.9142 24.5618 47.7238C24.6094 47.3747 24.7443 47.0019 24.9664 46.6052C25.014 46.51 25.0775 46.391 25.1568 46.2482C25.252 46.042 25.4424 45.7881 25.728 45.4867C26.0295 45.1693 26.2754 44.9552 26.4658 44.8441C26.9418 44.5426 27.3384 44.3681 27.6557 44.3205C27.8779 44.2729 28.2824 44.265 28.8695 44.2967C29.4565 44.3126 29.8373 44.3443 30.0118 44.3919C30.2022 44.4395 30.3133 44.4633 30.345 44.4633C30.3926 44.4474 30.4244 44.3998 30.4402 44.3205C30.472 44.1936 30.5513 44.0429 30.6782 43.8683C30.821 43.6938 30.94 43.5827 31.0352 43.5351ZM29.2027 46.6766C28.806 46.5021 28.3935 46.5497 27.9651 46.8194C27.5526 47.0891 27.267 47.4858 27.1083 48.0094C27.0608 48.1998 27.0052 48.3664 26.9418 48.5092C26.799 48.7947 26.7752 49.1676 26.8704 49.6277C26.9814 50.0878 27.1401 50.3179 27.3463 50.3179C27.505 50.3179 27.7509 50.2306 28.0841 50.0561C28.4173 49.8657 28.687 49.6674 28.8933 49.4611C29.0837 49.2549 29.2741 48.9772 29.4645 48.6281C29.6549 48.2632 29.7897 47.938 29.869 47.6524C29.9325 47.3668 29.9325 47.1764 29.869 47.0812C29.8056 46.9701 29.5835 46.8353 29.2027 46.6766Z" fill="white"/>
  <path d="M20.0729 43.3686C20.6441 43.2734 21.1915 43.2814 21.715 43.3924C22.2386 43.5035 22.5956 43.6939 22.786 43.9636C22.8812 44.1064 22.9288 44.3206 22.9288 44.6062C22.9288 44.8918 22.8812 45.1139 22.786 45.2726C22.6273 45.5106 22.3656 45.6851 22.0006 45.7961C21.6516 45.8913 21.366 45.8834 21.1439 45.7724C20.9535 45.6772 20.6838 45.701 20.3347 45.8437C20.0015 45.9865 19.8349 46.1373 19.8349 46.2959C19.8349 46.3753 19.9301 46.4705 20.1205 46.5815C20.3109 46.6926 20.5489 46.7878 20.8345 46.8671C21.009 46.9306 21.1439 46.9861 21.2391 47.0337C21.3501 47.0972 21.4612 47.1527 21.5723 47.2003C21.7785 47.2796 22.0879 47.47 22.5004 47.7715C22.6908 47.9143 22.9129 48.1602 23.1668 48.5092C23.4207 48.8583 23.5476 49.0884 23.5476 49.1994C23.5476 49.247 23.5952 49.3819 23.6904 49.604C23.8014 49.8103 23.857 50.0879 23.857 50.437C23.8728 50.7702 23.8332 50.9923 23.738 51.1034C23.6745 51.1985 23.619 51.3255 23.5714 51.4841C23.5238 51.6428 23.3889 51.8332 23.1668 52.0553C22.9605 52.2774 22.7305 52.4599 22.4766 52.6027C21.604 53.0152 20.7076 53.2056 19.7873 53.1739C18.883 53.158 18.1372 52.9121 17.5502 52.4361C16.979 51.9601 16.8442 51.4127 17.1456 50.794C17.2408 50.6036 17.3439 50.4766 17.455 50.4132C17.5819 50.3497 17.7882 50.31 18.0738 50.2942C18.3435 50.2942 18.5418 50.31 18.6688 50.3418C18.8116 50.3735 19.0257 50.4528 19.3113 50.5798C19.6128 50.7067 19.9142 50.7781 20.2157 50.794C20.533 50.794 20.7948 50.7305 21.0011 50.6036C21.2232 50.4766 21.2946 50.3259 21.2153 50.1514C21.1835 50.0562 21.0725 49.9213 20.8821 49.7468C20.6917 49.5564 20.541 49.4374 20.4299 49.3898C20.2554 49.2946 20.1602 49.247 20.1443 49.247C20.0491 49.1994 19.8904 49.136 19.6683 49.0566C18.875 48.8028 18.3276 48.5172 18.0262 48.1999C17.931 48.0888 17.8199 47.9381 17.693 47.7477C17.5661 47.5414 17.5026 47.4145 17.5026 47.3669C17.5026 47.3352 17.4788 47.1448 17.4312 46.7957C17.3995 46.526 17.3995 46.1849 17.4312 45.7724C17.4629 45.3598 17.5105 45.106 17.574 45.0108C17.574 45.0108 17.6375 44.9235 17.7644 44.749C17.9865 44.3999 18.3038 44.1064 18.7164 43.8684C19.1447 43.6146 19.5969 43.448 20.0729 43.3686Z" fill="white"/>
  <path d="M9.97614 43.9397C10.2141 43.8445 10.6901 43.7969 11.4041 43.7969C12.1339 43.7811 12.602 43.8128 12.8082 43.8921C12.9669 43.9556 13.07 43.9873 13.1176 43.9873C13.1811 43.9873 13.3636 44.0667 13.665 44.2253C13.9665 44.384 14.1727 44.503 14.2838 44.5823C14.5376 44.7727 14.8074 45.0266 15.093 45.3439C15.3944 45.6453 15.5451 45.8357 15.5451 45.9151C15.5451 45.9468 15.5689 45.9785 15.6165 46.0103C15.7117 46.042 15.8149 46.2641 15.9259 46.6766C16.037 47.0891 16.0687 47.3985 16.0211 47.6048C15.9101 48.176 15.6403 48.5806 15.2119 48.8185C14.7994 49.0565 14.0855 49.1993 13.07 49.2469C12.4989 49.2628 12.1577 49.3025 12.0467 49.3659C11.9197 49.4135 11.5548 49.4453 10.9519 49.4611C10.2855 49.4611 9.95234 49.5008 9.95234 49.5801C9.95234 49.6119 9.99994 49.6832 10.0951 49.7943C10.1745 49.8895 10.2141 49.953 10.2141 49.9847C10.2141 50.0164 10.2935 50.1037 10.4521 50.2465C10.6108 50.3734 10.7218 50.4369 10.7853 50.4369C10.8488 50.4369 10.936 50.4766 11.0471 50.5559C11.1582 50.6511 11.3882 50.6987 11.7373 50.6987C12.1022 50.6987 12.4037 50.659 12.6416 50.5797C12.8479 50.5004 13.0383 50.4528 13.2128 50.4369C13.3874 50.4052 13.5539 50.3576 13.7126 50.2941C13.8554 50.2148 14.0141 50.1592 14.1886 50.1275C14.3314 50.0958 14.4662 50.0482 14.5932 49.9847C14.7836 49.8736 15.0374 49.834 15.3547 49.8657C15.6721 49.8816 15.9101 49.953 16.0687 50.0799C16.4019 50.3655 16.5447 50.7383 16.4971 51.1985C16.4654 51.6427 16.267 51.9759 15.9021 52.198C15.4737 52.4519 14.9581 52.6343 14.3552 52.7454C14.1172 52.793 13.9347 52.8406 13.8078 52.8882C13.7126 52.9358 13.5301 52.9755 13.2604 53.0072C13.0066 53.0389 12.8082 53.0786 12.6654 53.1262C12.3799 53.2055 11.9039 53.2214 11.2375 53.1738C10.587 53.1262 10.1665 53.0389 9.97614 52.912C9.89681 52.8485 9.77782 52.8009 9.61916 52.7692C9.4129 52.7216 9.10351 52.5233 8.69099 52.1742C8.10395 51.6824 7.73109 51.1191 7.57243 50.4845C7.52484 50.2941 7.47724 50.1513 7.42964 50.0561C7.36617 49.945 7.33444 49.5008 7.33444 48.7234C7.33444 47.9459 7.36617 47.4937 7.42964 47.3668C7.4931 47.224 7.55657 47.0336 7.62003 46.7956C8.00082 45.3201 8.78619 44.3681 9.97614 43.9397ZM12.4275 46.4624C12.3323 46.3672 12.0467 46.3276 11.5707 46.3434C11.0947 46.3593 10.7932 46.4148 10.6663 46.51C10.3966 46.7163 10.3331 46.8353 10.4759 46.867C10.5711 46.8829 10.8012 46.8908 11.1661 46.8908C12.1022 46.875 12.5385 46.7639 12.4751 46.5576C12.4751 46.5259 12.4592 46.4942 12.4275 46.4624Z" fill="#EE9B00"/>
  <path d="M3.0835 43.3686C3.65468 43.2734 4.20206 43.2814 4.72564 43.3924C5.24922 43.5035 5.60621 43.6939 5.7966 43.9636C5.89179 44.1064 5.93939 44.3206 5.93939 44.6062C5.93939 44.8918 5.89179 45.1139 5.7966 45.2726C5.63794 45.5106 5.37615 45.6851 5.01123 45.7961C4.66217 45.8913 4.37659 45.8834 4.15446 45.7724C3.96407 45.6772 3.69434 45.701 3.34529 45.8437C3.0121 45.9865 2.84551 46.1373 2.84551 46.2959C2.84551 46.3753 2.9407 46.4705 3.1311 46.5815C3.32149 46.6926 3.55948 46.7878 3.84507 46.8671C4.0196 46.9306 4.15446 46.9861 4.24966 47.0337C4.36072 47.0972 4.47178 47.1527 4.58284 47.2003C4.7891 47.2796 5.09849 47.47 5.51101 47.7715C5.7014 47.9143 5.92353 48.1602 6.17739 48.5092C6.43124 48.8583 6.55817 49.0884 6.55817 49.1994C6.55817 49.247 6.60577 49.3819 6.70097 49.604C6.81203 49.8103 6.86756 50.0879 6.86756 50.437C6.88343 50.7702 6.84376 50.9923 6.74856 51.1034C6.6851 51.1985 6.62957 51.3255 6.58197 51.4841C6.53437 51.6428 6.39951 51.8332 6.17739 52.0553C5.97113 52.2774 5.74107 52.4599 5.48721 52.6027C4.61458 53.0152 3.71814 53.2056 2.79791 53.1739C1.89354 53.158 1.14784 52.9121 0.560794 52.4361C-0.0103851 51.9601 -0.145247 51.4127 0.156209 50.794C0.251405 50.6036 0.354535 50.4766 0.465597 50.4132C0.592526 50.3497 0.798785 50.31 1.08437 50.2942C1.3541 50.2942 1.55242 50.31 1.67935 50.3418C1.82215 50.3735 2.03634 50.4528 2.32193 50.5798C2.62338 50.7067 2.92484 50.7781 3.22629 50.794C3.54362 50.794 3.80541 50.7305 4.01166 50.6036C4.23379 50.4766 4.30519 50.3259 4.22586 50.1514C4.19412 50.0562 4.08306 49.9213 3.89267 49.7468C3.70228 49.5564 3.55155 49.4374 3.44049 49.3898C3.26596 49.2946 3.17076 49.247 3.1549 49.247C3.0597 49.1994 2.90104 49.136 2.67891 49.0566C1.88561 48.8028 1.33823 48.5172 1.03678 48.1999C0.94158 48.0888 0.830517 47.9381 0.703588 47.7477C0.57666 47.5414 0.513195 47.4145 0.513195 47.3669C0.513195 47.3352 0.489396 47.1448 0.441798 46.7957C0.410066 46.526 0.410066 46.1849 0.441798 45.7724C0.47353 45.3598 0.521129 45.106 0.584593 45.0108C0.584593 45.0108 0.648057 44.9235 0.774986 44.749C0.997111 44.3999 1.31443 44.1064 1.72695 43.8684C2.15533 43.6146 2.60752 43.448 3.0835 43.3686Z" fill="#EE9B00"/>
  <path d="M163.187 75.1282C163.638 74.9351 163.928 74.8385 164.057 74.8385C164.25 74.8385 164.668 74.9029 165.312 75.0317C166.729 75.4824 167.727 76.1584 168.306 77.0598L168.982 78.1222V88.8424C168.982 93.0918 168.95 96.2467 168.885 98.307C168.821 100.367 168.628 102.17 168.306 103.715C167.984 105.196 167.566 106.226 167.05 106.806C166.6 107.321 165.859 107.868 164.829 108.448C163.863 108.963 160.612 109.253 155.075 109.317C149.602 109.381 146.254 109.156 145.031 108.641C142.777 107.74 141.361 106.033 140.781 103.522C140.33 101.655 140.041 97.1803 139.912 90.0979C139.783 83.0155 139.912 79.0236 140.298 78.1222C140.685 77.1564 141.328 76.3838 142.23 75.8043C143.131 75.1604 144.033 74.9029 144.934 75.0317C146.157 75.2248 147.091 75.6433 147.735 76.2872C148.443 76.931 148.894 77.6393 149.087 78.4119C149.28 79.1845 149.409 80.6332 149.473 82.7579L149.57 86.3313H152.95C156.878 86.3313 159.067 86.2026 159.517 85.945C159.711 85.8162 159.839 84.4963 159.904 81.9853C159.968 79.603 160.193 77.9934 160.58 77.1564C160.966 76.3194 161.835 75.6433 163.187 75.1282ZM159.034 95.796C158.841 95.7316 158.326 95.6994 157.489 95.6994C156.717 95.6994 156.298 95.7316 156.234 95.796C156.169 95.8604 155.171 95.957 153.24 96.0857C151.437 96.2145 150.342 96.3755 149.956 96.5686C149.634 96.7618 149.473 97.2125 149.473 97.9207C149.473 98.8865 149.666 99.4338 150.053 99.5626C150.439 99.6913 151.888 99.7557 154.399 99.7557C157.296 99.7557 158.809 99.6591 158.938 99.466C159.195 99.3372 159.324 98.7256 159.324 97.631C159.324 96.5364 159.228 95.9248 159.034 95.796ZM148.025 116.85C166.632 116.593 176.451 116.721 177.481 117.236C178.511 117.751 179.219 118.524 179.606 119.554C180.056 120.52 180.121 121.55 179.799 122.645C179.412 124.061 178.64 125.027 177.481 125.542C176.386 125.993 174.326 126.283 171.3 126.411C169.561 126.476 168.596 126.54 168.403 126.605C168.209 126.605 168.081 127.023 168.016 127.86C168.016 128.633 167.984 131.433 167.92 136.262C167.855 142.572 167.694 146.178 167.437 147.079C166.857 148.882 165.763 149.944 164.153 150.266C162.543 150.588 161.063 150.041 159.71 148.624C159.002 147.852 158.584 146.854 158.455 145.63C158.326 144.407 158.294 141.059 158.358 135.586C158.423 134.942 158.455 134.009 158.455 132.786C158.519 129.373 158.423 127.409 158.165 126.894C157.908 126.315 156.942 126.025 155.268 126.025C154.753 126.089 154.334 126.122 154.012 126.122C150.664 126.122 148.958 126.347 148.894 126.798C148.894 126.991 148.894 128.89 148.894 132.496C148.958 140.029 148.797 144.632 148.411 146.307C148.218 147.015 147.831 147.755 147.252 148.528C146.672 149.3 146.19 149.687 145.803 149.687C145.674 149.687 145.417 149.783 145.031 149.976C144.194 150.427 143.163 150.298 141.94 149.59C140.781 148.946 140.009 148.013 139.622 146.789C139.365 146.081 139.236 142.83 139.236 137.035C139.3 131.24 139.268 128.053 139.139 127.474L139.043 126.701H135.469C133.538 126.701 132.282 126.669 131.703 126.605C131.188 126.476 130.64 126.218 130.061 125.832C128.709 124.737 128.162 123.321 128.419 121.582C128.741 119.844 129.707 118.621 131.316 117.912C132.604 117.333 138.174 116.979 148.025 116.85Z" fill="#EF233C"/>
  <path d="M91.9857 82.3719C94.4968 82.2431 95.7845 82.1466 95.8489 82.0822C95.9132 82.0178 97.9414 81.9856 101.933 81.9856C106.633 81.9856 109.692 82.2109 111.108 82.6616C112.589 83.048 113.78 84.0137 114.682 85.559C115.068 86.3316 115.261 88.907 115.261 93.2853C115.325 97.6635 115.132 102.299 114.682 107.193C114.553 109.51 113.941 111.217 112.847 112.311C111.816 113.341 110.175 114.017 107.921 114.339C106.376 114.468 105.41 114.597 105.024 114.726C104.766 114.79 104.605 115.048 104.541 115.498C104.541 115.949 104.541 117.526 104.541 120.231C104.541 123.579 104.509 126.54 104.444 129.116C104.38 131.434 104.412 132.689 104.541 132.882C104.67 133.076 105.732 133.204 107.728 133.269C109.788 133.333 111.849 133.301 113.909 133.172C118.416 132.915 121.152 132.85 122.118 132.979C123.084 133.043 123.985 133.43 124.822 134.138C127.14 136.327 127.14 138.581 124.822 140.898C124.05 141.671 123.052 142.122 121.828 142.251C120.605 142.444 116.613 142.572 109.853 142.637C101.998 142.83 98.038 142.927 97.9736 142.927C97.716 143.12 94.1104 143.184 87.1568 143.12C80.2032 143.055 76.5332 142.959 76.1469 142.83C74.5372 142.122 73.5392 140.963 73.1529 139.353C72.7666 137.679 73.1851 136.295 74.4084 135.2C75.1811 134.492 75.9859 134.041 76.8229 133.848C77.7243 133.655 79.5915 133.591 82.4245 133.655C89.6356 133.719 93.5954 133.526 94.3036 133.076C94.5611 132.947 94.6899 132.593 94.6899 132.013C94.7543 131.369 94.7543 129.245 94.6899 125.639C94.6899 120.81 94.7221 117.752 94.7865 116.464C94.9153 115.305 94.8831 114.629 94.6899 114.436C94.5611 114.178 94.0782 114.05 93.2412 114.05C87.5753 114.05 84.3238 111.635 83.4868 106.806C83.2293 105.583 83.1005 102.299 83.1005 96.9552C83.1005 91.5469 83.1971 88.4563 83.3902 87.6837C83.9697 85.6234 84.8067 84.2713 85.9013 83.6274C86.9958 82.9192 89.024 82.5007 91.9857 82.3719ZM105.507 91.9332C105.185 91.5469 103.124 91.3859 99.3257 91.4503C95.5269 91.4503 93.4344 91.6434 93.0481 92.0297C92.9193 92.1585 92.7905 93.6716 92.6618 96.5689C92.5974 99.4663 92.6296 101.494 92.7583 102.653C92.8227 103.362 93.1125 103.78 93.6275 103.909C94.1426 104.038 95.881 104.166 98.8428 104.295C101.869 104.424 103.639 104.456 104.155 104.392C104.67 104.327 105.024 104.102 105.217 103.716C105.41 103.265 105.539 101.237 105.603 97.6313C105.668 94.0257 105.635 92.1263 105.507 91.9332Z" fill="#EE9B00"/>
  <path d="M55.5305 85.4978C56.1744 85.1115 57.0115 85.0149 58.0417 85.208C59.0719 85.3368 59.909 85.691 60.5529 86.2705C60.6173 86.3349 60.6817 86.3992 60.7461 86.4636C61.39 87.0431 61.7441 87.9124 61.8085 89.0714C61.9373 90.166 61.9695 93.8363 61.9051 100.082C61.9051 100.984 61.9051 101.692 61.9051 102.207C61.9051 111.608 61.9695 118.176 62.0983 121.91C62.3558 129.057 62.4524 133.339 62.388 134.756C62.3236 136.173 61.9695 137.267 61.3256 138.04C60.4885 139.263 59.2651 139.843 57.6554 139.778C56.0456 139.714 54.8544 139.07 54.0817 137.847C53.631 137.203 53.3413 136.366 53.2125 135.335C53.0837 134.241 52.9871 131.891 52.9227 128.285C52.8583 124.164 52.7617 120.848 52.633 118.337C52.5042 115.954 52.4398 110.803 52.4398 102.883C52.4398 94.8987 52.5042 90.4558 52.633 89.5543C53.0193 87.6227 53.9851 86.2705 55.5305 85.4978ZM17.7659 88.9748C18.9249 88.5885 19.5688 88.5563 19.6976 88.8783C19.8264 89.007 20.0195 89.0714 20.2771 89.0714C21.0498 89.0714 21.8225 89.5865 22.5951 90.6168C23.4322 91.5826 23.8185 92.5485 23.7541 93.5143C23.7541 94.6089 21.9834 98.5367 18.442 105.298C18.0557 106.135 17.9269 106.779 18.0557 107.229C18.1844 107.68 18.7639 108.582 19.7942 109.934C21.5327 112.187 22.5629 113.636 22.8849 114.28C22.8849 114.28 23.2712 114.892 24.0439 116.115C25.9756 119.013 27.1346 120.848 27.5209 121.62C27.9073 122.393 28.1005 123.166 28.1005 123.938C28.1005 125.098 27.3278 126.289 25.7824 127.512C25.5893 127.641 25.3317 127.737 25.0097 127.802C24.559 127.931 24.2049 128.059 23.9473 128.188C23.4966 128.317 22.8527 128.253 22.0156 127.995C21.2429 127.737 20.5669 127.319 19.9873 126.739C19.2791 126.224 18.3776 125.033 17.283 123.166C15.802 120.655 14.5786 118.852 13.6128 117.757C13.2908 117.306 13.0011 117.145 12.7435 117.274C12.5503 117.403 12.1962 117.95 11.6811 118.916C11.1659 120.011 10.844 120.622 10.7152 120.751C10.5864 120.944 10.4577 121.138 10.3289 121.331C9.74937 122.618 9.00889 123.745 8.10743 124.711C7.07719 125.741 5.95037 126.289 4.72697 126.353C3.50356 126.353 2.50552 125.967 1.73284 125.194C0.960165 124.421 0.412852 123.456 0.0909032 122.297C-0.166656 121.138 0.123098 119.882 0.960165 118.53C1.02456 118.465 2.21577 116.083 4.5338 111.382C6.98061 106.553 8.46158 103.656 8.97669 102.69C10.0713 100.565 10.844 99.1162 11.2947 98.3435C12.2606 96.4762 12.9367 95.1885 13.323 94.4802C13.7737 93.6431 14.1601 92.9026 14.482 92.2587C14.804 91.6148 15.2869 90.9709 15.9308 90.327C16.6391 89.6187 17.2508 89.168 17.7659 88.9748ZM39.4974 90.8099C40.5921 90.1017 41.8477 90.1017 43.2643 90.8099C44.6808 91.4538 45.5823 92.4841 45.9686 93.9007C46.1618 94.6733 46.194 100.887 46.0652 112.541C46.0008 124.132 45.8398 130.12 45.5823 130.506C45.3891 130.957 45.035 131.44 44.5199 131.955C44.0047 132.406 43.5862 132.631 43.2643 132.631C43.0711 132.631 42.8457 132.728 42.5882 132.921C41.9443 133.372 41.0428 133.307 39.8838 132.728C38.7248 132.084 37.8555 131.215 37.276 130.12C36.7609 129.09 36.5677 125.677 36.6965 119.882C36.6965 119.431 36.6965 118.852 36.6965 118.143C36.8253 115.954 36.6965 114.699 36.3102 114.377C35.9882 113.99 34.8292 113.765 32.8331 113.701C32.1248 113.701 31.5775 113.701 31.1912 113.701C28.8731 113.636 27.4566 113.572 26.9414 113.507C26.4907 113.443 26.04 113.25 25.5893 112.928C24.4302 112.155 23.7541 111.061 23.561 109.644C23.3678 108.227 23.722 107.036 24.6234 106.07C25.3317 105.233 26.1688 104.718 27.1346 104.525C28.1648 104.267 30.0322 104.139 32.7365 104.139C35.3121 104.139 36.6643 104.042 36.7931 103.849C36.9862 103.656 37.0184 102.046 36.8897 99.0196C36.8253 96.1865 36.9219 94.287 37.1794 93.3211C37.5014 92.3553 38.274 91.5182 39.4974 90.8099Z" fill="#EE9B00"/>
  <path d="M176.596 158.658C176.852 158.548 177.199 158.53 177.637 158.603C178.112 158.676 178.477 158.804 178.733 158.987C179.975 159.754 180.304 160.978 179.719 162.658C179.5 163.352 179.372 163.882 179.336 164.247C179.263 164.649 179.153 165.051 179.007 165.453C178.861 165.818 178.733 166.275 178.624 166.822C178.55 167.297 178.423 167.717 178.24 168.083C178.057 168.412 177.966 168.667 177.966 168.85C177.966 169.106 177.893 169.416 177.747 169.781C177.564 170.293 177.436 170.695 177.363 170.987C177.217 171.425 177.071 171.791 176.925 172.083C176.815 172.302 176.724 172.539 176.651 172.795C176.614 173.014 176.505 173.252 176.322 173.507C176.14 173.763 176.012 174.074 175.939 174.439C175.866 174.768 175.774 175.042 175.665 175.261C175.519 175.517 175.391 175.845 175.281 176.247C174.952 177.453 174.642 178.293 174.35 178.768C174.057 179.243 173.729 179.535 173.363 179.644C173.034 179.718 172.779 179.827 172.596 179.973C172.34 180.083 172.139 180.119 171.993 180.083C171.884 180.083 171.592 179.991 171.117 179.809C170.532 179.517 170.021 179.097 169.582 178.549C169.144 178.001 168.56 177.051 167.829 175.699C167.062 174.202 166.295 172.795 165.528 171.48C165.308 171.151 165.089 170.768 164.87 170.329C164.687 169.928 164.487 169.745 164.267 169.781C164.048 169.818 163.902 170.037 163.829 170.439C163.756 170.731 163.592 171.17 163.336 171.754C163.08 172.338 162.897 172.704 162.788 172.85C162.642 173.033 162.569 173.16 162.569 173.233C162.569 173.307 162.477 173.507 162.295 173.836C162.076 174.165 161.929 174.439 161.856 174.658C161.747 174.95 161.619 175.206 161.473 175.425C161.29 175.644 161.199 175.809 161.199 175.918C161.199 175.991 161.089 176.192 160.87 176.521C160.651 176.85 160.541 177.051 160.541 177.124C160.541 177.197 160.395 177.434 160.103 177.836C159.811 178.202 159.573 178.457 159.391 178.603C159.098 178.859 158.623 179.023 157.966 179.097C157.345 179.133 156.834 179.06 156.432 178.877C156.066 178.695 155.61 178.238 155.062 177.507C154.514 176.74 154.24 176.174 154.24 175.809C154.24 175.699 154.13 175.407 153.911 174.932C153.29 173.581 152.834 172.649 152.541 172.138C152.395 171.809 152.286 171.462 152.212 171.096C152.139 170.804 152.012 170.402 151.829 169.891C151.281 168.43 150.879 167.133 150.623 166.001C150.55 165.635 150.441 165.252 150.295 164.85C150.002 163.973 149.929 162.969 150.076 161.836C150.149 161.288 150.423 160.832 150.897 160.466C151.372 160.101 151.92 159.918 152.541 159.918C152.98 159.918 153.473 160.083 154.021 160.412C154.605 160.74 154.952 161.069 155.062 161.398C155.464 162.457 155.719 163.261 155.829 163.809C155.939 164.32 156.048 164.74 156.158 165.069C156.304 165.398 156.413 165.763 156.486 166.165C156.56 166.603 156.669 167.005 156.815 167.37C156.998 167.736 157.107 168.046 157.144 168.302C157.363 169.252 157.619 169.763 157.911 169.836C158.24 169.873 158.514 169.434 158.733 168.521C158.806 168.192 158.952 167.827 159.171 167.425C159.354 167.023 159.445 166.768 159.445 166.658C159.445 166.549 159.537 166.348 159.719 166.055C159.865 165.763 159.993 165.434 160.103 165.069C160.249 164.667 160.377 164.412 160.487 164.302C160.596 164.192 160.687 163.918 160.76 163.48C160.834 163.005 160.961 162.658 161.144 162.439C161.29 162.183 161.4 161.964 161.473 161.781C161.692 161.27 162.222 160.886 163.062 160.631C163.902 160.338 164.578 160.32 165.089 160.576C165.491 160.795 165.911 161.16 166.35 161.672C166.788 162.183 167.08 162.676 167.226 163.151C167.299 163.37 167.445 163.681 167.665 164.083C167.847 164.448 167.939 164.667 167.939 164.74C167.939 164.813 168.048 164.996 168.267 165.288C168.45 165.58 168.541 165.781 168.541 165.891C168.541 165.964 168.669 166.147 168.925 166.439C169.144 166.768 169.308 167.06 169.418 167.316C169.564 167.535 169.783 167.864 170.076 168.302C170.368 168.74 170.55 169.051 170.624 169.233C171.025 170.147 171.245 170.603 171.281 170.603C171.537 170.603 171.665 170.494 171.665 170.275C171.665 170.128 171.738 169.946 171.884 169.727C172.03 169.507 172.158 169.142 172.267 168.631C172.377 168.156 172.505 167.809 172.651 167.59C172.761 167.37 172.852 167.096 172.925 166.768C172.961 166.439 173.034 166.147 173.144 165.891C173.29 165.599 173.436 165.087 173.582 164.357C173.729 163.626 173.856 163.151 173.966 162.932C174.076 162.64 174.185 162.201 174.295 161.617C174.477 160.74 174.733 160.083 175.062 159.644C175.427 159.169 175.939 158.841 176.596 158.658Z" fill="#EF233C"/>
  <path d="M133.843 158.822C134.39 158.603 135.486 158.494 137.13 158.494C138.811 158.457 139.888 158.53 140.363 158.713C140.728 158.859 140.966 158.932 141.075 158.932C141.222 158.932 141.642 159.115 142.336 159.48C143.03 159.845 143.505 160.119 143.76 160.302C144.345 160.74 144.966 161.325 145.623 162.055C146.317 162.749 146.664 163.188 146.664 163.37C146.664 163.443 146.719 163.516 146.829 163.589C147.048 163.662 147.286 164.174 147.541 165.124C147.797 166.073 147.87 166.786 147.76 167.261C147.505 168.576 146.884 169.507 145.897 170.055C144.948 170.603 143.304 170.932 140.966 171.041C139.651 171.078 138.865 171.169 138.61 171.315C138.317 171.425 137.477 171.498 136.089 171.535C134.555 171.535 133.788 171.626 133.788 171.809C133.788 171.882 133.897 172.046 134.117 172.302C134.299 172.521 134.39 172.667 134.39 172.74C134.39 172.813 134.573 173.014 134.938 173.343C135.304 173.635 135.559 173.781 135.706 173.781C135.852 173.781 136.053 173.873 136.308 174.055C136.564 174.274 137.094 174.384 137.897 174.384C138.738 174.384 139.432 174.293 139.98 174.11C140.454 173.927 140.893 173.818 141.295 173.781C141.696 173.708 142.08 173.599 142.445 173.452C142.774 173.27 143.139 173.142 143.541 173.069C143.87 172.996 144.18 172.886 144.473 172.74C144.911 172.484 145.496 172.393 146.226 172.466C146.957 172.503 147.505 172.667 147.87 172.959C148.637 173.617 148.966 174.475 148.856 175.535C148.783 176.558 148.327 177.325 147.486 177.836C146.5 178.421 145.313 178.841 143.925 179.096C143.377 179.206 142.957 179.315 142.664 179.425C142.445 179.535 142.025 179.626 141.404 179.699C140.82 179.772 140.363 179.863 140.034 179.973C139.377 180.156 138.281 180.192 136.747 180.083C135.249 179.973 134.281 179.772 133.843 179.48C133.66 179.334 133.386 179.224 133.021 179.151C132.546 179.042 131.833 178.585 130.884 177.781C129.532 176.649 128.674 175.352 128.308 173.891C128.199 173.452 128.089 173.124 127.979 172.905C127.833 172.649 127.76 171.626 127.76 169.836C127.76 168.046 127.833 167.005 127.979 166.713C128.126 166.384 128.272 165.946 128.418 165.398C129.295 162 131.103 159.809 133.843 158.822ZM139.486 164.631C139.267 164.411 138.61 164.32 137.514 164.357C136.418 164.393 135.724 164.521 135.432 164.74C134.811 165.215 134.664 165.489 134.993 165.562C135.212 165.599 135.742 165.617 136.582 165.617C138.738 165.58 139.742 165.325 139.596 164.85C139.596 164.777 139.559 164.704 139.486 164.631Z" fill="#EF233C"/>
  <path d="M118.583 159.151C119.898 158.53 121.031 158.841 121.98 160.083L122.474 160.795L122.528 166.275C122.528 169.964 122.565 172.046 122.638 172.521C122.711 173.215 122.748 174.183 122.748 175.425C122.784 176.631 122.766 177.361 122.693 177.617C122.656 177.836 122.601 178.092 122.528 178.384C122.455 178.823 122.145 179.224 121.597 179.59C121.085 179.955 120.556 180.138 120.008 180.138C119.387 180.138 118.912 180.046 118.583 179.864C118.291 179.681 117.944 179.297 117.542 178.713L116.994 177.946L116.884 174.658C116.629 165.891 116.738 161.179 117.213 160.521C117.323 160.338 117.451 160.119 117.597 159.864C117.779 159.608 118.108 159.37 118.583 159.151Z" fill="#EF233C"/>
  <path d="M108.314 158.329C109.519 158.037 110.487 158.439 111.218 159.535C111.985 160.594 112.04 161.672 111.382 162.768C111.236 163.023 111.127 163.334 111.054 163.699C111.017 164.028 110.907 164.32 110.725 164.576C110.579 164.795 110.451 165.106 110.341 165.507C110.195 165.873 110.086 166.128 110.012 166.274C109.903 166.421 109.775 166.713 109.629 167.151C109.483 167.553 109.373 167.809 109.3 167.918C109.227 167.991 109.136 168.247 109.026 168.685C108.917 169.16 108.77 169.544 108.588 169.836C108.04 170.969 107.729 171.717 107.656 172.083C107.62 172.265 107.528 172.448 107.382 172.631C107.273 172.813 107.145 173.087 106.999 173.453C106.889 173.781 106.761 174.037 106.615 174.22C106.469 174.402 106.396 174.53 106.396 174.603C106.396 174.676 106.305 174.841 106.122 175.096C105.976 175.316 105.83 175.571 105.684 175.864C105.611 176.156 105.538 176.357 105.465 176.466C105.391 176.539 105.191 176.886 104.862 177.507C104.314 178.567 103.839 179.261 103.437 179.59C103.035 179.918 102.469 180.101 101.738 180.138C100.935 180.174 100.277 179.955 99.7659 179.48C99.2544 179.005 98.4142 177.818 97.2453 175.918C96.7704 175.151 96.1859 174.092 95.4919 172.74C94.8343 171.352 94.396 170.329 94.1768 169.672C93.6288 168.064 93.3183 167.224 93.2453 167.151C93.2087 167.078 93.1174 166.859 92.9713 166.494C92.8617 166.092 92.7156 165.727 92.533 165.398C92.3868 165.069 92.2955 164.795 92.259 164.576C92.1859 164.357 92.0581 164.119 91.8754 163.863C91.364 163.096 91.0718 162.475 90.9987 162C90.9622 161.489 91.1265 160.959 91.4918 160.411C92.1494 159.389 93.154 159.042 94.5056 159.37C94.9804 159.443 95.4919 159.699 96.0398 160.137C96.5878 160.576 96.8617 160.923 96.8617 161.179C96.8617 161.252 96.9531 161.416 97.1357 161.672C97.3184 161.964 97.4645 162.293 97.5741 162.658C97.7202 163.096 97.8298 163.37 97.9028 163.48C97.9759 163.553 98.0855 163.845 98.2316 164.357C98.3777 164.868 98.5238 165.27 98.67 165.562C98.8161 165.818 98.9257 166.11 98.9987 166.439C99.0353 166.768 99.1266 167.023 99.2727 167.206C99.3823 167.425 99.4919 167.681 99.6015 167.973C99.7111 168.229 99.8389 168.466 99.985 168.685C100.131 168.868 100.222 169.087 100.259 169.343C100.332 169.599 100.478 169.964 100.697 170.439C100.953 170.95 101.081 171.243 101.081 171.316C101.081 171.389 101.136 171.48 101.245 171.59C101.391 171.699 101.483 171.736 101.519 171.699C101.592 171.626 101.738 171.316 101.958 170.768C102.213 170.22 102.359 169.873 102.396 169.727C102.433 169.544 102.524 169.343 102.67 169.124C102.78 168.941 102.889 168.685 102.999 168.357C103.072 168.064 103.2 167.772 103.382 167.48C103.528 167.151 103.62 166.895 103.656 166.713C103.729 166.494 103.839 166.274 103.985 166.055C104.168 165.8 104.277 165.507 104.314 165.179C104.423 164.448 104.588 164.083 104.807 164.083C104.88 164.083 104.935 163.955 104.971 163.699C105.008 163.443 105.117 163.115 105.3 162.713C105.519 162.311 105.684 161.927 105.793 161.562C106.159 160.393 106.487 159.608 106.78 159.206C107.108 158.768 107.62 158.475 108.314 158.329Z" fill="#EF233C"/>
  <path d="M78.1728 158.165C78.7573 158.055 79.3235 158.092 79.8715 158.274C80.0907 158.311 80.6021 158.402 81.4057 158.548C82.392 158.731 83.4697 159.115 84.6386 159.699C85.15 159.918 85.8076 160.411 86.6112 161.179C87.4149 161.909 87.9446 162.494 88.2003 162.932C88.2733 163.078 88.4377 163.37 88.6934 163.809C88.8761 164.174 89.0039 164.411 89.077 164.521C89.1866 164.704 89.2962 165.014 89.4058 165.452C89.5154 165.891 89.6249 166.238 89.7345 166.494C89.8441 166.822 89.8989 167.717 89.8989 169.179C89.8989 170.603 89.8259 171.462 89.6797 171.754C89.5336 172.01 89.4423 172.32 89.4058 172.685C89.3692 173.014 89.2048 173.453 88.9126 174C88.2916 175.096 87.5975 176.028 86.8304 176.795C86.0998 177.562 85.1318 178.311 83.9263 179.042C83.1957 179.516 82.1729 179.845 80.8578 180.028C79.5427 180.211 78.6112 180.156 78.0633 179.864C77.771 179.754 77.4605 179.663 77.1317 179.59C75.8532 179.37 74.5747 178.658 73.2961 177.453C72.0176 176.211 71.287 174.987 71.1043 173.781C71.0313 173.453 70.9399 173.105 70.8304 172.74C70.7208 172.375 70.6477 171.498 70.6112 170.11C70.5746 168.722 70.6112 167.882 70.7208 167.589C70.7938 167.407 70.9217 166.895 71.1043 166.055C71.36 164.777 71.6888 163.79 72.0906 163.096C72.2733 162.768 72.4011 162.53 72.4742 162.384C72.9856 161.361 73.7893 160.448 74.8852 159.644C75.9811 158.841 77.0769 158.347 78.1728 158.165ZM81.2961 164.576C80.3464 164.21 79.7071 164.137 79.3783 164.357C79.3053 164.43 79.0678 164.521 78.666 164.631C77.9719 164.85 77.5336 165.306 77.3509 166C77.2779 166.293 77.15 166.658 76.9674 167.096C76.6751 167.9 76.529 168.831 76.529 169.891C76.529 170.95 76.7117 171.827 77.0769 172.521C77.3692 173.179 77.698 173.617 78.0633 173.836C78.4651 174.055 79.0678 174.165 79.8715 174.165C80.529 174.165 80.9856 174.11 81.2413 174C81.5336 173.854 81.9719 173.453 82.5564 172.795C83.7619 171.553 84.2185 170.019 83.9263 168.192C83.634 166.329 82.7573 165.124 81.2961 164.576Z" fill="#EE9B00"/>
  <path d="M58.6539 158.548C59.2384 158.366 60.1151 158.256 61.284 158.22C62.4895 158.183 63.2932 158.238 63.695 158.384C63.8046 158.457 64.1334 158.585 64.6813 158.768C65.1927 158.95 65.832 159.389 66.5991 160.083C67.4028 160.777 67.8777 161.306 68.0238 161.672C68.1334 161.927 68.243 162.128 68.3526 162.275C68.4987 162.421 68.6265 162.731 68.7361 163.206C68.8457 163.681 68.9918 164.101 69.1745 164.466C69.3937 164.868 69.5032 166.877 69.5032 170.494C69.5032 174.074 69.4119 176.138 69.2293 176.686C69.0832 177.124 69.0101 177.416 69.0101 177.562C69.0101 178.475 68.5352 179.188 67.5854 179.699C66.6357 180.247 65.7224 180.302 64.8457 179.864C63.6402 179.352 63.074 178.421 63.1471 177.069C63.2932 174.439 63.4576 172.868 63.6402 172.357C63.7863 171.955 63.8594 171.151 63.8594 169.946C63.8959 168.704 63.8411 167.9 63.695 167.535C63.5854 167.243 63.4758 166.822 63.3662 166.275C63.2201 165.471 63.0009 164.923 62.7087 164.631C62.4165 164.338 61.9598 164.192 61.3388 164.192C59.9872 164.192 58.8 164.832 57.7772 166.11C57.5215 166.439 57.3753 166.859 57.3388 167.37C57.3023 167.845 57.284 169.453 57.284 172.192V177.343L56.9005 177.891C56.389 178.695 55.6402 179.151 54.6539 179.261C53.6676 179.37 52.8639 179.096 52.2429 178.439C51.8046 177.964 51.5488 177.526 51.4758 177.124C51.4027 176.722 51.3479 175.297 51.3114 172.85C51.2749 170.475 51.2201 168.978 51.147 168.357C51.1105 167.699 50.9826 167.078 50.7635 166.494C50.0694 164.777 49.0466 164.43 47.6949 165.453C47.0374 165.927 46.5991 166.311 46.3799 166.603C46.1972 166.896 46.0694 167.297 45.9963 167.809C45.8867 168.284 45.7589 168.685 45.6127 169.014C45.4666 169.306 45.3753 169.635 45.3388 170.001C45.3388 170.329 45.3388 171.37 45.3388 173.124C45.3388 175.17 45.3022 176.448 45.2292 176.959C45.1561 177.434 44.9552 177.836 44.6264 178.165C44.042 178.823 43.3296 179.151 42.4894 179.151C41.6493 179.151 40.9187 178.841 40.2977 178.22C39.8958 177.854 39.6584 177.38 39.5853 176.795C39.5488 176.211 39.5123 174.165 39.4757 170.658C39.4027 166.457 39.3296 164.211 39.2566 163.918C39.1104 163.37 39.1104 162.749 39.2566 162.055C39.4392 161.325 39.7315 160.777 40.1333 160.411C40.389 160.192 40.8273 160.028 41.4484 159.918C42.0694 159.809 42.5442 159.827 42.873 159.973C43.9324 160.375 44.7178 160.357 45.2292 159.918C45.631 159.553 46.3251 159.279 47.3114 159.096C48.2977 158.877 49.1744 158.804 49.9415 158.877C50.5991 158.987 51.3662 159.243 52.2429 159.644C53.1562 160.01 53.6858 160.338 53.832 160.631C54.0877 160.996 54.4164 160.996 54.8183 160.631C55.6219 159.864 56.9005 159.169 58.6539 158.548Z" fill="#EE9B00"/>
  <path d="M22.9689 158.822C23.5168 158.603 24.6127 158.494 26.2566 158.494C27.9369 158.457 29.0146 158.53 29.4894 158.713C29.8547 158.859 30.0922 158.932 30.2018 158.932C30.3479 158.932 30.768 159.115 31.4621 159.48C32.1561 159.845 32.631 160.119 32.8867 160.302C33.4712 160.74 34.0922 161.325 34.7497 162.055C35.4438 162.749 35.7908 163.188 35.7908 163.37C35.7908 163.443 35.8456 163.516 35.9552 163.589C36.1744 163.662 36.4118 164.174 36.6675 165.124C36.9233 166.073 36.9963 166.786 36.8867 167.261C36.631 168.576 36.01 169.507 35.0237 170.055C34.0739 170.603 32.4301 170.932 30.0922 171.041C28.7771 171.078 27.9917 171.169 27.736 171.315C27.4438 171.425 26.6036 171.498 25.2155 171.535C23.6812 171.535 22.9141 171.626 22.9141 171.809C22.9141 171.882 23.0237 172.046 23.2428 172.302C23.4255 172.521 23.5168 172.667 23.5168 172.74C23.5168 172.813 23.6995 173.014 24.0648 173.343C24.4301 173.635 24.6858 173.781 24.8319 173.781C24.978 173.781 25.1789 173.873 25.4346 174.055C25.6903 174.274 26.22 174.384 27.0237 174.384C27.8639 174.384 28.5579 174.293 29.1059 174.11C29.5808 173.927 30.0191 173.818 30.421 173.781C30.8228 173.708 31.2063 173.599 31.5716 173.452C31.9004 173.27 32.2657 173.142 32.6675 173.069C32.9963 172.996 33.3068 172.886 33.599 172.74C34.0374 172.484 34.6219 172.393 35.3525 172.466C36.0831 172.503 36.631 172.667 36.9963 172.959C37.7634 173.617 38.0922 174.475 37.9826 175.535C37.9096 176.558 37.4529 177.325 36.6128 177.836C35.6265 178.421 34.4392 178.841 33.0511 179.096C32.5032 179.206 32.0831 179.315 31.7908 179.425C31.5716 179.535 31.1515 179.626 30.5305 179.699C29.9461 179.772 29.4894 179.863 29.1607 179.973C28.5031 180.156 27.4072 180.192 25.873 180.083C24.3753 179.973 23.4072 179.772 22.9689 179.48C22.7862 179.334 22.5122 179.224 22.1469 179.151C21.6721 179.042 20.9597 178.585 20.01 177.781C18.6584 176.649 17.7999 175.352 17.4346 173.891C17.325 173.452 17.2154 173.124 17.1058 172.905C16.9597 172.649 16.8867 171.626 16.8867 169.836C16.8867 168.046 16.9597 167.005 17.1058 166.713C17.252 166.384 17.3981 165.946 17.5442 165.398C18.4209 162 20.2291 159.809 22.9689 158.822ZM28.6127 164.631C28.3935 164.411 27.736 164.32 26.6401 164.357C25.5442 164.393 24.8502 164.521 24.5579 164.74C23.9369 165.215 23.7908 165.489 24.1196 165.562C24.3387 165.599 24.8684 165.617 25.7086 165.617C27.8639 165.58 28.8684 165.325 28.7223 164.85C28.7223 164.777 28.6858 164.704 28.6127 164.631Z" fill="#EE9B00"/>
  <path d="M7.0994 157.507C8.41448 157.288 9.67475 157.306 10.8802 157.562C12.0857 157.818 12.9076 158.256 13.346 158.877C13.5652 159.206 13.6748 159.699 13.6748 160.357C13.6748 161.014 13.5652 161.526 13.346 161.891C12.9807 162.439 12.378 162.841 11.5378 163.096C10.7341 163.316 10.0766 163.297 9.56516 163.042C9.12681 162.822 8.5058 162.877 7.70214 163.206C6.93502 163.535 6.55146 163.882 6.55146 164.247C6.55146 164.43 6.77063 164.649 7.20899 164.905C7.64735 165.16 8.1953 165.38 8.85283 165.562C9.25466 165.708 9.56516 165.836 9.78434 165.946C10.0401 166.092 10.2958 166.22 10.5515 166.329C11.0264 166.512 11.7387 166.95 12.6885 167.644C13.1268 167.973 13.6382 168.539 14.2227 169.343C14.8072 170.147 15.0994 170.676 15.0994 170.932C15.0994 171.042 15.209 171.352 15.4282 171.864C15.6839 172.338 15.8118 172.978 15.8118 173.781C15.8483 174.548 15.757 175.06 15.5378 175.316C15.3917 175.535 15.2638 175.827 15.1542 176.192C15.0446 176.558 14.7341 176.996 14.2227 177.507C13.7478 178.019 13.2181 178.439 12.6337 178.768C10.6245 179.717 8.56059 180.156 6.44187 180.083C4.35967 180.046 2.64277 179.48 1.29116 178.384C-0.0239104 177.288 -0.334414 176.028 0.359653 174.603C0.578831 174.165 0.816275 173.873 1.07198 173.727C1.36422 173.58 1.83911 173.489 2.49665 173.453C3.11765 173.453 3.57428 173.489 3.86651 173.562C4.19528 173.635 4.68843 173.818 5.34597 174.11C6.04004 174.402 6.7341 174.567 7.42817 174.603C8.15877 174.603 8.76151 174.457 9.2364 174.165C9.74781 173.873 9.9122 173.526 9.72955 173.124C9.65649 172.905 9.40078 172.594 8.96242 172.192C8.52406 171.754 8.17703 171.48 7.92132 171.37C7.51949 171.151 7.30032 171.042 7.26379 171.042C7.04461 170.932 6.67931 170.786 6.16789 170.603C4.3414 170.019 3.08112 169.361 2.38706 168.631C2.16788 168.375 1.91217 168.028 1.61993 167.59C1.32769 167.115 1.18157 166.822 1.18157 166.713C1.18157 166.64 1.12678 166.201 1.01719 165.398C0.944129 164.777 0.944129 163.991 1.01719 163.042C1.09025 162.092 1.19984 161.507 1.34596 161.288C1.34596 161.288 1.49208 161.087 1.78432 160.685C2.29573 159.882 3.02633 159.206 3.9761 158.658C4.96241 158.074 6.00351 157.69 7.0994 157.507Z" fill="#EE9B00"/>
</svg>
