<svg width="180" height="31" viewBox="0 0 180 31" fill="none" xmlns="http://www.w3.org/2000/svg">
  <path d="M173.282 0.472945C173.462 0.395767 173.578 0.357178 173.63 0.357178C173.707 0.357178 173.874 0.382904 174.131 0.434357C174.697 0.614437 175.096 0.884558 175.328 1.24472L175.598 1.6692V5.95256C175.598 7.65046 175.585 8.91103 175.559 9.73426C175.533 10.5575 175.456 11.2778 175.328 11.8952C175.199 12.4869 175.032 12.8985 174.826 13.1301C174.646 13.3359 174.35 13.5545 173.938 13.7861C173.552 13.9919 172.253 14.1077 170.041 14.1334C167.854 14.1591 166.516 14.0691 166.028 13.8633C165.127 13.5031 164.561 12.8214 164.33 11.8181C164.15 11.072 164.034 9.28406 163.982 6.45421C163.931 3.62436 163.982 2.02936 164.137 1.6692C164.291 1.28331 164.548 0.974601 164.909 0.743068C165.269 0.485808 165.629 0.382904 165.989 0.434357C166.478 0.511533 166.851 0.678752 167.108 0.936012C167.391 1.19327 167.571 1.47625 167.648 1.78496C167.726 2.09367 167.777 2.67251 167.803 3.52146L167.841 4.94925H169.192C170.761 4.94925 171.636 4.89779 171.816 4.79489C171.893 4.74344 171.945 4.21606 171.97 3.21275C171.996 2.26089 172.086 1.61775 172.24 1.28331C172.395 0.948874 172.742 0.678752 173.282 0.472945ZM171.623 8.73095C171.546 8.70522 171.34 8.69236 171.006 8.69236C170.697 8.69236 170.53 8.70522 170.504 8.73095C170.478 8.75668 170.079 8.79526 169.308 8.84672C168.587 8.89817 168.15 8.96248 167.996 9.03966C167.867 9.11684 167.803 9.29692 167.803 9.5799C167.803 9.96579 167.88 10.1845 168.034 10.2359C168.189 10.2874 168.767 10.3131 169.771 10.3131C170.928 10.3131 171.533 10.2745 171.584 10.1973C171.687 10.1459 171.739 9.90148 171.739 9.46414C171.739 9.0268 171.7 8.7824 171.623 8.73095ZM167.224 17.1433C174.659 17.0404 178.582 17.0919 178.993 17.2977C179.405 17.5035 179.688 17.8122 179.842 18.2238C180.023 18.6097 180.048 19.0213 179.92 19.4586C179.765 20.0246 179.457 20.4105 178.993 20.6163C178.556 20.7964 177.733 20.9121 176.524 20.9636C175.829 20.9893 175.443 21.0151 175.366 21.0408C175.289 21.0408 175.237 21.208 175.212 21.5424C175.212 21.8511 175.199 22.9702 175.173 24.8997C175.147 27.4208 175.083 28.8614 174.98 29.2216C174.749 29.9419 174.311 30.3664 173.668 30.495C173.025 30.6237 172.433 30.405 171.893 29.839C171.61 29.5303 171.443 29.1316 171.391 28.6428C171.34 28.154 171.327 26.8162 171.353 24.6295C171.379 24.3723 171.391 23.9993 171.391 23.5105C171.417 22.147 171.379 21.3624 171.276 21.1565C171.173 20.925 170.787 20.8092 170.118 20.8092C169.912 20.835 169.745 20.8478 169.616 20.8478C168.279 20.8478 167.597 20.9379 167.571 21.118C167.571 21.1951 167.571 21.954 167.571 23.3947C167.597 26.4046 167.533 28.244 167.378 28.9129C167.301 29.1959 167.147 29.4917 166.915 29.8004C166.684 30.1091 166.491 30.2635 166.336 30.2635C166.285 30.2635 166.182 30.3021 166.028 30.3793C165.693 30.5593 165.282 30.5079 164.793 30.2249C164.33 29.9677 164.021 29.5946 163.867 29.1058C163.764 28.8229 163.712 27.5237 163.712 25.2084C163.738 22.893 163.725 21.6196 163.674 21.3881L163.635 21.0794H162.207C161.436 21.0794 160.934 21.0665 160.702 21.0408C160.497 20.9893 160.278 20.8864 160.046 20.7321C159.506 20.2947 159.287 19.7288 159.39 19.0342C159.519 18.3396 159.905 17.8508 160.548 17.5678C161.063 17.3363 163.288 17.1948 167.224 17.1433Z" fill="#EF233C"/>
  <path d="M154.319 3.63713C155.117 3.43133 155.734 3.61141 156.172 4.17738C156.635 4.71762 156.815 5.52798 156.712 6.60847C156.661 7.12299 156.622 10.2358 156.596 15.947C156.57 20.9635 156.519 23.9477 156.442 24.8996C156.39 25.8514 156.172 26.4688 155.786 26.7518C155.349 27.0605 154.898 27.1892 154.435 27.1377C153.998 27.0863 153.612 26.8676 153.278 26.4817C152.995 26.1215 152.827 25.8128 152.776 25.5556C152.75 25.2983 152.75 24.5008 152.776 23.1631C152.827 21.4137 152.853 18.6482 152.853 14.8665C152.853 8.76944 152.943 5.47653 153.123 4.98774C153.355 4.24169 153.753 3.79149 154.319 3.63713ZM143.515 5.45081C145.315 5.245 146.46 5.66948 146.949 6.72424C147.103 7.03295 147.168 8.17775 147.142 10.1586C147.142 12.1138 147.065 13.3486 146.91 13.8632C146.627 14.8407 145.997 15.5096 145.02 15.8698C144.762 15.9727 144.042 16.0756 142.859 16.1785C141.675 16.2814 140.736 16.32 140.042 16.2943C139.45 16.2685 139.141 16.2814 139.115 16.3328C139.038 16.3843 139.013 17.0274 139.038 18.2623C139.064 19.4971 139.103 20.1403 139.154 20.1917C139.206 20.2175 139.9 20.2175 141.238 20.1917C142.576 20.166 143.553 20.1274 144.171 20.076C144.788 20.0245 145.315 19.9731 145.753 19.9216C146.885 19.8187 147.682 20.0631 148.145 20.6548C148.608 21.2208 148.595 21.9282 148.107 22.7772C147.695 23.4461 146.717 23.8319 145.174 23.9348C144.145 23.9863 142.511 24.012 140.273 24.012C138.061 24.012 136.877 23.9734 136.723 23.8963C136.286 23.6647 135.938 23.356 135.681 22.9701L135.411 22.5456V18.3009C135.411 16.1914 135.411 14.9565 135.411 14.5964C135.437 14.2105 135.514 13.9275 135.642 13.7474C136.106 13.0013 136.62 12.6283 137.186 12.6283C137.289 12.6283 137.443 12.6026 137.649 12.5511C137.803 12.4997 138.447 12.4482 139.579 12.3968C141.894 12.2939 143.142 12.1653 143.322 12.0109C143.373 11.9595 143.412 11.5993 143.437 10.9304C143.463 10.2615 143.45 9.8242 143.399 9.6184C143.322 9.33541 143.052 9.23251 142.588 9.30969C142.305 9.33541 141.765 9.374 140.968 9.42545C140.119 9.45118 139.386 9.51549 138.768 9.6184C137.765 9.77275 137.122 9.81134 136.839 9.73416C136.144 9.50263 135.707 9.07815 135.527 8.46073C135.347 7.81759 135.501 7.21303 135.99 6.64706C136.093 6.4927 136.273 6.35121 136.53 6.22258C136.813 6.06823 137.032 5.99105 137.186 5.99105C137.289 5.99105 137.392 5.96532 137.495 5.91387C137.572 5.86242 137.996 5.81097 138.768 5.75952C139.771 5.68234 140.402 5.63089 140.659 5.60516C141.122 5.55371 141.624 5.52798 142.164 5.52798C142.73 5.52798 143.18 5.50226 143.515 5.45081Z" fill="#EEF5FF"/>
  <path d="M112.679 0.62735C112.911 0.601624 114.403 0.575898 117.156 0.550171C119.42 0.550171 120.719 0.575897 121.053 0.62735C121.413 0.653075 121.722 0.768842 121.979 0.974649C122.417 1.33481 122.622 1.81074 122.597 2.40243C122.597 2.99413 122.391 3.49578 121.979 3.9074C121.722 4.13893 121.413 4.28042 121.053 4.33188C120.719 4.38333 120.088 4.39619 119.162 4.37046C118.005 4.34474 116.821 4.3576 115.612 4.40905C114.403 4.43478 113.76 4.47337 113.683 4.52482C113.605 4.602 113.567 5.07792 113.567 5.9526C113.567 6.80156 113.605 7.25176 113.683 7.30321C113.837 7.45757 115.599 7.53475 118.969 7.53475C120.487 7.53475 121.388 7.56047 121.671 7.61192C122.314 7.6891 122.802 7.99781 123.137 8.53806C123.497 9.05257 123.561 9.57995 123.33 10.1202C123.047 10.7376 122.635 11.1235 122.095 11.2779C121.555 11.4322 120.461 11.4837 118.815 11.4322C117.529 11.3808 116.088 11.3422 114.493 11.3164C113.618 11.2907 112.962 11.265 112.525 11.2393C112.113 11.2135 111.689 11.1235 111.252 10.9691C110.814 10.7891 110.518 10.609 110.364 10.4289C110.235 10.2488 110.107 9.90153 109.978 9.38701C109.849 8.87249 109.772 8.35797 109.747 7.84346C109.747 7.30321 109.747 6.50571 109.747 5.45095C109.747 4.13893 109.798 3.23853 109.901 2.74973C110.004 2.23522 110.223 1.81074 110.557 1.4763C110.814 1.21905 111.071 1.03896 111.329 0.936061C111.586 0.833157 112.036 0.730253 112.679 0.62735ZM120.359 13.6704C122.931 13.5675 124.475 13.5803 124.989 13.709C125.684 13.9405 126.108 14.4164 126.263 15.1367C126.417 15.8313 126.224 16.4102 125.684 16.8732C125.349 17.1562 124.925 17.3234 124.41 17.3749C123.896 17.4006 122.108 17.4392 119.046 17.4907C115.419 17.5164 112.589 17.5678 110.557 17.645C108.936 17.7222 107.907 17.7608 107.47 17.7608C107.058 17.7351 106.711 17.6321 106.428 17.4521C106.016 17.1948 105.733 16.8218 105.579 16.333C105.45 15.8185 105.515 15.4069 105.772 15.0982C105.849 15.021 105.888 14.9567 105.888 14.9052C105.888 14.828 105.978 14.7123 106.158 14.5579C106.364 14.4036 106.557 14.2878 106.737 14.2106C107.02 14.082 107.547 13.9919 108.319 13.9405C109.091 13.889 110.853 13.8504 113.605 13.8247C116.95 13.7733 119.201 13.7218 120.359 13.6704ZM109.785 19.3815C109.862 19.2529 110.145 19.2657 110.634 19.4201C111.123 19.5745 111.457 19.7545 111.637 19.9603C111.869 20.2433 111.998 20.5263 112.023 20.8093C112.075 21.0666 112.113 21.9284 112.139 23.3947C112.139 25.1698 112.178 26.0831 112.255 26.1345C112.332 26.186 113.94 26.1989 117.078 26.1731C117.259 26.1731 117.529 26.1731 117.889 26.1731C120.05 26.1474 121.323 26.1603 121.709 26.2117C122.095 26.2632 122.404 26.4304 122.635 26.7134C122.661 26.7391 122.687 26.7648 122.712 26.7906C123.175 27.3823 123.278 27.9868 123.021 28.6042C122.79 29.2474 122.301 29.659 121.555 29.8391C121.323 29.8905 119.574 29.942 116.307 29.9934C113.065 30.0706 111.226 30.0835 110.788 30.032C110.325 29.9806 109.888 29.8262 109.476 29.569C109.065 29.3117 108.782 29.003 108.628 28.6428C108.473 28.2569 108.357 26.9063 108.28 24.591C108.203 22.2757 108.242 20.9894 108.396 20.7321C108.473 20.5778 108.512 20.462 108.512 20.3848C108.512 20.3076 108.64 20.1533 108.898 19.9218C109.181 19.6645 109.386 19.523 109.515 19.4973C109.669 19.4715 109.759 19.433 109.785 19.3815Z" fill="#EEF5FF"/>
  <path d="M92.59 3.36712C93.5934 3.31567 94.1079 3.27708 94.1336 3.25136C94.1593 3.22563 94.9697 3.21277 96.5647 3.21277C98.4427 3.21277 99.6647 3.30281 100.231 3.48289C100.822 3.63725 101.298 4.02313 101.658 4.64055C101.813 4.94927 101.89 5.9783 101.89 7.72766C101.916 9.47702 101.838 11.3293 101.658 13.2844C101.607 14.2106 101.363 14.8923 100.925 15.3297C100.514 15.7413 99.8576 16.0114 98.9572 16.14C98.3398 16.1915 97.9539 16.2429 97.7995 16.2944C97.6966 16.3201 97.6323 16.423 97.6066 16.6031C97.6066 16.7832 97.6066 17.4134 97.6066 18.4939C97.6066 19.8317 97.5937 21.0151 97.568 22.0441C97.5423 22.9702 97.5551 23.4719 97.6066 23.5491C97.658 23.6262 98.0825 23.6777 98.88 23.7034C99.7032 23.7291 100.526 23.7163 101.35 23.6648C103.151 23.5619 104.244 23.5362 104.63 23.5877C105.016 23.6134 105.376 23.7677 105.71 24.0507C106.636 24.9254 106.636 25.8258 105.71 26.7519C105.402 27.0607 105.003 27.2407 104.514 27.2922C104.025 27.3694 102.43 27.4208 99.729 27.4465C96.5904 27.5237 95.0083 27.5623 94.9825 27.5623C94.8796 27.6395 93.439 27.6652 90.6606 27.6395C87.8822 27.6138 86.4158 27.5752 86.2615 27.5237C85.6183 27.2407 85.2196 26.7777 85.0652 26.1345C84.9109 25.4656 85.0781 24.9125 85.5669 24.4752C85.8756 24.1922 86.1972 24.0121 86.5316 23.935C86.8918 23.8578 87.6378 23.8321 88.7698 23.8578C91.651 23.8835 93.2332 23.8063 93.5162 23.6262C93.6191 23.5748 93.6705 23.4333 93.6705 23.2018C93.6963 22.9445 93.6963 22.0956 93.6705 20.6549C93.6705 18.7255 93.6834 17.5035 93.7091 16.989C93.7606 16.5259 93.7477 16.2558 93.6705 16.1786C93.6191 16.0757 93.4261 16.0243 93.0917 16.0243C90.8278 16.0243 89.5287 15.0595 89.1942 13.1301C89.0913 12.6413 89.0399 11.3293 89.0399 9.19403C89.0399 7.03306 89.0785 5.79822 89.1556 5.48951C89.3872 4.66628 89.7216 4.12604 90.1589 3.86878C90.5963 3.58579 91.4067 3.41858 92.59 3.36712ZM97.9925 7.18742C97.8638 7.03306 97.0406 6.96875 95.5228 6.99447C94.005 6.99447 93.1689 7.07165 93.0145 7.22601C92.9631 7.27746 92.9116 7.88201 92.8602 9.03968C92.8344 10.1973 92.8473 11.0077 92.8988 11.4708C92.9245 11.7538 93.0402 11.921 93.2461 11.9724C93.4519 12.0239 94.1465 12.0753 95.3298 12.1268C96.539 12.1782 97.2464 12.1911 97.4522 12.1654C97.658 12.1396 97.7995 12.0496 97.8767 11.8953C97.9539 11.7152 98.0053 10.9048 98.0311 9.46416C98.0568 8.02351 98.0439 7.26459 97.9925 7.18742Z" fill="#EE9B00"/>
  <path d="M69.6453 4.21608C69.9026 4.036 70.2885 3.99742 70.803 4.10032C71.3175 4.20322 71.6905 4.39617 71.9221 4.67915C71.9478 4.67915 71.9606 4.69201 71.9606 4.71774C72.1922 4.975 72.3208 5.4252 72.3465 6.06835C72.398 6.68577 72.4108 8.73097 72.3851 12.204C72.3851 12.3583 72.3851 12.487 72.3851 12.5899C72.3337 17.452 72.3208 20.5391 72.3465 21.8512C72.3465 23.5233 72.3208 24.5138 72.2694 24.8225C72.1664 25.4399 71.8963 25.9159 71.459 26.2503C71.0216 26.559 70.5457 26.6619 70.0312 26.559C69.5167 26.4561 69.1051 26.1474 68.7964 25.6329C68.6163 25.3756 68.5262 21.9798 68.5262 15.4454C68.5262 8.91106 68.6034 5.48952 68.7578 5.18081C68.9379 4.79492 69.2337 4.47334 69.6453 4.21608ZM57.2969 4.83351C58.1716 4.67915 59.1492 4.80778 60.2296 5.21939C61.3359 5.60528 62.1977 6.14553 62.8151 6.84012C63.4582 7.53472 63.8313 8.49944 63.9342 9.73428C64.0628 10.9691 63.8956 12.0753 63.4325 13.0529C63.0724 13.799 62.6607 14.3907 62.1977 14.828C61.7346 15.2653 61.1301 15.6384 60.384 15.9471C59.2521 16.4101 57.9658 16.4359 56.5251 16.0243C55.0845 15.5869 53.9911 14.8666 53.2451 13.8633C52.6534 13.0915 52.3318 12.204 52.2804 11.2007C52.2289 10.1973 52.3961 9.27122 52.782 8.42226C53.1936 7.54758 53.7982 6.77581 54.5957 6.10694C55.3932 5.41234 56.2936 4.98786 57.2969 4.83351ZM59.2263 8.84674C58.4546 8.61521 57.7471 8.70525 57.104 9.11686C56.4608 9.52848 56.1392 10.0944 56.1392 10.8148C56.1392 11.4322 56.4865 11.9081 57.1811 12.2426C57.8757 12.5513 58.5575 12.5513 59.2263 12.2426C59.9209 11.9338 60.2682 11.3421 60.2682 10.4675C60.2682 9.59279 59.9209 9.05255 59.2263 8.84674ZM64.3587 19.1885C64.9761 19.1114 65.4649 19.1242 65.825 19.2271C66.1337 19.3043 66.4296 19.4587 66.7126 19.6902C66.9698 19.9217 67.137 20.2433 67.2142 20.6549C67.3171 21.0408 67.2914 21.3881 67.137 21.6968C66.8541 22.2885 66.391 22.6744 65.7478 22.8545C65.1304 23.0088 63.9084 23.086 62.0819 23.086C60.8985 23.086 59.5608 23.1117 58.0687 23.1632C54.8529 23.3175 53.065 23.3433 52.7048 23.2404C51.9588 23.0346 51.47 22.6101 51.2385 21.9669C51.0326 21.2981 51.187 20.6935 51.7015 20.1533C51.9845 19.8445 52.2932 19.6645 52.6277 19.613C52.9621 19.5616 53.9397 19.5101 55.5604 19.4587C57.4898 19.4329 58.7375 19.3943 59.3035 19.3429C59.9467 19.2914 60.8342 19.2529 61.9661 19.2271C63.201 19.2271 63.9985 19.2143 64.3587 19.1885Z" fill="#EEF5FF"/>
  <path d="M44.1127 0.318603C44.4728 0.215699 44.8458 0.228562 45.2317 0.357191C45.6433 0.460095 45.9521 0.653039 46.1579 0.936025C46.3894 1.21901 46.518 1.48913 46.5438 1.74639C46.5952 2.00365 46.6209 2.68538 46.6209 3.7916C46.6209 5.12934 46.6467 5.8368 46.6981 5.91398C46.7753 5.96543 47.4184 5.99116 48.6275 5.99116C49.6566 6.01688 50.2997 6.06833 50.557 6.14551C50.8142 6.19696 51.0972 6.37704 51.4059 6.68576C51.869 7.17455 52.0491 7.70193 51.9462 8.2679C51.869 8.80814 51.5474 9.23262 50.9815 9.54133C50.8271 9.6185 50.647 9.66996 50.4412 9.69568C50.2354 9.69568 49.6437 9.69568 48.6661 9.69568C48.5375 9.69568 48.3574 9.69568 48.1259 9.69568C47.2769 9.66996 46.7753 9.72141 46.6209 9.85004C46.4923 9.97867 46.4408 10.4546 46.4666 11.2778C46.4923 11.4836 46.5052 11.6508 46.5052 11.7795C46.5309 12.7056 46.5566 13.4645 46.5823 14.0562C46.6595 15.1624 46.3251 15.9342 45.579 16.3715C44.833 16.7832 44.0869 16.6288 43.3409 15.9085C43.3152 15.9085 43.2894 15.8956 43.2637 15.8699C43.0064 15.6126 42.8521 15.201 42.8006 14.635C42.7492 14.0434 42.7363 12.1268 42.7621 8.88532C42.7621 8.65378 42.7621 8.4737 42.7621 8.34508C42.7621 5.12934 42.7749 3.23849 42.8006 2.67252C42.8264 2.10655 42.8907 1.69494 42.9936 1.43768C43.3023 0.794531 43.6753 0.421506 44.1127 0.318603ZM34.7742 1.28332C35.1343 1.23187 35.4688 1.27046 35.7775 1.39909C35.9833 1.47627 36.1762 1.59203 36.3563 1.74639C36.5621 1.90074 36.665 2.01651 36.665 2.09369C36.665 2.17087 36.7036 2.23518 36.7808 2.28663C36.9866 2.46671 37.0509 2.78829 36.9737 3.25135C36.9223 3.71442 36.7422 4.19035 36.4335 4.67914C36.3306 4.83349 36.2663 4.96212 36.2405 5.06503C36.1376 5.21938 36.0347 5.37374 35.9318 5.52809C35.5202 6.19696 35.2887 6.67289 35.2372 6.95588C35.1858 7.21314 35.263 7.45753 35.4688 7.68907C35.7518 8.0235 35.919 8.22931 35.9704 8.30648C36.4592 8.87245 37.2053 9.65709 38.2086 10.6604C38.7231 11.2006 39.0704 11.6123 39.2505 11.8952C39.4306 12.1782 39.5206 12.4741 39.5206 12.7828C39.5206 13.1172 39.392 13.4517 39.1347 13.7861C38.9032 14.1205 38.6331 14.3263 38.3243 14.4035C38.17 14.4292 38.0799 14.4678 38.0542 14.5193C38.0028 14.5707 37.8484 14.5836 37.5911 14.5579C37.3596 14.5321 37.1538 14.4807 36.9737 14.4035C36.665 14.2234 36.3434 14.0048 36.009 13.7475C35.7003 13.4645 35.0829 12.8342 34.1567 11.8567C33.5136 11.2135 33.1534 10.8919 33.0763 10.8919C33.0248 10.8919 32.8447 11.1492 32.536 11.6637C32.1244 12.3326 31.7514 12.9243 31.4169 13.4388C31.0568 14.0048 30.7352 14.3907 30.4522 14.5965C30.1692 14.8023 29.8219 14.9052 29.4103 14.9052C28.5356 14.9052 27.9568 14.5193 27.6738 13.7475C27.3908 12.95 27.5709 12.1911 28.2141 11.4708C28.2655 11.4193 28.2912 11.3679 28.2912 11.3164C28.2912 11.1878 28.78 10.3646 29.7576 8.84673C29.8605 8.66665 29.9634 8.4737 30.0663 8.2679C30.2207 7.98491 30.3236 7.79197 30.375 7.68907C30.4522 7.53471 30.5037 7.44467 30.5294 7.41894C30.5809 7.36749 30.6709 7.21314 30.7995 6.95588C31.0311 6.51854 31.1725 6.26128 31.224 6.1841C31.3526 5.95257 31.4427 5.78535 31.4941 5.68245C31.6742 5.37374 31.79 5.16793 31.8414 5.06503C31.9443 4.88494 32.0086 4.75632 32.0344 4.67914C32.0858 4.60196 32.253 4.31898 32.536 3.83018C32.8447 3.31567 33.0248 3.01982 33.0763 2.94264C33.2049 2.58248 33.4493 2.23518 33.8094 1.90074C34.1953 1.54058 34.5169 1.33478 34.7742 1.28332ZM39.9837 17.7993C40.704 17.7222 41.4372 17.7607 42.1832 17.9151C42.389 17.9665 42.6206 18.018 42.8778 18.0695C43.1351 18.1209 43.3409 18.1724 43.4952 18.2238C43.6753 18.301 43.7782 18.3396 43.8039 18.3396C44.0098 18.3396 44.3956 18.5711 44.9616 19.0342C45.5276 19.4972 45.9135 19.896 46.1193 20.2304C46.2736 20.4362 46.428 20.7321 46.5823 21.118C46.7624 21.5039 46.8525 21.7483 46.8525 21.8512C46.8525 21.9283 46.8911 22.0827 46.9682 22.3142C47.2769 23.2661 47.1869 24.4237 46.6981 25.7872C46.2093 27.125 45.5019 28.154 44.5757 28.8743C44.2156 29.1573 43.7525 29.4146 43.1865 29.6461C43.1608 29.6718 42.9807 29.749 42.6463 29.8776C42.5434 29.9291 42.3762 29.9805 42.1446 30.032C41.6301 30.1092 41.3343 30.1606 41.2571 30.1863C40.2538 30.3664 39.0961 30.1735 37.7841 29.6075C36.4721 29.0673 35.6103 28.3984 35.1986 27.6009C35.1986 27.5752 35.1729 27.5237 35.1215 27.4465C35.0957 27.3951 35.07 27.3436 35.0443 27.2922C35.0443 27.2664 35.0314 27.2536 35.0057 27.2536C34.697 26.6876 34.504 26.0831 34.4269 25.4399C34.1696 23.8192 34.5298 22.3014 35.5074 20.8864C36.0219 20.1404 36.7036 19.4715 37.5526 18.8798C38.4272 18.2624 39.2376 17.9022 39.9837 17.7993ZM42.106 21.9283C41.8488 21.8512 41.5015 21.8126 41.0641 21.8126C40.6268 21.8126 40.2795 21.8512 40.0222 21.9283C39.2505 22.1084 38.6845 22.6744 38.3243 23.6262C37.9642 24.5781 38.0285 25.3241 38.5173 25.8644C38.8003 26.1731 39.3276 26.366 40.0994 26.4432C40.8712 26.5204 41.4886 26.4432 41.9517 26.2117C42.5177 25.903 42.9164 25.4399 43.1479 24.8225C43.3795 24.1793 43.3923 23.5748 43.1865 23.0088C43.0064 22.4171 42.6463 22.057 42.106 21.9283Z" fill="#EEF5FF"/>
  <path d="M22.1863 4.56341C22.4435 4.40906 22.778 4.37047 23.1896 4.44765C23.6012 4.4991 23.9356 4.64059 24.1929 4.87212C24.2186 4.89785 24.2444 4.92358 24.2701 4.9493C24.5273 5.18083 24.6688 5.52813 24.6946 5.9912C24.746 6.42854 24.7589 7.89491 24.7332 10.3903C24.7332 10.7505 24.7332 11.0335 24.7332 11.2393C24.7332 14.9953 24.7589 17.6193 24.8103 19.1114C24.9132 21.967 24.9518 23.6777 24.9261 24.2437C24.9004 24.8097 24.7589 25.247 24.5016 25.5557C24.1672 26.0445 23.6784 26.276 23.0352 26.2503C22.3921 26.2246 21.9162 25.9673 21.6075 25.4785C21.4274 25.2213 21.3116 24.8869 21.2602 24.4752C21.2087 24.0379 21.1701 23.0989 21.1444 21.6583C21.1187 20.0118 21.0801 18.6869 21.0286 17.6836C20.9772 16.7317 20.9514 14.6737 20.9514 11.5094C20.9514 8.31939 20.9772 6.5443 21.0286 6.18414C21.183 5.41237 21.5689 4.87212 22.1863 4.56341ZM7.09807 5.95261C7.56113 5.79826 7.81839 5.78539 7.86985 5.91402C7.9213 5.96547 7.99847 5.9912 8.10138 5.9912C8.41009 5.9912 8.7188 6.19701 9.02751 6.60862C9.36195 6.99451 9.5163 7.3804 9.49058 7.76628C9.49058 8.20362 8.78311 9.7729 7.36819 12.4741C7.21384 12.8086 7.16238 13.0658 7.21384 13.2459C7.26529 13.426 7.49682 13.7861 7.90843 14.3264C8.60303 15.2268 9.01465 15.8056 9.14328 16.0629C9.14328 16.0629 9.29763 16.3073 9.60634 16.7961C10.3781 17.9537 10.8412 18.6869 10.9955 18.9956C11.1499 19.3043 11.2271 19.613 11.2271 19.9218C11.2271 20.3848 10.9184 20.8608 10.3009 21.3495C10.2238 21.401 10.1209 21.4396 9.99223 21.4653C9.81215 21.5168 9.67066 21.5682 9.56775 21.6197C9.38767 21.6711 9.13041 21.6454 8.79598 21.5425C8.48727 21.4396 8.21714 21.2724 7.98561 21.0408C7.70263 20.835 7.34246 20.3591 6.90512 19.613C6.31343 18.6097 5.82464 17.8894 5.43875 17.4521C5.31012 17.272 5.19436 17.2077 5.09145 17.2591C5.01427 17.3106 4.87278 17.5293 4.66698 17.9151C4.46117 18.3525 4.33254 18.5969 4.28109 18.6483C4.22964 18.7255 4.17818 18.8027 4.12673 18.8799C3.8952 19.3944 3.59935 19.8446 3.23919 20.2305C2.82758 20.6421 2.37737 20.8608 1.88858 20.8865C1.39979 20.8865 1.00104 20.7321 0.692328 20.4234C0.383618 20.1147 0.164948 19.7288 0.0363189 19.2657C-0.0665846 18.8027 0.0491818 18.301 0.383618 17.7608C0.409344 17.7351 0.885273 16.7832 1.8114 14.9052C2.78899 12.9758 3.38068 11.8181 3.58649 11.4322C4.02383 10.5833 4.33254 10.0044 4.51262 9.69572C4.89851 8.94967 5.16863 8.43516 5.32298 8.15217C5.50307 7.81773 5.65742 7.52189 5.78605 7.26463C5.91468 7.00737 6.10762 6.75011 6.36488 6.49285C6.64787 6.20987 6.89226 6.02979 7.09807 5.95261ZM15.7805 6.6858C16.2179 6.40281 16.7195 6.40281 17.2855 6.6858C17.8515 6.94306 18.2116 7.35467 18.366 7.92064C18.4432 8.22935 18.456 10.7119 18.4046 15.3683C18.3789 19.9989 18.3145 22.3914 18.2116 22.5458C18.1345 22.7259 17.993 22.9188 17.7872 23.1246C17.5814 23.3047 17.4141 23.3947 17.2855 23.3947C17.2083 23.3947 17.1183 23.4333 17.0154 23.5105C16.7581 23.6906 16.398 23.6649 15.9349 23.4333C15.4718 23.1761 15.1245 22.8288 14.893 22.3914C14.6872 21.9798 14.61 20.6164 14.6615 18.301C14.6615 18.1209 14.6615 17.8894 14.6615 17.6064C14.7129 16.7317 14.6615 16.2301 14.5071 16.1015C14.3785 15.9471 13.9154 15.8571 13.1179 15.8313C12.8349 15.8313 12.6163 15.8313 12.4619 15.8313C11.5358 15.8056 10.9698 15.7799 10.764 15.7542C10.5839 15.7284 10.4038 15.6513 10.2238 15.5226C9.7607 15.2139 9.49057 14.7766 9.4134 14.2106C9.33622 13.6446 9.47771 13.1687 9.83787 12.7828C10.1209 12.4484 10.4553 12.2426 10.8412 12.1654C11.2528 12.0625 11.9988 12.0111 13.0793 12.0111C14.1084 12.0111 14.6486 11.9725 14.7001 11.8953C14.7772 11.8181 14.7901 11.175 14.7387 9.96585C14.7129 8.83391 14.7515 8.07499 14.8544 7.68911C14.983 7.30322 15.2918 6.96878 15.7805 6.6858Z" fill="#EE9B00"/>
</svg>
